<?xml version="1.0" encoding="UTF-8" standalone="no"?>
<!DOCTYPE svg PUBLIC "-//W3C//DTD SVG 1.1//EN" "http://www.w3.org/Graphics/SVG/1.1/DTD/svg11.dtd">
<svg width="100%" height="100%" viewBox="0 0 43 42" version="1.1" xmlns="http://www.w3.org/2000/svg" xmlns:xlink="http://www.w3.org/1999/xlink" xml:space="preserve" style="fill-rule:evenodd;clip-rule:evenodd;stroke-linecap:round;stroke-linejoin:round;stroke-miterlimit:1.5;">
    <g id="Artboard1" transform="matrix(0.76844,0,0,0.797573,-0.180555,-0.0716614)">
        <rect x="0.235" y="0.09" width="54.696" height="52.66" style="fill:none;"/>
        <clipPath id="_clip1">
            <rect x="0.235" y="0.09" width="54.696" height="52.66"/>
        </clipPath>
        <g clip-path="url(#_clip1)">
            <g transform="matrix(1.12956,0,0,1.0883,-1868.62,-10330.8)">
                <path d="M1678.95,9492.84L1679.1,9492.84L1679.26,9492.85L1679.41,9492.85L1679.57,9492.85L1679.73,9492.86L1679.88,9492.87L1680.03,9492.87L1680.19,9492.88L1680.34,9492.89L1680.5,9492.9L1680.65,9492.91L1680.8,9492.92L1680.96,9492.94L1681.11,9492.95L1681.26,9492.97L1681.41,9492.98L1681.57,9493L1681.72,9493.02L1681.87,9493.04L1682.02,9493.06L1682.17,9493.08L1682.32,9493.1L1682.47,9493.12L1682.62,9493.14L1682.77,9493.17L1682.92,9493.19L1683.07,9493.22L1683.22,9493.25L1683.37,9493.27L1683.52,9493.3L1683.66,9493.33L1683.81,9493.36L1683.96,9493.4L1684.11,9493.43L1684.25,9493.46L1684.4,9493.5L1684.54,9493.53L1684.69,9493.57L1684.83,9493.6L1684.98,9493.64L1685.12,9493.68L1685.27,9493.72L1685.41,9493.76L1685.55,9493.8L1685.7,9493.84L1685.84,9493.89L1685.98,9493.93L1686.12,9493.98L1686.27,9494.02L1686.41,9494.07L1686.55,9494.11L1686.69,9494.16L1686.83,9494.21L1686.97,9494.26L1687.11,9494.31L1687.24,9494.36L1687.38,9494.41L1687.52,9494.47L1687.66,9494.52L1687.8,9494.58L1687.93,9494.63L1688.07,9494.69L1688.2,9494.74L1688.34,9494.8L1688.47,9494.86L1688.61,9494.92L1688.74,9494.98L1688.88,9495.04L1689.01,9495.1L1689.14,9495.17L1689.28,9495.23L1689.41,9495.29L1689.54,9495.36L1689.67,9495.42L1689.8,9495.49L1689.93,9495.56L1690.06,9495.62L1690.19,9495.69L1690.32,9495.76L1690.45,9495.83L1690.57,9495.91L1690.7,9495.98L1690.83,9496.05L1690.95,9496.12L1691.08,9496.2L1691.21,9496.27L1691.33,9496.35L1691.46,9496.42L1691.58,9496.5L1691.7,9496.58L1691.83,9496.66L1691.95,9496.73L1692.07,9496.81L1692.19,9496.9L1692.31,9496.98L1692.43,9497.06L1692.55,9497.14L1692.67,9497.22L1692.79,9497.31L1692.91,9497.39L1693.03,9497.48L1693.14,9497.56L1693.26,9497.65L1693.38,9497.74L1693.49,9497.83L1693.61,9497.92L1693.72,9498L1693.84,9498.09L1693.95,9498.18L1694.06,9498.28L1694.18,9498.37L1694.29,9498.46L1694.4,9498.56L1694.51,9498.65L1694.62,9498.74L1694.73,9498.84L1694.84,9498.94L1694.95,9499.03L1695.05,9499.13L1695.16,9499.23L1695.27,9499.33L1695.37,9499.43L1695.48,9499.52L1695.58,9499.63L1695.69,9499.73L1695.79,9499.83L1695.89,9499.93L1696,9500.03L1696.1,9500.14L1696.2,9500.24L1696.3,9500.35L1696.4,9500.45L1696.5,9500.56L1696.6,9500.66L1696.7,9500.77L1696.79,9500.88L1696.89,9500.99L1696.99,9501.1L1697.08,9501.21L1697.18,9501.32L1697.27,9501.43L1697.36,9501.54L1697.46,9501.65L1697.55,9501.76L1697.64,9501.88L1697.73,9501.99L1697.82,9502.1L1697.91,9502.22L1698,9502.33L1698.09,9502.45L1698.17,9502.56L1698.26,9502.68L1698.35,9502.8L1698.43,9502.92L1698.52,9503.03L1698.6,9503.15L1698.68,9503.27L1698.77,9503.39L1698.85,9503.51L1698.93,9503.63L1699.01,9503.76L1699.09,9503.88L1699.17,9504L1699.25,9504.12L1699.33,9504.25L1699.4,9504.37L1699.48,9504.49L1699.56,9504.62L1699.63,9504.74L1699.7,9504.87L1699.78,9505L1699.85,9505.12L1699.92,9505.25L1699.99,9505.38L1700.06,9505.51L1700.13,9505.64L1700.2,9505.76L1700.27,9505.9L1700.34,9506.02L1700.4,9506.16L1700.47,9506.29L1700.53,9506.42L1700.6,9506.55L1700.66,9506.68L1700.72,9506.82L1700.78,9506.95L1700.85,9507.08L1700.9,9507.22L1700.97,9507.35L1701.02,9507.49L1701.08,9507.62L1701.14,9507.76L1701.19,9507.89L1701.25,9508.03L1701.31,9508.17L1701.36,9508.31L1701.41,9508.44L1701.46,9508.58L1701.52,9508.72L1701.57,9508.86L1701.62,9509L1701.66,9509.14L1701.71,9509.28L1701.76,9509.42L1701.81,9509.56L1701.85,9509.7L1701.89,9509.84L1701.94,9509.99L1701.98,9510.13L1702.02,9510.27L1702.07,9510.42L1702.11,9510.56L1702.14,9510.7L1702.18,9510.85L1702.22,9510.99L1702.26,9511.14L1702.29,9511.28L1702.33,9511.43L1702.36,9511.57L1702.4,9511.72L1702.43,9511.87L1702.46,9512.01L1702.49,9512.16L1702.52,9512.31L1702.55,9512.46L1702.58,9512.61L1702.61,9512.76L1702.63,9512.9L1702.66,9513.05L1702.68,9513.2L1702.7,9513.35L1702.73,9513.5L1702.75,9513.65L1702.77,9513.8L1702.79,9513.96L1702.81,9514.11L1702.83,9514.26L1702.84,9514.41L1702.86,9514.56L1702.87,9514.72L1702.89,9514.87L1702.9,9515.02L1702.91,9515.18L1702.92,9515.33L1702.93,9515.48L1702.94,9515.64L1702.95,9515.79L1702.96,9515.95L1702.97,9516.1L1702.97,9516.26L1702.98,9516.41L1702.98,9516.57L1702.98,9516.72L1702.98,9516.88L1702.98,9517.03L1702.98,9517.19L1702.98,9517.35L1702.98,9517.5L1702.98,9517.66L1702.97,9517.82L1702.97,9517.97L1702.96,9518.12L1702.95,9518.28L1702.94,9518.43L1702.93,9518.59L1702.92,9518.74L1702.91,9518.9L1702.9,9519.05L1702.89,9519.2L1702.87,9519.35L1702.86,9519.51L1702.84,9519.66L1702.83,9519.81L1702.81,9519.96L1702.79,9520.11L1702.77,9520.27L1702.75,9520.42L1702.73,9520.57L1702.7,9520.72L1702.68,9520.87L1702.66,9521.02L1702.63,9521.17L1702.61,9521.32L1702.58,9521.46L1702.55,9521.61L1702.52,9521.76L1702.49,9521.91L1702.46,9522.06L1702.43,9522.2L1702.4,9522.35L1702.36,9522.5L1702.33,9522.64L1702.29,9522.79L1702.26,9522.93L1702.22,9523.08L1702.18,9523.22L1702.14,9523.37L1702.11,9523.51L1702.07,9523.66L1702.02,9523.8L1701.98,9523.94L1701.94,9524.08L1701.89,9524.23L1701.85,9524.37L1701.81,9524.51L1701.76,9524.65L1701.71,9524.79L1701.66,9524.93L1701.62,9525.07L1701.57,9525.21L1701.52,9525.35L1701.46,9525.49L1701.41,9525.63L1701.36,9525.76L1701.31,9525.9L1701.25,9526.04L1701.19,9526.18L1701.14,9526.31L1701.08,9526.45L1701.02,9526.58L1700.97,9526.72L1700.9,9526.85L1700.85,9526.99L1700.78,9527.12L1700.72,9527.26L1700.66,9527.39L1700.6,9527.52L1700.53,9527.65L1700.47,9527.78L1700.4,9527.92L1700.34,9528.05L1700.27,9528.18L1700.2,9528.31L1700.13,9528.43L1700.06,9528.56L1699.99,9528.69L1699.92,9528.82L1699.85,9528.95L1699.78,9529.07L1699.7,9529.2L1699.63,9529.33L1699.56,9529.45L1699.48,9529.58L1699.4,9529.7L1699.33,9529.83L1699.25,9529.95L1699.17,9530.07L1699.09,9530.19L1699.01,9530.32L1698.93,9530.44L1698.85,9530.56L1698.77,9530.68L1698.68,9530.8L1698.6,9530.92L1698.52,9531.04L1698.43,9531.16L1698.35,9531.27L1698.26,9531.39L1698.17,9531.51L1698.09,9531.62L1698,9531.74L1697.91,9531.85L1697.82,9531.97L1697.73,9532.08L1697.64,9532.2L1697.55,9532.31L1697.46,9532.42L1697.36,9532.53L1697.27,9532.64L1697.18,9532.75L1697.08,9532.86L1696.99,9532.97L1696.89,9533.08L1696.79,9533.19L1696.7,9533.3L1696.6,9533.41L1696.5,9533.51L1696.4,9533.62L1696.3,9533.72L1696.2,9533.83L1696.1,9533.93L1696,9534.04L1695.89,9534.14L1695.79,9534.24L1695.69,9534.34L1695.58,9534.44L1695.48,9534.55L1695.37,9534.65L1695.27,9534.74L1695.16,9534.84L1695.05,9534.94L1694.95,9535.04L1694.84,9535.14L1694.73,9535.23L1694.62,9535.33L1694.51,9535.42L1694.4,9535.51L1694.29,9535.61L1694.18,9535.7L1694.06,9535.79L1693.95,9535.89L1693.84,9535.98L1693.72,9536.07L1693.61,9536.16L1693.49,9536.24L1693.38,9536.33L1693.26,9536.42L1693.14,9536.51L1693.03,9536.59L1692.91,9536.68L1692.79,9536.76L1692.67,9536.85L1692.55,9536.93L1692.43,9537.01L1692.31,9537.09L1692.19,9537.18L1692.07,9537.26L1691.95,9537.34L1691.83,9537.42L1691.7,9537.49L1691.58,9537.57L1691.46,9537.65L1691.33,9537.72L1691.21,9537.8L1691.08,9537.87L1690.95,9537.95L1690.83,9538.02L1690.7,9538.09L1690.57,9538.17L1690.45,9538.24L1690.32,9538.31L1690.19,9538.38L1690.06,9538.44L1689.93,9538.51L1689.8,9538.58L1689.67,9538.65L1689.54,9538.71L1689.41,9538.78L1689.28,9538.84L1689.14,9538.91L1689.01,9538.97L1688.88,9539.03L1688.74,9539.09L1688.61,9539.15L1688.47,9539.21L1688.34,9539.27L1688.2,9539.33L1688.07,9539.38L1687.93,9539.44L1687.8,9539.5L1687.66,9539.55L1687.52,9539.6L1687.38,9539.66L1687.24,9539.71L1687.11,9539.76L1686.97,9539.81L1686.83,9539.86L1686.69,9539.91L1686.55,9539.96L1686.41,9540L1686.27,9540.05L1686.12,9540.1L1685.98,9540.14L1685.84,9540.18L1685.7,9540.23L1685.55,9540.27L1685.41,9540.31L1685.27,9540.35L1685.12,9540.39L1684.98,9540.43L1684.83,9540.47L1684.69,9540.5L1684.54,9540.54L1684.4,9540.58L1684.25,9540.61L1684.11,9540.64L1683.96,9540.68L1683.81,9540.71L1683.66,9540.74L1683.52,9540.77L1683.37,9540.8L1683.22,9540.82L1683.07,9540.85L1682.92,9540.88L1682.77,9540.9L1682.62,9540.93L1682.47,9540.95L1682.32,9540.97L1682.17,9540.99L1682.02,9541.01L1681.87,9541.03L1681.72,9541.05L1681.57,9541.07L1681.41,9541.09L1681.26,9541.1L1681.11,9541.12L1680.96,9541.13L1680.8,9541.15L1680.65,9541.16L1680.5,9541.17L1680.34,9541.18L1680.19,9541.19L1680.03,9541.2L1679.88,9541.2L1679.73,9541.21L1679.57,9541.22L1679.41,9541.22L1679.26,9541.22L1679.1,9541.23L1678.95,9541.23L1678.79,9541.23L1678.63,9541.23L1678.48,9541.23L1678.32,9541.22L1678.17,9541.22L1678.01,9541.22L1677.86,9541.21L1677.7,9541.2L1677.55,9541.2L1677.39,9541.19L1677.24,9541.18L1677.08,9541.17L1676.93,9541.16L1676.78,9541.15L1676.62,9541.13L1676.47,9541.12L1676.32,9541.1L1676.17,9541.09L1676.01,9541.07L1675.86,9541.05L1675.71,9541.03L1675.56,9541.01L1675.41,9540.99L1675.26,9540.97L1675.11,9540.95L1674.96,9540.93L1674.81,9540.9L1674.66,9540.88L1674.51,9540.85L1674.36,9540.82L1674.21,9540.8L1674.07,9540.77L1673.92,9540.74L1673.77,9540.71L1673.62,9540.68L1673.48,9540.64L1673.33,9540.61L1673.18,9540.58L1673.04,9540.54L1672.89,9540.5L1672.75,9540.47L1672.6,9540.43L1672.46,9540.39L1672.31,9540.35L1672.17,9540.31L1672.03,9540.27L1671.88,9540.23L1671.74,9540.18L1671.6,9540.14L1671.46,9540.1L1671.32,9540.05L1671.17,9540L1671.03,9539.96L1670.89,9539.91L1670.75,9539.86L1670.61,9539.81L1670.48,9539.76L1670.34,9539.71L1670.2,9539.66L1670.06,9539.6L1669.92,9539.55L1669.79,9539.5L1669.65,9539.44L1669.51,9539.38L1669.38,9539.33L1669.24,9539.27L1669.11,9539.21L1668.97,9539.15L1668.84,9539.09L1668.7,9539.03L1668.57,9538.97L1668.44,9538.91L1668.31,9538.84L1668.17,9538.78L1668.04,9538.71L1667.91,9538.65L1667.78,9538.58L1667.65,9538.51L1667.52,9538.44L1667.39,9538.38L1667.26,9538.31L1667.13,9538.24L1667.01,9538.17L1666.88,9538.09L1666.75,9538.02L1666.62,9537.95L1666.5,9537.87L1666.37,9537.8L1666.25,9537.72L1666.12,9537.65L1666,9537.57L1665.88,9537.49L1665.75,9537.42L1665.63,9537.34L1665.51,9537.26L1665.39,9537.18L1665.27,9537.09L1665.15,9537.01L1665.03,9536.93L1664.91,9536.85L1664.79,9536.76L1664.67,9536.68L1664.55,9536.59L1664.43,9536.51L1664.32,9536.42L1664.2,9536.33L1664.09,9536.24L1663.97,9536.16L1663.86,9536.07L1663.74,9535.98L1663.63,9535.89L1663.52,9535.79L1663.4,9535.7L1663.29,9535.61L1663.18,9535.51L1663.07,9535.42L1662.96,9535.33L1662.85,9535.23L1662.74,9535.14L1662.63,9535.04L1662.53,9534.94L1662.42,9534.84L1662.31,9534.74L1662.21,9534.65L1662.1,9534.55L1662,9534.44L1661.89,9534.34L1661.79,9534.24L1661.69,9534.14L1661.58,9534.04L1661.48,9533.93L1661.38,9533.83L1661.28,9533.72L1661.18,9533.62L1661.08,9533.51L1660.98,9533.41L1660.88,9533.3L1660.79,9533.19L1660.69,9533.08L1660.6,9532.97L1660.5,9532.86L1660.4,9532.75L1660.31,9532.64L1660.22,9532.53L1660.12,9532.42L1660.03,9532.31L1659.94,9532.2L1659.85,9532.08L1659.76,9531.97L1659.67,9531.85L1659.58,9531.74L1659.49,9531.62L1659.41,9531.51L1659.32,9531.39L1659.23,9531.27L1659.15,9531.16L1659.06,9531.04L1658.98,9530.92L1658.89,9530.8L1658.81,9530.68L1658.73,9530.56L1658.65,9530.44L1658.57,9530.32L1658.49,9530.19L1658.41,9530.07L1658.33,9529.95L1658.25,9529.83L1658.18,9529.7L1658.1,9529.58L1658.03,9529.45L1657.95,9529.33L1657.88,9529.2L1657.8,9529.07L1657.73,9528.95L1657.66,9528.82L1657.59,9528.69L1657.52,9528.56L1657.45,9528.43L1657.38,9528.31L1657.31,9528.18L1657.25,9528.05L1657.18,9527.92L1657.11,9527.78L1657.05,9527.65L1656.98,9527.52L1656.92,9527.39L1656.86,9527.26L1656.8,9527.12L1656.74,9526.99L1656.67,9526.85L1656.62,9526.72L1656.56,9526.58L1656.5,9526.45L1656.44,9526.31L1656.39,9526.18L1656.33,9526.04L1656.28,9525.9L1656.22,9525.76L1656.17,9525.63L1656.12,9525.49L1656.07,9525.35L1656.02,9525.21L1655.97,9525.07L1655.92,9524.93L1655.87,9524.79L1655.82,9524.65L1655.78,9524.51L1655.73,9524.37L1655.68,9524.23L1655.64,9524.08L1655.6,9523.94L1655.56,9523.8L1655.52,9523.66L1655.48,9523.51L1655.43,9523.37L1655.4,9523.22L1655.36,9523.08L1655.32,9522.93L1655.29,9522.79L1655.25,9522.64L1655.22,9522.5L1655.18,9522.35L1655.15,9522.2L1655.12,9522.06L1655.09,9521.91L1655.06,9521.76L1655.03,9521.61L1655,9521.46L1654.98,9521.32L1654.95,9521.17L1654.92,9521.02L1654.9,9520.87L1654.88,9520.72L1654.85,9520.57L1654.83,9520.42L1654.81,9520.27L1654.79,9520.11L1654.77,9519.96L1654.75,9519.81L1654.74,9519.66L1654.72,9519.51L1654.71,9519.35L1654.69,9519.2L1654.68,9519.05L1654.67,9518.9L1654.66,9518.74L1654.65,9518.59L1654.64,9518.43L1654.63,9518.28L1654.62,9518.12L1654.61,9517.97L1654.61,9517.82L1654.6,9517.66L1654.6,9517.5L1654.6,9517.35L1654.6,9517.19L1654.6,9517.03L1654.6,9516.88L1654.6,9516.72L1654.6,9516.57L1654.6,9516.41L1654.61,9516.26L1654.61,9516.1L1654.62,9515.95L1654.63,9515.79L1654.64,9515.64L1654.65,9515.48L1654.66,9515.33L1654.67,9515.18L1654.68,9515.02L1654.69,9514.87L1654.71,9514.72L1654.72,9514.56L1654.74,9514.41L1654.75,9514.26L1654.77,9514.11L1654.79,9513.96L1654.81,9513.8L1654.83,9513.65L1654.85,9513.5L1654.88,9513.35L1654.9,9513.2L1654.92,9513.05L1654.95,9512.9L1654.98,9512.76L1655,9512.61L1655.03,9512.46L1655.06,9512.31L1655.09,9512.16L1655.12,9512.01L1655.15,9511.87L1655.18,9511.72L1655.22,9511.57L1655.25,9511.43L1655.29,9511.28L1655.32,9511.14L1655.36,9510.99L1655.4,9510.85L1655.43,9510.7L1655.48,9510.56L1655.52,9510.42L1655.56,9510.27L1655.6,9510.13L1655.64,9509.99L1655.68,9509.84L1655.73,9509.7L1655.78,9509.56L1655.82,9509.42L1655.87,9509.28L1655.92,9509.14L1655.97,9509L1656.02,9508.86L1656.07,9508.72L1656.12,9508.58L1656.17,9508.44L1656.22,9508.31L1656.28,9508.17L1656.33,9508.03L1656.39,9507.89L1656.44,9507.76L1656.5,9507.62L1656.56,9507.49L1656.62,9507.35L1656.67,9507.22L1656.74,9507.08L1656.8,9506.95L1656.86,9506.82L1656.92,9506.68L1656.98,9506.55L1657.05,9506.42L1657.11,9506.29L1657.18,9506.16L1657.25,9506.02L1657.31,9505.9L1657.38,9505.76L1657.45,9505.64L1657.52,9505.51L1657.59,9505.38L1657.66,9505.25L1657.73,9505.12L1657.8,9505L1657.88,9504.87L1657.95,9504.74L1658.03,9504.62L1658.1,9504.49L1658.18,9504.37L1658.25,9504.25L1658.33,9504.12L1658.41,9504L1658.49,9503.88L1658.57,9503.76L1658.65,9503.63L1658.73,9503.51L1658.81,9503.39L1658.89,9503.27L1658.98,9503.15L1659.06,9503.03L1659.15,9502.92L1659.23,9502.8L1659.32,9502.68L1659.41,9502.56L1659.49,9502.45L1659.58,9502.33L1659.67,9502.22L1659.76,9502.1L1659.85,9501.99L1659.94,9501.88L1660.03,9501.76L1660.12,9501.65L1660.22,9501.54L1660.31,9501.43L1660.4,9501.32L1660.5,9501.21L1660.6,9501.1L1660.69,9500.99L1660.79,9500.88L1660.88,9500.77L1660.98,9500.66L1661.08,9500.56L1661.18,9500.45L1661.28,9500.35L1661.38,9500.24L1661.48,9500.14L1661.58,9500.03L1661.69,9499.93L1661.79,9499.83L1661.89,9499.73L1662,9499.63L1662.1,9499.52L1662.21,9499.43L1662.31,9499.33L1662.42,9499.23L1662.53,9499.13L1662.63,9499.03L1662.74,9498.94L1662.85,9498.84L1662.96,9498.74L1663.07,9498.65L1663.18,9498.56L1663.29,9498.46L1663.4,9498.37L1663.52,9498.28L1663.63,9498.18L1663.74,9498.09L1663.86,9498L1663.97,9497.92L1664.09,9497.83L1664.2,9497.74L1664.32,9497.65L1664.43,9497.56L1664.55,9497.48L1664.67,9497.39L1664.79,9497.31L1664.91,9497.22L1665.03,9497.14L1665.15,9497.06L1665.27,9496.98L1665.39,9496.9L1665.51,9496.81L1665.63,9496.73L1665.75,9496.66L1665.88,9496.58L1666,9496.5L1666.12,9496.42L1666.25,9496.35L1666.37,9496.27L1666.5,9496.2L1666.62,9496.12L1666.75,9496.05L1666.88,9495.98L1667.01,9495.91L1667.13,9495.83L1667.26,9495.76L1667.39,9495.69L1667.52,9495.62L1667.65,9495.56L1667.78,9495.49L1667.91,9495.42L1668.04,9495.36L1668.17,9495.29L1668.31,9495.23L1668.44,9495.17L1668.57,9495.1L1668.7,9495.04L1668.84,9494.98L1668.97,9494.92L1669.11,9494.86L1669.24,9494.8L1669.38,9494.74L1669.51,9494.69L1669.65,9494.63L1669.79,9494.58L1669.92,9494.52L1670.06,9494.47L1670.2,9494.41L1670.34,9494.36L1670.48,9494.31L1670.61,9494.26L1670.75,9494.21L1670.89,9494.16L1671.03,9494.11L1671.17,9494.07L1671.32,9494.02L1671.46,9493.98L1671.6,9493.93L1671.74,9493.89L1671.88,9493.84L1672.03,9493.8L1672.17,9493.76L1672.31,9493.72L1672.46,9493.68L1672.6,9493.64L1672.75,9493.6L1672.89,9493.57L1673.04,9493.53L1673.18,9493.5L1673.33,9493.46L1673.48,9493.43L1673.62,9493.4L1673.77,9493.36L1673.92,9493.33L1674.07,9493.3L1674.21,9493.27L1674.36,9493.25L1674.51,9493.22L1674.66,9493.19L1674.81,9493.17L1674.96,9493.14L1675.11,9493.12L1675.26,9493.1L1675.41,9493.08L1675.56,9493.06L1675.71,9493.04L1675.86,9493.02L1676.01,9493L1676.17,9492.98L1676.32,9492.97L1676.47,9492.95L1676.62,9492.94L1676.78,9492.92L1676.93,9492.91L1677.08,9492.9L1677.24,9492.89L1677.39,9492.88L1677.55,9492.87L1677.7,9492.87L1677.86,9492.86L1678.01,9492.85L1678.17,9492.85L1678.32,9492.85L1678.48,9492.84L1678.63,9492.84L1678.79,9492.84L1678.95,9492.84ZM1678.64,9493.99L1678.49,9494L1678.34,9494L1678.19,9494L1678.05,9494.01L1677.9,9494.01L1677.75,9494.02L1677.6,9494.02L1677.46,9494.03L1677.31,9494.04L1677.16,9494.05L1677.02,9494.06L1676.87,9494.07L1676.73,9494.09L1676.58,9494.1L1676.43,9494.11L1676.29,9494.13L1676.14,9494.14L1676,9494.16L1675.86,9494.18L1675.71,9494.2L1675.57,9494.22L1675.42,9494.24L1675.28,9494.26L1675.14,9494.28L1675,9494.31L1674.86,9494.33L1674.71,9494.35L1674.57,9494.38L1674.43,9494.41L1674.29,9494.43L1674.15,9494.46L1674.01,9494.49L1673.87,9494.52L1673.73,9494.55L1673.59,9494.58L1673.45,9494.62L1673.31,9494.65L1673.17,9494.68L1673.03,9494.72L1672.9,9494.76L1672.76,9494.79L1672.62,9494.83L1672.49,9494.87L1672.35,9494.91L1672.21,9494.95L1672.08,9494.99L1671.94,9495.03L1671.81,9495.07L1671.67,9495.12L1671.54,9495.16L1671.4,9495.2L1671.27,9495.25L1671.14,9495.3L1671,9495.34L1670.87,9495.39L1670.74,9495.44L1670.61,9495.49L1670.48,9495.54L1670.35,9495.59L1670.22,9495.64L1670.09,9495.7L1669.95,9495.75L1669.83,9495.81L1669.7,9495.86L1669.57,9495.92L1669.44,9495.97L1669.31,9496.03L1669.18,9496.09L1669.06,9496.15L1668.93,9496.21L1668.81,9496.27L1668.68,9496.33L1668.56,9496.39L1668.43,9496.45L1668.31,9496.51L1668.18,9496.58L1668.06,9496.64L1667.93,9496.71L1667.81,9496.78L1667.69,9496.84L1667.57,9496.91L1667.45,9496.98L1667.33,9497.05L1667.21,9497.12L1667.09,9497.19L1666.97,9497.26L1666.85,9497.33L1666.73,9497.4L1666.61,9497.48L1666.49,9497.55L1666.38,9497.62L1666.26,9497.7L1666.14,9497.78L1666.03,9497.85L1665.91,9497.93L1665.8,9498.01L1665.68,9498.09L1665.57,9498.17L1665.46,9498.25L1665.34,9498.33L1665.23,9498.41L1665.12,9498.49L1665.01,9498.57L1664.9,9498.66L1664.79,9498.74L1664.68,9498.83L1664.57,9498.91L1664.46,9499L1664.35,9499.08L1664.25,9499.17L1664.14,9499.26L1664.03,9499.35L1663.92,9499.43L1663.82,9499.52L1663.72,9499.61L1663.61,9499.71L1663.51,9499.8L1663.4,9499.89L1663.3,9499.98L1663.2,9500.08L1663.1,9500.17L1663,9500.26L1662.9,9500.36L1662.8,9500.45L1662.7,9500.55L1662.6,9500.65L1662.5,9500.75L1662.4,9500.84L1662.31,9500.94L1662.21,9501.04L1662.11,9501.14L1662.02,9501.24L1661.92,9501.34L1661.83,9501.44L1661.74,9501.55L1661.64,9501.65L1661.55,9501.75L1661.46,9501.86L1661.37,9501.96L1661.28,9502.07L1661.19,9502.17L1661.1,9502.28L1661.01,9502.38L1660.92,9502.49L1660.84,9502.6L1660.75,9502.7L1660.66,9502.81L1660.58,9502.92L1660.5,9503.03L1660.41,9503.14L1660.33,9503.25L1660.25,9503.36L1660.16,9503.48L1660.08,9503.59L1660,9503.7L1659.92,9503.82L1659.84,9503.93L1659.76,9504.04L1659.68,9504.16L1659.61,9504.27L1659.53,9504.39L1659.45,9504.5L1659.38,9504.62L1659.31,9504.74L1659.23,9504.86L1659.16,9504.97L1659.09,9505.09L1659.01,9505.21L1658.94,9505.33L1658.87,9505.45L1658.8,9505.57L1658.73,9505.69L1658.66,9505.81L1658.6,9505.93L1658.53,9506.06L1658.46,9506.18L1658.4,9506.3L1658.33,9506.43L1658.27,9506.55L1658.21,9506.68L1658.14,9506.8L1658.08,9506.93L1658.02,9507.05L1657.96,9507.18L1657.9,9507.3L1657.84,9507.43L1657.79,9507.56L1657.73,9507.68L1657.67,9507.81L1657.62,9507.94L1657.56,9508.07L1657.51,9508.2L1657.45,9508.33L1657.4,9508.46L1657.35,9508.59L1657.3,9508.72L1657.25,9508.85L1657.2,9508.98L1657.15,9509.12L1657.1,9509.25L1657.05,9509.38L1657.01,9509.51L1656.96,9509.65L1656.91,9509.78L1656.87,9509.92L1656.83,9510.05L1656.79,9510.19L1656.74,9510.32L1656.7,9510.46L1656.66,9510.59L1656.62,9510.73L1656.59,9510.87L1656.55,9511L1656.51,9511.14L1656.47,9511.28L1656.44,9511.42L1656.4,9511.56L1656.37,9511.69L1656.34,9511.83L1656.31,9511.97L1656.28,9512.11L1656.25,9512.25L1656.22,9512.39L1656.19,9512.53L1656.16,9512.68L1656.13,9512.82L1656.11,9512.96L1656.08,9513.1L1656.06,9513.24L1656.04,9513.38L1656.01,9513.53L1655.99,9513.67L1655.97,9513.81L1655.95,9513.96L1655.93,9514.1L1655.92,9514.25L1655.9,9514.39L1655.88,9514.53L1655.87,9514.68L1655.85,9514.83L1655.84,9514.97L1655.83,9515.12L1655.82,9515.26L1655.81,9515.41L1655.8,9515.56L1655.79,9515.7L1655.78,9515.85L1655.77,9516L1655.77,9516.14L1655.76,9516.29L1655.76,9516.44L1655.75,9516.59L1655.75,9516.74L1655.75,9516.89L1655.75,9517.03L1655.75,9517.18L1655.75,9517.33L1655.75,9517.48L1655.76,9517.63L1655.76,9517.78L1655.77,9517.93L1655.77,9518.07L1655.78,9518.22L1655.79,9518.37L1655.8,9518.51L1655.81,9518.66L1655.82,9518.81L1655.83,9518.95L1655.84,9519.1L1655.85,9519.25L1655.87,9519.39L1655.88,9519.54L1655.9,9519.68L1655.92,9519.83L1655.93,9519.97L1655.95,9520.11L1655.97,9520.26L1655.99,9520.4L1656.01,9520.54L1656.04,9520.69L1656.06,9520.83L1656.08,9520.97L1656.11,9521.11L1656.13,9521.25L1656.16,9521.4L1656.19,9521.54L1656.22,9521.68L1656.25,9521.82L1656.28,9521.96L1656.31,9522.1L1656.34,9522.24L1656.37,9522.38L1656.4,9522.51L1656.44,9522.65L1656.47,9522.79L1656.51,9522.93L1656.55,9523.07L1656.59,9523.2L1656.62,9523.34L1656.66,9523.48L1656.7,9523.61L1656.74,9523.75L1656.79,9523.88L1656.83,9524.02L1656.87,9524.15L1656.91,9524.29L1656.96,9524.42L1657.01,9524.56L1657.05,9524.69L1657.1,9524.82L1657.15,9524.95L1657.2,9525.09L1657.25,9525.22L1657.3,9525.35L1657.35,9525.48L1657.4,9525.61L1657.45,9525.74L1657.51,9525.87L1657.56,9526L1657.62,9526.13L1657.67,9526.26L1657.73,9526.39L1657.79,9526.51L1657.84,9526.64L1657.9,9526.77L1657.96,9526.89L1658.02,9527.02L1658.08,9527.15L1658.14,9527.27L1658.21,9527.4L1658.27,9527.52L1658.33,9527.64L1658.4,9527.77L1658.46,9527.89L1658.53,9528.01L1658.6,9528.14L1658.66,9528.26L1658.73,9528.38L1658.8,9528.5L1658.87,9528.62L1658.94,9528.74L1659.01,9528.86L1659.09,9528.98L1659.16,9529.1L1659.23,9529.22L1659.31,9529.33L1659.38,9529.45L1659.45,9529.57L1659.53,9529.68L1659.61,9529.8L1659.68,9529.91L1659.76,9530.03L1659.84,9530.14L1659.92,9530.26L1660,9530.37L1660.08,9530.48L1660.16,9530.59L1660.25,9530.7L1660.33,9530.82L1660.41,9530.93L1660.5,9531.04L1660.58,9531.15L1660.66,9531.26L1660.75,9531.36L1660.84,9531.47L1660.92,9531.58L1661.01,9531.69L1661.1,9531.79L1661.19,9531.9L1661.28,9532.01L1661.37,9532.11L1661.46,9532.21L1661.55,9532.32L1661.64,9532.42L1661.74,9532.52L1661.83,9532.63L1661.92,9532.73L1662.02,9532.83L1662.11,9532.93L1662.21,9533.03L1662.31,9533.13L1662.4,9533.23L1662.5,9533.33L1662.6,9533.42L1662.7,9533.52L1662.8,9533.61L1662.9,9533.71L1663,9533.81L1663.1,9533.9L1663.2,9534L1663.3,9534.09L1663.4,9534.18L1663.51,9534.27L1663.61,9534.36L1663.72,9534.45L1663.82,9534.55L1663.92,9534.64L1664.03,9534.72L1664.14,9534.81L1664.25,9534.9L1664.35,9534.99L1664.46,9535.07L1664.57,9535.16L1664.68,9535.25L1664.79,9535.33L1664.9,9535.41L1665.01,9535.5L1665.12,9535.58L1665.23,9535.66L1665.34,9535.74L1665.46,9535.82L1665.57,9535.9L1665.68,9535.98L1665.8,9536.06L1665.91,9536.14L1666.03,9536.22L1666.14,9536.29L1666.26,9536.37L1666.38,9536.44L1666.49,9536.52L1666.61,9536.59L1666.73,9536.67L1666.85,9536.74L1666.97,9536.81L1667.09,9536.88L1667.21,9536.95L1667.33,9537.02L1667.45,9537.09L1667.57,9537.16L1667.69,9537.23L1667.81,9537.3L1667.93,9537.36L1668.06,9537.43L1668.18,9537.49L1668.31,9537.56L1668.43,9537.62L1668.56,9537.68L1668.68,9537.74L1668.81,9537.8L1668.93,9537.86L1669.06,9537.92L1669.18,9537.98L1669.31,9538.04L1669.44,9538.1L1669.57,9538.15L1669.7,9538.21L1669.83,9538.26L1669.95,9538.32L1670.09,9538.37L1670.22,9538.43L1670.35,9538.48L1670.48,9538.53L1670.61,9538.58L1670.74,9538.63L1670.87,9538.68L1671,9538.73L1671.14,9538.77L1671.27,9538.82L1671.4,9538.87L1671.54,9538.91L1671.67,9538.95L1671.81,9539L1671.94,9539.04L1672.08,9539.08L1672.21,9539.12L1672.35,9539.16L1672.49,9539.2L1672.62,9539.24L1672.76,9539.28L1672.9,9539.32L1673.03,9539.35L1673.17,9539.39L1673.31,9539.42L1673.45,9539.45L1673.59,9539.49L1673.73,9539.52L1673.87,9539.55L1674.01,9539.58L1674.15,9539.61L1674.29,9539.64L1674.43,9539.66L1674.57,9539.69L1674.71,9539.72L1674.86,9539.74L1675,9539.77L1675.14,9539.79L1675.28,9539.81L1675.42,9539.83L1675.57,9539.85L1675.71,9539.87L1675.86,9539.89L1676,9539.91L1676.14,9539.93L1676.29,9539.94L1676.43,9539.96L1676.58,9539.97L1676.73,9539.99L1676.87,9540L1677.02,9540.01L1677.16,9540.02L1677.31,9540.03L1677.46,9540.04L1677.6,9540.05L1677.75,9540.05L1677.9,9540.06L1678.05,9540.07L1678.19,9540.07L1678.34,9540.07L1678.49,9540.08L1678.64,9540.08L1678.79,9540.08L1678.94,9540.08L1679.09,9540.08L1679.24,9540.07L1679.38,9540.07L1679.53,9540.07L1679.68,9540.06L1679.83,9540.05L1679.98,9540.05L1680.12,9540.04L1680.27,9540.03L1680.42,9540.02L1680.56,9540.01L1680.71,9540L1680.86,9539.99L1681,9539.97L1681.15,9539.96L1681.29,9539.94L1681.44,9539.93L1681.58,9539.91L1681.72,9539.89L1681.87,9539.87L1682.01,9539.85L1682.15,9539.83L1682.3,9539.81L1682.44,9539.79L1682.58,9539.77L1682.73,9539.74L1682.87,9539.72L1683.01,9539.69L1683.15,9539.66L1683.29,9539.64L1683.43,9539.61L1683.57,9539.58L1683.71,9539.55L1683.85,9539.52L1683.99,9539.49L1684.13,9539.45L1684.27,9539.42L1684.41,9539.39L1684.55,9539.35L1684.68,9539.32L1684.82,9539.28L1684.96,9539.24L1685.1,9539.2L1685.23,9539.16L1685.37,9539.12L1685.5,9539.08L1685.64,9539.04L1685.77,9539L1685.91,9538.95L1686.04,9538.91L1686.18,9538.87L1686.31,9538.82L1686.44,9538.77L1686.58,9538.73L1686.71,9538.68L1686.84,9538.63L1686.97,9538.58L1687.1,9538.53L1687.24,9538.48L1687.37,9538.43L1687.5,9538.37L1687.62,9538.32L1687.76,9538.26L1687.88,9538.21L1688.01,9538.15L1688.14,9538.1L1688.27,9538.04L1688.39,9537.98L1688.52,9537.92L1688.65,9537.86L1688.78,9537.8L1688.9,9537.74L1689.03,9537.68L1689.15,9537.62L1689.28,9537.56L1689.4,9537.49L1689.52,9537.43L1689.65,9537.36L1689.77,9537.3L1689.89,9537.23L1690.01,9537.16L1690.13,9537.09L1690.25,9537.02L1690.38,9536.95L1690.5,9536.88L1690.61,9536.81L1690.73,9536.74L1690.85,9536.67L1690.97,9536.59L1691.09,9536.52L1691.2,9536.44L1691.32,9536.37L1691.44,9536.29L1691.55,9536.22L1691.67,9536.14L1691.78,9536.06L1691.9,9535.98L1692.01,9535.9L1692.12,9535.82L1692.24,9535.74L1692.35,9535.66L1692.46,9535.58L1692.57,9535.5L1692.68,9535.41L1692.79,9535.33L1692.9,9535.25L1693.01,9535.16L1693.12,9535.07L1693.23,9534.99L1693.34,9534.9L1693.44,9534.81L1693.55,9534.72L1693.65,9534.64L1693.76,9534.55L1693.87,9534.45L1693.97,9534.36L1694.07,9534.27L1694.18,9534.18L1694.28,9534.09L1694.38,9534L1694.48,9533.9L1694.58,9533.81L1694.68,9533.71L1694.78,9533.61L1694.88,9533.52L1694.98,9533.42L1695.08,9533.33L1695.18,9533.23L1695.27,9533.13L1695.37,9533.03L1695.47,9532.93L1695.56,9532.83L1695.66,9532.73L1695.75,9532.63L1695.84,9532.52L1695.94,9532.42L1696.03,9532.32L1696.12,9532.21L1696.21,9532.11L1696.3,9532.01L1696.39,9531.9L1696.48,9531.79L1696.57,9531.69L1696.66,9531.58L1696.74,9531.47L1696.83,9531.36L1696.91,9531.26L1697,9531.15L1697.09,9531.04L1697.17,9530.93L1697.25,9530.82L1697.34,9530.7L1697.42,9530.59L1697.5,9530.48L1697.58,9530.37L1697.66,9530.26L1697.74,9530.14L1697.82,9530.03L1697.89,9529.91L1697.97,9529.8L1698.05,9529.68L1698.12,9529.57L1698.2,9529.45L1698.28,9529.33L1698.35,9529.22L1698.42,9529.1L1698.5,9528.98L1698.57,9528.86L1698.64,9528.74L1698.71,9528.62L1698.78,9528.5L1698.85,9528.38L1698.91,9528.26L1698.98,9528.14L1699.05,9528.01L1699.12,9527.89L1699.18,9527.77L1699.25,9527.64L1699.31,9527.52L1699.37,9527.4L1699.44,9527.27L1699.5,9527.15L1699.56,9527.02L1699.62,9526.89L1699.68,9526.77L1699.74,9526.64L1699.8,9526.51L1699.85,9526.39L1699.91,9526.26L1699.97,9526.13L1700.02,9526L1700.08,9525.87L1700.13,9525.74L1700.18,9525.61L1700.23,9525.48L1700.28,9525.35L1700.33,9525.22L1700.38,9525.09L1700.43,9524.95L1700.48,9524.82L1700.53,9524.69L1700.58,9524.56L1700.62,9524.42L1700.66,9524.29L1700.71,9524.15L1700.75,9524.02L1700.8,9523.88L1700.84,9523.75L1700.88,9523.61L1700.92,9523.48L1700.96,9523.34L1701,9523.2L1701.03,9523.07L1701.07,9522.93L1701.11,9522.79L1701.14,9522.65L1701.17,9522.51L1701.21,9522.38L1701.24,9522.24L1701.27,9522.1L1701.3,9521.96L1701.33,9521.82L1701.36,9521.68L1701.39,9521.54L1701.42,9521.4L1701.45,9521.25L1701.47,9521.11L1701.5,9520.97L1701.52,9520.83L1701.54,9520.69L1701.57,9520.54L1701.59,9520.4L1701.61,9520.26L1701.63,9520.11L1701.65,9519.97L1701.66,9519.83L1701.68,9519.68L1701.7,9519.54L1701.71,9519.39L1701.73,9519.25L1701.74,9519.1L1701.75,9518.95L1701.76,9518.81L1701.78,9518.66L1701.79,9518.51L1701.79,9518.37L1701.8,9518.22L1701.81,9518.07L1701.82,9517.93L1701.82,9517.78L1701.82,9517.63L1701.83,9517.48L1701.83,9517.33L1701.83,9517.18L1701.83,9517.03L1701.83,9516.89L1701.83,9516.74L1701.83,9516.59L1701.82,9516.44L1701.82,9516.29L1701.82,9516.14L1701.81,9516L1701.8,9515.85L1701.79,9515.7L1701.79,9515.56L1701.78,9515.41L1701.76,9515.26L1701.75,9515.12L1701.74,9514.97L1701.73,9514.83L1701.71,9514.68L1701.7,9514.53L1701.68,9514.39L1701.66,9514.25L1701.65,9514.1L1701.63,9513.96L1701.61,9513.81L1701.59,9513.67L1701.57,9513.53L1701.54,9513.38L1701.52,9513.24L1701.5,9513.1L1701.47,9512.96L1701.45,9512.82L1701.42,9512.68L1701.39,9512.53L1701.36,9512.39L1701.33,9512.25L1701.3,9512.11L1701.27,9511.97L1701.24,9511.83L1701.21,9511.69L1701.17,9511.56L1701.14,9511.42L1701.11,9511.28L1701.07,9511.14L1701.03,9511L1701,9510.87L1700.96,9510.73L1700.92,9510.59L1700.88,9510.46L1700.84,9510.32L1700.8,9510.19L1700.75,9510.05L1700.71,9509.92L1700.66,9509.78L1700.62,9509.65L1700.58,9509.51L1700.53,9509.38L1700.48,9509.25L1700.43,9509.12L1700.38,9508.98L1700.33,9508.85L1700.28,9508.72L1700.23,9508.59L1700.18,9508.46L1700.13,9508.33L1700.08,9508.2L1700.02,9508.07L1699.97,9507.94L1699.91,9507.81L1699.85,9507.68L1699.8,9507.56L1699.74,9507.43L1699.68,9507.3L1699.62,9507.18L1699.56,9507.05L1699.5,9506.93L1699.44,9506.8L1699.37,9506.68L1699.31,9506.55L1699.25,9506.43L1699.18,9506.3L1699.12,9506.18L1699.05,9506.06L1698.98,9505.93L1698.91,9505.81L1698.85,9505.69L1698.78,9505.57L1698.71,9505.45L1698.64,9505.33L1698.57,9505.21L1698.5,9505.09L1698.42,9504.97L1698.35,9504.86L1698.28,9504.74L1698.2,9504.62L1698.12,9504.5L1698.05,9504.39L1697.97,9504.27L1697.89,9504.16L1697.82,9504.04L1697.74,9503.93L1697.66,9503.82L1697.58,9503.7L1697.5,9503.59L1697.42,9503.48L1697.34,9503.36L1697.25,9503.25L1697.17,9503.14L1697.09,9503.03L1697,9502.92L1696.91,9502.81L1696.83,9502.7L1696.74,9502.6L1696.66,9502.49L1696.57,9502.38L1696.48,9502.28L1696.39,9502.17L1696.3,9502.07L1696.21,9501.96L1696.12,9501.86L1696.03,9501.75L1695.94,9501.65L1695.84,9501.55L1695.75,9501.44L1695.66,9501.34L1695.56,9501.24L1695.47,9501.14L1695.37,9501.04L1695.27,9500.94L1695.18,9500.84L1695.08,9500.75L1694.98,9500.65L1694.88,9500.55L1694.78,9500.45L1694.68,9500.36L1694.58,9500.26L1694.48,9500.17L1694.38,9500.08L1694.28,9499.98L1694.18,9499.89L1694.07,9499.8L1693.97,9499.71L1693.87,9499.61L1693.76,9499.52L1693.65,9499.43L1693.55,9499.35L1693.44,9499.26L1693.34,9499.17L1693.23,9499.08L1693.12,9499L1693.01,9498.91L1692.9,9498.83L1692.79,9498.74L1692.68,9498.66L1692.57,9498.57L1692.46,9498.49L1692.35,9498.41L1692.24,9498.33L1692.12,9498.25L1692.01,9498.17L1691.9,9498.09L1691.78,9498.01L1691.67,9497.93L1691.55,9497.85L1691.44,9497.78L1691.32,9497.7L1691.2,9497.62L1691.09,9497.55L1690.97,9497.48L1690.85,9497.4L1690.73,9497.33L1690.61,9497.26L1690.5,9497.19L1690.38,9497.12L1690.25,9497.05L1690.13,9496.98L1690.01,9496.91L1689.89,9496.84L1689.77,9496.78L1689.65,9496.71L1689.52,9496.64L1689.4,9496.58L1689.28,9496.51L1689.15,9496.45L1689.03,9496.39L1688.9,9496.33L1688.78,9496.27L1688.65,9496.21L1688.52,9496.15L1688.39,9496.09L1688.27,9496.03L1688.14,9495.97L1688.01,9495.92L1687.88,9495.86L1687.76,9495.81L1687.62,9495.75L1687.5,9495.7L1687.37,9495.64L1687.24,9495.59L1687.1,9495.54L1686.97,9495.49L1686.84,9495.44L1686.71,9495.39L1686.58,9495.34L1686.44,9495.3L1686.31,9495.25L1686.18,9495.2L1686.04,9495.16L1685.91,9495.12L1685.77,9495.07L1685.64,9495.03L1685.5,9494.99L1685.37,9494.95L1685.23,9494.91L1685.1,9494.87L1684.96,9494.83L1684.82,9494.79L1684.68,9494.76L1684.55,9494.72L1684.41,9494.68L1684.27,9494.65L1684.13,9494.62L1683.99,9494.58L1683.85,9494.55L1683.71,9494.52L1683.57,9494.49L1683.43,9494.46L1683.29,9494.43L1683.15,9494.41L1683.01,9494.38L1682.87,9494.35L1682.73,9494.33L1682.58,9494.31L1682.44,9494.28L1682.3,9494.26L1682.15,9494.24L1682.01,9494.22L1681.87,9494.2L1681.72,9494.18L1681.58,9494.16L1681.44,9494.14L1681.29,9494.13L1681.15,9494.11L1681,9494.1L1680.86,9494.09L1680.71,9494.07L1680.56,9494.06L1680.42,9494.05L1680.27,9494.04L1680.12,9494.03L1679.98,9494.02L1679.83,9494.02L1679.68,9494.01L1679.53,9494.01L1679.38,9494L1679.24,9494L1679.09,9494L1678.94,9493.99L1678.79,9493.99L1678.64,9493.99Z" style="fill:white;"/>
            </g>
            <g transform="matrix(0.246671,0,0,0.237661,-400.391,-906.778)">
                <g transform="matrix(9.79709,9.79709,-9.79709,9.79709,78111.8,-105821)">
                    <path d="M1700.82,9501.63L1705.8,9501.63L1705.8,9496.65" style="fill:none;stroke:white;stroke-width:0.38px;"/>
                </g>
                <g transform="matrix(1,0,0,1,-0.485193,-5601.05)">
                    <path d="M1735.83,9579.67L1735.83,9478.25" style="fill:none;stroke:white;stroke-width:5.28px;"/>
                </g>
            </g>
        </g>
    </g>
</svg>
