<?xml version="1.0" ?><!DOCTYPE svg  PUBLIC '-//W3C//DTD SVG 1.1//EN'  'http://www.w3.org/Graphics/SVG/1.1/DTD/svg11.dtd'><svg enable-background="new 0 0 64 64" height="64px" id="Layer_1" version="1.1" viewBox="0 0 64 64" width="64px" xml:space="preserve" xmlns="http://www.w3.org/2000/svg" xmlns:xlink="http://www.w3.org/1999/xlink"><g>
  <path fill="#e1bee7" d="M23.734,28.125c1.104,0,2-0.896,2-2v-7.8c0-3.487,2.837-6.325,6.324-6.325c3.487,0,6.325,2.838,6.325,6.325v7.8   c0,1.104,0.895,2,2,2c1.104,0,2-0.896,2-2v-7.8C42.384,12.632,37.752,8,32.058,8c-5.692,0-10.324,4.632-10.324,10.325v7.8   C21.734,27.229,22.63,28.125,23.734,28.125z"/>
  <path fill="#e1bee7" d="M55,23.631H44.384v2.494c0,2.206-1.794,4-4,4s-4-1.794-4-4v-2.494h-8.649v2.494c0,2.206-1.794,4-4,4s-4-1.794-4-4v-2.494H9   c-0.552,0-0.893,0.435-0.762,0.971l6.998,28.497C15.658,54.701,17.344,56,19,56h26c1.658,0,3.342-1.299,3.766-2.901l6.996-28.497   C55.893,24.065,55.553,23.631,55,23.631z"/></g>
</svg>