<?xml version="1.0" encoding="UTF-8" standalone="no"?>
<!DOCTYPE svg PUBLIC "-//W3C//DTD SVG 1.1//EN" "http://www.w3.org/Graphics/SVG/1.1/DTD/svg11.dtd">
<svg width="100%" height="100%" viewBox="0 0 2796 777" version="1.1" xmlns="http://www.w3.org/2000/svg" xmlns:xlink="http://www.w3.org/1999/xlink" xml:space="preserve" style="fill-rule:evenodd;clip-rule:evenodd;stroke-linejoin:round;stroke-miterlimit:1.41421;">
    <g id="Artboard1" transform="matrix(1.06296,0,0,0.792519,21.0501,10.849)">
        <rect x="-19.803" y="-13.689" width="2629.73" height="979.857" style="fill:none;"/>
        <clipPath id="_clip1">
            <rect x="-19.803" y="-13.689" width="2629.73" height="979.857"/>
        </clipPath>
        <g clip-path="url(#_clip1)">
            <g transform="matrix(0.940766,0,0,1.2618,-334.071,-7559.42)">
                <g transform="matrix(1,0,0,1,0,-5600)">
                    <path d="M1614.66,11668.1C1635.2,11622.9 1680.7,11591.5 1733.53,11591.5C1785.82,11591.5 1830.93,11622.3 1851.76,11666.7C1853.36,11666.6 1854.96,11666.6 1856.57,11666.6C1893.27,11666.6 1925.27,11686.7 1942.17,11716.5C1954.76,11707.1 1970.36,11701.5 1987.26,11701.5C2027.46,11701.5 2060.34,11732.9 2062.7,11772.5C2064.9,11772.2 2067.14,11772 2069.43,11772C2086.47,11772 2101.23,11781.8 2108.46,11796C2117.14,11792.2 2126.68,11790 2136.7,11789.7C2154.71,11766.8 2182.68,11752.1 2214.07,11752.1C2251.57,11752.1 2284.16,11773.1 2300.76,11803.9C2311.79,11797.6 2324.55,11794 2338.15,11794C2375.83,11794 2407.06,11821.6 2412.79,11857.7C2416.79,11856.5 2421.04,11855.8 2425.43,11855.8C2440,11855.8 2452.91,11862.9 2460.87,11873.9C2476.52,11840.3 2510.58,11817 2550.07,11817C2604.4,11817 2648.44,11861.1 2648.44,11915.4C2648.44,11919.9 2648.14,11924.3 2647.56,11928.6C2653.54,11925.6 2660.31,11923.8 2667.48,11923.8C2676.93,11923.8 2685.68,11926.8 2692.83,11931.9C2701.03,11899 2730.76,11874.7 2766.17,11874.7C2802.52,11874.7 2832.88,11900.3 2840.11,11934.5C2841.45,11934.5 2842.81,11934.4 2844.17,11934.4C2870.71,11934.4 2894.05,11948.1 2907.54,11968.8C2925.57,11946.6 2953.12,11932.3 2983.99,11932.3C3038.31,11932.3 3082.36,11976.4 3082.36,12030.7C3082.36,12055.6 3073.09,12078.4 3057.81,12095.7L3108.76,12116.1L3131.26,12617.1L534.884,12663.5L519.885,12066.3L564.89,12041.5C559.953,12031.5 557.18,12020.2 557.18,12008.2C557.18,11966.5 591.017,11932.7 632.759,11932.7C667.262,11932.7 696.366,11955.8 705.421,11987.4C712.692,11982 721.689,11978.8 731.43,11978.8C732.307,11978.8 733.178,11978.8 734.043,11978.9C732.509,11972 731.7,11964.8 731.7,11957.5C731.7,11903.1 775.742,11859.1 830.072,11859.1C866.922,11859.1 899.039,11879.3 915.889,11909.3C929.514,11896 948.149,11887.8 968.701,11887.8C969.289,11887.8 969.875,11887.8 970.459,11887.8C979.158,11842.4 1019.11,11808.1 1067.07,11808.1C1091.15,11808.1 1113.21,11816.7 1130.31,11831.1C1142.35,11818.5 1158.7,11810 1177.01,11808.1C1175.42,11803.5 1174.56,11798.7 1174.56,11793.6C1174.56,11769.4 1194.15,11749.8 1218.31,11749.8C1231.27,11749.8 1242.91,11755.5 1250.92,11764.4C1262,11722.2 1300.4,11691.1 1346.07,11691.1C1390.2,11691.1 1427.54,11720.1 1440.01,11760.2C1448.32,11757 1457.34,11755.3 1466.76,11755.3C1479.65,11755.3 1491.79,11758.5 1502.41,11764.2C1509.84,11741.5 1527.69,11723.6 1550.31,11716C1549.57,11712.8 1549.17,11709.5 1549.17,11706.1C1549.17,11681.9 1568.77,11662.3 1592.93,11662.3C1600.84,11662.3 1608.26,11664.4 1614.66,11668.1Z" style="fill:url(#_Radial2);"/>
                </g>
                <g transform="matrix(0.862156,0,0,0.862156,237.226,-4016.53)">
                    <g>
                        <path d="M1479.07,11939.4C1489.9,11908.6 1519.28,11886.5 1553.83,11886.5C1584.92,11886.5 1611.84,11904.4 1624.81,11930.4C1626.4,11930.2 1628.03,11930.1 1629.68,11930.1C1642.88,11930.1 1654.52,11936.8 1661.42,11946.9C1673.69,11938 1688.78,11932.8 1705.1,11932.8C1717.66,11932.8 1729.5,11935.9 1739.89,11941.4C1749.44,11934.9 1760.99,11931.1 1773.41,11931.1C1788.4,11931.1 1802.09,11936.6 1812.57,11945.7C1820.53,11922.8 1842.37,11906.3 1868.06,11906.3C1881.03,11906.3 1893.02,11910.5 1902.74,11917.6C1916.52,11899.6 1938.2,11888 1962.59,11888C1994.76,11888 2022.22,11908.2 2033.05,11936.6C2045.57,11932.2 2059.04,11929.8 2073.06,11929.8C2112.31,11929.8 2147.19,11948.5 2169.34,11977.4C2177.2,11967.1 2189.6,11960.4 2203.56,11960.4C2227.31,11960.4 2246.57,11979.7 2246.57,12003.4C2246.57,12007.7 2245.95,12011.9 2244.78,12015.8L2244.78,12212.8L1246.71,12212.8L1246.71,11991.2L1314,11991.2C1327.81,11973.8 1349.17,11962.6 1373.14,11962.6C1388.92,11962.6 1403.56,11967.4 1415.67,11975.7C1416.49,11952.7 1435.42,11934.3 1458.66,11934.3C1466.04,11934.3 1472.99,11936.1 1479.07,11939.4Z" style="fill:url(#_Radial3);"/>
                    </g>
                </g>
            </g>
        </g>
    </g>
    <defs>
        <radialGradient id="_Radial2" cx="0" cy="0" r="1" gradientUnits="userSpaceOnUse" gradientTransform="matrix(4.03791e-14,659.442,-1531.11,9.37532e-14,1737.46,11662.9)"><stop offset="0%" style="stop-color:rgb(23,55,67);stop-opacity:1"/><stop offset="100%" style="stop-color:rgb(23,55,67);stop-opacity:0"/></radialGradient>
        <radialGradient id="_Radial3" cx="0" cy="0" r="1" gradientUnits="userSpaceOnUse" gradientTransform="matrix(-370.3,4.53486e-14,-2.92756e-14,-239.053,1740.42,11895)"><stop offset="0%" style="stop-color:rgb(15,36,44);stop-opacity:1"/><stop offset="100%" style="stop-color:rgb(15,36,44);stop-opacity:0"/></radialGradient>
    </defs>
</svg>
