<?xml version="1.0" encoding="UTF-8" standalone="no"?>
<!DOCTYPE svg PUBLIC "-//W3C//DTD SVG 1.1//EN" "http://www.w3.org/Graphics/SVG/1.1/DTD/svg11.dtd">
<svg width="100%" height="100%" viewBox="0 0 509 508" version="1.1" xmlns="http://www.w3.org/2000/svg" xmlns:xlink="http://www.w3.org/1999/xlink" xml:space="preserve" style="fill-rule:evenodd;clip-rule:evenodd;stroke-linejoin:round;stroke-miterlimit:1.41421;">
    <g id="Artboard1" transform="matrix(1.00688,0,0,1.00921,-0.760826,-0.98341)">
        <rect x="0.756" y="0.974" width="504.692" height="502.416" style="fill:none;"/>
        <g transform="matrix(0.993167,0,0,0.990878,5.08574,-0.206319)">
            <circle cx="308.981" cy="260.478" r="54.898" style="fill:white;"/>
        </g>
        <g transform="matrix(0.990878,0,0,0.990878,4.61054,4.59178)">
            <g transform="matrix(1.00231,0,0,1,-3317.99,-12733.3)">
                <path d="M3561.29,12732.7L3562.1,12732.7L3562.91,12732.7L3563.72,12732.7L3564.53,12732.7L3565.34,12732.7L3566.14,12732.7L3566.95,12732.8L3567.76,12732.8L3568.56,12732.8L3569.37,12732.8L3570.17,12732.9L3570.98,12732.9L3571.78,12732.9L3572.58,12733L3573.38,12733L3574.19,12733L3574.99,12733.1L3575.79,12733.1L3576.59,12733.2L3577.38,12733.2L3578.18,12733.3L3578.98,12733.3L3579.78,12733.4L3580.57,12733.5L3581.37,12733.5L3582.16,12733.6L3582.95,12733.7L3583.75,12733.7L3584.54,12733.8L3585.33,12733.9L3586.12,12734L3586.91,12734L3587.7,12734.1L3588.49,12734.2L3589.28,12734.3L3590.07,12734.4L3590.85,12734.5L3591.64,12734.6L3592.43,12734.7L3593.21,12734.8L3593.99,12734.9L3594.78,12735L3595.56,12735.1L3596.34,12735.2L3597.12,12735.3L3597.9,12735.4L3598.68,12735.6L3599.46,12735.7L3600.23,12735.8L3601.01,12735.9L3601.79,12736.1L3602.56,12736.2L3603.34,12736.3L3604.11,12736.5L3604.88,12736.6L3605.65,12736.7L3606.42,12736.9L3607.19,12737L3607.96,12737.2L3608.73,12737.3L3609.5,12737.5L3610.27,12737.6L3611.03,12737.8L3611.8,12737.9L3612.56,12738.1L3613.33,12738.2L3614.09,12738.4L3614.85,12738.6L3615.61,12738.8L3616.37,12738.9L3617.13,12739.1L3617.89,12739.3L3618.64,12739.5L3619.4,12739.6L3620.16,12739.8L3620.91,12740L3621.66,12740.2L3622.42,12740.4L3623.17,12740.6L3623.92,12740.8L3624.67,12741L3625.42,12741.2L3626.17,12741.4L3626.92,12741.6L3627.66,12741.8L3628.41,12742L3629.15,12742.2L3629.9,12742.4L3630.64,12742.6L3631.38,12742.8L3632.12,12743.1L3632.86,12743.3L3633.6,12743.5L3634.34,12743.7L3635.08,12744L3635.81,12744.2L3636.55,12744.4L3637.28,12744.6L3638.01,12744.9L3638.75,12745.1L3639.48,12745.4L3640.21,12745.6L3640.94,12745.9L3641.66,12746.1L3642.39,12746.4L3643.12,12746.6L3643.84,12746.9L3644.57,12747.1L3645.29,12747.4L3646.01,12747.6L3646.73,12747.9L3647.45,12748.2L3648.17,12748.4L3648.89,12748.7L3649.61,12749L3650.32,12749.2L3651.04,12749.5L3651.75,12749.8L3652.46,12750.1L3653.18,12750.4L3653.89,12750.6L3654.6,12750.9L3655.3,12751.2L3656.01,12751.5L3656.72,12751.8L3657.42,12752.1L3658.13,12752.4L3658.83,12752.7L3659.53,12753L3660.23,12753.3L3660.93,12753.6L3661.63,12753.9L3662.33,12754.2L3663.02,12754.5L3663.72,12754.8L3664.41,12755.1L3665.11,12755.5L3665.8,12755.8L3666.49,12756.1L3667.18,12756.4L3667.87,12756.8L3668.55,12757.1L3669.24,12757.4L3669.92,12757.7L3670.61,12758.1L3671.29,12758.4L3671.97,12758.7L3672.65,12759.1L3673.33,12759.4L3674.01,12759.8L3674.68,12760.1L3675.36,12760.5L3676.03,12760.8L3676.71,12761.2L3677.38,12761.5L3678.05,12761.9L3678.72,12762.2L3679.39,12762.6L3680.06,12763L3680.72,12763.3L3681.39,12763.7L3682.05,12764L3682.71,12764.4L3683.37,12764.8L3684.03,12765.2L3684.69,12765.5L3685.35,12765.9L3686.01,12766.3L3686.66,12766.7L3687.31,12767.1L3687.97,12767.4L3688.62,12767.8L3689.27,12768.2L3689.91,12768.6L3690.56,12769L3691.21,12769.4L3691.85,12769.8L3692.49,12770.2L3693.14,12770.6L3693.78,12771L3694.42,12771.4L3695.06,12771.8L3695.69,12772.2L3696.33,12772.6L3696.96,12773L3697.6,12773.4L3698.23,12773.8L3698.86,12774.3L3699.49,12774.7L3700.11,12775.1L3700.74,12775.5L3701.37,12775.9L3701.99,12776.4L3702.61,12776.8L3703.23,12777.2L3703.85,12777.7L3704.47,12778.1L3705.09,12778.5L3705.7,12779L3706.32,12779.4L3706.93,12779.8L3707.54,12780.3L3708.15,12780.7L3708.76,12781.2L3709.37,12781.6L3709.97,12782.1L3710.58,12782.5L3711.18,12783L3711.78,12783.4L3712.38,12783.9L3712.98,12784.3L3713.58,12784.8L3714.17,12785.3L3714.77,12785.7L3715.36,12786.2L3715.95,12786.6L3716.54,12787.1L3717.13,12787.6L3717.72,12788.1L3718.3,12788.5L3718.89,12789L3719.47,12789.5L3720.05,12790L3720.63,12790.4L3721.21,12790.9L3721.79,12791.4L3722.36,12791.9L3722.94,12792.4L3723.51,12792.9L3724.08,12793.4L3724.65,12793.8L3725.22,12794.3L3725.78,12794.8L3726.35,12795.3L3726.91,12795.8L3727.48,12796.3L3728.04,12796.8L3728.6,12797.3L3729.15,12797.8L3729.71,12798.4L3730.26,12798.9L3730.82,12799.4L3731.37,12799.9L3731.92,12800.4L3732.47,12800.9L3733.01,12801.4L3733.56,12801.9L3734.1,12802.5L3734.64,12803L3735.19,12803.5L3735.72,12804L3736.26,12804.6L3736.8,12805.1L3737.33,12805.6L3737.87,12806.1L3738.4,12806.7L3738.93,12807.2L3739.45,12807.8L3739.98,12808.3L3740.51,12808.8L3741.03,12809.4L3741.55,12809.9L3742.07,12810.5L3742.59,12811L3743.11,12811.5L3743.62,12812.1L3744.13,12812.6L3744.65,12813.2L3745.16,12813.8L3745.66,12814.3L3746.17,12814.9L3746.68,12815.4L3747.18,12816L3747.68,12816.5L3748.18,12817.1L3748.68,12817.7L3749.18,12818.2L3749.67,12818.8L3750.17,12819.4L3750.66,12819.9L3751.15,12820.5L3751.64,12821.1L3752.12,12821.7L3752.61,12822.2L3753.09,12822.8L3753.58,12823.4L3754.06,12824L3754.53,12824.5L3755.01,12825.1L3755.49,12825.7L3755.96,12826.3L3756.43,12826.9L3756.9,12827.5L3757.37,12828.1L3757.84,12828.7L3758.3,12829.2L3758.76,12829.8L3759.22,12830.4L3759.68,12831L3760.14,12831.6L3760.6,12832.2L3761.05,12832.8L3761.5,12833.4L3761.95,12834L3762.4,12834.6L3762.85,12835.3L3763.29,12835.9L3763.74,12836.5L3764.18,12837.1L3764.62,12837.7L3765.06,12838.3L3765.49,12838.9L3765.93,12839.5L3766.36,12840.2L3766.79,12840.8L3767.22,12841.4L3767.65,12842L3768.07,12842.6L3768.5,12843.3L3768.92,12843.9L3769.34,12844.5L3769.76,12845.2L3770.17,12845.8L3770.59,12846.4L3771,12847.1L3771.41,12847.7L3771.82,12848.3L3772.23,12849L3772.63,12849.6L3773.03,12850.2L3773.43,12850.9L3773.84,12851.5L3774.23,12852.2L3774.63,12852.8L3775.02,12853.5L3775.41,12854.1L3775.8,12854.7L3776.19,12855.4L3776.58,12856L3776.96,12856.7L3777.35,12857.4L3777.72,12858L3778.1,12858.7L3778.48,12859.3L3778.86,12860L3779.23,12860.6L3779.6,12861.3L3779.97,12862L3780.33,12862.6L3780.7,12863.3L3781.06,12864L3781.42,12864.6L3781.78,12865.3L3782.14,12866L3782.49,12866.6L3782.85,12867.3L3783.2,12868L3783.55,12868.7L3783.9,12869.3L3784.24,12870L3784.59,12870.7L3784.93,12871.4L3785.26,12872L3785.6,12872.7L3785.94,12873.4L3786.27,12874.1L3786.6,12874.8L3786.93,12875.5L3787.26,12876.1L3787.58,12876.8L3787.91,12877.5L3788.23,12878.2L3788.55,12878.9L3788.87,12879.6L3789.18,12880.3L3789.49,12881L3789.8,12881.7L3790.11,12882.4L3790.42,12883.1L3790.72,12883.8L3791.03,12884.5L3791.33,12885.2L3791.63,12885.9L3791.92,12886.6L3792.22,12887.3L3792.51,12888L3792.8,12888.7L3793.09,12889.4L3793.37,12890.1L3793.66,12890.8L3793.94,12891.6L3794.22,12892.3L3794.5,12893L3794.77,12893.7L3795.05,12894.4L3795.32,12895.1L3795.59,12895.8L3795.85,12896.6L3796.12,12897.3L3796.38,12898L3796.64,12898.7L3796.9,12899.4L3797.16,12900.2L3797.41,12900.9L3797.66,12901.6L3797.91,12902.3L3798.16,12903.1L3798.41,12903.8L3798.65,12904.5L3798.89,12905.3L3799.13,12906L3799.37,12906.7L3799.6,12907.5L3799.83,12908.2L3800.06,12908.9L3800.29,12909.7L3800.52,12910.4L3800.74,12911.2L3800.96,12911.9L3801.18,12912.6L3801.4,12913.4L3801.61,12914.1L3801.83,12914.9L3802.03,12915.6L3802.24,12916.4L3802.45,12917.1L3802.65,12917.8L3802.85,12918.6L3803.05,12919.3L3803.25,12920.1L3803.44,12920.8L3803.64,12921.6L3803.83,12922.3L3804.01,12923.1L3804.2,12923.9L3804.38,12924.6L3804.56,12925.4L3804.74,12926.1L3804.92,12926.9L3805.09,12927.6L3805.26,12928.4L3805.43,12929.2L3805.6,12929.9L3805.76,12930.7L3805.93,12931.5L3806.09,12932.2L3806.24,12933L3806.4,12933.7L3806.55,12934.5L3806.7,12935.3L3806.85,12936L3807,12936.8L3807.14,12937.6L3807.28,12938.4L3807.42,12939.1L3807.56,12939.9L3807.7,12940.7L3807.83,12941.5L3807.96,12942.2L3808.08,12943L3808.21,12943.8L3808.33,12944.6L3808.45,12945.3L3808.57,12946.1L3808.68,12946.9L3808.8,12947.7L3808.91,12948.5L3809.02,12949.2L3809.12,12950L3809.23,12950.8L3809.33,12951.6L3809.43,12952.4L3809.52,12953.2L3809.62,12953.9L3809.71,12954.7L3809.8,12955.5L3809.88,12956.3L3809.97,12957.1L3810.05,12957.9L3810.13,12958.7L3810.2,12959.5L3810.28,12960.3L3810.35,12961.1L3810.42,12961.9L3810.48,12962.6L3810.55,12963.4L3810.61,12964.2L3810.67,12965L3810.73,12965.8L3810.78,12966.6L3810.83,12967.4L3810.88,12968.2L3810.93,12969L3810.97,12969.8L3811.02,12970.6L3811.06,12971.4L3811.09,12972.2L3811.13,12973L3811.16,12973.8L3811.19,12974.6L3811.21,12975.4L3811.24,12976.3L3811.26,12977.1L3811.28,12977.9L3811.3,12978.7L3811.31,12979.5L3811.32,12980.3L3811.33,12981.1L3811.34,12981.9L3811.34,12982.7L3811.34,12983.5L3811.34,12984.3L3811.34,12985.2L3811.33,12986L3811.32,12986.8L3811.31,12987.6L3811.3,12988.4L3811.28,12989.2L3811.26,12990L3811.24,12990.8L3811.21,12991.6L3811.19,12992.4L3811.16,12993.2L3811.13,12994L3811.09,12994.8L3811.06,12995.6L3811.02,12996.4L3810.97,12997.2L3810.93,12998L3810.88,12998.8L3810.83,12999.6L3810.78,13000.4L3810.73,13001.2L3810.67,13002L3810.61,13002.8L3810.55,13003.6L3810.48,13004.4L3810.42,13005.2L3810.35,13006L3810.28,13006.8L3810.2,13007.6L3810.13,13008.4L3810.05,13009.2L3809.97,13010L3809.88,13010.8L3809.8,13011.6L3809.71,13012.3L3809.62,13013.1L3809.52,13013.9L3809.43,13014.7L3809.33,13015.5L3809.23,13016.3L3809.12,13017.1L3809.02,13017.8L3808.91,13018.6L3808.8,13019.4L3808.68,13020.2L3808.57,13021L3808.45,13021.7L3808.33,13022.5L3808.21,13023.3L3808.08,13024.1L3807.96,13024.8L3807.83,13025.6L3807.7,13026.4L3807.56,13027.2L3807.42,13027.9L3807.28,13028.7L3807.14,13029.5L3807,13030.3L3806.85,13031L3806.7,13031.8L3806.55,13032.6L3806.4,13033.3L3806.24,13034.1L3806.09,13034.9L3805.93,13035.6L3805.76,13036.4L3805.6,13037.1L3805.43,13037.9L3805.26,13038.7L3805.09,13039.4L3804.92,13040.2L3804.74,13040.9L3804.56,13041.7L3804.38,13042.5L3804.2,13043.2L3804.01,13044L3803.83,13044.7L3803.64,13045.5L3803.44,13046.2L3803.25,13047L3803.05,13047.7L3802.85,13048.5L3802.65,13049.2L3802.45,13050L3802.24,13050.7L3802.03,13051.5L3801.83,13052.2L3801.61,13053L3801.4,13053.7L3801.18,13054.4L3800.96,13055.2L3800.74,13055.9L3800.52,13056.7L3800.29,13057.4L3800.06,13058.1L3799.83,13058.9L3799.6,13059.6L3799.37,13060.3L3799.13,13061.1L3798.89,13061.8L3798.65,13062.5L3798.41,13063.3L3798.16,13064L3797.91,13064.7L3797.66,13065.5L3797.41,13066.2L3797.16,13066.9L3796.9,13067.6L3796.64,13068.3L3796.38,13069.1L3796.12,13069.8L3795.85,13070.5L3795.59,13071.2L3795.32,13071.9L3795.05,13072.7L3794.77,13073.4L3794.5,13074.1L3794.22,13074.8L3793.94,13075.5L3793.66,13076.2L3793.37,13076.9L3793.09,13077.7L3792.8,13078.4L3792.51,13079.1L3792.22,13079.8L3791.92,13080.5L3791.63,13081.2L3791.33,13081.9L3791.03,13082.6L3790.72,13083.3L3790.42,13084L3790.11,13084.7L3789.8,13085.4L3789.49,13086.1L3789.18,13086.8L3788.87,13087.5L3788.55,13088.2L3788.23,13088.9L3787.91,13089.5L3787.58,13090.2L3787.26,13090.9L3786.93,13091.6L3786.6,13092.3L3786.27,13093L3785.94,13093.7L3785.6,13094.3L3785.26,13095L3784.93,13095.7L3784.59,13096.4L3784.24,13097.1L3783.9,13097.7L3783.55,13098.4L3783.2,13099.1L3782.85,13099.8L3782.49,13100.4L3782.14,13101.1L3781.78,13101.8L3781.42,13102.4L3781.06,13103.1L3780.7,13103.8L3780.33,13104.4L3779.97,13105.1L3779.6,13105.8L3779.23,13106.4L3778.86,13107.1L3778.48,13107.8L3778.1,13108.4L3777.72,13109.1L3777.35,13109.7L3776.96,13110.4L3776.58,13111L3776.19,13111.7L3775.8,13112.3L3775.41,13113L3775.02,13113.6L3774.63,13114.3L3774.23,13114.9L3773.84,13115.6L3773.43,13116.2L3773.03,13116.8L3772.63,13117.5L3772.23,13118.1L3771.82,13118.8L3771.41,13119.4L3771,13120L3770.59,13120.7L3770.17,13121.3L3769.76,13121.9L3769.34,13122.5L3768.92,13123.2L3768.5,13123.8L3768.07,13124.4L3767.65,13125L3767.22,13125.7L3766.79,13126.3L3766.36,13126.9L3765.93,13127.5L3765.49,13128.1L3765.06,13128.8L3764.62,13129.4L3764.18,13130L3763.74,13130.6L3763.29,13131.2L3762.85,13131.8L3762.4,13132.4L3761.95,13133L3761.5,13133.6L3761.05,13134.2L3760.6,13134.8L3760.14,13135.4L3759.68,13136L3759.22,13136.6L3758.76,13137.2L3758.3,13137.8L3757.84,13138.4L3757.37,13139L3756.9,13139.6L3756.43,13140.2L3755.96,13140.8L3755.49,13141.4L3755.01,13141.9L3754.53,13142.5L3754.06,13143.1L3753.58,13143.7L3753.09,13144.3L3752.61,13144.8L3752.12,13145.4L3751.64,13146L3751.15,13146.6L3750.66,13147.1L3750.17,13147.7L3749.67,13148.3L3749.18,13148.8L3748.68,13149.4L3748.18,13150L3747.68,13150.5L3747.18,13151.1L3746.68,13151.7L3746.17,13152.2L3745.66,13152.8L3745.16,13153.3L3744.65,13153.9L3744.13,13154.4L3743.62,13155L3743.11,13155.5L3742.59,13156.1L3742.07,13156.6L3741.55,13157.2L3741.03,13157.7L3740.51,13158.2L3739.98,13158.8L3739.45,13159.3L3738.93,13159.9L3738.4,13160.4L3737.87,13160.9L3737.33,13161.5L3736.8,13162L3736.26,13162.5L3735.72,13163L3735.19,13163.6L3734.64,13164.1L3734.1,13164.6L3733.56,13165.1L3733.01,13165.6L3732.47,13166.2L3731.92,13166.7L3731.37,13167.2L3730.82,13167.7L3730.26,13168.2L3729.71,13168.7L3729.15,13169.2L3728.6,13169.7L3728.04,13170.2L3727.48,13170.7L3726.91,13171.2L3726.35,13171.7L3725.78,13172.2L3725.22,13172.7L3724.65,13173.2L3724.08,13173.7L3723.51,13174.2L3722.94,13174.7L3722.36,13175.2L3721.79,13175.7L3721.21,13176.2L3720.63,13176.6L3720.05,13177.1L3719.47,13177.6L3718.89,13178.1L3718.3,13178.5L3717.72,13179L3717.13,13179.5L3716.54,13180L3715.95,13180.4L3715.36,13180.9L3714.77,13181.4L3714.17,13181.8L3713.58,13182.3L3712.98,13182.7L3712.38,13183.2L3711.78,13183.7L3711.18,13184.1L3710.58,13184.6L3709.97,13185L3709.37,13185.5L3708.76,13185.9L3708.15,13186.4L3707.54,13186.8L3706.93,13187.2L3706.32,13187.7L3705.7,13188.1L3705.09,13188.6L3704.47,13189L3703.85,13189.4L3703.23,13189.9L3702.61,13190.3L3701.99,13190.7L3701.37,13191.1L3700.74,13191.6L3700.11,13192L3699.49,13192.4L3698.86,13192.8L3698.23,13193.2L3697.6,13193.6L3696.96,13194.1L3696.33,13194.5L3695.69,13194.9L3695.06,13195.3L3694.42,13195.7L3693.78,13196.1L3693.14,13196.5L3692.49,13196.9L3691.85,13197.3L3691.21,13197.7L3690.56,13198.1L3689.91,13198.5L3689.27,13198.9L3688.62,13199.3L3687.97,13199.6L3687.31,13200L3686.66,13200.4L3686.01,13200.8L3685.35,13201.2L3684.69,13201.5L3684.03,13201.9L3683.37,13202.3L3682.71,13202.7L3682.05,13203L3681.39,13203.4L3680.72,13203.8L3680.06,13204.1L3679.39,13204.5L3678.72,13204.8L3678.05,13205.2L3677.38,13205.6L3676.71,13205.9L3676.03,13206.3L3675.36,13206.6L3674.68,13207L3674.01,13207.3L3673.33,13207.6L3672.65,13208L3671.97,13208.3L3671.29,13208.7L3670.61,13209L3669.92,13209.3L3669.24,13209.7L3668.55,13210L3667.87,13210.3L3667.18,13210.6L3666.49,13211L3665.8,13211.3L3665.11,13211.6L3664.41,13211.9L3663.72,13212.2L3663.02,13212.6L3662.33,13212.9L3661.63,13213.2L3660.93,13213.5L3660.23,13213.8L3659.53,13214.1L3658.83,13214.4L3658.13,13214.7L3657.42,13215L3656.72,13215.3L3656.01,13215.6L3655.3,13215.9L3654.6,13216.1L3653.89,13216.4L3653.18,13216.7L3652.46,13217L3651.75,13217.3L3651.04,13217.6L3650.32,13217.8L3649.61,13218.1L3648.89,13218.4L3648.17,13218.6L3647.45,13218.9L3646.73,13219.2L3646.01,13219.4L3645.29,13219.7L3644.57,13220L3643.84,13220.2L3643.12,13220.5L3642.39,13220.7L3641.66,13221L3640.94,13221.2L3640.21,13221.5L3639.48,13221.7L3638.75,13222L3638.01,13222.2L3637.28,13222.4L3636.55,13222.7L3635.81,13222.9L3635.08,13223.1L3634.34,13223.4L3633.6,13223.6L3632.86,13223.8L3632.12,13224L3631.38,13224.2L3630.64,13224.5L3629.9,13224.7L3629.15,13224.9L3628.41,13225.1L3627.66,13225.3L3626.92,13225.5L3626.17,13225.7L3625.42,13225.9L3624.67,13226.1L3623.92,13226.3L3623.17,13226.5L3622.42,13226.7L3621.66,13226.9L3620.91,13227.1L3620.16,13227.3L3619.4,13227.4L3618.64,13227.6L3617.89,13227.8L3617.13,13228L3616.37,13228.2L3615.61,13228.3L3614.85,13228.5L3614.09,13228.7L3613.33,13228.8L3612.56,13229L3611.8,13229.1L3611.03,13229.3L3610.27,13229.5L3609.5,13229.6L3608.73,13229.8L3607.96,13229.9L3607.19,13230.1L3606.42,13230.2L3605.65,13230.3L3604.88,13230.5L3604.11,13230.6L3603.34,13230.8L3602.56,13230.9L3601.79,13231L3601.01,13231.1L3600.23,13231.3L3599.46,13231.4L3598.68,13231.5L3597.9,13231.6L3597.12,13231.7L3596.34,13231.9L3595.56,13232L3594.78,13232.1L3593.99,13232.2L3593.21,13232.3L3592.43,13232.4L3591.64,13232.5L3590.85,13232.6L3590.07,13232.7L3589.28,13232.8L3588.49,13232.9L3587.7,13232.9L3586.91,13233L3586.12,13233.1L3585.33,13233.2L3584.54,13233.3L3583.75,13233.3L3582.95,13233.4L3582.16,13233.5L3581.37,13233.5L3580.57,13233.6L3579.78,13233.7L3578.98,13233.7L3578.18,13233.8L3577.38,13233.8L3576.59,13233.9L3575.79,13233.9L3574.99,13234L3574.19,13234L3573.38,13234.1L3572.58,13234.1L3571.78,13234.2L3570.98,13234.2L3570.17,13234.2L3569.37,13234.2L3568.56,13234.3L3567.76,13234.3L3566.95,13234.3L3566.14,13234.3L3565.34,13234.4L3564.53,13234.4L3563.72,13234.4L3562.91,13234.4L3562.1,13234.4L3561.29,13234.4L3560.48,13234.4L3559.67,13234.4L3558.86,13234.4L3558.05,13234.4L3557.24,13234.4L3556.43,13234.4L3555.62,13234.4L3554.81,13234.3L3554,13234.3L3553.2,13234.3L3552.39,13234.3L3551.59,13234.2L3550.78,13234.2L3549.98,13234.2L3549.17,13234.2L3548.37,13234.1L3547.57,13234.1L3546.77,13234L3545.97,13234L3545.17,13233.9L3544.37,13233.9L3543.57,13233.8L3542.77,13233.8L3541.97,13233.7L3541.18,13233.7L3540.38,13233.6L3539.59,13233.5L3538.79,13233.5L3538,13233.4L3537.21,13233.3L3536.41,13233.3L3535.62,13233.2L3534.83,13233.1L3534.04,13233L3533.25,13232.9L3532.46,13232.9L3531.67,13232.8L3530.89,13232.7L3530.1,13232.6L3529.31,13232.5L3528.53,13232.4L3527.74,13232.3L3526.96,13232.2L3526.18,13232.1L3525.4,13232L3524.62,13231.9L3523.84,13231.7L3523.06,13231.6L3522.28,13231.5L3521.5,13231.4L3520.72,13231.3L3519.94,13231.1L3519.17,13231L3518.39,13230.9L3517.62,13230.8L3516.85,13230.6L3516.07,13230.5L3515.3,13230.3L3514.53,13230.2L3513.76,13230.1L3512.99,13229.9L3512.22,13229.8L3511.45,13229.6L3510.69,13229.5L3509.92,13229.3L3509.16,13229.1L3508.39,13229L3507.63,13228.8L3506.87,13228.7L3506.1,13228.5L3505.34,13228.3L3504.58,13228.2L3503.83,13228L3503.07,13227.8L3502.31,13227.6L3501.55,13227.4L3500.8,13227.3L3500.04,13227.1L3499.29,13226.9L3498.54,13226.7L3497.78,13226.5L3497.03,13226.3L3496.28,13226.1L3495.53,13225.9L3494.78,13225.7L3494.04,13225.5L3493.29,13225.3L3492.55,13225.1L3491.8,13224.9L3491.06,13224.7L3490.32,13224.5L3489.57,13224.2L3488.83,13224L3488.09,13223.8L3487.35,13223.6L3486.62,13223.4L3485.88,13223.1L3485.14,13222.9L3484.41,13222.7L3483.67,13222.4L3482.94,13222.2L3482.21,13222L3481.48,13221.7L3480.75,13221.5L3480.02,13221.2L3479.29,13221L3478.56,13220.7L3477.84,13220.5L3477.11,13220.2L3476.39,13220L3475.66,13219.7L3474.94,13219.4L3474.22,13219.2L3473.5,13218.9L3472.78,13218.6L3472.06,13218.4L3471.35,13218.1L3470.63,13217.8L3469.92,13217.6L3469.2,13217.3L3468.49,13217L3467.78,13216.7L3467.07,13216.4L3466.36,13216.1L3465.65,13215.9L3464.94,13215.6L3464.24,13215.3L3463.53,13215L3462.83,13214.7L3462.12,13214.4L3461.42,13214.1L3460.72,13213.8L3460.02,13213.5L3459.32,13213.2L3458.63,13212.9L3457.93,13212.6L3457.24,13212.2L3456.54,13211.9L3455.85,13211.6L3455.16,13211.3L3454.47,13211L3453.78,13210.6L3453.09,13210.3L3452.4,13210L3451.72,13209.7L3451.03,13209.3L3450.35,13209L3449.66,13208.7L3448.98,13208.3L3448.3,13208L3447.62,13207.6L3446.95,13207.3L3446.27,13207L3445.59,13206.6L3444.92,13206.3L3444.24,13205.9L3443.57,13205.6L3442.9,13205.2L3442.23,13204.8L3441.57,13204.5L3440.9,13204.1L3440.23,13203.8L3439.57,13203.4L3438.9,13203L3438.24,13202.7L3437.58,13202.3L3436.92,13201.9L3436.26,13201.5L3435.61,13201.2L3434.95,13200.8L3434.29,13200.4L3433.64,13200L3432.99,13199.6L3432.34,13199.3L3431.69,13198.9L3431.04,13198.5L3430.39,13198.1L3429.75,13197.7L3429.1,13197.3L3428.46,13196.9L3427.82,13196.5L3427.18,13196.1L3426.54,13195.7L3425.9,13195.3L3425.26,13194.9L3424.62,13194.5L3423.99,13194.1L3423.36,13193.6L3422.73,13193.2L3422.1,13192.8L3421.47,13192.4L3420.84,13192L3420.21,13191.6L3419.59,13191.1L3418.97,13190.7L3418.34,13190.3L3417.72,13189.9L3417.1,13189.4L3416.48,13189L3415.87,13188.6L3415.25,13188.1L3414.64,13187.7L3414.03,13187.2L3413.41,13186.8L3412.8,13186.4L3412.2,13185.9L3411.59,13185.5L3410.98,13185L3410.38,13184.6L3409.78,13184.1L3409.17,13183.7L3408.57,13183.2L3407.97,13182.7L3407.38,13182.3L3406.78,13181.8L3406.19,13181.4L3405.59,13180.9L3405,13180.4L3404.41,13180L3403.82,13179.5L3403.24,13179L3402.65,13178.5L3402.07,13178.1L3401.48,13177.6L3400.9,13177.1L3400.32,13176.6L3399.74,13176.2L3399.17,13175.7L3398.59,13175.2L3398.02,13174.7L3397.44,13174.2L3396.87,13173.7L3396.3,13173.2L3395.74,13172.7L3395.17,13172.2L3394.6,13171.7L3394.04,13171.2L3393.48,13170.7L3392.92,13170.2L3392.36,13169.7L3391.8,13169.2L3391.24,13168.7L3390.69,13168.2L3390.14,13167.7L3389.58,13167.2L3389.03,13166.7L3388.49,13166.2L3387.94,13165.6L3387.39,13165.1L3386.85,13164.6L3386.31,13164.1L3385.77,13163.6L3385.23,13163L3384.69,13162.5L3384.16,13162L3383.62,13161.5L3383.09,13160.9L3382.56,13160.4L3382.03,13159.9L3381.5,13159.3L3380.97,13158.8L3380.45,13158.2L3379.93,13157.7L3379.4,13157.2L3378.88,13156.6L3378.37,13156.1L3377.85,13155.5L3377.33,13155L3376.82,13154.4L3376.31,13153.9L3375.8,13153.3L3375.29,13152.8L3374.78,13152.2L3374.28,13151.7L3373.77,13151.1L3373.27,13150.5L3372.77,13150L3372.27,13149.4L3371.78,13148.8L3371.28,13148.3L3370.79,13147.7L3370.29,13147.1L3369.8,13146.6L3369.32,13146L3368.83,13145.4L3368.34,13144.8L3367.86,13144.3L3367.38,13143.7L3366.9,13143.1L3366.42,13142.5L3365.94,13141.9L3365.47,13141.4L3364.99,13140.8L3364.52,13140.2L3364.05,13139.6L3363.58,13139L3363.12,13138.4L3362.65,13137.8L3362.19,13137.2L3361.73,13136.6L3361.27,13136L3360.81,13135.4L3360.36,13134.8L3359.9,13134.2L3359.45,13133.6L3359,13133L3358.55,13132.4L3358.1,13131.8L3357.66,13131.2L3357.22,13130.6L3356.77,13130L3356.33,13129.4L3355.89,13128.8L3355.46,13128.1L3355.03,13127.5L3354.59,13126.9L3354.16,13126.3L3353.73,13125.7L3353.31,13125L3352.88,13124.4L3352.46,13123.8L3352.03,13123.2L3351.61,13122.5L3351.2,13121.9L3350.78,13121.3L3350.37,13120.7L3349.95,13120L3349.54,13119.4L3349.13,13118.8L3348.73,13118.1L3348.32,13117.5L3347.92,13116.8L3347.52,13116.2L3347.12,13115.6L3346.72,13114.9L3346.33,13114.3L3345.93,13113.6L3345.54,13113L3345.15,13112.3L3344.76,13111.7L3344.37,13111L3343.99,13110.4L3343.61,13109.7L3343.23,13109.1L3342.85,13108.4L3342.47,13107.8L3342.1,13107.1L3341.72,13106.4L3341.35,13105.8L3340.99,13105.1L3340.62,13104.4L3340.25,13103.8L3339.89,13103.1L3339.53,13102.4L3339.17,13101.8L3338.81,13101.1L3338.46,13100.4L3338.1,13099.8L3337.75,13099.1L3337.4,13098.4L3337.06,13097.7L3336.71,13097.1L3336.37,13096.4L3336.03,13095.7L3335.69,13095L3335.35,13094.3L3335.01,13093.7L3334.68,13093L3334.35,13092.3L3334.02,13091.6L3333.69,13090.9L3333.37,13090.2L3333.05,13089.5L3332.72,13088.9L3332.4,13088.2L3332.09,13087.5L3331.77,13086.8L3331.46,13086.1L3331.15,13085.4L3330.84,13084.7L3330.53,13084L3330.23,13083.3L3329.93,13082.6L3329.62,13081.9L3329.33,13081.2L3329.03,13080.5L3328.74,13079.8L3328.44,13079.1L3328.15,13078.4L3327.86,13077.7L3327.58,13076.9L3327.29,13076.2L3327.01,13075.5L3326.73,13074.8L3326.45,13074.1L3326.18,13073.4L3325.91,13072.7L3325.63,13071.9L3325.37,13071.2L3325.1,13070.5L3324.83,13069.8L3324.57,13069.1L3324.31,13068.3L3324.05,13067.6L3323.8,13066.9L3323.54,13066.2L3323.29,13065.5L3323.04,13064.7L3322.79,13064L3322.55,13063.3L3322.3,13062.5L3322.06,13061.8L3321.82,13061.1L3321.59,13060.3L3321.35,13059.6L3321.12,13058.9L3320.89,13058.1L3320.66,13057.4L3320.43,13056.7L3320.21,13055.9L3319.99,13055.2L3319.77,13054.4L3319.55,13053.7L3319.34,13053L3319.13,13052.2L3318.92,13051.5L3318.71,13050.7L3318.5,13050L3318.3,13049.2L3318.1,13048.5L3317.9,13047.7L3317.7,13047L3317.51,13046.2L3317.32,13045.5L3317.13,13044.7L3316.94,13044L3316.75,13043.2L3316.57,13042.5L3316.39,13041.7L3316.21,13040.9L3316.03,13040.2L3315.86,13039.4L3315.69,13038.7L3315.52,13037.9L3315.35,13037.1L3315.19,13036.4L3315.03,13035.6L3314.87,13034.9L3314.71,13034.1L3314.55,13033.3L3314.4,13032.6L3314.25,13031.8L3314.1,13031L3313.95,13030.3L3313.81,13029.5L3313.67,13028.7L3313.53,13027.9L3313.39,13027.2L3313.26,13026.4L3313.12,13025.6L3312.99,13024.8L3312.87,13024.1L3312.74,13023.3L3312.62,13022.5L3312.5,13021.7L3312.38,13021L3312.27,13020.2L3312.15,13019.4L3312.04,13018.6L3311.94,13017.8L3311.83,13017.1L3311.73,13016.3L3311.62,13015.5L3311.53,13014.7L3311.43,13013.9L3311.34,13013.1L3311.25,13012.3L3311.16,13011.6L3311.07,13010.8L3310.99,13010L3310.91,13009.2L3310.83,13008.4L3310.75,13007.6L3310.68,13006.8L3310.6,13006L3310.53,13005.2L3310.47,13004.4L3310.4,13003.6L3310.34,13002.8L3310.28,13002L3310.22,13001.2L3310.17,13000.4L3310.12,12999.6L3310.07,12998.8L3310.02,12998L3309.98,12997.2L3309.94,12996.4L3309.9,12995.6L3309.86,12994.8L3309.83,12994L3309.79,12993.2L3309.76,12992.4L3309.74,12991.6L3309.71,12990.8L3309.69,12990L3309.67,12989.2L3309.66,12988.4L3309.64,12987.6L3309.63,12986.8L3309.62,12986L3309.62,12985.2L3309.61,12984.3L3309.61,12983.5L3309.61,12982.7L3309.62,12981.9L3309.62,12981.1L3309.63,12980.3L3309.64,12979.5L3309.66,12978.7L3309.67,12977.9L3309.69,12977.1L3309.71,12976.3L3309.74,12975.4L3309.76,12974.6L3309.79,12973.8L3309.83,12973L3309.86,12972.2L3309.9,12971.4L3309.94,12970.6L3309.98,12969.8L3310.02,12969L3310.07,12968.2L3310.12,12967.4L3310.17,12966.6L3310.22,12965.8L3310.28,12965L3310.34,12964.2L3310.4,12963.4L3310.47,12962.6L3310.53,12961.9L3310.6,12961.1L3310.68,12960.3L3310.75,12959.5L3310.83,12958.7L3310.91,12957.9L3310.99,12957.1L3311.07,12956.3L3311.16,12955.5L3311.25,12954.7L3311.34,12953.9L3311.43,12953.2L3311.53,12952.4L3311.62,12951.6L3311.73,12950.8L3311.83,12950L3311.94,12949.2L3312.04,12948.5L3312.15,12947.7L3312.27,12946.9L3312.38,12946.1L3312.5,12945.3L3312.62,12944.6L3312.74,12943.8L3312.87,12943L3312.99,12942.2L3313.12,12941.5L3313.26,12940.7L3313.39,12939.9L3313.53,12939.1L3313.67,12938.4L3313.81,12937.6L3313.95,12936.8L3314.1,12936L3314.25,12935.3L3314.4,12934.5L3314.55,12933.7L3314.71,12933L3314.87,12932.2L3315.03,12931.5L3315.19,12930.7L3315.35,12929.9L3315.52,12929.2L3315.69,12928.4L3315.86,12927.6L3316.03,12926.9L3316.21,12926.1L3316.39,12925.4L3316.57,12924.6L3316.75,12923.9L3316.94,12923.1L3317.13,12922.3L3317.32,12921.6L3317.51,12920.8L3317.7,12920.1L3317.9,12919.3L3318.1,12918.6L3318.3,12917.8L3318.5,12917.1L3318.71,12916.4L3318.92,12915.6L3319.13,12914.9L3319.34,12914.1L3319.55,12913.4L3319.77,12912.6L3319.99,12911.9L3320.21,12911.2L3320.43,12910.4L3320.66,12909.7L3320.89,12908.9L3321.12,12908.2L3321.35,12907.5L3321.59,12906.7L3321.82,12906L3322.06,12905.3L3322.3,12904.5L3322.55,12903.8L3322.79,12903.1L3323.04,12902.3L3323.29,12901.6L3323.54,12900.9L3323.8,12900.2L3324.05,12899.4L3324.31,12898.7L3324.57,12898L3324.83,12897.3L3325.1,12896.6L3325.37,12895.8L3325.63,12895.1L3325.91,12894.4L3326.18,12893.7L3326.45,12893L3326.73,12892.3L3327.01,12891.6L3327.29,12890.8L3327.58,12890.1L3327.86,12889.4L3328.15,12888.7L3328.44,12888L3328.74,12887.3L3329.03,12886.6L3329.33,12885.9L3329.62,12885.2L3329.93,12884.5L3330.23,12883.8L3330.53,12883.1L3330.84,12882.4L3331.15,12881.7L3331.46,12881L3331.77,12880.3L3332.09,12879.6L3332.4,12878.9L3332.72,12878.2L3333.05,12877.5L3333.37,12876.8L3333.69,12876.1L3334.02,12875.5L3334.35,12874.8L3334.68,12874.1L3335.01,12873.4L3335.35,12872.7L3335.69,12872L3336.03,12871.4L3336.37,12870.7L3336.71,12870L3337.06,12869.3L3337.4,12868.7L3337.75,12868L3338.1,12867.3L3338.46,12866.6L3338.81,12866L3339.17,12865.3L3339.53,12864.6L3339.89,12864L3340.25,12863.3L3340.62,12862.6L3340.99,12862L3341.35,12861.3L3341.72,12860.6L3342.1,12860L3342.47,12859.3L3342.85,12858.7L3343.23,12858L3343.61,12857.4L3343.99,12856.7L3344.38,12856L3344.76,12855.4L3345.15,12854.7L3345.54,12854.1L3345.93,12853.5L3346.33,12852.8L3346.72,12852.2L3347.12,12851.5L3347.52,12850.9L3347.92,12850.2L3348.32,12849.6L3348.73,12849L3349.13,12848.3L3349.54,12847.7L3349.95,12847.1L3350.37,12846.4L3350.78,12845.8L3351.2,12845.2L3351.61,12844.5L3352.03,12843.9L3352.46,12843.3L3352.88,12842.6L3353.31,12842L3353.73,12841.4L3354.16,12840.8L3354.59,12840.2L3355.03,12839.5L3355.46,12838.9L3355.89,12838.3L3356.33,12837.7L3356.77,12837.1L3357.22,12836.5L3357.66,12835.9L3358.1,12835.3L3358.55,12834.6L3359,12834L3359.45,12833.4L3359.9,12832.8L3360.36,12832.2L3360.81,12831.6L3361.27,12831L3361.73,12830.4L3362.19,12829.8L3362.65,12829.2L3363.12,12828.7L3363.58,12828.1L3364.05,12827.5L3364.52,12826.9L3364.99,12826.3L3365.47,12825.7L3365.94,12825.1L3366.42,12824.5L3366.9,12824L3367.38,12823.4L3367.86,12822.8L3368.34,12822.2L3368.83,12821.7L3369.32,12821.1L3369.8,12820.5L3370.29,12819.9L3370.79,12819.4L3371.28,12818.8L3371.78,12818.2L3372.27,12817.7L3372.77,12817.1L3373.27,12816.5L3373.77,12816L3374.28,12815.4L3374.78,12814.9L3375.29,12814.3L3375.8,12813.8L3376.31,12813.2L3376.82,12812.6L3377.33,12812.1L3377.85,12811.5L3378.37,12811L3378.88,12810.5L3379.4,12809.9L3379.93,12809.4L3380.45,12808.8L3380.97,12808.3L3381.5,12807.8L3382.03,12807.2L3382.56,12806.7L3383.09,12806.1L3383.62,12805.6L3384.16,12805.1L3384.69,12804.6L3385.23,12804L3385.77,12803.5L3386.31,12803L3386.85,12802.5L3387.39,12801.9L3387.94,12801.4L3388.49,12800.9L3389.03,12800.4L3389.59,12799.9L3390.14,12799.4L3390.69,12798.9L3391.24,12798.4L3391.8,12797.8L3392.36,12797.3L3392.92,12796.8L3393.48,12796.3L3394.04,12795.8L3394.6,12795.3L3395.17,12794.8L3395.74,12794.3L3396.3,12793.8L3396.87,12793.4L3397.44,12792.9L3398.02,12792.4L3398.59,12791.9L3399.17,12791.4L3399.74,12790.9L3400.32,12790.4L3400.9,12790L3401.48,12789.5L3402.07,12789L3402.65,12788.5L3403.24,12788.1L3403.82,12787.6L3404.41,12787.1L3405,12786.6L3405.59,12786.2L3406.19,12785.7L3406.78,12785.3L3407.38,12784.8L3407.97,12784.3L3408.57,12783.9L3409.17,12783.4L3409.78,12783L3410.38,12782.5L3410.98,12782.1L3411.59,12781.6L3412.2,12781.2L3412.8,12780.7L3413.41,12780.3L3414.03,12779.8L3414.64,12779.4L3415.25,12779L3415.87,12778.5L3416.48,12778.1L3417.1,12777.7L3417.72,12777.2L3418.34,12776.8L3418.97,12776.4L3419.59,12775.9L3420.21,12775.5L3420.84,12775.1L3421.47,12774.7L3422.1,12774.3L3422.73,12773.8L3423.36,12773.4L3423.99,12773L3424.62,12772.6L3425.26,12772.2L3425.9,12771.8L3426.54,12771.4L3427.18,12771L3427.82,12770.6L3428.46,12770.2L3429.1,12769.8L3429.75,12769.4L3430.39,12769L3431.04,12768.6L3431.69,12768.2L3432.34,12767.8L3432.99,12767.4L3433.64,12767.1L3434.29,12766.7L3434.95,12766.3L3435.61,12765.9L3436.26,12765.5L3436.92,12765.2L3437.58,12764.8L3438.24,12764.4L3438.9,12764L3439.57,12763.7L3440.23,12763.3L3440.9,12763L3441.57,12762.6L3442.23,12762.2L3442.9,12761.9L3443.57,12761.5L3444.24,12761.2L3444.92,12760.8L3445.59,12760.5L3446.27,12760.1L3446.95,12759.8L3447.62,12759.4L3448.3,12759.1L3448.98,12758.7L3449.66,12758.4L3450.35,12758.1L3451.03,12757.7L3451.72,12757.4L3452.4,12757.1L3453.09,12756.8L3453.78,12756.4L3454.47,12756.1L3455.16,12755.8L3455.85,12755.5L3456.54,12755.1L3457.24,12754.8L3457.93,12754.5L3458.63,12754.2L3459.32,12753.9L3460.02,12753.6L3460.72,12753.3L3461.42,12753L3462.12,12752.7L3462.83,12752.4L3463.53,12752.1L3464.24,12751.8L3464.94,12751.5L3465.65,12751.2L3466.36,12750.9L3467.07,12750.6L3467.78,12750.4L3468.49,12750.1L3469.2,12749.8L3469.92,12749.5L3470.63,12749.2L3471.35,12749L3472.06,12748.7L3472.78,12748.4L3473.5,12748.2L3474.22,12747.9L3474.94,12747.6L3475.66,12747.4L3476.39,12747.1L3477.11,12746.9L3477.84,12746.6L3478.56,12746.4L3479.29,12746.1L3480.02,12745.9L3480.75,12745.6L3481.48,12745.4L3482.21,12745.1L3482.94,12744.9L3483.67,12744.6L3484.41,12744.4L3485.14,12744.2L3485.88,12744L3486.62,12743.7L3487.35,12743.5L3488.09,12743.3L3488.83,12743.1L3489.57,12742.8L3490.32,12742.6L3491.06,12742.4L3491.8,12742.2L3492.55,12742L3493.29,12741.8L3494.04,12741.6L3494.78,12741.4L3495.53,12741.2L3496.28,12741L3497.03,12740.8L3497.78,12740.6L3498.54,12740.4L3499.29,12740.2L3500.04,12740L3500.8,12739.8L3501.55,12739.6L3502.31,12739.5L3503.07,12739.3L3503.83,12739.1L3504.58,12738.9L3505.34,12738.8L3506.11,12738.6L3506.87,12738.4L3507.63,12738.2L3508.39,12738.1L3509.16,12737.9L3509.92,12737.8L3510.69,12737.6L3511.45,12737.5L3512.22,12737.3L3512.99,12737.2L3513.76,12737L3514.53,12736.9L3515.3,12736.7L3516.07,12736.6L3516.85,12736.5L3517.62,12736.3L3518.39,12736.2L3519.17,12736.1L3519.94,12735.9L3520.72,12735.8L3521.5,12735.7L3522.28,12735.6L3523.06,12735.4L3523.84,12735.3L3524.62,12735.2L3525.4,12735.1L3526.18,12735L3526.96,12734.9L3527.74,12734.8L3528.53,12734.7L3529.31,12734.6L3530.1,12734.5L3530.89,12734.4L3531.67,12734.3L3532.46,12734.2L3533.25,12734.1L3534.04,12734L3534.83,12734L3535.62,12733.9L3536.41,12733.8L3537.21,12733.7L3538,12733.7L3538.79,12733.6L3539.59,12733.5L3540.38,12733.5L3541.18,12733.4L3541.97,12733.3L3542.77,12733.3L3543.57,12733.2L3544.37,12733.2L3545.17,12733.1L3545.97,12733.1L3546.77,12733L3547.57,12733L3548.37,12733L3549.17,12732.9L3549.98,12732.9L3550.78,12732.9L3551.59,12732.8L3552.39,12732.8L3553.2,12732.8L3554,12732.8L3554.81,12732.7L3555.62,12732.7L3556.43,12732.7L3557.24,12732.7L3558.05,12732.7L3558.86,12732.7L3559.67,12732.7L3560.48,12732.7L3561.29,12732.7ZM3559.68,12737.7L3558.89,12737.7L3558.09,12737.7L3557.3,12737.7L3556.51,12737.7L3555.71,12737.7L3554.92,12737.7L3554.13,12737.8L3553.34,12737.8L3552.55,12737.8L3551.76,12737.8L3550.97,12737.9L3550.18,12737.9L3549.4,12737.9L3548.61,12738L3547.82,12738L3547.04,12738L3546.25,12738.1L3545.47,12738.1L3544.68,12738.2L3543.9,12738.2L3543.12,12738.3L3542.34,12738.3L3541.56,12738.4L3540.78,12738.5L3540,12738.5L3539.22,12738.6L3538.44,12738.6L3537.66,12738.7L3536.89,12738.8L3536.11,12738.9L3535.34,12738.9L3534.56,12739L3533.79,12739.1L3533.01,12739.2L3532.24,12739.3L3531.47,12739.4L3530.7,12739.5L3529.93,12739.6L3529.16,12739.6L3528.39,12739.7L3527.62,12739.8L3526.86,12740L3526.09,12740.1L3525.32,12740.2L3524.56,12740.3L3523.79,12740.4L3523.03,12740.5L3522.27,12740.6L3521.51,12740.7L3520.74,12740.9L3519.99,12741L3519.23,12741.1L3518.47,12741.2L3517.71,12741.4L3516.95,12741.5L3516.2,12741.6L3515.44,12741.8L3514.68,12741.9L3513.93,12742.1L3513.18,12742.2L3512.43,12742.4L3511.68,12742.5L3510.92,12742.7L3510.17,12742.8L3509.43,12743L3508.68,12743.1L3507.93,12743.3L3507.18,12743.5L3506.44,12743.6L3505.69,12743.8L3504.95,12744L3504.21,12744.1L3503.46,12744.3L3502.72,12744.5L3501.98,12744.7L3501.24,12744.9L3500.5,12745L3499.77,12745.2L3499.03,12745.4L3498.29,12745.6L3497.56,12745.8L3496.82,12746L3496.09,12746.2L3495.36,12746.4L3494.63,12746.6L3493.9,12746.8L3493.17,12747L3492.44,12747.2L3491.71,12747.4L3490.98,12747.6L3490.26,12747.8L3489.53,12748.1L3488.81,12748.3L3488.09,12748.5L3487.36,12748.7L3486.64,12749L3485.92,12749.2L3485.2,12749.4L3484.48,12749.6L3483.77,12749.9L3483.05,12750.1L3482.34,12750.3L3481.62,12750.6L3480.91,12750.8L3480.19,12751.1L3479.48,12751.3L3478.77,12751.6L3478.06,12751.8L3477.35,12752.1L3476.65,12752.3L3475.94,12752.6L3475.24,12752.9L3474.53,12753.1L3473.83,12753.4L3473.12,12753.6L3472.42,12753.9L3471.72,12754.2L3471.02,12754.5L3470.33,12754.7L3469.63,12755L3468.93,12755.3L3468.24,12755.6L3467.54,12755.8L3466.85,12756.1L3466.16,12756.4L3465.47,12756.7L3464.78,12757L3464.09,12757.3L3463.4,12757.6L3462.71,12757.9L3462.03,12758.2L3461.34,12758.5L3460.66,12758.8L3459.98,12759.1L3459.3,12759.4L3458.62,12759.7L3457.94,12760L3457.26,12760.3L3456.58,12760.6L3455.91,12761L3455.23,12761.3L3454.56,12761.6L3453.89,12761.9L3453.21,12762.2L3452.54,12762.6L3451.88,12762.9L3451.21,12763.2L3450.54,12763.6L3449.88,12763.9L3449.21,12764.2L3448.55,12764.6L3447.89,12764.9L3447.22,12765.3L3446.57,12765.6L3445.91,12765.9L3445.25,12766.3L3444.59,12766.6L3443.94,12767L3443.28,12767.3L3442.63,12767.7L3441.98,12768.1L3441.33,12768.4L3440.68,12768.8L3440.03,12769.1L3439.39,12769.5L3438.74,12769.9L3438.1,12770.2L3437.45,12770.6L3436.81,12771L3436.17,12771.4L3435.53,12771.7L3434.89,12772.1L3434.26,12772.5L3433.62,12772.9L3432.99,12773.3L3432.36,12773.7L3431.72,12774L3431.09,12774.4L3430.46,12774.8L3429.84,12775.2L3429.21,12775.6L3428.58,12776L3427.96,12776.4L3427.34,12776.8L3426.72,12777.2L3426.1,12777.6L3425.48,12778L3424.86,12778.4L3424.24,12778.8L3423.63,12779.2L3423.01,12779.7L3422.4,12780.1L3421.79,12780.5L3421.18,12780.9L3420.57,12781.3L3419.96,12781.8L3419.36,12782.2L3418.75,12782.6L3418.15,12783L3417.55,12783.5L3416.95,12783.9L3416.35,12784.3L3415.75,12784.8L3415.15,12785.2L3414.56,12785.6L3413.97,12786.1L3413.37,12786.5L3412.78,12787L3412.19,12787.4L3411.6,12787.9L3411.02,12788.3L3410.43,12788.8L3409.85,12789.2L3409.26,12789.7L3408.68,12790.1L3408.1,12790.6L3407.53,12791L3406.95,12791.5L3406.37,12791.9L3405.8,12792.4L3405.23,12792.9L3404.65,12793.3L3404.08,12793.8L3403.52,12794.3L3402.95,12794.8L3402.38,12795.2L3401.82,12795.7L3401.26,12796.2L3400.7,12796.7L3400.14,12797.1L3399.58,12797.6L3399.02,12798.1L3398.46,12798.6L3397.91,12799.1L3397.36,12799.6L3396.81,12800.1L3396.26,12800.6L3395.71,12801L3395.16,12801.5L3394.62,12802L3394.07,12802.5L3393.53,12803L3392.99,12803.5L3392.45,12804L3391.91,12804.5L3391.38,12805.1L3390.84,12805.6L3390.31,12806.1L3389.78,12806.6L3389.25,12807.1L3388.72,12807.6L3388.2,12808.1L3387.67,12808.6L3387.14,12809.2L3386.62,12809.7L3386.1,12810.2L3385.58,12810.7L3385.07,12811.3L3384.55,12811.8L3384.04,12812.3L3383.52,12812.8L3383.01,12813.4L3382.5,12813.9L3381.99,12814.4L3381.49,12815L3380.98,12815.5L3380.48,12816.1L3379.98,12816.6L3379.48,12817.1L3378.98,12817.7L3378.48,12818.2L3377.99,12818.8L3377.49,12819.3L3377,12819.9L3376.51,12820.4L3376.02,12821L3375.53,12821.5L3375.05,12822.1L3374.57,12822.6L3374.08,12823.2L3373.6,12823.8L3373.12,12824.3L3372.65,12824.9L3372.17,12825.4L3371.7,12826L3371.22,12826.6L3370.75,12827.1L3370.28,12827.7L3369.82,12828.3L3369.35,12828.9L3368.89,12829.4L3368.43,12830L3367.97,12830.6L3367.51,12831.2L3367.05,12831.7L3366.59,12832.3L3366.14,12832.9L3365.69,12833.5L3365.24,12834.1L3364.79,12834.7L3364.34,12835.3L3363.9,12835.8L3363.45,12836.4L3363.01,12837L3362.57,12837.6L3362.14,12838.2L3361.7,12838.8L3361.26,12839.4L3360.83,12840L3360.4,12840.6L3359.97,12841.2L3359.54,12841.8L3359.12,12842.4L3358.69,12843L3358.27,12843.6L3357.85,12844.2L3357.43,12844.8L3357.01,12845.5L3356.6,12846.1L3356.19,12846.7L3355.77,12847.3L3355.36,12847.9L3354.96,12848.5L3354.55,12849.2L3354.15,12849.8L3353.74,12850.4L3353.34,12851L3352.94,12851.6L3352.55,12852.3L3352.15,12852.9L3351.76,12853.5L3351.37,12854.2L3350.98,12854.8L3350.59,12855.4L3350.2,12856L3349.82,12856.7L3349.44,12857.3L3349.06,12858L3348.68,12858.6L3348.3,12859.2L3347.93,12859.9L3347.55,12860.5L3347.18,12861.2L3346.81,12861.8L3346.45,12862.4L3346.08,12863.1L3345.72,12863.7L3345.36,12864.4L3345,12865L3344.64,12865.7L3344.28,12866.3L3343.93,12867L3343.58,12867.7L3343.23,12868.3L3342.88,12869L3342.53,12869.6L3342.19,12870.3L3341.85,12870.9L3341.51,12871.6L3341.17,12872.3L3340.83,12872.9L3340.5,12873.6L3340.16,12874.3L3339.83,12874.9L3339.51,12875.6L3339.18,12876.3L3338.85,12876.9L3338.53,12877.6L3338.21,12878.3L3337.89,12879L3337.58,12879.6L3337.26,12880.3L3336.95,12881L3336.64,12881.7L3336.33,12882.4L3336.02,12883L3335.72,12883.7L3335.41,12884.4L3335.11,12885.1L3334.81,12885.8L3334.52,12886.5L3334.22,12887.1L3333.93,12887.8L3333.64,12888.5L3333.35,12889.2L3333.07,12889.9L3332.78,12890.6L3332.5,12891.3L3332.22,12892L3331.94,12892.7L3331.66,12893.4L3331.39,12894.1L3331.12,12894.8L3330.85,12895.5L3330.58,12896.2L3330.31,12896.9L3330.05,12897.6L3329.79,12898.3L3329.53,12899L3329.27,12899.7L3329.02,12900.4L3328.76,12901.1L3328.51,12901.8L3328.26,12902.5L3328.01,12903.3L3327.77,12904L3327.53,12904.7L3327.29,12905.4L3327.05,12906.1L3326.81,12906.8L3326.58,12907.5L3326.35,12908.3L3326.12,12909L3325.89,12909.7L3325.66,12910.4L3325.44,12911.1L3325.22,12911.9L3325,12912.6L3324.78,12913.3L3324.57,12914L3324.36,12914.8L3324.14,12915.5L3323.94,12916.2L3323.73,12917L3323.53,12917.7L3323.33,12918.4L3323.13,12919.1L3322.93,12919.9L3322.73,12920.6L3322.54,12921.4L3322.35,12922.1L3322.16,12922.8L3321.98,12923.6L3321.79,12924.3L3321.61,12925L3321.43,12925.8L3321.25,12926.5L3321.08,12927.3L3320.91,12928L3320.74,12928.8L3320.57,12929.5L3320.4,12930.2L3320.24,12931L3320.08,12931.7L3319.92,12932.5L3319.76,12933.2L3319.61,12934L3319.45,12934.7L3319.3,12935.5L3319.16,12936.2L3319.01,12937L3318.87,12937.7L3318.72,12938.5L3318.59,12939.3L3318.45,12940L3318.32,12940.8L3318.18,12941.5L3318.06,12942.3L3317.93,12943L3317.8,12943.8L3317.68,12944.6L3317.56,12945.3L3317.44,12946.1L3317.33,12946.9L3317.22,12947.6L3317.1,12948.4L3316.99,12949.1L3316.89,12949.9L3316.79,12950.7L3316.68,12951.5L3316.59,12952.2L3316.49,12953L3316.39,12953.8L3316.3,12954.5L3316.21,12955.3L3316.13,12956.1L3316.04,12956.8L3315.96,12957.6L3315.88,12958.4L3315.8,12959.2L3315.73,12959.9L3315.65,12960.7L3315.58,12961.5L3315.52,12962.3L3315.45,12963.1L3315.39,12963.8L3315.33,12964.6L3315.27,12965.4L3315.21,12966.2L3315.16,12967L3315.11,12967.7L3315.06,12968.5L3315.01,12969.3L3314.97,12970.1L3314.93,12970.9L3314.89,12971.7L3314.86,12972.5L3314.82,12973.2L3314.79,12974L3314.76,12974.8L3314.74,12975.6L3314.71,12976.4L3314.69,12977.2L3314.67,12978L3314.66,12978.8L3314.64,12979.6L3314.63,12980.4L3314.62,12981.2L3314.62,12981.9L3314.61,12982.7L3314.61,12983.5L3314.61,12984.3L3314.62,12985.1L3314.62,12985.9L3314.63,12986.7L3314.64,12987.5L3314.66,12988.3L3314.67,12989.1L3314.69,12989.9L3314.71,12990.7L3314.74,12991.5L3314.76,12992.3L3314.79,12993L3314.82,12993.8L3314.86,12994.6L3314.89,12995.4L3314.93,12996.2L3314.97,12997L3315.01,12997.8L3315.06,12998.5L3315.11,12999.3L3315.16,13000.1L3315.21,13000.9L3315.27,13001.7L3315.33,13002.5L3315.39,13003.2L3315.45,13004L3315.52,13004.8L3315.58,13005.6L3315.65,13006.3L3315.73,13007.1L3315.8,13007.9L3315.88,13008.7L3315.96,13009.5L3316.04,13010.2L3316.13,13011L3316.21,13011.8L3316.3,13012.5L3316.39,13013.3L3316.49,13014.1L3316.59,13014.9L3316.68,13015.6L3316.79,13016.4L3316.89,13017.2L3316.99,13017.9L3317.1,13018.7L3317.22,13019.5L3317.33,13020.2L3317.44,13021L3317.56,13021.7L3317.68,13022.5L3317.8,13023.3L3317.93,13024L3318.06,13024.8L3318.18,13025.5L3318.32,13026.3L3318.45,13027.1L3318.59,13027.8L3318.72,13028.6L3318.87,13029.3L3319.01,13030.1L3319.16,13030.8L3319.3,13031.6L3319.45,13032.3L3319.61,13033.1L3319.76,13033.8L3319.92,13034.6L3320.08,13035.3L3320.24,13036.1L3320.4,13036.8L3320.57,13037.6L3320.74,13038.3L3320.91,13039.1L3321.08,13039.8L3321.25,13040.5L3321.43,13041.3L3321.61,13042L3321.79,13042.8L3321.98,13043.5L3322.16,13044.2L3322.35,13045L3322.54,13045.7L3322.73,13046.5L3322.93,13047.2L3323.13,13047.9L3323.33,13048.7L3323.53,13049.4L3323.73,13050.1L3323.94,13050.8L3324.14,13051.6L3324.36,13052.3L3324.57,13053L3324.78,13053.8L3325,13054.5L3325.22,13055.2L3325.44,13055.9L3325.66,13056.6L3325.89,13057.4L3326.12,13058.1L3326.35,13058.8L3326.58,13059.5L3326.81,13060.2L3327.05,13061L3327.29,13061.7L3327.53,13062.4L3327.77,13063.1L3328.01,13063.8L3328.26,13064.5L3328.51,13065.2L3328.76,13066L3329.02,13066.7L3329.27,13067.4L3329.53,13068.1L3329.79,13068.8L3330.05,13069.5L3330.31,13070.2L3330.58,13070.9L3330.85,13071.6L3331.12,13072.3L3331.39,13073L3331.66,13073.7L3331.94,13074.4L3332.22,13075.1L3332.5,13075.8L3332.78,13076.5L3333.07,13077.2L3333.35,13077.9L3333.64,13078.5L3333.93,13079.2L3334.22,13079.9L3334.52,13080.6L3334.82,13081.3L3335.11,13082L3335.41,13082.7L3335.72,13083.4L3336.02,13084L3336.33,13084.7L3336.64,13085.4L3336.95,13086.1L3337.26,13086.8L3337.58,13087.4L3337.89,13088.1L3338.21,13088.8L3338.53,13089.5L3338.85,13090.1L3339.18,13090.8L3339.51,13091.5L3339.83,13092.1L3340.16,13092.8L3340.5,13093.5L3340.83,13094.1L3341.17,13094.8L3341.51,13095.5L3341.85,13096.1L3342.19,13096.8L3342.53,13097.4L3342.88,13098.1L3343.23,13098.8L3343.58,13099.4L3343.93,13100.1L3344.28,13100.7L3344.64,13101.4L3345,13102L3345.36,13102.7L3345.72,13103.3L3346.08,13104L3346.45,13104.6L3346.81,13105.3L3347.18,13105.9L3347.55,13106.6L3347.93,13107.2L3348.3,13107.8L3348.68,13108.5L3349.06,13109.1L3349.44,13109.8L3349.82,13110.4L3350.2,13111L3350.59,13111.7L3350.98,13112.3L3351.37,13112.9L3351.76,13113.5L3352.15,13114.2L3352.55,13114.8L3352.94,13115.4L3353.34,13116.1L3353.74,13116.7L3354.15,13117.3L3354.55,13117.9L3354.96,13118.5L3355.36,13119.2L3355.77,13119.8L3356.19,13120.4L3356.6,13121L3357.01,13121.6L3357.43,13122.2L3357.85,13122.8L3358.27,13123.4L3358.69,13124.1L3359.12,13124.7L3359.54,13125.3L3359.97,13125.9L3360.4,13126.5L3360.83,13127.1L3361.26,13127.7L3361.7,13128.3L3362.14,13128.9L3362.57,13129.5L3363.01,13130L3363.45,13130.6L3363.9,13131.2L3364.34,13131.8L3364.79,13132.4L3365.24,13133L3365.69,13133.6L3366.14,13134.2L3366.59,13134.7L3367.05,13135.3L3367.51,13135.9L3367.97,13136.5L3368.43,13137.1L3368.89,13137.6L3369.35,13138.2L3369.82,13138.8L3370.28,13139.4L3370.75,13139.9L3371.22,13140.5L3371.7,13141.1L3372.17,13141.6L3372.65,13142.2L3373.12,13142.8L3373.6,13143.3L3374.08,13143.9L3374.57,13144.4L3375.05,13145L3375.53,13145.5L3376.02,13146.1L3376.51,13146.7L3377,13147.2L3377.49,13147.8L3377.99,13148.3L3378.48,13148.9L3378.98,13149.4L3379.48,13149.9L3379.98,13150.5L3380.48,13151L3380.98,13151.6L3381.49,13152.1L3381.99,13152.6L3382.5,13153.2L3383.01,13153.7L3383.52,13154.2L3384.04,13154.8L3384.55,13155.3L3385.07,13155.8L3385.58,13156.3L3386.1,13156.9L3386.62,13157.4L3387.14,13157.9L3387.67,13158.4L3388.2,13158.9L3388.72,13159.5L3389.25,13160L3389.78,13160.5L3390.31,13161L3390.84,13161.5L3391.38,13162L3391.91,13162.5L3392.45,13163L3392.99,13163.5L3393.53,13164L3394.07,13164.5L3394.62,13165L3395.16,13165.5L3395.71,13166L3396.26,13166.5L3396.81,13167L3397.36,13167.5L3397.91,13168L3398.46,13168.5L3399.02,13169L3399.58,13169.4L3400.14,13169.9L3400.7,13170.4L3401.26,13170.9L3401.82,13171.4L3402.38,13171.8L3402.95,13172.3L3403.52,13172.8L3404.08,13173.3L3404.65,13173.7L3405.23,13174.2L3405.8,13174.7L3406.37,13175.1L3406.95,13175.6L3407.53,13176L3408.1,13176.5L3408.68,13177L3409.26,13177.4L3409.85,13177.9L3410.43,13178.3L3411.02,13178.8L3411.6,13179.2L3412.19,13179.7L3412.78,13180.1L3413.37,13180.6L3413.97,13181L3414.56,13181.4L3415.15,13181.9L3415.75,13182.3L3416.35,13182.7L3416.95,13183.2L3417.55,13183.6L3418.15,13184L3418.75,13184.5L3419.36,13184.9L3419.96,13185.3L3420.57,13185.7L3421.18,13186.2L3421.79,13186.6L3422.4,13187L3423.01,13187.4L3423.63,13187.8L3424.24,13188.2L3424.86,13188.6L3425.48,13189.1L3426.1,13189.5L3426.72,13189.9L3427.34,13190.3L3427.96,13190.7L3428.58,13191.1L3429.21,13191.5L3429.84,13191.9L3430.46,13192.3L3431.09,13192.6L3431.72,13193L3432.36,13193.4L3432.99,13193.8L3433.62,13194.2L3434.26,13194.6L3434.89,13195L3435.53,13195.3L3436.17,13195.7L3436.81,13196.1L3437.45,13196.5L3438.1,13196.8L3438.74,13197.2L3439.39,13197.6L3440.03,13197.9L3440.68,13198.3L3441.33,13198.7L3441.98,13199L3442.63,13199.4L3443.28,13199.7L3443.94,13200.1L3444.59,13200.4L3445.25,13200.8L3445.91,13201.1L3446.57,13201.5L3447.22,13201.8L3447.89,13202.2L3448.55,13202.5L3449.21,13202.8L3449.88,13203.2L3450.54,13203.5L3451.21,13203.8L3451.88,13204.2L3452.54,13204.5L3453.21,13204.8L3453.89,13205.2L3454.56,13205.5L3455.23,13205.8L3455.91,13206.1L3456.58,13206.4L3457.26,13206.8L3457.94,13207.1L3458.62,13207.4L3459.3,13207.7L3459.98,13208L3460.66,13208.3L3461.34,13208.6L3462.03,13208.9L3462.71,13209.2L3463.4,13209.5L3464.09,13209.8L3464.78,13210.1L3465.47,13210.4L3466.16,13210.7L3466.85,13210.9L3467.54,13211.2L3468.24,13211.5L3468.93,13211.8L3469.63,13212.1L3470.33,13212.3L3471.02,13212.6L3471.72,13212.9L3472.42,13213.2L3473.12,13213.4L3473.83,13213.7L3474.53,13214L3475.24,13214.2L3475.94,13214.5L3476.65,13214.7L3477.35,13215L3478.06,13215.2L3478.77,13215.5L3479.48,13215.8L3480.19,13216L3480.91,13216.2L3481.62,13216.5L3482.34,13216.7L3483.05,13217L3483.77,13217.2L3484.48,13217.4L3485.2,13217.7L3485.92,13217.9L3486.64,13218.1L3487.36,13218.3L3488.09,13218.6L3488.81,13218.8L3489.53,13219L3490.26,13219.2L3490.98,13219.4L3491.71,13219.7L3492.44,13219.9L3493.17,13220.1L3493.9,13220.3L3494.63,13220.5L3495.36,13220.7L3496.09,13220.9L3496.82,13221.1L3497.56,13221.3L3498.29,13221.5L3499.03,13221.7L3499.77,13221.9L3500.5,13222L3501.24,13222.2L3501.98,13222.4L3502.72,13222.6L3503.46,13222.8L3504.21,13222.9L3504.95,13223.1L3505.69,13223.3L3506.44,13223.4L3507.18,13223.6L3507.93,13223.8L3508.68,13223.9L3509.43,13224.1L3510.17,13224.3L3510.92,13224.4L3511.68,13224.6L3512.43,13224.7L3513.18,13224.9L3513.93,13225L3514.68,13225.1L3515.44,13225.3L3516.2,13225.4L3516.95,13225.6L3517.71,13225.7L3518.47,13225.8L3519.23,13226L3519.99,13226.1L3520.74,13226.2L3521.51,13226.3L3522.27,13226.5L3523.03,13226.6L3523.79,13226.7L3524.56,13226.8L3525.32,13226.9L3526.09,13227L3526.86,13227.1L3527.62,13227.2L3528.39,13227.3L3529.16,13227.4L3529.93,13227.5L3530.7,13227.6L3531.47,13227.7L3532.24,13227.8L3533.01,13227.9L3533.79,13228L3534.56,13228.1L3535.34,13228.1L3536.11,13228.2L3536.89,13228.3L3537.66,13228.4L3538.44,13228.4L3539.22,13228.5L3540,13228.6L3540.78,13228.6L3541.56,13228.7L3542.34,13228.7L3543.12,13228.8L3543.9,13228.9L3544.68,13228.9L3545.47,13229L3546.25,13229L3547.04,13229L3547.82,13229.1L3548.61,13229.1L3549.4,13229.2L3550.18,13229.2L3550.97,13229.2L3551.76,13229.3L3552.55,13229.3L3553.34,13229.3L3554.13,13229.3L3554.92,13229.3L3555.71,13229.4L3556.51,13229.4L3557.3,13229.4L3558.09,13229.4L3558.89,13229.4L3559.68,13229.4L3560.48,13229.4L3561.27,13229.4L3562.07,13229.4L3562.86,13229.4L3563.66,13229.4L3564.45,13229.4L3565.24,13229.4L3566.03,13229.3L3566.82,13229.3L3567.62,13229.3L3568.41,13229.3L3569.19,13229.3L3569.98,13229.2L3570.77,13229.2L3571.56,13229.2L3572.35,13229.1L3573.13,13229.1L3573.92,13229L3574.7,13229L3575.49,13229L3576.27,13228.9L3577.05,13228.9L3577.83,13228.8L3578.62,13228.7L3579.4,13228.7L3580.18,13228.6L3580.96,13228.6L3581.74,13228.5L3582.51,13228.4L3583.29,13228.4L3584.07,13228.3L3584.84,13228.2L3585.62,13228.1L3586.39,13228.1L3587.17,13228L3587.94,13227.9L3588.71,13227.8L3589.48,13227.7L3590.26,13227.6L3591.03,13227.5L3591.79,13227.4L3592.56,13227.3L3593.33,13227.2L3594.1,13227.1L3594.87,13227L3595.63,13226.9L3596.39,13226.8L3597.16,13226.7L3597.92,13226.6L3598.68,13226.5L3599.45,13226.3L3600.21,13226.2L3600.97,13226.1L3601.73,13226L3602.49,13225.8L3603.24,13225.7L3604,13225.6L3604.76,13225.4L3605.51,13225.3L3606.27,13225.1L3607.02,13225L3607.78,13224.9L3608.53,13224.7L3609.28,13224.6L3610.03,13224.4L3610.78,13224.3L3611.53,13224.1L3612.28,13223.9L3613.02,13223.8L3613.77,13223.6L3614.52,13223.4L3615.26,13223.3L3616.01,13223.1L3616.75,13222.9L3617.49,13222.8L3618.23,13222.6L3618.97,13222.4L3619.71,13222.2L3620.45,13222L3621.19,13221.9L3621.92,13221.7L3622.66,13221.5L3623.39,13221.3L3624.13,13221.1L3624.86,13220.9L3625.6,13220.7L3626.33,13220.5L3627.06,13220.3L3627.79,13220.1L3628.52,13219.9L3629.24,13219.7L3629.97,13219.4L3630.7,13219.2L3631.42,13219L3632.14,13218.8L3632.87,13218.6L3633.59,13218.3L3634.31,13218.1L3635.03,13217.9L3635.75,13217.7L3636.47,13217.4L3637.19,13217.2L3637.9,13217L3638.62,13216.7L3639.33,13216.5L3640.05,13216.2L3640.76,13216L3641.47,13215.8L3642.18,13215.5L3642.89,13215.2L3643.6,13215L3644.31,13214.7L3645.01,13214.5L3645.72,13214.2L3646.42,13214L3647.13,13213.7L3647.83,13213.4L3648.53,13213.2L3649.23,13212.9L3649.93,13212.6L3650.63,13212.3L3651.33,13212.1L3652.02,13211.8L3652.72,13211.5L3653.41,13211.2L3654.11,13210.9L3654.8,13210.7L3655.49,13210.4L3656.18,13210.1L3656.87,13209.8L3657.56,13209.5L3658.24,13209.2L3658.93,13208.9L3659.61,13208.6L3660.3,13208.3L3660.98,13208L3661.66,13207.7L3662.34,13207.4L3663.02,13207.1L3663.7,13206.8L3664.37,13206.4L3665.05,13206.1L3665.72,13205.8L3666.4,13205.5L3667.07,13205.2L3667.74,13204.8L3668.41,13204.5L3669.08,13204.2L3669.75,13203.8L3670.41,13203.5L3671.08,13203.2L3671.74,13202.8L3672.41,13202.5L3673.07,13202.2L3673.73,13201.8L3674.39,13201.5L3675.05,13201.1L3675.7,13200.8L3676.36,13200.4L3677.01,13200.1L3677.67,13199.7L3678.32,13199.4L3678.97,13199L3679.62,13198.7L3680.27,13198.3L3680.92,13197.9L3681.57,13197.6L3682.21,13197.2L3682.86,13196.8L3683.5,13196.5L3684.14,13196.1L3684.78,13195.7L3685.42,13195.3L3686.06,13195L3686.7,13194.6L3687.33,13194.2L3687.97,13193.8L3688.6,13193.4L3689.23,13193L3689.86,13192.6L3690.49,13192.3L3691.12,13191.9L3691.74,13191.5L3692.37,13191.1L3692.99,13190.7L3693.62,13190.3L3694.24,13189.9L3694.86,13189.5L3695.48,13189.1L3696.1,13188.6L3696.71,13188.2L3697.33,13187.8L3697.94,13187.4L3698.55,13187L3699.16,13186.6L3699.77,13186.2L3700.38,13185.7L3700.99,13185.3L3701.6,13184.9L3702.2,13184.5L3702.8,13184L3703.41,13183.6L3704.01,13183.2L3704.61,13182.7L3705.2,13182.3L3705.8,13181.9L3706.39,13181.4L3706.99,13181L3707.58,13180.6L3708.17,13180.1L3708.76,13179.7L3709.35,13179.2L3709.94,13178.8L3710.52,13178.3L3711.11,13177.9L3711.69,13177.4L3712.27,13177L3712.85,13176.5L3713.43,13176L3714.01,13175.6L3714.58,13175.1L3715.16,13174.7L3715.73,13174.2L3716.3,13173.7L3716.87,13173.3L3717.44,13172.8L3718,13172.3L3718.57,13171.8L3719.13,13171.4L3719.7,13170.9L3720.26,13170.4L3720.82,13169.9L3721.38,13169.4L3721.93,13169L3722.49,13168.5L3723.04,13168L3723.6,13167.5L3724.15,13167L3724.7,13166.5L3725.24,13166L3725.79,13165.5L3726.34,13165L3726.88,13164.5L3727.42,13164L3727.96,13163.5L3728.5,13163L3729.04,13162.5L3729.57,13162L3730.11,13161.5L3730.64,13161L3731.17,13160.5L3731.7,13160L3732.23,13159.5L3732.76,13158.9L3733.28,13158.4L3733.81,13157.9L3734.33,13157.4L3734.85,13156.9L3735.37,13156.3L3735.89,13155.8L3736.4,13155.3L3736.92,13154.8L3737.43,13154.2L3737.94,13153.7L3738.45,13153.2L3738.96,13152.6L3739.47,13152.1L3739.97,13151.6L3740.47,13151L3740.98,13150.5L3741.48,13149.9L3741.97,13149.4L3742.47,13148.9L3742.97,13148.3L3743.46,13147.8L3743.95,13147.2L3744.44,13146.7L3744.93,13146.1L3745.42,13145.5L3745.9,13145L3746.39,13144.4L3746.87,13143.9L3747.35,13143.3L3747.83,13142.8L3748.31,13142.2L3748.78,13141.6L3749.26,13141.1L3749.73,13140.5L3750.2,13139.9L3750.67,13139.4L3751.14,13138.8L3751.6,13138.2L3752.07,13137.6L3752.53,13137.1L3752.99,13136.5L3753.45,13135.9L3753.9,13135.3L3754.36,13134.7L3754.81,13134.2L3755.26,13133.6L3755.72,13133L3756.16,13132.4L3756.61,13131.8L3757.06,13131.2L3757.5,13130.6L3757.94,13130L3758.38,13129.5L3758.82,13128.9L3759.26,13128.3L3759.69,13127.7L3760.12,13127.1L3760.55,13126.5L3760.98,13125.9L3761.41,13125.3L3761.84,13124.7L3762.26,13124.1L3762.68,13123.4L3763.1,13122.8L3763.52,13122.2L3763.94,13121.6L3764.35,13121L3764.77,13120.4L3765.18,13119.8L3765.59,13119.2L3766,13118.5L3766.4,13117.9L3766.81,13117.3L3767.21,13116.7L3767.61,13116.1L3768.01,13115.4L3768.41,13114.8L3768.8,13114.2L3769.19,13113.5L3769.59,13112.9L3769.97,13112.3L3770.36,13111.7L3770.75,13111L3771.13,13110.4L3771.51,13109.8L3771.89,13109.1L3772.27,13108.5L3772.65,13107.8L3773.03,13107.2L3773.4,13106.6L3773.77,13105.9L3774.14,13105.3L3774.51,13104.6L3774.87,13104L3775.23,13103.3L3775.6,13102.7L3775.95,13102L3776.31,13101.4L3776.67,13100.7L3777.02,13100.1L3777.38,13099.4L3777.72,13098.8L3778.07,13098.1L3778.42,13097.4L3778.76,13096.8L3779.11,13096.1L3779.45,13095.5L3779.78,13094.8L3780.12,13094.1L3780.45,13093.5L3780.79,13092.8L3781.12,13092.1L3781.45,13091.5L3781.77,13090.8L3782.1,13090.1L3782.42,13089.5L3782.74,13088.8L3783.06,13088.1L3783.38,13087.4L3783.69,13086.8L3784.01,13086.1L3784.32,13085.4L3784.62,13084.7L3784.93,13084L3785.24,13083.4L3785.54,13082.7L3785.84,13082L3786.14,13081.3L3786.43,13080.6L3786.73,13079.9L3787.02,13079.2L3787.31,13078.5L3787.6,13077.9L3787.89,13077.2L3788.17,13076.5L3788.45,13075.8L3788.73,13075.1L3789.01,13074.4L3789.29,13073.7L3789.56,13073L3789.84,13072.3L3790.11,13071.6L3790.37,13070.9L3790.64,13070.2L3790.9,13069.5L3791.16,13068.8L3791.42,13068.1L3791.68,13067.4L3791.94,13066.7L3792.19,13066L3792.44,13065.2L3792.69,13064.5L3792.94,13063.8L3793.18,13063.1L3793.42,13062.4L3793.66,13061.7L3793.9,13061L3794.14,13060.2L3794.37,13059.5L3794.61,13058.8L3794.84,13058.1L3795.06,13057.4L3795.29,13056.6L3795.51,13055.9L3795.73,13055.2L3795.95,13054.5L3796.17,13053.8L3796.38,13053L3796.6,13052.3L3796.81,13051.6L3797.01,13050.8L3797.22,13050.1L3797.43,13049.4L3797.63,13048.7L3797.83,13047.9L3798.02,13047.2L3798.22,13046.5L3798.41,13045.7L3798.6,13045L3798.79,13044.2L3798.98,13043.5L3799.16,13042.8L3799.34,13042L3799.52,13041.3L3799.7,13040.5L3799.87,13039.8L3800.05,13039.1L3800.22,13038.3L3800.39,13037.6L3800.55,13036.8L3800.72,13036.1L3800.88,13035.3L3801.03,13034.6L3801.19,13033.8L3801.35,13033.1L3801.5,13032.3L3801.65,13031.6L3801.8,13030.8L3801.94,13030.1L3802.09,13029.3L3802.23,13028.6L3802.37,13027.8L3802.5,13027.1L3802.64,13026.3L3802.77,13025.5L3802.9,13024.8L3803.02,13024L3803.15,13023.3L3803.27,13022.5L3803.39,13021.7L3803.51,13021L3803.62,13020.2L3803.74,13019.5L3803.85,13018.7L3803.96,13017.9L3804.06,13017.2L3804.17,13016.4L3804.27,13015.6L3804.37,13014.9L3804.46,13014.1L3804.56,13013.3L3804.65,13012.5L3804.74,13011.8L3804.83,13011L3804.91,13010.2L3804.99,13009.5L3805.07,13008.7L3805.15,13007.9L3805.22,13007.1L3805.3,13006.3L3805.37,13005.6L3805.44,13004.8L3805.5,13004L3805.56,13003.2L3805.62,13002.5L3805.68,13001.7L3805.74,13000.9L3805.79,13000.1L3805.84,12999.3L3805.89,12998.5L3805.94,12997.8L3805.98,12997L3806.02,12996.2L3806.06,12995.4L3806.1,12994.6L3806.13,12993.8L3806.16,12993L3806.19,12992.3L3806.22,12991.5L3806.24,12990.7L3806.26,12989.9L3806.28,12989.1L3806.3,12988.3L3806.31,12987.5L3806.32,12986.7L3806.33,12985.9L3806.34,12985.1L3806.34,12984.3L3806.34,12983.5L3806.34,12982.7L3806.34,12981.9L3806.33,12981.2L3806.32,12980.4L3806.31,12979.6L3806.3,12978.8L3806.28,12978L3806.26,12977.2L3806.24,12976.4L3806.22,12975.6L3806.19,12974.8L3806.16,12974L3806.13,12973.2L3806.1,12972.5L3806.06,12971.7L3806.02,12970.9L3805.98,12970.1L3805.94,12969.3L3805.89,12968.5L3805.84,12967.7L3805.79,12967L3805.74,12966.2L3805.68,12965.4L3805.62,12964.6L3805.56,12963.8L3805.5,12963.1L3805.44,12962.3L3805.37,12961.5L3805.3,12960.7L3805.22,12959.9L3805.15,12959.2L3805.07,12958.4L3804.99,12957.6L3804.91,12956.8L3804.83,12956.1L3804.74,12955.3L3804.65,12954.5L3804.56,12953.8L3804.46,12953L3804.37,12952.2L3804.27,12951.5L3804.17,12950.7L3804.06,12949.9L3803.96,12949.1L3803.85,12948.4L3803.74,12947.6L3803.62,12946.9L3803.51,12946.1L3803.39,12945.3L3803.27,12944.6L3803.15,12943.8L3803.02,12943L3802.9,12942.3L3802.77,12941.5L3802.64,12940.8L3802.5,12940L3802.37,12939.3L3802.23,12938.5L3802.09,12937.7L3801.94,12937L3801.8,12936.2L3801.65,12935.5L3801.5,12934.7L3801.35,12934L3801.19,12933.2L3801.03,12932.5L3800.88,12931.7L3800.72,12931L3800.55,12930.2L3800.39,12929.5L3800.22,12928.8L3800.05,12928L3799.87,12927.3L3799.7,12926.5L3799.52,12925.8L3799.34,12925L3799.16,12924.3L3798.98,12923.6L3798.79,12922.8L3798.6,12922.1L3798.41,12921.4L3798.22,12920.6L3798.02,12919.9L3797.83,12919.1L3797.63,12918.4L3797.43,12917.7L3797.22,12917L3797.01,12916.2L3796.81,12915.5L3796.6,12914.8L3796.38,12914L3796.17,12913.3L3795.95,12912.6L3795.73,12911.9L3795.51,12911.1L3795.29,12910.4L3795.06,12909.7L3794.84,12909L3794.61,12908.3L3794.37,12907.5L3794.14,12906.8L3793.9,12906.1L3793.66,12905.4L3793.42,12904.7L3793.18,12904L3792.94,12903.3L3792.69,12902.5L3792.44,12901.8L3792.19,12901.1L3791.94,12900.4L3791.68,12899.7L3791.42,12899L3791.16,12898.3L3790.9,12897.6L3790.64,12896.9L3790.37,12896.2L3790.11,12895.5L3789.84,12894.8L3789.56,12894.1L3789.29,12893.4L3789.01,12892.7L3788.73,12892L3788.45,12891.3L3788.17,12890.6L3787.89,12889.9L3787.6,12889.2L3787.31,12888.5L3787.02,12887.8L3786.73,12887.1L3786.43,12886.5L3786.14,12885.8L3785.84,12885.1L3785.54,12884.4L3785.24,12883.7L3784.93,12883L3784.62,12882.4L3784.32,12881.7L3784.01,12881L3783.69,12880.3L3783.38,12879.6L3783.06,12879L3782.74,12878.3L3782.42,12877.6L3782.1,12876.9L3781.77,12876.3L3781.45,12875.6L3781.12,12874.9L3780.79,12874.3L3780.45,12873.6L3780.12,12872.9L3779.78,12872.3L3779.45,12871.6L3779.11,12870.9L3778.76,12870.3L3778.42,12869.6L3778.07,12869L3777.72,12868.3L3777.38,12867.7L3777.02,12867L3776.67,12866.3L3776.31,12865.7L3775.95,12865L3775.6,12864.4L3775.23,12863.7L3774.87,12863.1L3774.51,12862.4L3774.14,12861.8L3773.77,12861.2L3773.4,12860.5L3773.03,12859.9L3772.65,12859.2L3772.27,12858.6L3771.89,12858L3771.51,12857.3L3771.13,12856.7L3770.75,12856L3770.36,12855.4L3769.97,12854.8L3769.59,12854.2L3769.19,12853.5L3768.8,12852.9L3768.41,12852.3L3768.01,12851.6L3767.61,12851L3767.21,12850.4L3766.81,12849.8L3766.4,12849.2L3766,12848.5L3765.59,12847.9L3765.18,12847.3L3764.77,12846.7L3764.35,12846.1L3763.94,12845.5L3763.52,12844.8L3763.1,12844.2L3762.68,12843.6L3762.26,12843L3761.84,12842.4L3761.41,12841.8L3760.98,12841.2L3760.55,12840.6L3760.12,12840L3759.69,12839.4L3759.26,12838.8L3758.82,12838.2L3758.38,12837.6L3757.94,12837L3757.5,12836.4L3757.06,12835.8L3756.61,12835.3L3756.16,12834.7L3755.72,12834.1L3755.26,12833.5L3754.81,12832.9L3754.36,12832.3L3753.9,12831.7L3753.45,12831.2L3752.99,12830.6L3752.53,12830L3752.07,12829.4L3751.6,12828.9L3751.14,12828.3L3750.67,12827.7L3750.2,12827.1L3749.73,12826.6L3749.26,12826L3748.78,12825.4L3748.31,12824.9L3747.83,12824.3L3747.35,12823.8L3746.87,12823.2L3746.39,12822.6L3745.9,12822.1L3745.42,12821.5L3744.93,12821L3744.44,12820.4L3743.95,12819.9L3743.46,12819.3L3742.97,12818.8L3742.47,12818.2L3741.97,12817.7L3741.48,12817.1L3740.98,12816.6L3740.47,12816.1L3739.97,12815.5L3739.47,12815L3738.96,12814.4L3738.45,12813.9L3737.94,12813.4L3737.43,12812.8L3736.92,12812.3L3736.4,12811.8L3735.89,12811.3L3735.37,12810.7L3734.85,12810.2L3734.33,12809.7L3733.81,12809.2L3733.28,12808.6L3732.76,12808.1L3732.23,12807.6L3731.7,12807.1L3731.17,12806.6L3730.64,12806.1L3730.11,12805.6L3729.57,12805.1L3729.04,12804.5L3728.5,12804L3727.96,12803.5L3727.42,12803L3726.88,12802.5L3726.34,12802L3725.79,12801.5L3725.24,12801L3724.7,12800.6L3724.15,12800.1L3723.6,12799.6L3723.04,12799.1L3722.49,12798.6L3721.93,12798.1L3721.38,12797.6L3720.82,12797.1L3720.26,12796.7L3719.7,12796.2L3719.13,12795.7L3718.57,12795.2L3718,12794.8L3717.44,12794.3L3716.87,12793.8L3716.3,12793.3L3715.73,12792.9L3715.16,12792.4L3714.58,12791.9L3714.01,12791.5L3713.43,12791L3712.85,12790.6L3712.27,12790.1L3711.69,12789.7L3711.11,12789.2L3710.52,12788.8L3709.94,12788.3L3709.35,12787.9L3708.76,12787.4L3708.17,12787L3707.58,12786.5L3706.99,12786.1L3706.39,12785.6L3705.8,12785.2L3705.2,12784.8L3704.61,12784.3L3704.01,12783.9L3703.41,12783.5L3702.8,12783L3702.2,12782.6L3701.6,12782.2L3700.99,12781.8L3700.38,12781.3L3699.77,12780.9L3699.16,12780.5L3698.55,12780.1L3697.94,12779.7L3697.33,12779.2L3696.71,12778.8L3696.1,12778.4L3695.48,12778L3694.86,12777.6L3694.24,12777.2L3693.62,12776.8L3692.99,12776.4L3692.37,12776L3691.74,12775.6L3691.12,12775.2L3690.49,12774.8L3689.86,12774.4L3689.23,12774L3688.6,12773.7L3687.97,12773.3L3687.33,12772.9L3686.7,12772.5L3686.06,12772.1L3685.42,12771.7L3684.78,12771.4L3684.14,12771L3683.5,12770.6L3682.86,12770.2L3682.21,12769.9L3681.57,12769.5L3680.92,12769.1L3680.27,12768.8L3679.62,12768.4L3678.97,12768.1L3678.32,12767.7L3677.67,12767.3L3677.01,12767L3676.36,12766.6L3675.7,12766.3L3675.05,12765.9L3674.39,12765.6L3673.73,12765.3L3673.07,12764.9L3672.41,12764.6L3671.74,12764.2L3671.08,12763.9L3670.41,12763.6L3669.75,12763.2L3669.08,12762.9L3668.41,12762.6L3667.74,12762.2L3667.07,12761.9L3666.4,12761.6L3665.72,12761.3L3665.05,12761L3664.37,12760.6L3663.7,12760.3L3663.02,12760L3662.34,12759.7L3661.66,12759.4L3660.98,12759.1L3660.3,12758.8L3659.61,12758.5L3658.93,12758.2L3658.24,12757.9L3657.55,12757.6L3656.87,12757.3L3656.18,12757L3655.49,12756.7L3654.8,12756.4L3654.11,12756.1L3653.41,12755.8L3652.72,12755.6L3652.02,12755.3L3651.33,12755L3650.63,12754.7L3649.93,12754.5L3649.23,12754.2L3648.53,12753.9L3647.83,12753.6L3647.13,12753.4L3646.42,12753.1L3645.72,12752.9L3645.01,12752.6L3644.31,12752.3L3643.6,12752.1L3642.89,12751.8L3642.18,12751.6L3641.47,12751.3L3640.76,12751.1L3640.05,12750.8L3639.33,12750.6L3638.62,12750.3L3637.9,12750.1L3637.19,12749.9L3636.47,12749.6L3635.75,12749.4L3635.03,12749.2L3634.31,12749L3633.59,12748.7L3632.87,12748.5L3632.14,12748.3L3631.42,12748.1L3630.7,12747.8L3629.97,12747.6L3629.24,12747.4L3628.52,12747.2L3627.79,12747L3627.06,12746.8L3626.33,12746.6L3625.6,12746.4L3624.86,12746.2L3624.13,12746L3623.39,12745.8L3622.66,12745.6L3621.92,12745.4L3621.19,12745.2L3620.45,12745L3619.71,12744.9L3618.97,12744.7L3618.23,12744.5L3617.49,12744.3L3616.75,12744.1L3616.01,12744L3615.26,12743.8L3614.52,12743.6L3613.77,12743.5L3613.02,12743.3L3612.28,12743.1L3611.53,12743L3610.78,12742.8L3610.03,12742.7L3609.28,12742.5L3608.53,12742.4L3607.78,12742.2L3607.02,12742.1L3606.27,12741.9L3605.51,12741.8L3604.76,12741.6L3604,12741.5L3603.24,12741.4L3602.49,12741.2L3601.73,12741.1L3600.97,12741L3600.21,12740.9L3599.45,12740.7L3598.69,12740.6L3597.92,12740.5L3597.16,12740.4L3596.39,12740.3L3595.63,12740.2L3594.87,12740.1L3594.1,12740L3593.33,12739.8L3592.56,12739.7L3591.79,12739.6L3591.03,12739.6L3590.26,12739.5L3589.48,12739.4L3588.71,12739.3L3587.94,12739.2L3587.17,12739.1L3586.39,12739L3585.62,12738.9L3584.84,12738.9L3584.07,12738.8L3583.29,12738.7L3582.51,12738.6L3581.74,12738.6L3580.96,12738.5L3580.18,12738.5L3579.4,12738.4L3578.62,12738.3L3577.83,12738.3L3577.05,12738.2L3576.27,12738.2L3575.49,12738.1L3574.7,12738.1L3573.92,12738L3573.13,12738L3572.35,12738L3571.56,12737.9L3570.77,12737.9L3569.98,12737.9L3569.19,12737.8L3568.41,12737.8L3567.62,12737.8L3566.82,12737.8L3566.03,12737.7L3565.24,12737.7L3564.45,12737.7L3563.66,12737.7L3562.86,12737.7L3562.07,12737.7L3561.27,12737.7L3560.48,12737.7L3559.68,12737.7Z" style="fill:rgb(39,62,69);"/>
            </g>
            <g transform="matrix(1.00231,0,0,1,-3317.99,-12733.3)">
                <path d="M3745.58,13014L3647.65,13112C3645.01,13114.6 3640.74,13114.6 3638.11,13112C3635.47,13109.3 3635.47,13105.1 3638.11,13102.4L3736.04,13004.5C3738.68,13001.9 3742.95,13001.9 3745.58,13004.5C3748.21,13007.1 3748.22,13011.4 3745.58,13014" style="fill:rgb(233,126,22);fill-rule:nonzero;"/>
            </g>
            <g transform="matrix(1.00231,0,0,1,-3317.99,-12733.3)">
                <path d="M3566.3,12890L3523.59,12932.7C3520.95,12935.3 3516.68,12935.3 3514.05,12932.7C3511.41,12930 3511.41,12925.8 3514.05,12923.1L3556.76,12880.4C3559.4,12877.8 3563.67,12877.8 3566.3,12880.4C3568.93,12883.1 3568.93,12887.3 3566.3,12890" style="fill:rgb(233,126,22);fill-rule:nonzero;"/>
            </g>
            <g transform="matrix(1.00231,0,0,1,-3317.99,-12733.3)">
                <path d="M3498.31,12864.7C3490.07,12872.9 3490.07,12886.3 3498.31,12894.5L3516.45,12912.7L3546.3,12882.8L3528.16,12864.7C3519.92,12856.4 3506.55,12856.4 3498.31,12864.7" style="fill:rgb(233,126,22);fill-rule:nonzero;"/>
            </g>
            <g transform="matrix(1.00231,0,0,1,-3317.99,-12733.3)">
                <path d="M3416.63,12992.1L3409,12999.7L3402,12992.8L3409.63,12985.1L3416.63,12992.1ZM3431.89,12976.9L3424.26,12984.5L3417.26,12977.5L3424.89,12969.9L3431.89,12976.9ZM3447.15,12961.6L3439.52,12969.2L3432.53,12962.2L3440.16,12954.6L3447.15,12961.6ZM3462.41,12946.3L3454.78,12954L3447.79,12947L3455.42,12939.3L3462.41,12946.3ZM3477.68,12931.1L3470.05,12938.7L3463.05,12931.7L3470.68,12924.1L3477.68,12931.1ZM3492.94,12915.8L3485.31,12923.4L3478.31,12916.4L3485.94,12908.8L3492.94,12915.8Z" style="fill:rgb(39,62,69);fill-rule:nonzero;"/>
            </g>
            <g transform="matrix(1.00231,0,0,1,-3317.99,-12733.3)">
                <path d="M3499.9,12932L3490.88,12928L3495.33,12918.1L3504.34,12922.2L3499.9,12932ZM3491.01,12951.7L3481.99,12947.6L3486.44,12937.8L3495.45,12941.9L3491.01,12951.7ZM3482.12,12971.4L3473.11,12967.3L3477.55,12957.5L3486.57,12961.5L3482.12,12971.4ZM3473.23,12991L3464.22,12987L3468.66,12977.1L3477.68,12981.2L3473.23,12991ZM3464.35,13010.7L3455.33,13006.6L3459.78,12996.8L3468.79,13000.9L3464.35,13010.7ZM3455.46,13030.4L3446.44,13026.3L3450.89,13016.5L3459.9,13020.5L3455.46,13030.4Z" style="fill:rgb(39,62,69);fill-rule:nonzero;"/>
            </g>
            <g transform="matrix(1.00231,0,0,1,-3317.99,-12733.3)">
                <path d="M3385.08,12950.7L3375.24,12955.1L3371.17,12946.1L3381,12941.6L3385.08,12950.7ZM3404.75,12941.8L3394.91,12946.2L3390.84,12937.2L3400.67,12932.8L3404.75,12941.8ZM3424.42,12932.9L3414.58,12937.3L3410.51,12928.3L3420.34,12923.9L3424.42,12932.9ZM3444.09,12924L3434.25,12928.4L3430.18,12919.4L3440.01,12915L3444.09,12924ZM3463.76,12915.1L3453.92,12919.6L3449.85,12910.5L3459.68,12906.1L3463.76,12915.1ZM3483.43,12906.2L3473.59,12910.7L3469.52,12901.6L3479.35,12897.2L3483.43,12906.2Z" style="fill:rgb(39,62,69);fill-rule:nonzero;"/>
            </g>
            <g transform="matrix(1.00231,0,0,1,-3317.99,-12733.3)">
                <path d="M3630.91,12964C3632.4,12964 3633.61,12965.2 3633.61,12966.7C3633.61,12967.4 3633.31,12968.1 3632.82,12968.6C3632.33,12969.1 3631.66,12969.4 3630.91,12969.4L3626.19,12969.4L3626.19,12974.1C3626.19,12974.8 3625.89,12975.5 3625.4,12976C3624.91,12976.5 3624.24,12976.8 3623.49,12976.8C3622,12976.8 3620.8,12975.6 3620.8,12974.1L3620.8,12969.4L3616.08,12969.4C3614.59,12969.4 3613.38,12968.2 3613.38,12966.7C3613.38,12965.2 3614.59,12964 3616.08,12964L3620.8,12964L3620.8,12959.3C3620.8,12957.8 3622,12956.6 3623.49,12956.6C3624.99,12956.6 3626.19,12957.8 3626.19,12959.3L3626.19,12964L3630.91,12964ZM3644.58,12990.3C3644.76,12991.3 3644.45,12992.2 3643.84,12992.8C3643.47,12993.2 3643,12993.4 3642.46,12993.5C3638.68,12994.3 3635.23,12996.1 3632.49,12998.9C3629.75,13001.6 3627.91,13005.1 3627.15,13008.8C3626.86,13010.3 3625.43,13011.2 3623.97,13011C3622.51,13010.7 3621.57,13009.2 3621.86,13007.8C3622.82,13002.9 3625.18,12998.5 3628.68,12995.1C3632.17,12991.6 3636.57,12989.2 3641.4,12988.2C3642.86,12987.9 3644.28,12988.9 3644.58,12990.3M3602.21,12999.2C3601.72,12999.7 3601.05,13000 3600.3,13000C3598.81,13000 3597.6,12998.8 3597.6,12997.3L3597.6,12992.6L3592.88,12992.6C3591.39,12992.6 3590.19,12991.4 3590.19,12989.9C3590.19,12988.4 3591.39,12987.2 3592.88,12987.2L3597.6,12987.2L3597.6,12982.5C3597.6,12981 3598.81,12979.8 3600.3,12979.8C3601.79,12979.8 3603,12981 3603,12982.5L3603,12987.2L3607.72,12987.2C3609.21,12987.2 3610.42,12988.4 3610.42,12989.9C3610.42,12990.6 3610.12,12991.3 3609.63,12991.8C3609.14,12992.3 3608.46,12992.6 3607.72,12992.6L3603,12992.6L3603,12997.3C3603,12998 3602.7,12998.7 3602.21,12999.2M3590.3,12956.7C3574.3,12972.7 3574.3,12998.7 3590.3,13014.7C3606.3,13030.7 3632.34,13030.7 3648.34,13014.7C3664.34,12998.7 3664.34,12972.7 3648.34,12956.7C3632.34,12940.7 3606.3,12940.7 3590.3,12956.7" style="fill:rgb(233,126,22);fill-rule:nonzero;"/>
            </g>
            <g transform="matrix(1.00231,0,0,1,-3317.99,-12733.3)">
                <path d="M3652.15,13018.5C3634.05,13036.6 3604.59,13036.6 3586.49,13018.5C3568.38,13000.4 3568.38,12971 3586.49,12952.9C3604.59,12934.8 3634.05,12934.8 3652.15,12952.9C3670.26,12971 3670.26,13000.4 3652.15,13018.5M3570.49,12893.4L3527.03,12936.9C3518.9,12961 3524.44,12988.7 3543.67,13008L3633.97,13098.3L3731.91,13000.3L3641.61,12910C3622.37,12890.8 3594.64,12885.3 3570.49,12893.4" style="fill:rgb(233,126,22);fill-rule:nonzero;"/>
            </g>
        </g>
    </g>
</svg>
