<?xml version="1.0" encoding="UTF-8" standalone="no"?>
<!DOCTYPE svg PUBLIC "-//W3C//DTD SVG 1.1//EN" "http://www.w3.org/Graphics/SVG/1.1/DTD/svg11.dtd">
<svg width="100%" height="100%" viewBox="0 0 509 508" version="1.1" xmlns="http://www.w3.org/2000/svg" xmlns:xlink="http://www.w3.org/1999/xlink" xml:space="preserve" style="fill-rule:evenodd;clip-rule:evenodd;stroke-linejoin:round;stroke-miterlimit:1.41421;">
    <g id="Artboard1" transform="matrix(1.00688,0,0,1.00921,-0.760826,-0.98341)">
        <rect x="0.756" y="0.974" width="504.692" height="502.416" style="fill:none;"/>
        <g transform="matrix(0.993167,0,0,0.990878,-2616.74,-11849.6)">
            <g transform="matrix(1,0,0,1,0,-770)">
                <path d="M2890.33,12732.7L2891.14,12732.7L2891.95,12732.7L2892.76,12732.7L2893.57,12732.7L2894.37,12732.7L2895.18,12732.7L2895.99,12732.8L2896.8,12732.8L2897.6,12732.8L2898.41,12732.8L2899.21,12732.9L2900.01,12732.9L2900.82,12732.9L2901.62,12733L2902.42,12733L2903.22,12733L2904.03,12733.1L2904.83,12733.1L2905.62,12733.2L2906.42,12733.2L2907.22,12733.3L2908.02,12733.3L2908.81,12733.4L2909.61,12733.5L2910.41,12733.5L2911.2,12733.6L2911.99,12733.7L2912.79,12733.7L2913.58,12733.8L2914.37,12733.9L2915.16,12734L2915.95,12734L2916.74,12734.1L2917.53,12734.2L2918.32,12734.3L2919.11,12734.4L2919.89,12734.5L2920.68,12734.6L2921.46,12734.7L2922.25,12734.8L2923.03,12734.9L2923.81,12735L2924.6,12735.1L2925.38,12735.2L2926.16,12735.3L2926.94,12735.4L2927.72,12735.6L2928.49,12735.7L2929.27,12735.8L2930.05,12735.9L2930.82,12736.1L2931.6,12736.2L2932.37,12736.3L2933.15,12736.5L2933.92,12736.6L2934.69,12736.7L2935.46,12736.9L2936.23,12737L2937,12737.2L2937.77,12737.3L2938.54,12737.5L2939.3,12737.6L2940.07,12737.8L2940.84,12737.9L2941.6,12738.1L2942.36,12738.2L2943.13,12738.4L2943.89,12738.6L2944.65,12738.8L2945.41,12738.9L2946.17,12739.1L2946.93,12739.3L2947.68,12739.5L2948.44,12739.6L2949.2,12739.8L2949.95,12740L2950.7,12740.2L2951.46,12740.4L2952.21,12740.6L2952.96,12740.8L2953.71,12741L2954.46,12741.2L2955.21,12741.4L2955.95,12741.6L2956.7,12741.8L2957.45,12742L2958.19,12742.2L2958.93,12742.4L2959.68,12742.6L2960.42,12742.8L2961.16,12743.1L2961.9,12743.3L2962.64,12743.5L2963.38,12743.7L2964.11,12744L2964.85,12744.2L2965.59,12744.4L2966.32,12744.6L2967.05,12744.9L2967.78,12745.1L2968.51,12745.4L2969.24,12745.6L2969.97,12745.9L2970.7,12746.1L2971.43,12746.4L2972.16,12746.6L2972.88,12746.9L2973.61,12747.1L2974.33,12747.4L2975.05,12747.6L2975.77,12747.9L2976.49,12748.2L2977.21,12748.4L2977.93,12748.7L2978.64,12749L2979.36,12749.2L2980.08,12749.5L2980.79,12749.8L2981.5,12750.1L2982.21,12750.4L2982.92,12750.6L2983.63,12750.9L2984.34,12751.2L2985.05,12751.5L2985.76,12751.8L2986.46,12752.1L2987.16,12752.4L2987.87,12752.7L2988.57,12753L2989.27,12753.3L2989.97,12753.6L2990.67,12753.9L2991.37,12754.2L2992.06,12754.5L2992.76,12754.8L2993.45,12755.1L2994.14,12755.5L2994.84,12755.8L2995.53,12756.1L2996.22,12756.4L2996.9,12756.8L2997.59,12757.1L2998.28,12757.4L2998.96,12757.7L2999.65,12758.1L3000.33,12758.4L3001.01,12758.7L3001.69,12759.1L3002.37,12759.4L3003.05,12759.8L3003.72,12760.1L3004.4,12760.5L3005.07,12760.8L3005.75,12761.2L3006.42,12761.5L3007.09,12761.9L3007.76,12762.2L3008.43,12762.6L3009.09,12763L3009.76,12763.3L3010.43,12763.7L3011.09,12764L3011.75,12764.4L3012.41,12764.8L3013.07,12765.2L3013.73,12765.5L3014.39,12765.9L3015.04,12766.3L3015.7,12766.7L3016.35,12767.1L3017,12767.4L3017.65,12767.8L3018.3,12768.2L3018.95,12768.6L3019.6,12769L3020.25,12769.4L3020.89,12769.8L3021.53,12770.2L3022.18,12770.6L3022.82,12771L3023.46,12771.4L3024.09,12771.8L3024.73,12772.2L3025.37,12772.6L3026,12773L3026.63,12773.4L3027.26,12773.8L3027.89,12774.3L3028.52,12774.7L3029.15,12775.1L3029.78,12775.5L3030.4,12775.9L3031.03,12776.4L3031.65,12776.8L3032.27,12777.2L3032.89,12777.7L3033.51,12778.1L3034.12,12778.5L3034.74,12779L3035.35,12779.4L3035.97,12779.8L3036.58,12780.3L3037.19,12780.7L3037.8,12781.2L3038.4,12781.6L3039.01,12782.1L3039.61,12782.5L3040.22,12783L3040.82,12783.4L3041.42,12783.9L3042.02,12784.3L3042.61,12784.8L3043.21,12785.3L3043.8,12785.7L3044.4,12786.2L3044.99,12786.6L3045.58,12787.1L3046.17,12787.6L3046.76,12788.1L3047.34,12788.5L3047.93,12789L3048.51,12789.5L3049.09,12790L3049.67,12790.4L3050.25,12790.9L3050.83,12791.4L3051.4,12791.9L3051.97,12792.4L3052.55,12792.9L3053.12,12793.4L3053.69,12793.8L3054.26,12794.3L3054.82,12794.8L3055.39,12795.3L3055.95,12795.8L3056.51,12796.3L3057.08,12796.8L3057.63,12797.3L3058.19,12797.8L3058.75,12798.4L3059.3,12798.9L3059.86,12799.4L3060.41,12799.9L3060.96,12800.4L3061.51,12800.9L3062.05,12801.4L3062.6,12801.9L3063.14,12802.5L3063.68,12803L3064.22,12803.5L3064.76,12804L3065.3,12804.6L3065.84,12805.1L3066.37,12805.6L3066.9,12806.1L3067.43,12806.7L3067.96,12807.2L3068.49,12807.8L3069.02,12808.3L3069.54,12808.8L3070.07,12809.4L3070.59,12809.9L3071.11,12810.5L3071.63,12811L3072.14,12811.5L3072.66,12812.1L3073.17,12812.6L3073.68,12813.2L3074.19,12813.8L3074.7,12814.3L3075.21,12814.9L3075.72,12815.4L3076.22,12816L3076.72,12816.5L3077.22,12817.1L3077.72,12817.7L3078.22,12818.2L3078.71,12818.8L3079.21,12819.4L3079.7,12819.9L3080.19,12820.5L3080.68,12821.1L3081.16,12821.7L3081.65,12822.2L3082.13,12822.8L3082.61,12823.4L3083.09,12824L3083.57,12824.5L3084.05,12825.1L3084.52,12825.7L3085,12826.3L3085.47,12826.9L3085.94,12827.5L3086.41,12828.1L3086.87,12828.7L3087.34,12829.2L3087.8,12829.8L3088.26,12830.4L3088.72,12831L3089.18,12831.6L3089.64,12832.2L3090.09,12832.8L3090.54,12833.4L3090.99,12834L3091.44,12834.6L3091.89,12835.3L3092.33,12835.9L3092.78,12836.5L3093.22,12837.1L3093.66,12837.7L3094.1,12838.3L3094.53,12838.9L3094.97,12839.5L3095.4,12840.2L3095.83,12840.8L3096.26,12841.4L3096.69,12842L3097.11,12842.6L3097.53,12843.3L3097.96,12843.9L3098.38,12844.5L3098.8,12845.2L3099.21,12845.8L3099.62,12846.4L3100.04,12847.1L3100.45,12847.7L3100.86,12848.3L3101.26,12849L3101.67,12849.6L3102.07,12850.2L3102.47,12850.9L3102.87,12851.5L3103.27,12852.2L3103.67,12852.8L3104.06,12853.5L3104.45,12854.1L3104.84,12854.7L3105.23,12855.4L3105.62,12856L3106,12856.7L3106.38,12857.4L3106.76,12858L3107.14,12858.7L3107.52,12859.3L3107.89,12860L3108.27,12860.6L3108.64,12861.3L3109.01,12862L3109.37,12862.6L3109.74,12863.3L3110.1,12864L3110.46,12864.6L3110.82,12865.3L3111.18,12866L3111.53,12866.6L3111.89,12867.3L3112.24,12868L3112.59,12868.7L3112.93,12869.3L3113.28,12870L3113.62,12870.7L3113.96,12871.4L3114.3,12872L3114.64,12872.7L3114.98,12873.4L3115.31,12874.1L3115.64,12874.8L3115.97,12875.5L3116.3,12876.1L3116.62,12876.8L3116.95,12877.5L3117.27,12878.2L3117.59,12878.9L3117.9,12879.6L3118.22,12880.3L3118.53,12881L3118.84,12881.7L3119.15,12882.4L3119.46,12883.1L3119.76,12883.8L3120.07,12884.5L3120.37,12885.2L3120.66,12885.9L3120.96,12886.6L3121.26,12887.3L3121.55,12888L3121.84,12888.7L3122.13,12889.4L3122.41,12890.1L3122.7,12890.8L3122.98,12891.6L3123.26,12892.3L3123.54,12893L3123.81,12893.7L3124.09,12894.4L3124.36,12895.1L3124.62,12895.8L3124.89,12896.6L3125.16,12897.3L3125.42,12898L3125.68,12898.7L3125.94,12899.4L3126.2,12900.2L3126.45,12900.9L3126.7,12901.6L3126.95,12902.3L3127.2,12903.1L3127.44,12903.8L3127.69,12904.5L3127.93,12905.3L3128.17,12906L3128.4,12906.7L3128.64,12907.5L3128.87,12908.2L3129.1,12908.9L3129.33,12909.7L3129.56,12910.4L3129.78,12911.2L3130,12911.9L3130.22,12912.6L3130.44,12913.4L3130.65,12914.1L3130.86,12914.9L3131.07,12915.6L3131.28,12916.4L3131.49,12917.1L3131.69,12917.8L3131.89,12918.6L3132.09,12919.3L3132.29,12920.1L3132.48,12920.8L3132.68,12921.6L3132.87,12922.3L3133.05,12923.1L3133.24,12923.9L3133.42,12924.6L3133.6,12925.4L3133.78,12926.1L3133.96,12926.9L3134.13,12927.6L3134.3,12928.4L3134.47,12929.2L3134.64,12929.9L3134.8,12930.7L3134.97,12931.5L3135.13,12932.2L3135.28,12933L3135.44,12933.7L3135.59,12934.5L3135.74,12935.3L3135.89,12936L3136.04,12936.8L3136.18,12937.6L3136.32,12938.4L3136.46,12939.1L3136.6,12939.9L3136.73,12940.7L3136.87,12941.5L3136.99,12942.2L3137.12,12943L3137.25,12943.8L3137.37,12944.6L3137.49,12945.3L3137.61,12946.1L3137.72,12946.9L3137.84,12947.7L3137.95,12948.5L3138.06,12949.2L3138.16,12950L3138.26,12950.8L3138.37,12951.6L3138.46,12952.4L3138.56,12953.2L3138.65,12953.9L3138.74,12954.7L3138.83,12955.5L3138.92,12956.3L3139,12957.1L3139.09,12957.9L3139.16,12958.7L3139.24,12959.5L3139.32,12960.3L3139.39,12961.1L3139.46,12961.9L3139.52,12962.6L3139.59,12963.4L3139.65,12964.2L3139.71,12965L3139.76,12965.8L3139.82,12966.6L3139.87,12967.4L3139.92,12968.2L3139.97,12969L3140.01,12969.8L3140.05,12970.6L3140.09,12971.4L3140.13,12972.2L3140.16,12973L3140.2,12973.8L3140.23,12974.6L3140.25,12975.4L3140.28,12976.3L3140.3,12977.1L3140.32,12977.9L3140.33,12978.7L3140.35,12979.5L3140.36,12980.3L3140.37,12981.1L3140.38,12981.9L3140.38,12982.7L3140.38,12983.5L3140.38,12984.3L3140.38,12985.2L3140.37,12986L3140.36,12986.8L3140.35,12987.6L3140.33,12988.4L3140.32,12989.2L3140.3,12990L3140.28,12990.8L3140.25,12991.6L3140.23,12992.4L3140.2,12993.2L3140.16,12994L3140.13,12994.8L3140.09,12995.6L3140.05,12996.4L3140.01,12997.2L3139.97,12998L3139.92,12998.8L3139.87,12999.6L3139.82,13000.4L3139.76,13001.2L3139.71,13002L3139.65,13002.8L3139.59,13003.6L3139.52,13004.4L3139.46,13005.2L3139.39,13006L3139.32,13006.8L3139.24,13007.6L3139.16,13008.4L3139.09,13009.2L3139,13010L3138.92,13010.8L3138.83,13011.6L3138.74,13012.3L3138.65,13013.1L3138.56,13013.9L3138.46,13014.7L3138.37,13015.5L3138.26,13016.3L3138.16,13017.1L3138.06,13017.8L3137.95,13018.6L3137.84,13019.4L3137.72,13020.2L3137.61,13021L3137.49,13021.7L3137.37,13022.5L3137.25,13023.3L3137.12,13024.1L3136.99,13024.8L3136.87,13025.6L3136.73,13026.4L3136.6,13027.2L3136.46,13027.9L3136.32,13028.7L3136.18,13029.5L3136.04,13030.3L3135.89,13031L3135.74,13031.8L3135.59,13032.6L3135.44,13033.3L3135.28,13034.1L3135.13,13034.9L3134.97,13035.6L3134.8,13036.4L3134.64,13037.1L3134.47,13037.9L3134.3,13038.7L3134.13,13039.4L3133.96,13040.2L3133.78,13040.9L3133.6,13041.7L3133.42,13042.5L3133.24,13043.2L3133.05,13044L3132.87,13044.7L3132.68,13045.5L3132.48,13046.2L3132.29,13047L3132.09,13047.7L3131.89,13048.5L3131.69,13049.2L3131.49,13050L3131.28,13050.7L3131.07,13051.5L3130.86,13052.2L3130.65,13053L3130.44,13053.7L3130.22,13054.4L3130,13055.2L3129.78,13055.9L3129.56,13056.7L3129.33,13057.4L3129.1,13058.1L3128.87,13058.9L3128.64,13059.6L3128.4,13060.3L3128.17,13061.1L3127.93,13061.8L3127.69,13062.5L3127.44,13063.3L3127.2,13064L3126.95,13064.7L3126.7,13065.5L3126.45,13066.2L3126.2,13066.9L3125.94,13067.6L3125.68,13068.3L3125.42,13069.1L3125.16,13069.8L3124.89,13070.5L3124.62,13071.2L3124.36,13071.9L3124.09,13072.7L3123.81,13073.4L3123.54,13074.1L3123.26,13074.8L3122.98,13075.5L3122.7,13076.2L3122.41,13076.9L3122.13,13077.7L3121.84,13078.4L3121.55,13079.1L3121.26,13079.8L3120.96,13080.5L3120.66,13081.2L3120.37,13081.9L3120.07,13082.6L3119.76,13083.3L3119.46,13084L3119.15,13084.7L3118.84,13085.4L3118.53,13086.1L3118.22,13086.8L3117.9,13087.5L3117.59,13088.2L3117.27,13088.9L3116.95,13089.5L3116.62,13090.2L3116.3,13090.9L3115.97,13091.6L3115.64,13092.3L3115.31,13093L3114.98,13093.7L3114.64,13094.3L3114.3,13095L3113.96,13095.7L3113.62,13096.4L3113.28,13097.1L3112.93,13097.7L3112.59,13098.4L3112.24,13099.1L3111.89,13099.8L3111.53,13100.4L3111.18,13101.1L3110.82,13101.8L3110.46,13102.4L3110.1,13103.1L3109.74,13103.8L3109.37,13104.4L3109.01,13105.1L3108.64,13105.8L3108.27,13106.4L3107.89,13107.1L3107.52,13107.8L3107.14,13108.4L3106.76,13109.1L3106.38,13109.7L3106,13110.4L3105.62,13111L3105.23,13111.7L3104.84,13112.3L3104.45,13113L3104.06,13113.6L3103.67,13114.3L3103.27,13114.9L3102.87,13115.6L3102.47,13116.2L3102.07,13116.8L3101.67,13117.5L3101.26,13118.1L3100.86,13118.8L3100.45,13119.4L3100.04,13120L3099.62,13120.7L3099.21,13121.3L3098.8,13121.9L3098.38,13122.5L3097.96,13123.2L3097.53,13123.8L3097.11,13124.4L3096.69,13125L3096.26,13125.7L3095.83,13126.3L3095.4,13126.9L3094.97,13127.5L3094.53,13128.1L3094.1,13128.8L3093.66,13129.4L3093.22,13130L3092.78,13130.6L3092.33,13131.2L3091.89,13131.8L3091.44,13132.4L3090.99,13133L3090.54,13133.6L3090.09,13134.2L3089.64,13134.8L3089.18,13135.4L3088.72,13136L3088.26,13136.6L3087.8,13137.2L3087.34,13137.8L3086.87,13138.4L3086.41,13139L3085.94,13139.6L3085.47,13140.2L3085,13140.8L3084.52,13141.4L3084.05,13141.9L3083.57,13142.5L3083.09,13143.1L3082.61,13143.7L3082.13,13144.3L3081.65,13144.8L3081.16,13145.4L3080.68,13146L3080.19,13146.6L3079.7,13147.1L3079.21,13147.7L3078.71,13148.3L3078.22,13148.8L3077.72,13149.4L3077.22,13150L3076.72,13150.5L3076.22,13151.1L3075.72,13151.7L3075.21,13152.2L3074.7,13152.8L3074.19,13153.3L3073.68,13153.9L3073.17,13154.4L3072.66,13155L3072.14,13155.5L3071.63,13156.1L3071.11,13156.6L3070.59,13157.2L3070.07,13157.7L3069.54,13158.2L3069.02,13158.8L3068.49,13159.3L3067.96,13159.9L3067.43,13160.4L3066.9,13160.9L3066.37,13161.5L3065.84,13162L3065.3,13162.5L3064.76,13163L3064.22,13163.6L3063.68,13164.1L3063.14,13164.6L3062.6,13165.1L3062.05,13165.6L3061.51,13166.2L3060.96,13166.7L3060.41,13167.2L3059.86,13167.7L3059.3,13168.2L3058.75,13168.7L3058.19,13169.2L3057.63,13169.7L3057.08,13170.2L3056.51,13170.7L3055.95,13171.2L3055.39,13171.7L3054.82,13172.2L3054.26,13172.7L3053.69,13173.2L3053.12,13173.7L3052.55,13174.2L3051.97,13174.7L3051.4,13175.2L3050.83,13175.7L3050.25,13176.2L3049.67,13176.6L3049.09,13177.1L3048.51,13177.6L3047.93,13178.1L3047.34,13178.5L3046.76,13179L3046.17,13179.5L3045.58,13180L3044.99,13180.4L3044.4,13180.9L3043.8,13181.4L3043.21,13181.8L3042.61,13182.3L3042.02,13182.7L3041.42,13183.2L3040.82,13183.7L3040.22,13184.1L3039.61,13184.6L3039.01,13185L3038.4,13185.5L3037.8,13185.9L3037.19,13186.4L3036.58,13186.8L3035.97,13187.2L3035.35,13187.7L3034.74,13188.1L3034.12,13188.6L3033.51,13189L3032.89,13189.4L3032.27,13189.9L3031.65,13190.3L3031.03,13190.7L3030.4,13191.1L3029.78,13191.6L3029.15,13192L3028.52,13192.4L3027.89,13192.8L3027.26,13193.2L3026.63,13193.6L3026,13194.1L3025.37,13194.5L3024.73,13194.9L3024.09,13195.3L3023.46,13195.7L3022.82,13196.1L3022.18,13196.5L3021.53,13196.9L3020.89,13197.3L3020.25,13197.7L3019.6,13198.1L3018.95,13198.5L3018.3,13198.9L3017.65,13199.3L3017,13199.6L3016.35,13200L3015.7,13200.4L3015.04,13200.8L3014.39,13201.2L3013.73,13201.5L3013.07,13201.9L3012.41,13202.3L3011.75,13202.7L3011.09,13203L3010.43,13203.4L3009.76,13203.8L3009.09,13204.1L3008.43,13204.5L3007.76,13204.8L3007.09,13205.2L3006.42,13205.6L3005.75,13205.9L3005.07,13206.3L3004.4,13206.6L3003.72,13207L3003.05,13207.3L3002.37,13207.6L3001.69,13208L3001.01,13208.3L3000.33,13208.7L2999.65,13209L2998.96,13209.3L2998.28,13209.7L2997.59,13210L2996.9,13210.3L2996.22,13210.6L2995.53,13211L2994.84,13211.3L2994.14,13211.6L2993.45,13211.9L2992.76,13212.2L2992.06,13212.6L2991.37,13212.9L2990.67,13213.2L2989.97,13213.5L2989.27,13213.8L2988.57,13214.1L2987.87,13214.4L2987.16,13214.7L2986.46,13215L2985.76,13215.3L2985.05,13215.6L2984.34,13215.9L2983.63,13216.1L2982.92,13216.4L2982.21,13216.7L2981.5,13217L2980.79,13217.3L2980.08,13217.6L2979.36,13217.8L2978.64,13218.1L2977.93,13218.4L2977.21,13218.6L2976.49,13218.9L2975.77,13219.2L2975.05,13219.4L2974.33,13219.7L2973.61,13220L2972.88,13220.2L2972.16,13220.5L2971.43,13220.7L2970.7,13221L2969.97,13221.2L2969.24,13221.5L2968.51,13221.7L2967.78,13222L2967.05,13222.2L2966.32,13222.4L2965.59,13222.7L2964.85,13222.9L2964.11,13223.1L2963.38,13223.4L2962.64,13223.6L2961.9,13223.8L2961.16,13224L2960.42,13224.2L2959.68,13224.5L2958.93,13224.7L2958.19,13224.9L2957.45,13225.1L2956.7,13225.3L2955.95,13225.5L2955.21,13225.7L2954.46,13225.9L2953.71,13226.1L2952.96,13226.3L2952.21,13226.5L2951.46,13226.7L2950.7,13226.9L2949.95,13227.1L2949.2,13227.3L2948.44,13227.4L2947.68,13227.6L2946.93,13227.8L2946.17,13228L2945.41,13228.2L2944.65,13228.3L2943.89,13228.5L2943.13,13228.7L2942.36,13228.8L2941.6,13229L2940.84,13229.1L2940.07,13229.3L2939.3,13229.5L2938.54,13229.6L2937.77,13229.8L2937,13229.9L2936.23,13230.1L2935.46,13230.2L2934.69,13230.3L2933.92,13230.5L2933.15,13230.6L2932.37,13230.8L2931.6,13230.9L2930.83,13231L2930.05,13231.1L2929.27,13231.3L2928.49,13231.4L2927.72,13231.5L2926.94,13231.6L2926.16,13231.7L2925.38,13231.9L2924.6,13232L2923.81,13232.1L2923.03,13232.2L2922.25,13232.3L2921.46,13232.4L2920.68,13232.5L2919.89,13232.6L2919.11,13232.7L2918.32,13232.8L2917.53,13232.9L2916.74,13232.9L2915.95,13233L2915.16,13233.1L2914.37,13233.2L2913.58,13233.3L2912.79,13233.3L2911.99,13233.4L2911.2,13233.5L2910.41,13233.5L2909.61,13233.6L2908.81,13233.7L2908.02,13233.7L2907.22,13233.8L2906.42,13233.8L2905.62,13233.9L2904.83,13233.9L2904.03,13234L2903.22,13234L2902.42,13234.1L2901.62,13234.1L2900.82,13234.2L2900.01,13234.2L2899.21,13234.2L2898.41,13234.2L2897.6,13234.3L2896.8,13234.3L2895.99,13234.3L2895.18,13234.3L2894.37,13234.4L2893.57,13234.4L2892.76,13234.4L2891.95,13234.4L2891.14,13234.4L2890.33,13234.4L2889.51,13234.4L2888.7,13234.4L2887.89,13234.4L2887.08,13234.4L2886.27,13234.4L2885.47,13234.4L2884.66,13234.4L2883.85,13234.3L2883.04,13234.3L2882.24,13234.3L2881.43,13234.3L2880.62,13234.2L2879.82,13234.2L2879.02,13234.2L2878.21,13234.2L2877.41,13234.1L2876.61,13234.1L2875.81,13234L2875.01,13234L2874.21,13233.9L2873.41,13233.9L2872.61,13233.8L2871.81,13233.8L2871.01,13233.7L2870.22,13233.7L2869.42,13233.6L2868.62,13233.5L2867.83,13233.5L2867.04,13233.4L2866.24,13233.3L2865.45,13233.3L2864.66,13233.2L2863.87,13233.1L2863.08,13233L2862.29,13232.9L2861.5,13232.9L2860.71,13232.8L2859.93,13232.7L2859.14,13232.6L2858.35,13232.5L2857.57,13232.4L2856.78,13232.3L2856,13232.2L2855.22,13232.1L2854.43,13232L2853.65,13231.9L2852.87,13231.7L2852.09,13231.6L2851.31,13231.5L2850.54,13231.4L2849.76,13231.3L2848.98,13231.1L2848.21,13231L2847.43,13230.9L2846.66,13230.8L2845.88,13230.6L2845.11,13230.5L2844.34,13230.3L2843.57,13230.2L2842.8,13230.1L2842.03,13229.9L2841.26,13229.8L2840.49,13229.6L2839.73,13229.5L2838.96,13229.3L2838.2,13229.1L2837.43,13229L2836.67,13228.8L2835.91,13228.7L2835.14,13228.5L2834.38,13228.3L2833.62,13228.2L2832.86,13228L2832.11,13227.8L2831.35,13227.6L2830.59,13227.4L2829.84,13227.3L2829.08,13227.1L2828.33,13226.9L2827.57,13226.7L2826.82,13226.5L2826.07,13226.3L2825.32,13226.1L2824.57,13225.9L2823.82,13225.7L2823.08,13225.5L2822.33,13225.3L2821.58,13225.1L2820.84,13224.9L2820.1,13224.7L2819.35,13224.5L2818.61,13224.2L2817.87,13224L2817.13,13223.8L2816.39,13223.6L2815.65,13223.4L2814.92,13223.1L2814.18,13222.9L2813.45,13222.7L2812.71,13222.4L2811.98,13222.2L2811.25,13222L2810.51,13221.7L2809.78,13221.5L2809.06,13221.2L2808.33,13221L2807.6,13220.7L2806.88,13220.5L2806.15,13220.2L2805.43,13220L2804.7,13219.7L2803.98,13219.4L2803.26,13219.2L2802.54,13218.9L2801.82,13218.6L2801.1,13218.4L2800.39,13218.1L2799.67,13217.8L2798.95,13217.6L2798.24,13217.3L2797.53,13217L2796.82,13216.7L2796.11,13216.4L2795.4,13216.1L2794.69,13215.9L2793.98,13215.6L2793.28,13215.3L2792.57,13215L2791.87,13214.7L2791.16,13214.4L2790.46,13214.1L2789.76,13213.8L2789.06,13213.5L2788.36,13213.2L2787.67,13212.9L2786.97,13212.6L2786.27,13212.2L2785.58,13211.9L2784.89,13211.6L2784.2,13211.3L2783.51,13211L2782.82,13210.6L2782.13,13210.3L2781.44,13210L2780.75,13209.7L2780.07,13209.3L2779.39,13209L2778.7,13208.7L2778.02,13208.3L2777.34,13208L2776.66,13207.6L2775.98,13207.3L2775.31,13207L2774.63,13206.6L2773.96,13206.3L2773.28,13205.9L2772.61,13205.6L2771.94,13205.2L2771.27,13204.8L2770.6,13204.5L2769.94,13204.1L2769.27,13203.8L2768.61,13203.4L2767.94,13203L2767.28,13202.7L2766.62,13202.3L2765.96,13201.9L2765.3,13201.5L2764.64,13201.2L2763.99,13200.8L2763.33,13200.4L2762.68,13200L2762.03,13199.6L2761.38,13199.3L2760.73,13198.9L2760.08,13198.5L2759.43,13198.1L2758.78,13197.7L2758.14,13197.3L2757.5,13196.9L2756.86,13196.5L2756.21,13196.1L2755.58,13195.7L2754.94,13195.3L2754.3,13194.9L2753.66,13194.5L2753.03,13194.1L2752.4,13193.6L2751.76,13193.2L2751.14,13192.8L2750.51,13192.4L2749.88,13192L2749.25,13191.6L2748.63,13191.1L2748,13190.7L2747.38,13190.3L2746.76,13189.9L2746.14,13189.4L2745.52,13189L2744.91,13188.6L2744.29,13188.1L2743.68,13187.7L2743.06,13187.2L2742.45,13186.8L2741.84,13186.4L2741.23,13185.9L2740.63,13185.5L2740.02,13185L2739.42,13184.6L2738.81,13184.1L2738.21,13183.7L2737.61,13183.2L2737.01,13182.7L2736.42,13182.3L2735.82,13181.8L2735.23,13181.4L2734.63,13180.9L2734.04,13180.4L2733.45,13180L2732.86,13179.5L2732.28,13179L2731.69,13178.5L2731.11,13178.1L2730.52,13177.6L2729.94,13177.1L2729.36,13176.6L2728.78,13176.2L2728.2,13175.7L2727.63,13175.2L2727.05,13174.7L2726.48,13174.2L2725.91,13173.7L2725.34,13173.2L2724.77,13172.7L2724.21,13172.2L2723.64,13171.7L2723.08,13171.2L2722.52,13170.7L2721.95,13170.2L2721.4,13169.7L2720.84,13169.2L2720.28,13168.7L2719.73,13168.2L2719.18,13167.7L2718.62,13167.2L2718.07,13166.7L2717.53,13166.2L2716.98,13165.6L2716.43,13165.1L2715.89,13164.6L2715.35,13164.1L2714.81,13163.6L2714.27,13163L2713.73,13162.5L2713.19,13162L2712.66,13161.5L2712.13,13160.9L2711.6,13160.4L2711.07,13159.9L2710.54,13159.3L2710.01,13158.8L2709.49,13158.2L2708.96,13157.7L2708.44,13157.2L2707.92,13156.6L2707.4,13156.1L2706.89,13155.5L2706.37,13155L2705.86,13154.4L2705.35,13153.9L2704.84,13153.3L2704.33,13152.8L2703.82,13152.2L2703.32,13151.7L2702.81,13151.1L2702.31,13150.5L2701.81,13150L2701.31,13149.4L2700.81,13148.8L2700.32,13148.3L2699.83,13147.7L2699.33,13147.1L2698.84,13146.6L2698.35,13146L2697.87,13145.4L2697.38,13144.8L2696.9,13144.3L2696.42,13143.7L2695.94,13143.1L2695.46,13142.5L2694.98,13141.9L2694.51,13141.4L2694.03,13140.8L2693.56,13140.2L2693.09,13139.6L2692.62,13139L2692.16,13138.4L2691.69,13137.8L2691.23,13137.2L2690.77,13136.6L2690.31,13136L2689.85,13135.4L2689.4,13134.8L2688.94,13134.2L2688.49,13133.6L2688.04,13133L2687.59,13132.4L2687.14,13131.8L2686.7,13131.2L2686.25,13130.6L2685.81,13130L2685.37,13129.4L2684.93,13128.8L2684.5,13128.1L2684.06,13127.5L2683.63,13126.9L2683.2,13126.3L2682.77,13125.7L2682.34,13125L2681.92,13124.4L2681.49,13123.8L2681.07,13123.2L2680.65,13122.5L2680.24,13121.9L2679.82,13121.3L2679.41,13120.7L2678.99,13120L2678.58,13119.4L2678.17,13118.8L2677.77,13118.1L2677.36,13117.5L2676.96,13116.8L2676.56,13116.2L2676.16,13115.6L2675.76,13114.9L2675.36,13114.3L2674.97,13113.6L2674.58,13113L2674.19,13112.3L2673.8,13111.7L2673.41,13111L2673.03,13110.4L2672.65,13109.7L2672.27,13109.1L2671.89,13108.4L2671.51,13107.8L2671.14,13107.1L2670.76,13106.4L2670.39,13105.8L2670.02,13105.1L2669.66,13104.4L2669.29,13103.8L2668.93,13103.1L2668.57,13102.4L2668.21,13101.8L2667.85,13101.1L2667.5,13100.4L2667.14,13099.8L2666.79,13099.1L2666.44,13098.4L2666.1,13097.7L2665.75,13097.1L2665.41,13096.4L2665.07,13095.7L2664.73,13095L2664.39,13094.3L2664.05,13093.7L2663.72,13093L2663.39,13092.3L2663.06,13091.6L2662.73,13090.9L2662.41,13090.2L2662.08,13089.5L2661.76,13088.9L2661.44,13088.2L2661.13,13087.5L2660.81,13086.8L2660.5,13086.1L2660.19,13085.4L2659.88,13084.7L2659.57,13084L2659.27,13083.3L2658.96,13082.6L2658.66,13081.9L2658.37,13081.2L2658.07,13080.5L2657.77,13079.8L2657.48,13079.1L2657.19,13078.4L2656.9,13077.7L2656.62,13076.9L2656.33,13076.2L2656.05,13075.5L2655.77,13074.8L2655.49,13074.1L2655.22,13073.4L2654.95,13072.7L2654.67,13071.9L2654.41,13071.2L2654.14,13070.5L2653.87,13069.8L2653.61,13069.1L2653.35,13068.3L2653.09,13067.6L2652.84,13066.9L2652.58,13066.2L2652.33,13065.5L2652.08,13064.7L2651.83,13064L2651.59,13063.3L2651.34,13062.5L2651.1,13061.8L2650.86,13061.1L2650.62,13060.3L2650.39,13059.6L2650.16,13058.9L2649.93,13058.1L2649.7,13057.4L2649.47,13056.7L2649.25,13055.9L2649.03,13055.2L2648.81,13054.4L2648.59,13053.7L2648.38,13053L2648.17,13052.2L2647.96,13051.5L2647.75,13050.7L2647.54,13050L2647.34,13049.2L2647.14,13048.5L2646.94,13047.7L2646.74,13047L2646.55,13046.2L2646.36,13045.5L2646.16,13044.7L2645.98,13044L2645.79,13043.2L2645.61,13042.5L2645.43,13041.7L2645.25,13040.9L2645.07,13040.2L2644.9,13039.4L2644.73,13038.7L2644.56,13037.9L2644.39,13037.1L2644.23,13036.4L2644.06,13035.6L2643.9,13034.9L2643.75,13034.1L2643.59,13033.3L2643.44,13032.6L2643.29,13031.8L2643.14,13031L2642.99,13030.3L2642.85,13029.5L2642.71,13028.7L2642.57,13027.9L2642.43,13027.2L2642.3,13026.4L2642.16,13025.6L2642.03,13024.8L2641.91,13024.1L2641.78,13023.3L2641.66,13022.5L2641.54,13021.7L2641.42,13021L2641.31,13020.2L2641.19,13019.4L2641.08,13018.6L2640.97,13017.8L2640.87,13017.1L2640.77,13016.3L2640.66,13015.5L2640.57,13014.7L2640.47,13013.9L2640.38,13013.1L2640.28,13012.3L2640.2,13011.6L2640.11,13010.8L2640.03,13010L2639.94,13009.2L2639.87,13008.4L2639.79,13007.6L2639.72,13006.8L2639.64,13006L2639.57,13005.2L2639.51,13004.4L2639.44,13003.6L2639.38,13002.8L2639.32,13002L2639.26,13001.2L2639.21,13000.4L2639.16,12999.6L2639.11,12998.8L2639.06,12998L2639.02,12997.2L2638.98,12996.4L2638.94,12995.6L2638.9,12994.8L2638.87,12994L2638.83,12993.2L2638.8,12992.4L2638.78,12991.6L2638.75,12990.8L2638.73,12990L2638.71,12989.2L2638.7,12988.4L2638.68,12987.6L2638.67,12986.8L2638.66,12986L2638.66,12985.2L2638.65,12984.3L2638.65,12983.5L2638.65,12982.7L2638.66,12981.9L2638.66,12981.1L2638.67,12980.3L2638.68,12979.5L2638.7,12978.7L2638.71,12977.9L2638.73,12977.1L2638.75,12976.3L2638.78,12975.4L2638.8,12974.6L2638.83,12973.8L2638.87,12973L2638.9,12972.2L2638.94,12971.4L2638.98,12970.6L2639.02,12969.8L2639.06,12969L2639.11,12968.2L2639.16,12967.4L2639.21,12966.6L2639.26,12965.8L2639.32,12965L2639.38,12964.2L2639.44,12963.4L2639.51,12962.6L2639.57,12961.9L2639.64,12961.1L2639.72,12960.3L2639.79,12959.5L2639.87,12958.7L2639.94,12957.9L2640.03,12957.1L2640.11,12956.3L2640.2,12955.5L2640.28,12954.7L2640.38,12953.9L2640.47,12953.2L2640.57,12952.4L2640.66,12951.6L2640.77,12950.8L2640.87,12950L2640.97,12949.2L2641.08,12948.5L2641.19,12947.7L2641.31,12946.9L2641.42,12946.1L2641.54,12945.3L2641.66,12944.6L2641.78,12943.8L2641.91,12943L2642.03,12942.2L2642.16,12941.5L2642.3,12940.7L2642.43,12939.9L2642.57,12939.1L2642.71,12938.4L2642.85,12937.6L2642.99,12936.8L2643.14,12936L2643.29,12935.3L2643.44,12934.5L2643.59,12933.7L2643.75,12933L2643.9,12932.2L2644.06,12931.5L2644.23,12930.7L2644.39,12929.9L2644.56,12929.2L2644.73,12928.4L2644.9,12927.6L2645.07,12926.9L2645.25,12926.1L2645.43,12925.4L2645.61,12924.6L2645.79,12923.9L2645.98,12923.1L2646.16,12922.3L2646.36,12921.6L2646.55,12920.8L2646.74,12920.1L2646.94,12919.3L2647.14,12918.6L2647.34,12917.8L2647.54,12917.1L2647.75,12916.4L2647.96,12915.6L2648.17,12914.9L2648.38,12914.1L2648.59,12913.4L2648.81,12912.6L2649.03,12911.9L2649.25,12911.2L2649.47,12910.4L2649.7,12909.7L2649.93,12908.9L2650.16,12908.2L2650.39,12907.5L2650.62,12906.7L2650.86,12906L2651.1,12905.3L2651.34,12904.5L2651.59,12903.8L2651.83,12903.1L2652.08,12902.3L2652.33,12901.6L2652.58,12900.9L2652.84,12900.2L2653.09,12899.4L2653.35,12898.7L2653.61,12898L2653.87,12897.3L2654.14,12896.6L2654.41,12895.8L2654.67,12895.1L2654.95,12894.4L2655.22,12893.7L2655.49,12893L2655.77,12892.3L2656.05,12891.6L2656.33,12890.8L2656.62,12890.1L2656.9,12889.4L2657.19,12888.7L2657.48,12888L2657.77,12887.3L2658.07,12886.6L2658.37,12885.9L2658.66,12885.2L2658.96,12884.5L2659.27,12883.8L2659.57,12883.1L2659.88,12882.4L2660.19,12881.7L2660.5,12881L2660.81,12880.3L2661.13,12879.6L2661.44,12878.9L2661.76,12878.2L2662.08,12877.5L2662.41,12876.8L2662.73,12876.1L2663.06,12875.5L2663.39,12874.8L2663.72,12874.1L2664.05,12873.4L2664.39,12872.7L2664.73,12872L2665.07,12871.4L2665.41,12870.7L2665.75,12870L2666.1,12869.3L2666.44,12868.7L2666.79,12868L2667.14,12867.3L2667.5,12866.6L2667.85,12866L2668.21,12865.3L2668.57,12864.6L2668.93,12864L2669.29,12863.3L2669.66,12862.6L2670.02,12862L2670.39,12861.3L2670.76,12860.6L2671.14,12860L2671.51,12859.3L2671.89,12858.7L2672.27,12858L2672.65,12857.4L2673.03,12856.7L2673.41,12856L2673.8,12855.4L2674.19,12854.7L2674.58,12854.1L2674.97,12853.5L2675.36,12852.8L2675.76,12852.2L2676.16,12851.5L2676.56,12850.9L2676.96,12850.2L2677.36,12849.6L2677.77,12849L2678.17,12848.3L2678.58,12847.7L2678.99,12847.1L2679.41,12846.4L2679.82,12845.8L2680.24,12845.2L2680.65,12844.5L2681.07,12843.9L2681.49,12843.3L2681.92,12842.6L2682.34,12842L2682.77,12841.4L2683.2,12840.8L2683.63,12840.2L2684.06,12839.5L2684.5,12838.9L2684.93,12838.3L2685.37,12837.7L2685.81,12837.1L2686.25,12836.5L2686.7,12835.9L2687.14,12835.3L2687.59,12834.6L2688.04,12834L2688.49,12833.4L2688.94,12832.8L2689.4,12832.2L2689.85,12831.6L2690.31,12831L2690.77,12830.4L2691.23,12829.8L2691.69,12829.2L2692.16,12828.7L2692.62,12828.1L2693.09,12827.5L2693.56,12826.9L2694.03,12826.3L2694.51,12825.7L2694.98,12825.1L2695.46,12824.5L2695.94,12824L2696.42,12823.4L2696.9,12822.8L2697.38,12822.2L2697.87,12821.7L2698.35,12821.1L2698.84,12820.5L2699.33,12819.9L2699.83,12819.4L2700.32,12818.8L2700.81,12818.2L2701.31,12817.7L2701.81,12817.1L2702.31,12816.5L2702.81,12816L2703.32,12815.4L2703.82,12814.9L2704.33,12814.3L2704.84,12813.8L2705.35,12813.2L2705.86,12812.6L2706.37,12812.1L2706.89,12811.5L2707.4,12811L2707.92,12810.5L2708.44,12809.9L2708.96,12809.4L2709.49,12808.8L2710.01,12808.3L2710.54,12807.8L2711.07,12807.2L2711.6,12806.7L2712.13,12806.1L2712.66,12805.6L2713.19,12805.1L2713.73,12804.6L2714.27,12804L2714.81,12803.5L2715.35,12803L2715.89,12802.5L2716.43,12801.9L2716.98,12801.4L2717.53,12800.9L2718.07,12800.4L2718.62,12799.9L2719.18,12799.4L2719.73,12798.9L2720.28,12798.4L2720.84,12797.8L2721.4,12797.3L2721.95,12796.8L2722.52,12796.3L2723.08,12795.8L2723.64,12795.3L2724.21,12794.8L2724.77,12794.3L2725.34,12793.8L2725.91,12793.4L2726.48,12792.9L2727.05,12792.4L2727.63,12791.9L2728.2,12791.4L2728.78,12790.9L2729.36,12790.4L2729.94,12790L2730.52,12789.5L2731.11,12789L2731.69,12788.5L2732.28,12788.1L2732.86,12787.6L2733.45,12787.1L2734.04,12786.6L2734.63,12786.2L2735.23,12785.7L2735.82,12785.3L2736.42,12784.8L2737.01,12784.3L2737.61,12783.9L2738.21,12783.4L2738.81,12783L2739.42,12782.5L2740.02,12782.1L2740.63,12781.6L2741.23,12781.2L2741.84,12780.7L2742.45,12780.3L2743.06,12779.8L2743.68,12779.4L2744.29,12779L2744.91,12778.5L2745.52,12778.1L2746.14,12777.7L2746.76,12777.2L2747.38,12776.8L2748,12776.4L2748.63,12775.9L2749.25,12775.5L2749.88,12775.1L2750.51,12774.7L2751.14,12774.3L2751.76,12773.8L2752.4,12773.4L2753.03,12773L2753.66,12772.6L2754.3,12772.2L2754.94,12771.8L2755.58,12771.4L2756.21,12771L2756.86,12770.6L2757.5,12770.2L2758.14,12769.8L2758.78,12769.4L2759.43,12769L2760.08,12768.6L2760.73,12768.2L2761.38,12767.8L2762.03,12767.4L2762.68,12767.1L2763.33,12766.7L2763.99,12766.3L2764.64,12765.9L2765.3,12765.5L2765.96,12765.2L2766.62,12764.8L2767.28,12764.4L2767.94,12764L2768.61,12763.7L2769.27,12763.3L2769.94,12763L2770.6,12762.6L2771.27,12762.2L2771.94,12761.9L2772.61,12761.5L2773.28,12761.2L2773.96,12760.8L2774.63,12760.5L2775.31,12760.1L2775.98,12759.8L2776.66,12759.4L2777.34,12759.1L2778.02,12758.7L2778.7,12758.4L2779.39,12758.1L2780.07,12757.7L2780.75,12757.4L2781.44,12757.1L2782.13,12756.8L2782.82,12756.4L2783.51,12756.1L2784.2,12755.8L2784.89,12755.5L2785.58,12755.1L2786.27,12754.8L2786.97,12754.5L2787.67,12754.2L2788.36,12753.9L2789.06,12753.6L2789.76,12753.3L2790.46,12753L2791.16,12752.7L2791.87,12752.4L2792.57,12752.1L2793.28,12751.8L2793.98,12751.5L2794.69,12751.2L2795.4,12750.9L2796.11,12750.6L2796.82,12750.4L2797.53,12750.1L2798.24,12749.8L2798.95,12749.5L2799.67,12749.2L2800.39,12749L2801.1,12748.7L2801.82,12748.4L2802.54,12748.2L2803.26,12747.9L2803.98,12747.6L2804.7,12747.4L2805.43,12747.1L2806.15,12746.9L2806.88,12746.6L2807.6,12746.4L2808.33,12746.1L2809.06,12745.9L2809.78,12745.6L2810.51,12745.4L2811.25,12745.1L2811.98,12744.9L2812.71,12744.6L2813.45,12744.4L2814.18,12744.2L2814.92,12744L2815.65,12743.7L2816.39,12743.5L2817.13,12743.3L2817.87,12743.1L2818.61,12742.8L2819.35,12742.6L2820.1,12742.4L2820.84,12742.2L2821.58,12742L2822.33,12741.8L2823.08,12741.6L2823.82,12741.4L2824.57,12741.2L2825.32,12741L2826.07,12740.8L2826.82,12740.6L2827.57,12740.4L2828.33,12740.2L2829.08,12740L2829.84,12739.8L2830.59,12739.6L2831.35,12739.5L2832.11,12739.3L2832.86,12739.1L2833.62,12738.9L2834.38,12738.8L2835.14,12738.6L2835.91,12738.4L2836.67,12738.2L2837.43,12738.1L2838.2,12737.9L2838.96,12737.8L2839.73,12737.6L2840.49,12737.5L2841.26,12737.3L2842.03,12737.2L2842.8,12737L2843.57,12736.9L2844.34,12736.7L2845.11,12736.6L2845.88,12736.5L2846.66,12736.3L2847.43,12736.2L2848.21,12736.1L2848.98,12735.9L2849.76,12735.8L2850.54,12735.7L2851.31,12735.6L2852.09,12735.4L2852.87,12735.3L2853.65,12735.2L2854.43,12735.1L2855.22,12735L2856,12734.9L2856.78,12734.8L2857.57,12734.7L2858.35,12734.6L2859.14,12734.5L2859.93,12734.4L2860.71,12734.3L2861.5,12734.2L2862.29,12734.1L2863.08,12734L2863.87,12734L2864.66,12733.9L2865.45,12733.8L2866.24,12733.7L2867.04,12733.7L2867.83,12733.6L2868.62,12733.5L2869.42,12733.5L2870.22,12733.4L2871.01,12733.3L2871.81,12733.3L2872.61,12733.2L2873.41,12733.2L2874.21,12733.1L2875.01,12733.1L2875.81,12733L2876.61,12733L2877.41,12733L2878.21,12732.9L2879.02,12732.9L2879.82,12732.9L2880.62,12732.8L2881.43,12732.8L2882.24,12732.8L2883.04,12732.8L2883.85,12732.7L2884.66,12732.7L2885.47,12732.7L2886.27,12732.7L2887.08,12732.7L2887.89,12732.7L2888.7,12732.7L2889.51,12732.7L2890.33,12732.7ZM2888.72,12737.7L2887.93,12737.7L2887.13,12737.7L2886.34,12737.7L2885.54,12737.7L2884.75,12737.7L2883.96,12737.7L2883.17,12737.8L2882.38,12737.8L2881.59,12737.8L2880.8,12737.8L2880.01,12737.9L2879.22,12737.9L2878.43,12737.9L2877.65,12738L2876.86,12738L2876.08,12738L2875.29,12738.1L2874.51,12738.1L2873.72,12738.2L2872.94,12738.2L2872.16,12738.3L2871.38,12738.3L2870.6,12738.4L2869.82,12738.5L2869.04,12738.5L2868.26,12738.6L2867.48,12738.6L2866.7,12738.7L2865.93,12738.8L2865.15,12738.9L2864.37,12738.9L2863.6,12739L2862.83,12739.1L2862.05,12739.2L2861.28,12739.3L2860.51,12739.4L2859.74,12739.5L2858.97,12739.6L2858.2,12739.6L2857.43,12739.7L2856.66,12739.8L2855.89,12740L2855.13,12740.1L2854.36,12740.2L2853.6,12740.3L2852.83,12740.4L2852.07,12740.5L2851.31,12740.6L2850.55,12740.7L2849.78,12740.9L2849.02,12741L2848.26,12741.1L2847.51,12741.2L2846.75,12741.4L2845.99,12741.5L2845.23,12741.6L2844.48,12741.8L2843.72,12741.9L2842.97,12742.1L2842.22,12742.2L2841.46,12742.4L2840.71,12742.5L2839.96,12742.7L2839.21,12742.8L2838.46,12743L2837.72,12743.1L2836.97,12743.3L2836.22,12743.5L2835.48,12743.6L2834.73,12743.8L2833.99,12744L2833.24,12744.1L2832.5,12744.3L2831.76,12744.5L2831.02,12744.7L2830.28,12744.9L2829.54,12745L2828.8,12745.2L2828.07,12745.4L2827.33,12745.6L2826.6,12745.8L2825.86,12746L2825.13,12746.2L2824.4,12746.4L2823.67,12746.6L2822.93,12746.8L2822.2,12747L2821.48,12747.2L2820.75,12747.4L2820.02,12747.6L2819.3,12747.8L2818.57,12748.1L2817.85,12748.3L2817.12,12748.5L2816.4,12748.7L2815.68,12749L2814.96,12749.2L2814.24,12749.4L2813.52,12749.6L2812.8,12749.9L2812.09,12750.1L2811.37,12750.3L2810.66,12750.6L2809.95,12750.8L2809.23,12751.1L2808.52,12751.3L2807.81,12751.6L2807.1,12751.8L2806.39,12752.1L2805.68,12752.3L2804.98,12752.6L2804.27,12752.9L2803.57,12753.1L2802.87,12753.4L2802.16,12753.6L2801.46,12753.9L2800.76,12754.2L2800.06,12754.5L2799.36,12754.7L2798.67,12755L2797.97,12755.3L2797.27,12755.6L2796.58,12755.8L2795.89,12756.1L2795.2,12756.4L2794.5,12756.7L2793.81,12757L2793.13,12757.3L2792.44,12757.6L2791.75,12757.9L2791.07,12758.2L2790.38,12758.5L2789.7,12758.8L2789.01,12759.1L2788.33,12759.4L2787.65,12759.7L2786.97,12760L2786.3,12760.3L2785.62,12760.6L2784.94,12761L2784.27,12761.3L2783.6,12761.6L2782.92,12761.9L2782.25,12762.2L2781.58,12762.6L2780.91,12762.9L2780.25,12763.2L2779.58,12763.6L2778.91,12763.9L2778.25,12764.2L2777.59,12764.6L2776.92,12764.9L2776.26,12765.3L2775.6,12765.6L2774.95,12765.9L2774.29,12766.3L2773.63,12766.6L2772.98,12767L2772.32,12767.3L2771.67,12767.7L2771.02,12768.1L2770.37,12768.4L2769.72,12768.8L2769.07,12769.1L2768.43,12769.5L2767.78,12769.9L2767.14,12770.2L2766.49,12770.6L2765.85,12771L2765.21,12771.4L2764.57,12771.7L2763.93,12772.1L2763.3,12772.5L2762.66,12772.9L2762.03,12773.3L2761.39,12773.7L2760.76,12774L2760.13,12774.4L2759.5,12774.8L2758.88,12775.2L2758.25,12775.6L2757.62,12776L2757,12776.4L2756.38,12776.8L2755.75,12777.2L2755.13,12777.6L2754.51,12778L2753.9,12778.4L2753.28,12778.8L2752.66,12779.2L2752.05,12779.7L2751.44,12780.1L2750.83,12780.5L2750.22,12780.9L2749.61,12781.3L2749,12781.8L2748.4,12782.2L2747.79,12782.6L2747.19,12783L2746.59,12783.5L2745.99,12783.9L2745.39,12784.3L2744.79,12784.8L2744.19,12785.2L2743.6,12785.6L2743,12786.1L2742.41,12786.5L2741.82,12787L2741.23,12787.4L2740.64,12787.9L2740.06,12788.3L2739.47,12788.8L2738.89,12789.2L2738.3,12789.7L2737.72,12790.1L2737.14,12790.6L2736.56,12791L2735.99,12791.5L2735.41,12791.9L2734.84,12792.4L2734.26,12792.9L2733.69,12793.3L2733.12,12793.8L2732.55,12794.3L2731.99,12794.8L2731.42,12795.2L2730.86,12795.7L2730.3,12796.2L2729.73,12796.7L2729.17,12797.1L2728.62,12797.6L2728.06,12798.1L2727.5,12798.6L2726.95,12799.1L2726.4,12799.6L2725.85,12800.1L2725.3,12800.6L2724.75,12801L2724.2,12801.5L2723.66,12802L2723.11,12802.5L2722.57,12803L2722.03,12803.5L2721.49,12804L2720.95,12804.5L2720.42,12805.1L2719.88,12805.6L2719.35,12806.1L2718.82,12806.6L2718.29,12807.1L2717.76,12807.6L2717.23,12808.1L2716.71,12808.6L2716.18,12809.2L2715.66,12809.7L2715.14,12810.2L2714.62,12810.7L2714.11,12811.3L2713.59,12811.8L2713.07,12812.3L2712.56,12812.8L2712.05,12813.4L2711.54,12813.9L2711.03,12814.4L2710.53,12815L2710.02,12815.5L2709.52,12816.1L2709.02,12816.6L2708.52,12817.1L2708.02,12817.7L2707.52,12818.2L2707.03,12818.8L2706.53,12819.3L2706.04,12819.9L2705.55,12820.4L2705.06,12821L2704.57,12821.5L2704.09,12822.1L2703.6,12822.6L2703.12,12823.2L2702.64,12823.8L2702.16,12824.3L2701.68,12824.9L2701.21,12825.4L2700.74,12826L2700.26,12826.6L2699.79,12827.1L2699.32,12827.7L2698.86,12828.3L2698.39,12828.9L2697.93,12829.4L2697.47,12830L2697,12830.6L2696.55,12831.2L2696.09,12831.7L2695.63,12832.3L2695.18,12832.9L2694.73,12833.5L2694.28,12834.1L2693.83,12834.7L2693.38,12835.3L2692.94,12835.8L2692.49,12836.4L2692.05,12837L2691.61,12837.6L2691.17,12838.2L2690.74,12838.8L2690.3,12839.4L2689.87,12840L2689.44,12840.6L2689.01,12841.2L2688.58,12841.8L2688.16,12842.4L2687.73,12843L2687.31,12843.6L2686.89,12844.2L2686.47,12844.8L2686.05,12845.5L2685.64,12846.1L2685.22,12846.7L2684.81,12847.3L2684.4,12847.9L2684,12848.5L2683.59,12849.2L2683.18,12849.8L2682.78,12850.4L2682.38,12851L2681.98,12851.6L2681.59,12852.3L2681.19,12852.9L2680.8,12853.5L2680.41,12854.2L2680.02,12854.8L2679.63,12855.4L2679.24,12856L2678.86,12856.7L2678.48,12857.3L2678.1,12858L2677.72,12858.6L2677.34,12859.2L2676.97,12859.9L2676.59,12860.5L2676.22,12861.2L2675.85,12861.8L2675.49,12862.4L2675.12,12863.1L2674.76,12863.7L2674.4,12864.4L2674.04,12865L2673.68,12865.7L2673.32,12866.3L2672.97,12867L2672.62,12867.7L2672.27,12868.3L2671.92,12869L2671.57,12869.6L2671.23,12870.3L2670.89,12870.9L2670.55,12871.6L2670.21,12872.3L2669.87,12872.9L2669.54,12873.6L2669.2,12874.3L2668.87,12874.9L2668.55,12875.6L2668.22,12876.3L2667.89,12876.9L2667.57,12877.6L2667.25,12878.3L2666.93,12879L2666.61,12879.6L2666.3,12880.3L2665.99,12881L2665.68,12881.7L2665.37,12882.4L2665.06,12883L2664.76,12883.7L2664.45,12884.4L2664.15,12885.1L2663.85,12885.8L2663.56,12886.5L2663.26,12887.1L2662.97,12887.8L2662.68,12888.5L2662.39,12889.2L2662.1,12889.9L2661.82,12890.6L2661.54,12891.3L2661.26,12892L2660.98,12892.7L2660.7,12893.4L2660.43,12894.1L2660.16,12894.8L2659.89,12895.5L2659.62,12896.2L2659.35,12896.9L2659.09,12897.6L2658.83,12898.3L2658.57,12899L2658.31,12899.7L2658.05,12900.4L2657.8,12901.1L2657.55,12901.8L2657.3,12902.5L2657.05,12903.3L2656.81,12904L2656.57,12904.7L2656.33,12905.4L2656.09,12906.1L2655.85,12906.8L2655.62,12907.5L2655.39,12908.3L2655.16,12909L2654.93,12909.7L2654.7,12910.4L2654.48,12911.1L2654.26,12911.9L2654.04,12912.6L2653.82,12913.3L2653.61,12914L2653.39,12914.8L2653.18,12915.5L2652.98,12916.2L2652.77,12917L2652.57,12917.7L2652.37,12918.4L2652.16,12919.1L2651.97,12919.9L2651.77,12920.6L2651.58,12921.4L2651.39,12922.1L2651.2,12922.8L2651.01,12923.6L2650.83,12924.3L2650.65,12925L2650.47,12925.8L2650.29,12926.5L2650.12,12927.3L2649.95,12928L2649.78,12928.8L2649.61,12929.5L2649.44,12930.2L2649.28,12931L2649.12,12931.7L2648.96,12932.5L2648.8,12933.2L2648.64,12934L2648.49,12934.7L2648.34,12935.5L2648.19,12936.2L2648.05,12937L2647.91,12937.7L2647.76,12938.5L2647.63,12939.3L2647.49,12940L2647.36,12940.8L2647.22,12941.5L2647.1,12942.3L2646.97,12943L2646.84,12943.8L2646.72,12944.6L2646.6,12945.3L2646.48,12946.1L2646.37,12946.9L2646.25,12947.6L2646.14,12948.4L2646.03,12949.1L2645.93,12949.9L2645.83,12950.7L2645.72,12951.5L2645.62,12952.2L2645.53,12953L2645.43,12953.8L2645.34,12954.5L2645.25,12955.3L2645.17,12956.1L2645.08,12956.8L2645,12957.6L2644.92,12958.4L2644.84,12959.2L2644.77,12959.9L2644.69,12960.7L2644.62,12961.5L2644.55,12962.3L2644.49,12963.1L2644.43,12963.8L2644.37,12964.6L2644.31,12965.4L2644.25,12966.2L2644.2,12967L2644.15,12967.7L2644.1,12968.5L2644.05,12969.3L2644.01,12970.1L2643.97,12970.9L2643.93,12971.7L2643.89,12972.5L2643.86,12973.2L2643.83,12974L2643.8,12974.8L2643.78,12975.6L2643.75,12976.4L2643.73,12977.2L2643.71,12978L2643.7,12978.8L2643.68,12979.6L2643.67,12980.4L2643.66,12981.2L2643.65,12981.9L2643.65,12982.7L2643.65,12983.5L2643.65,12984.3L2643.65,12985.1L2643.66,12985.9L2643.67,12986.7L2643.68,12987.5L2643.7,12988.3L2643.71,12989.1L2643.73,12989.9L2643.75,12990.7L2643.78,12991.5L2643.8,12992.3L2643.83,12993L2643.86,12993.8L2643.89,12994.6L2643.93,12995.4L2643.97,12996.2L2644.01,12997L2644.05,12997.8L2644.1,12998.5L2644.15,12999.3L2644.2,13000.1L2644.25,13000.9L2644.31,13001.7L2644.37,13002.5L2644.43,13003.2L2644.49,13004L2644.55,13004.8L2644.62,13005.6L2644.69,13006.3L2644.77,13007.1L2644.84,13007.9L2644.92,13008.7L2645,13009.5L2645.08,13010.2L2645.17,13011L2645.25,13011.8L2645.34,13012.5L2645.43,13013.3L2645.53,13014.1L2645.62,13014.9L2645.72,13015.6L2645.83,13016.4L2645.93,13017.2L2646.03,13017.9L2646.14,13018.7L2646.25,13019.5L2646.37,13020.2L2646.48,13021L2646.6,13021.7L2646.72,13022.5L2646.84,13023.3L2646.97,13024L2647.1,13024.8L2647.22,13025.5L2647.36,13026.3L2647.49,13027.1L2647.63,13027.8L2647.76,13028.6L2647.91,13029.3L2648.05,13030.1L2648.19,13030.8L2648.34,13031.6L2648.49,13032.3L2648.64,13033.1L2648.8,13033.8L2648.96,13034.6L2649.12,13035.3L2649.28,13036.1L2649.44,13036.8L2649.61,13037.6L2649.78,13038.3L2649.95,13039.1L2650.12,13039.8L2650.29,13040.5L2650.47,13041.3L2650.65,13042L2650.83,13042.8L2651.01,13043.5L2651.2,13044.2L2651.39,13045L2651.58,13045.7L2651.77,13046.5L2651.97,13047.2L2652.16,13047.9L2652.37,13048.7L2652.57,13049.4L2652.77,13050.1L2652.98,13050.8L2653.18,13051.6L2653.39,13052.3L2653.61,13053L2653.82,13053.8L2654.04,13054.5L2654.26,13055.2L2654.48,13055.9L2654.7,13056.6L2654.93,13057.4L2655.16,13058.1L2655.39,13058.8L2655.62,13059.5L2655.85,13060.2L2656.09,13061L2656.33,13061.7L2656.57,13062.4L2656.81,13063.1L2657.05,13063.8L2657.3,13064.5L2657.55,13065.2L2657.8,13066L2658.05,13066.7L2658.31,13067.4L2658.57,13068.1L2658.83,13068.8L2659.09,13069.5L2659.35,13070.2L2659.62,13070.9L2659.89,13071.6L2660.16,13072.3L2660.43,13073L2660.7,13073.7L2660.98,13074.4L2661.26,13075.1L2661.54,13075.8L2661.82,13076.5L2662.1,13077.2L2662.39,13077.9L2662.68,13078.5L2662.97,13079.2L2663.26,13079.9L2663.56,13080.6L2663.85,13081.3L2664.15,13082L2664.45,13082.7L2664.76,13083.4L2665.06,13084L2665.37,13084.7L2665.68,13085.4L2665.99,13086.1L2666.3,13086.8L2666.61,13087.4L2666.93,13088.1L2667.25,13088.8L2667.57,13089.5L2667.89,13090.1L2668.22,13090.8L2668.55,13091.5L2668.87,13092.1L2669.2,13092.8L2669.54,13093.5L2669.87,13094.1L2670.21,13094.8L2670.55,13095.5L2670.89,13096.1L2671.23,13096.8L2671.57,13097.4L2671.92,13098.1L2672.27,13098.8L2672.62,13099.4L2672.97,13100.1L2673.32,13100.7L2673.68,13101.4L2674.04,13102L2674.4,13102.7L2674.76,13103.3L2675.12,13104L2675.49,13104.6L2675.85,13105.3L2676.22,13105.9L2676.59,13106.6L2676.97,13107.2L2677.34,13107.8L2677.72,13108.5L2678.1,13109.1L2678.48,13109.8L2678.86,13110.4L2679.24,13111L2679.63,13111.7L2680.02,13112.3L2680.41,13112.9L2680.8,13113.5L2681.19,13114.2L2681.59,13114.8L2681.98,13115.4L2682.38,13116.1L2682.78,13116.7L2683.18,13117.3L2683.59,13117.9L2684,13118.5L2684.4,13119.2L2684.81,13119.8L2685.22,13120.4L2685.64,13121L2686.05,13121.6L2686.47,13122.2L2686.89,13122.8L2687.31,13123.4L2687.73,13124.1L2688.16,13124.7L2688.58,13125.3L2689.01,13125.9L2689.44,13126.5L2689.87,13127.1L2690.3,13127.7L2690.74,13128.3L2691.17,13128.9L2691.61,13129.5L2692.05,13130L2692.49,13130.6L2692.94,13131.2L2693.38,13131.8L2693.83,13132.4L2694.28,13133L2694.73,13133.6L2695.18,13134.2L2695.63,13134.7L2696.09,13135.3L2696.55,13135.9L2697,13136.5L2697.47,13137.1L2697.93,13137.6L2698.39,13138.2L2698.86,13138.8L2699.32,13139.4L2699.79,13139.9L2700.26,13140.5L2700.74,13141.1L2701.21,13141.6L2701.68,13142.2L2702.16,13142.8L2702.64,13143.3L2703.12,13143.9L2703.6,13144.4L2704.09,13145L2704.57,13145.5L2705.06,13146.1L2705.55,13146.7L2706.04,13147.2L2706.53,13147.8L2707.03,13148.3L2707.52,13148.9L2708.02,13149.4L2708.52,13149.9L2709.02,13150.5L2709.52,13151L2710.02,13151.6L2710.53,13152.1L2711.03,13152.6L2711.54,13153.2L2712.05,13153.7L2712.56,13154.2L2713.07,13154.8L2713.59,13155.3L2714.11,13155.8L2714.62,13156.3L2715.14,13156.9L2715.66,13157.4L2716.18,13157.9L2716.71,13158.4L2717.23,13158.9L2717.76,13159.5L2718.29,13160L2718.82,13160.5L2719.35,13161L2719.88,13161.5L2720.42,13162L2720.95,13162.5L2721.49,13163L2722.03,13163.5L2722.57,13164L2723.11,13164.5L2723.66,13165L2724.2,13165.5L2724.75,13166L2725.3,13166.5L2725.85,13167L2726.4,13167.5L2726.95,13168L2727.5,13168.5L2728.06,13169L2728.62,13169.4L2729.17,13169.9L2729.73,13170.4L2730.3,13170.9L2730.86,13171.4L2731.42,13171.8L2731.99,13172.3L2732.55,13172.8L2733.12,13173.3L2733.69,13173.7L2734.26,13174.2L2734.84,13174.7L2735.41,13175.1L2735.99,13175.6L2736.56,13176L2737.14,13176.5L2737.72,13177L2738.3,13177.4L2738.89,13177.9L2739.47,13178.3L2740.06,13178.8L2740.64,13179.2L2741.23,13179.7L2741.82,13180.1L2742.41,13180.6L2743,13181L2743.6,13181.4L2744.19,13181.9L2744.79,13182.3L2745.39,13182.7L2745.99,13183.2L2746.59,13183.6L2747.19,13184L2747.79,13184.5L2748.4,13184.9L2749,13185.3L2749.61,13185.7L2750.22,13186.2L2750.83,13186.6L2751.44,13187L2752.05,13187.4L2752.66,13187.8L2753.28,13188.2L2753.9,13188.6L2754.51,13189.1L2755.13,13189.5L2755.75,13189.9L2756.38,13190.3L2757,13190.7L2757.62,13191.1L2758.25,13191.5L2758.88,13191.9L2759.5,13192.3L2760.13,13192.6L2760.76,13193L2761.39,13193.4L2762.03,13193.8L2762.66,13194.2L2763.3,13194.6L2763.93,13195L2764.57,13195.3L2765.21,13195.7L2765.85,13196.1L2766.49,13196.5L2767.14,13196.8L2767.78,13197.2L2768.43,13197.6L2769.07,13197.9L2769.72,13198.3L2770.37,13198.7L2771.02,13199L2771.67,13199.4L2772.32,13199.7L2772.98,13200.1L2773.63,13200.4L2774.29,13200.8L2774.95,13201.1L2775.6,13201.5L2776.26,13201.8L2776.92,13202.2L2777.59,13202.5L2778.25,13202.8L2778.91,13203.2L2779.58,13203.5L2780.25,13203.8L2780.91,13204.2L2781.58,13204.5L2782.25,13204.8L2782.92,13205.2L2783.6,13205.5L2784.27,13205.8L2784.94,13206.1L2785.62,13206.4L2786.3,13206.8L2786.97,13207.1L2787.65,13207.4L2788.33,13207.7L2789.01,13208L2789.7,13208.3L2790.38,13208.6L2791.07,13208.9L2791.75,13209.2L2792.44,13209.5L2793.13,13209.8L2793.81,13210.1L2794.5,13210.4L2795.2,13210.7L2795.89,13210.9L2796.58,13211.2L2797.27,13211.5L2797.97,13211.8L2798.67,13212.1L2799.36,13212.3L2800.06,13212.6L2800.76,13212.9L2801.46,13213.2L2802.16,13213.4L2802.87,13213.7L2803.57,13214L2804.27,13214.2L2804.98,13214.5L2805.68,13214.7L2806.39,13215L2807.1,13215.2L2807.81,13215.5L2808.52,13215.8L2809.23,13216L2809.95,13216.2L2810.66,13216.5L2811.37,13216.7L2812.09,13217L2812.8,13217.2L2813.52,13217.4L2814.24,13217.7L2814.96,13217.9L2815.68,13218.1L2816.4,13218.3L2817.12,13218.6L2817.85,13218.8L2818.57,13219L2819.3,13219.2L2820.02,13219.4L2820.75,13219.7L2821.48,13219.9L2822.2,13220.1L2822.93,13220.3L2823.67,13220.5L2824.4,13220.7L2825.13,13220.9L2825.86,13221.1L2826.6,13221.3L2827.33,13221.5L2828.07,13221.7L2828.8,13221.9L2829.54,13222L2830.28,13222.2L2831.02,13222.4L2831.76,13222.6L2832.5,13222.8L2833.24,13222.9L2833.99,13223.1L2834.73,13223.3L2835.48,13223.4L2836.22,13223.6L2836.97,13223.8L2837.72,13223.9L2838.46,13224.1L2839.21,13224.3L2839.96,13224.4L2840.71,13224.6L2841.46,13224.7L2842.22,13224.9L2842.97,13225L2843.72,13225.1L2844.48,13225.3L2845.23,13225.4L2845.99,13225.6L2846.75,13225.7L2847.51,13225.8L2848.26,13226L2849.02,13226.1L2849.78,13226.2L2850.55,13226.3L2851.31,13226.5L2852.07,13226.6L2852.83,13226.7L2853.6,13226.8L2854.36,13226.9L2855.13,13227L2855.89,13227.1L2856.66,13227.2L2857.43,13227.3L2858.2,13227.4L2858.97,13227.5L2859.74,13227.6L2860.51,13227.7L2861.28,13227.8L2862.05,13227.9L2862.83,13228L2863.6,13228.1L2864.37,13228.1L2865.15,13228.2L2865.93,13228.3L2866.7,13228.4L2867.48,13228.4L2868.26,13228.5L2869.04,13228.6L2869.82,13228.6L2870.6,13228.7L2871.38,13228.7L2872.16,13228.8L2872.94,13228.9L2873.72,13228.9L2874.51,13229L2875.29,13229L2876.08,13229L2876.86,13229.1L2877.65,13229.1L2878.43,13229.2L2879.22,13229.2L2880.01,13229.2L2880.8,13229.3L2881.59,13229.3L2882.38,13229.3L2883.17,13229.3L2883.96,13229.3L2884.75,13229.4L2885.54,13229.4L2886.34,13229.4L2887.13,13229.4L2887.93,13229.4L2888.72,13229.4L2889.51,13229.4L2890.31,13229.4L2891.11,13229.4L2891.9,13229.4L2892.69,13229.4L2893.49,13229.4L2894.28,13229.4L2895.07,13229.3L2895.86,13229.3L2896.65,13229.3L2897.44,13229.3L2898.23,13229.3L2899.02,13229.2L2899.81,13229.2L2900.6,13229.2L2901.38,13229.1L2902.17,13229.1L2902.95,13229L2903.74,13229L2904.52,13229L2905.31,13228.9L2906.09,13228.9L2906.87,13228.8L2907.65,13228.7L2908.43,13228.7L2909.22,13228.6L2909.99,13228.6L2910.77,13228.5L2911.55,13228.4L2912.33,13228.4L2913.11,13228.3L2913.88,13228.2L2914.66,13228.1L2915.43,13228.1L2916.2,13228L2916.98,13227.9L2917.75,13227.8L2918.52,13227.7L2919.29,13227.6L2920.06,13227.5L2920.83,13227.4L2921.6,13227.3L2922.37,13227.2L2923.14,13227.1L2923.9,13227L2924.67,13226.9L2925.43,13226.8L2926.2,13226.7L2926.96,13226.6L2927.72,13226.5L2928.49,13226.3L2929.25,13226.2L2930.01,13226.1L2930.77,13226L2931.53,13225.8L2932.28,13225.7L2933.04,13225.6L2933.8,13225.4L2934.55,13225.3L2935.31,13225.1L2936.06,13225L2936.81,13224.9L2937.57,13224.7L2938.32,13224.6L2939.07,13224.4L2939.82,13224.3L2940.57,13224.1L2941.32,13223.9L2942.06,13223.8L2942.81,13223.6L2943.55,13223.4L2944.3,13223.3L2945.04,13223.1L2945.79,13222.9L2946.53,13222.8L2947.27,13222.6L2948.01,13222.4L2948.75,13222.2L2949.49,13222L2950.23,13221.9L2950.96,13221.7L2951.7,13221.5L2952.43,13221.3L2953.17,13221.1L2953.9,13220.9L2954.63,13220.7L2955.37,13220.5L2956.1,13220.3L2956.83,13220.1L2957.55,13219.9L2958.28,13219.7L2959.01,13219.4L2959.74,13219.2L2960.46,13219L2961.18,13218.8L2961.91,13218.6L2962.63,13218.3L2963.35,13218.1L2964.07,13217.9L2964.79,13217.7L2965.51,13217.4L2966.23,13217.2L2966.94,13217L2967.66,13216.7L2968.37,13216.5L2969.09,13216.2L2969.8,13216L2970.51,13215.8L2971.22,13215.5L2971.93,13215.2L2972.64,13215L2973.35,13214.7L2974.05,13214.5L2974.76,13214.2L2975.46,13214L2976.16,13213.7L2976.87,13213.4L2977.57,13213.2L2978.27,13212.9L2978.97,13212.6L2979.67,13212.3L2980.37,13212.1L2981.06,13211.8L2981.76,13211.5L2982.45,13211.2L2983.14,13210.9L2983.84,13210.7L2984.53,13210.4L2985.22,13210.1L2985.91,13209.8L2986.59,13209.5L2987.28,13209.2L2987.97,13208.9L2988.65,13208.6L2989.33,13208.3L2990.01,13208L2990.7,13207.7L2991.38,13207.4L2992.06,13207.1L2992.73,13206.8L2993.41,13206.4L2994.09,13206.1L2994.76,13205.8L2995.43,13205.5L2996.11,13205.2L2996.78,13204.8L2997.45,13204.5L2998.12,13204.2L2998.78,13203.8L2999.45,13203.5L3000.12,13203.2L3000.78,13202.8L3001.44,13202.5L3002.11,13202.2L3002.77,13201.8L3003.43,13201.5L3004.09,13201.1L3004.74,13200.8L3005.4,13200.4L3006.05,13200.1L3006.71,13199.7L3007.36,13199.4L3008.01,13199L3008.66,13198.7L3009.31,13198.3L3009.96,13197.9L3010.61,13197.6L3011.25,13197.2L3011.89,13196.8L3012.54,13196.5L3013.18,13196.1L3013.82,13195.7L3014.46,13195.3L3015.1,13195L3015.73,13194.6L3016.37,13194.2L3017,13193.8L3017.64,13193.4L3018.27,13193L3018.9,13192.6L3019.53,13192.3L3020.16,13191.9L3020.78,13191.5L3021.41,13191.1L3022.03,13190.7L3022.66,13190.3L3023.28,13189.9L3023.9,13189.5L3024.52,13189.1L3025.13,13188.6L3025.75,13188.2L3026.37,13187.8L3026.98,13187.4L3027.59,13187L3028.2,13186.6L3028.81,13186.2L3029.42,13185.7L3030.03,13185.3L3030.63,13184.9L3031.24,13184.5L3031.84,13184L3032.44,13183.6L3033.04,13183.2L3033.64,13182.7L3034.24,13182.3L3034.84,13181.9L3035.43,13181.4L3036.03,13181L3036.62,13180.6L3037.21,13180.1L3037.8,13179.7L3038.39,13179.2L3038.97,13178.8L3039.56,13178.3L3040.14,13177.9L3040.73,13177.4L3041.31,13177L3041.89,13176.5L3042.47,13176L3043.04,13175.6L3043.62,13175.1L3044.19,13174.7L3044.77,13174.2L3045.34,13173.7L3045.91,13173.3L3046.48,13172.8L3047.04,13172.3L3047.61,13171.8L3048.17,13171.4L3048.74,13170.9L3049.3,13170.4L3049.86,13169.9L3050.41,13169.4L3050.97,13169L3051.53,13168.5L3052.08,13168L3052.63,13167.5L3053.18,13167L3053.73,13166.5L3054.28,13166L3054.83,13165.5L3055.37,13165L3055.92,13164.5L3056.46,13164L3057,13163.5L3057.54,13163L3058.08,13162.5L3058.61,13162L3059.15,13161.5L3059.68,13161L3060.21,13160.5L3060.74,13160L3061.27,13159.5L3061.8,13158.9L3062.32,13158.4L3062.85,13157.9L3063.37,13157.4L3063.89,13156.9L3064.41,13156.3L3064.93,13155.8L3065.44,13155.3L3065.96,13154.8L3066.47,13154.2L3066.98,13153.7L3067.49,13153.2L3068,13152.6L3068.5,13152.1L3069.01,13151.6L3069.51,13151L3070.01,13150.5L3070.51,13149.9L3071.01,13149.4L3071.51,13148.9L3072.01,13148.3L3072.5,13147.8L3072.99,13147.2L3073.48,13146.7L3073.97,13146.1L3074.46,13145.5L3074.94,13145L3075.43,13144.4L3075.91,13143.9L3076.39,13143.3L3076.87,13142.8L3077.35,13142.2L3077.82,13141.6L3078.3,13141.1L3078.77,13140.5L3079.24,13139.9L3079.71,13139.4L3080.17,13138.8L3080.64,13138.2L3081.1,13137.6L3081.57,13137.1L3082.03,13136.5L3082.49,13135.9L3082.94,13135.3L3083.4,13134.7L3083.85,13134.2L3084.3,13133.6L3084.75,13133L3085.2,13132.4L3085.65,13131.8L3086.09,13131.2L3086.54,13130.6L3086.98,13130L3087.42,13129.5L3087.86,13128.9L3088.29,13128.3L3088.73,13127.7L3089.16,13127.1L3089.59,13126.5L3090.02,13125.9L3090.45,13125.3L3090.87,13124.7L3091.3,13124.1L3091.72,13123.4L3092.14,13122.8L3092.56,13122.2L3092.98,13121.6L3093.39,13121L3093.81,13120.4L3094.22,13119.8L3094.63,13119.2L3095.03,13118.5L3095.44,13117.9L3095.85,13117.3L3096.25,13116.7L3096.65,13116.1L3097.05,13115.4L3097.44,13114.8L3097.84,13114.2L3098.23,13113.5L3098.62,13112.9L3099.01,13112.3L3099.4,13111.7L3099.79,13111L3100.17,13110.4L3100.55,13109.8L3100.93,13109.1L3101.31,13108.5L3101.69,13107.8L3102.06,13107.2L3102.44,13106.6L3102.81,13105.9L3103.18,13105.3L3103.54,13104.6L3103.91,13104L3104.27,13103.3L3104.63,13102.7L3104.99,13102L3105.35,13101.4L3105.71,13100.7L3106.06,13100.1L3106.41,13099.4L3106.76,13098.8L3107.11,13098.1L3107.46,13097.4L3107.8,13096.8L3108.14,13096.1L3108.48,13095.5L3108.82,13094.8L3109.16,13094.1L3109.49,13093.5L3109.83,13092.8L3110.16,13092.1L3110.49,13091.5L3110.81,13090.8L3111.14,13090.1L3111.46,13089.5L3111.78,13088.8L3112.1,13088.1L3112.42,13087.4L3112.73,13086.8L3113.04,13086.1L3113.35,13085.4L3113.66,13084.7L3113.97,13084L3114.27,13083.4L3114.58,13082.7L3114.88,13082L3115.18,13081.3L3115.47,13080.6L3115.77,13079.9L3116.06,13079.2L3116.35,13078.5L3116.64,13077.9L3116.93,13077.2L3117.21,13076.5L3117.49,13075.8L3117.77,13075.1L3118.05,13074.4L3118.33,13073.7L3118.6,13073L3118.87,13072.3L3119.14,13071.6L3119.41,13070.9L3119.68,13070.2L3119.94,13069.5L3120.2,13068.8L3120.46,13068.1L3120.72,13067.4L3120.97,13066.7L3121.23,13066L3121.48,13065.2L3121.73,13064.5L3121.97,13063.8L3122.22,13063.1L3122.46,13062.4L3122.7,13061.7L3122.94,13061L3123.18,13060.2L3123.41,13059.5L3123.64,13058.8L3123.87,13058.1L3124.1,13057.4L3124.33,13056.6L3124.55,13055.9L3124.77,13055.2L3124.99,13054.5L3125.21,13053.8L3125.42,13053L3125.64,13052.3L3125.85,13051.6L3126.05,13050.8L3126.26,13050.1L3126.46,13049.4L3126.66,13048.7L3126.86,13047.9L3127.06,13047.2L3127.26,13046.5L3127.45,13045.7L3127.64,13045L3127.83,13044.2L3128.01,13043.5L3128.2,13042.8L3128.38,13042L3128.56,13041.3L3128.74,13040.5L3128.91,13039.8L3129.09,13039.1L3129.26,13038.3L3129.42,13037.6L3129.59,13036.8L3129.75,13036.1L3129.91,13035.3L3130.07,13034.6L3130.23,13033.8L3130.39,13033.1L3130.54,13032.3L3130.69,13031.6L3130.84,13030.8L3130.98,13030.1L3131.12,13029.3L3131.26,13028.6L3131.4,13027.8L3131.54,13027.1L3131.67,13026.3L3131.81,13025.5L3131.93,13024.8L3132.06,13024L3132.19,13023.3L3132.31,13022.5L3132.43,13021.7L3132.55,13021L3132.66,13020.2L3132.78,13019.5L3132.89,13018.7L3132.99,13017.9L3133.1,13017.2L3133.2,13016.4L3133.31,13015.6L3133.41,13014.9L3133.5,13014.1L3133.6,13013.3L3133.69,13012.5L3133.78,13011.8L3133.86,13011L3133.95,13010.2L3134.03,13009.5L3134.11,13008.7L3134.19,13007.9L3134.26,13007.1L3134.34,13006.3L3134.41,13005.6L3134.47,13004.8L3134.54,13004L3134.6,13003.2L3134.66,13002.5L3134.72,13001.7L3134.78,13000.9L3134.83,13000.1L3134.88,12999.3L3134.93,12998.5L3134.98,12997.8L3135.02,12997L3135.06,12996.2L3135.1,12995.4L3135.14,12994.6L3135.17,12993.8L3135.2,12993L3135.23,12992.3L3135.26,12991.5L3135.28,12990.7L3135.3,12989.9L3135.32,12989.1L3135.34,12988.3L3135.35,12987.5L3135.36,12986.7L3135.37,12985.9L3135.38,12985.1L3135.38,12984.3L3135.38,12983.5L3135.38,12982.7L3135.38,12981.9L3135.37,12981.2L3135.36,12980.4L3135.35,12979.6L3135.34,12978.8L3135.32,12978L3135.3,12977.2L3135.28,12976.4L3135.26,12975.6L3135.23,12974.8L3135.2,12974L3135.17,12973.2L3135.14,12972.5L3135.1,12971.7L3135.06,12970.9L3135.02,12970.1L3134.98,12969.3L3134.93,12968.5L3134.88,12967.7L3134.83,12967L3134.78,12966.2L3134.72,12965.4L3134.66,12964.6L3134.6,12963.8L3134.54,12963.1L3134.47,12962.3L3134.41,12961.5L3134.34,12960.7L3134.26,12959.9L3134.19,12959.2L3134.11,12958.4L3134.03,12957.6L3133.95,12956.8L3133.86,12956.1L3133.78,12955.3L3133.69,12954.5L3133.6,12953.8L3133.5,12953L3133.41,12952.2L3133.31,12951.5L3133.2,12950.7L3133.1,12949.9L3132.99,12949.1L3132.89,12948.4L3132.78,12947.6L3132.66,12946.9L3132.55,12946.1L3132.43,12945.3L3132.31,12944.6L3132.19,12943.8L3132.06,12943L3131.93,12942.3L3131.81,12941.5L3131.67,12940.8L3131.54,12940L3131.4,12939.3L3131.26,12938.5L3131.12,12937.7L3130.98,12937L3130.84,12936.2L3130.69,12935.5L3130.54,12934.7L3130.39,12934L3130.23,12933.2L3130.07,12932.5L3129.91,12931.7L3129.75,12931L3129.59,12930.2L3129.42,12929.5L3129.26,12928.8L3129.09,12928L3128.91,12927.3L3128.74,12926.5L3128.56,12925.8L3128.38,12925L3128.2,12924.3L3128.01,12923.6L3127.83,12922.8L3127.64,12922.1L3127.45,12921.4L3127.26,12920.6L3127.06,12919.9L3126.86,12919.1L3126.66,12918.4L3126.46,12917.7L3126.26,12917L3126.05,12916.2L3125.85,12915.5L3125.64,12914.8L3125.42,12914L3125.21,12913.3L3124.99,12912.6L3124.77,12911.9L3124.55,12911.1L3124.33,12910.4L3124.1,12909.7L3123.87,12909L3123.64,12908.3L3123.41,12907.5L3123.18,12906.8L3122.94,12906.1L3122.7,12905.4L3122.46,12904.7L3122.22,12904L3121.97,12903.3L3121.73,12902.5L3121.48,12901.8L3121.23,12901.1L3120.97,12900.4L3120.72,12899.7L3120.46,12899L3120.2,12898.3L3119.94,12897.6L3119.68,12896.9L3119.41,12896.2L3119.14,12895.5L3118.87,12894.8L3118.6,12894.1L3118.33,12893.4L3118.05,12892.7L3117.77,12892L3117.49,12891.3L3117.21,12890.6L3116.93,12889.9L3116.64,12889.2L3116.35,12888.5L3116.06,12887.8L3115.77,12887.1L3115.47,12886.5L3115.18,12885.8L3114.88,12885.1L3114.58,12884.4L3114.27,12883.7L3113.97,12883L3113.66,12882.4L3113.35,12881.7L3113.04,12881L3112.73,12880.3L3112.42,12879.6L3112.1,12879L3111.78,12878.3L3111.46,12877.6L3111.14,12876.9L3110.81,12876.3L3110.49,12875.6L3110.16,12874.9L3109.83,12874.3L3109.49,12873.6L3109.16,12872.9L3108.82,12872.3L3108.48,12871.6L3108.14,12870.9L3107.8,12870.3L3107.46,12869.6L3107.11,12869L3106.76,12868.3L3106.41,12867.7L3106.06,12867L3105.71,12866.3L3105.35,12865.7L3104.99,12865L3104.63,12864.4L3104.27,12863.7L3103.91,12863.1L3103.54,12862.4L3103.18,12861.8L3102.81,12861.2L3102.44,12860.5L3102.06,12859.9L3101.69,12859.2L3101.31,12858.6L3100.93,12858L3100.55,12857.3L3100.17,12856.7L3099.79,12856L3099.4,12855.4L3099.01,12854.8L3098.62,12854.2L3098.23,12853.5L3097.84,12852.9L3097.44,12852.3L3097.05,12851.6L3096.65,12851L3096.25,12850.4L3095.85,12849.8L3095.44,12849.2L3095.03,12848.5L3094.63,12847.9L3094.22,12847.3L3093.81,12846.7L3093.39,12846.1L3092.98,12845.5L3092.56,12844.8L3092.14,12844.2L3091.72,12843.6L3091.3,12843L3090.87,12842.4L3090.45,12841.8L3090.02,12841.2L3089.59,12840.6L3089.16,12840L3088.73,12839.4L3088.29,12838.8L3087.86,12838.2L3087.42,12837.6L3086.98,12837L3086.54,12836.4L3086.09,12835.8L3085.65,12835.3L3085.2,12834.7L3084.75,12834.1L3084.3,12833.5L3083.85,12832.9L3083.4,12832.3L3082.94,12831.7L3082.49,12831.2L3082.03,12830.6L3081.57,12830L3081.1,12829.4L3080.64,12828.9L3080.17,12828.3L3079.71,12827.7L3079.24,12827.1L3078.77,12826.6L3078.3,12826L3077.82,12825.4L3077.35,12824.9L3076.87,12824.3L3076.39,12823.8L3075.91,12823.2L3075.43,12822.6L3074.94,12822.1L3074.46,12821.5L3073.97,12821L3073.48,12820.4L3072.99,12819.9L3072.5,12819.3L3072.01,12818.8L3071.51,12818.2L3071.01,12817.7L3070.51,12817.1L3070.01,12816.6L3069.51,12816.1L3069.01,12815.5L3068.5,12815L3068,12814.4L3067.49,12813.9L3066.98,12813.4L3066.47,12812.8L3065.96,12812.3L3065.44,12811.8L3064.93,12811.3L3064.41,12810.7L3063.89,12810.2L3063.37,12809.7L3062.85,12809.2L3062.32,12808.6L3061.8,12808.1L3061.27,12807.6L3060.74,12807.1L3060.21,12806.6L3059.68,12806.1L3059.15,12805.6L3058.61,12805.1L3058.08,12804.5L3057.54,12804L3057,12803.5L3056.46,12803L3055.92,12802.5L3055.37,12802L3054.83,12801.5L3054.28,12801L3053.73,12800.6L3053.18,12800.1L3052.63,12799.6L3052.08,12799.1L3051.53,12798.6L3050.97,12798.1L3050.41,12797.6L3049.86,12797.1L3049.3,12796.7L3048.74,12796.2L3048.17,12795.7L3047.61,12795.2L3047.04,12794.8L3046.48,12794.3L3045.91,12793.8L3045.34,12793.3L3044.77,12792.9L3044.19,12792.4L3043.62,12791.9L3043.04,12791.5L3042.47,12791L3041.89,12790.6L3041.31,12790.1L3040.73,12789.7L3040.14,12789.2L3039.56,12788.8L3038.97,12788.3L3038.39,12787.9L3037.8,12787.4L3037.21,12787L3036.62,12786.5L3036.03,12786.1L3035.43,12785.6L3034.84,12785.2L3034.24,12784.8L3033.64,12784.3L3033.04,12783.9L3032.44,12783.5L3031.84,12783L3031.24,12782.6L3030.63,12782.2L3030.03,12781.8L3029.42,12781.3L3028.81,12780.9L3028.2,12780.5L3027.59,12780.1L3026.98,12779.7L3026.37,12779.2L3025.75,12778.8L3025.13,12778.4L3024.52,12778L3023.9,12777.6L3023.28,12777.2L3022.66,12776.8L3022.03,12776.4L3021.41,12776L3020.78,12775.6L3020.16,12775.2L3019.53,12774.8L3018.9,12774.4L3018.27,12774L3017.64,12773.7L3017,12773.3L3016.37,12772.9L3015.73,12772.5L3015.1,12772.1L3014.46,12771.7L3013.82,12771.4L3013.18,12771L3012.54,12770.6L3011.89,12770.2L3011.25,12769.9L3010.61,12769.5L3009.96,12769.1L3009.31,12768.8L3008.66,12768.4L3008.01,12768.1L3007.36,12767.7L3006.71,12767.3L3006.05,12767L3005.4,12766.6L3004.74,12766.3L3004.09,12765.9L3003.43,12765.6L3002.77,12765.3L3002.11,12764.9L3001.44,12764.6L3000.78,12764.2L3000.12,12763.9L2999.45,12763.6L2998.78,12763.2L2998.12,12762.9L2997.45,12762.6L2996.78,12762.2L2996.11,12761.9L2995.43,12761.6L2994.76,12761.3L2994.09,12761L2993.41,12760.6L2992.73,12760.3L2992.06,12760L2991.38,12759.7L2990.7,12759.4L2990.01,12759.1L2989.33,12758.8L2988.65,12758.5L2987.97,12758.2L2987.28,12757.9L2986.59,12757.6L2985.91,12757.3L2985.22,12757L2984.53,12756.7L2983.84,12756.4L2983.14,12756.1L2982.45,12755.8L2981.76,12755.6L2981.06,12755.3L2980.37,12755L2979.67,12754.7L2978.97,12754.5L2978.27,12754.2L2977.57,12753.9L2976.87,12753.6L2976.16,12753.4L2975.46,12753.1L2974.76,12752.9L2974.05,12752.6L2973.35,12752.3L2972.64,12752.1L2971.93,12751.8L2971.22,12751.6L2970.51,12751.3L2969.8,12751.1L2969.09,12750.8L2968.37,12750.6L2967.66,12750.3L2966.94,12750.1L2966.23,12749.9L2965.51,12749.6L2964.79,12749.4L2964.07,12749.2L2963.35,12749L2962.63,12748.7L2961.91,12748.5L2961.18,12748.3L2960.46,12748.1L2959.74,12747.8L2959.01,12747.6L2958.28,12747.4L2957.55,12747.2L2956.83,12747L2956.1,12746.8L2955.37,12746.6L2954.63,12746.4L2953.9,12746.2L2953.17,12746L2952.43,12745.8L2951.7,12745.6L2950.96,12745.4L2950.23,12745.2L2949.49,12745L2948.75,12744.9L2948.01,12744.7L2947.27,12744.5L2946.53,12744.3L2945.79,12744.1L2945.04,12744L2944.3,12743.8L2943.55,12743.6L2942.81,12743.5L2942.06,12743.3L2941.32,12743.1L2940.57,12743L2939.82,12742.8L2939.07,12742.7L2938.32,12742.5L2937.57,12742.4L2936.81,12742.2L2936.06,12742.1L2935.31,12741.9L2934.55,12741.8L2933.8,12741.6L2933.04,12741.5L2932.28,12741.4L2931.53,12741.2L2930.77,12741.1L2930.01,12741L2929.25,12740.9L2928.49,12740.7L2927.72,12740.6L2926.96,12740.5L2926.2,12740.4L2925.43,12740.3L2924.67,12740.2L2923.9,12740.1L2923.14,12740L2922.37,12739.8L2921.6,12739.7L2920.83,12739.6L2920.06,12739.6L2919.29,12739.5L2918.52,12739.4L2917.75,12739.3L2916.98,12739.2L2916.2,12739.1L2915.43,12739L2914.66,12738.9L2913.88,12738.9L2913.11,12738.8L2912.33,12738.7L2911.55,12738.6L2910.77,12738.6L2909.99,12738.5L2909.22,12738.5L2908.43,12738.4L2907.65,12738.3L2906.87,12738.3L2906.09,12738.2L2905.31,12738.2L2904.52,12738.1L2903.74,12738.1L2902.95,12738L2902.17,12738L2901.38,12738L2900.6,12737.9L2899.81,12737.9L2899.02,12737.9L2898.23,12737.8L2897.44,12737.8L2896.65,12737.8L2895.86,12737.8L2895.07,12737.7L2894.28,12737.7L2893.49,12737.7L2892.69,12737.7L2891.9,12737.7L2891.11,12737.7L2890.31,12737.7L2889.51,12737.7L2888.72,12737.7Z" style="fill:rgb(39,62,69);"/>
            </g>
            <g transform="matrix(1,0,0,1,0,-770)">
                <path d="M3066.91,12809.7L2715.66,13160.9L2712.13,13157.4L3063.37,12806.1L3066.91,12809.7Z" style="fill:rgb(39,62,69);"/>
            </g>
            <g transform="matrix(1,0,0,1,0,-770)">
                <path d="M3001.78,13060.1L2918.92,12977.2L2883.22,13012.9L2966.08,13095.8C2975.94,13105.7 2991.92,13105.7 3001.78,13095.8C3011.64,13085.9 3011.64,13070 3001.78,13060.1" style="fill:rgb(218,72,113);fill-rule:nonzero;"/>
            </g>
            <g transform="matrix(1,0,0,1,0,-770)">
                <path d="M2895.81,12954.1L2874.82,12933.1C2886.51,12907 2881.72,12875.4 2860.3,12854C2845.98,12839.6 2827.08,12832.7 2808.33,12833.2C2800.75,12833.4 2798.02,12842.9 2803.38,12848.3L2820.14,12865.1C2833.71,12878.6 2833.71,12900.6 2820.14,12914.2C2806.6,12927.7 2784.61,12927.7 2771.05,12914.2L2754.28,12897.4C2748.92,12892 2739.4,12894.8 2739.2,12902.4C2738.72,12921.1 2745.63,12940 2759.94,12954.3C2781.36,12975.7 2813.03,12980.5 2839.12,12968.8L2860.11,12989.8L2895.81,12954.1Z" style="fill:rgb(218,72,113);fill-rule:nonzero;"/>
            </g>
        </g>
    </g>
</svg>
