<?xml version="1.0" encoding="UTF-8" standalone="no"?>
<!DOCTYPE svg PUBLIC "-//W3C//DTD SVG 1.1//EN" "http://www.w3.org/Graphics/SVG/1.1/DTD/svg11.dtd">
<svg width="100%" height="100%" viewBox="0 0 509 508" version="1.1" xmlns="http://www.w3.org/2000/svg" xmlns:xlink="http://www.w3.org/1999/xlink" xml:space="preserve" style="fill-rule:evenodd;clip-rule:evenodd;stroke-linejoin:round;stroke-miterlimit:1.41421;">
    <g id="Artboard1" transform="matrix(1.00688,0,0,1.00921,-0.760826,-0.98341)">
        <rect x="0.756" y="0.974" width="504.692" height="502.416" style="fill:none;"/>
        <g transform="matrix(0.993167,0,0,0.990878,-4579.51,-11849.6)">
            <g transform="matrix(0.994248,0,0,0.994248,4613.08,11960.8)">
                <circle cx="254.976" cy="236.919" r="30.619" style="fill:white;"/>
            </g>
            <g transform="matrix(1,0,0,1,0,-770)">
                <path d="M4866.61,12732.7L4867.42,12732.7L4868.23,12732.7L4869.04,12732.7L4869.85,12732.7L4870.65,12732.7L4871.46,12732.7L4872.27,12732.8L4873.07,12732.8L4873.88,12732.8L4874.69,12732.8L4875.49,12732.9L4876.3,12732.9L4877.1,12732.9L4877.9,12733L4878.7,12733L4879.5,12733L4880.3,12733.1L4881.1,12733.1L4881.9,12733.2L4882.7,12733.2L4883.5,12733.3L4884.3,12733.3L4885.09,12733.4L4885.89,12733.5L4886.69,12733.5L4887.48,12733.6L4888.27,12733.7L4889.07,12733.7L4889.86,12733.8L4890.65,12733.9L4891.44,12734L4892.23,12734L4893.02,12734.1L4893.81,12734.2L4894.6,12734.3L4895.39,12734.4L4896.17,12734.5L4896.96,12734.6L4897.74,12734.7L4898.53,12734.8L4899.31,12734.9L4900.09,12735L4900.88,12735.1L4901.66,12735.2L4902.44,12735.3L4903.22,12735.4L4904,12735.6L4904.77,12735.7L4905.55,12735.8L4906.33,12735.9L4907.1,12736.1L4907.88,12736.2L4908.65,12736.3L4909.43,12736.5L4910.2,12736.6L4910.97,12736.7L4911.74,12736.9L4912.51,12737L4913.28,12737.2L4914.05,12737.3L4914.82,12737.5L4915.59,12737.6L4916.35,12737.8L4917.12,12737.9L4917.88,12738.1L4918.64,12738.2L4919.41,12738.4L4920.17,12738.6L4920.93,12738.8L4921.69,12738.9L4922.45,12739.1L4923.21,12739.3L4923.96,12739.5L4924.72,12739.6L4925.48,12739.8L4926.23,12740L4926.98,12740.2L4927.74,12740.4L4928.49,12740.6L4929.24,12740.8L4929.99,12741L4930.74,12741.2L4931.49,12741.4L4932.23,12741.6L4932.98,12741.8L4933.73,12742L4934.47,12742.2L4935.22,12742.4L4935.96,12742.6L4936.7,12742.8L4937.44,12743.1L4938.18,12743.3L4938.92,12743.5L4939.66,12743.7L4940.39,12744L4941.13,12744.2L4941.86,12744.4L4942.6,12744.6L4943.33,12744.9L4944.06,12745.1L4944.8,12745.4L4945.53,12745.6L4946.25,12745.9L4946.98,12746.1L4947.71,12746.4L4948.44,12746.6L4949.16,12746.9L4949.89,12747.1L4950.61,12747.4L4951.33,12747.6L4952.05,12747.9L4952.77,12748.2L4953.49,12748.4L4954.21,12748.7L4954.93,12749L4955.64,12749.2L4956.36,12749.5L4957.07,12749.8L4957.78,12750.1L4958.49,12750.4L4959.2,12750.6L4959.91,12750.9L4960.62,12751.2L4961.33,12751.5L4962.03,12751.8L4962.74,12752.1L4963.44,12752.4L4964.15,12752.7L4964.85,12753L4965.55,12753.3L4966.25,12753.6L4966.95,12753.9L4967.65,12754.2L4968.34,12754.5L4969.04,12754.8L4969.73,12755.1L4970.42,12755.5L4971.11,12755.8L4971.81,12756.1L4972.49,12756.4L4973.18,12756.8L4973.87,12757.1L4974.56,12757.4L4975.24,12757.7L4975.93,12758.1L4976.61,12758.4L4977.29,12758.7L4977.97,12759.1L4978.65,12759.4L4979.33,12759.8L4980,12760.1L4980.68,12760.5L4981.35,12760.8L4982.03,12761.2L4982.7,12761.5L4983.37,12761.9L4984.04,12762.2L4984.71,12762.6L4985.37,12763L4986.04,12763.3L4986.7,12763.7L4987.37,12764L4988.03,12764.4L4988.69,12764.8L4989.35,12765.2L4990.01,12765.5L4990.67,12765.9L4991.32,12766.3L4991.98,12766.7L4992.63,12767.1L4993.28,12767.4L4993.93,12767.8L4994.58,12768.2L4995.23,12768.6L4995.88,12769L4996.53,12769.4L4997.17,12769.8L4997.81,12770.2L4998.45,12770.6L4999.1,12771L4999.74,12771.4L5000.37,12771.8L5001.01,12772.2L5001.65,12772.6L5002.28,12773L5002.91,12773.4L5003.55,12773.8L5004.18,12774.3L5004.8,12774.7L5005.43,12775.1L5006.06,12775.5L5006.68,12775.9L5007.31,12776.4L5007.93,12776.8L5008.55,12777.2L5009.17,12777.7L5009.79,12778.1L5010.4,12778.5L5011.02,12779L5011.63,12779.4L5012.25,12779.8L5012.86,12780.3L5013.47,12780.7L5014.08,12781.2L5014.68,12781.6L5015.29,12782.1L5015.89,12782.5L5016.5,12783L5017.1,12783.4L5017.7,12783.9L5018.3,12784.3L5018.89,12784.8L5019.49,12785.3L5020.08,12785.7L5020.68,12786.2L5021.27,12786.6L5021.86,12787.1L5022.45,12787.6L5023.03,12788.1L5023.62,12788.5L5024.2,12789L5024.79,12789.5L5025.37,12790L5025.95,12790.4L5026.53,12790.9L5027.11,12791.4L5027.68,12791.9L5028.26,12792.4L5028.83,12792.9L5029.4,12793.4L5029.97,12793.8L5030.54,12794.3L5031.1,12794.8L5031.67,12795.3L5032.23,12795.8L5032.79,12796.3L5033.36,12796.8L5033.91,12797.3L5034.47,12797.8L5035.03,12798.4L5035.58,12798.9L5036.14,12799.4L5036.69,12799.9L5037.24,12800.4L5037.78,12800.9L5038.33,12801.4L5038.88,12801.9L5039.42,12802.5L5039.96,12803L5040.5,12803.5L5041.04,12804L5041.58,12804.6L5042.12,12805.1L5042.65,12805.6L5043.18,12806.1L5043.72,12806.7L5044.24,12807.2L5044.77,12807.8L5045.3,12808.3L5045.82,12808.8L5046.35,12809.4L5046.87,12809.9L5047.39,12810.5L5047.91,12811L5048.42,12811.5L5048.94,12812.1L5049.45,12812.6L5049.96,12813.2L5050.47,12813.8L5050.98,12814.3L5051.49,12814.9L5051.99,12815.4L5052.5,12816L5053,12816.5L5053.5,12817.1L5054,12817.7L5054.5,12818.2L5054.99,12818.8L5055.48,12819.4L5055.98,12819.9L5056.47,12820.5L5056.96,12821.1L5057.44,12821.7L5057.93,12822.2L5058.41,12822.8L5058.89,12823.4L5059.37,12824L5059.85,12824.5L5060.33,12825.1L5060.8,12825.7L5061.28,12826.3L5061.75,12826.9L5062.22,12827.5L5062.69,12828.1L5063.15,12828.7L5063.62,12829.2L5064.08,12829.8L5064.54,12830.4L5065,12831L5065.46,12831.6L5065.91,12832.2L5066.37,12832.8L5066.82,12833.4L5067.27,12834L5067.72,12834.6L5068.17,12835.3L5068.61,12835.9L5069.06,12836.5L5069.5,12837.1L5069.94,12837.7L5070.38,12838.3L5070.81,12838.9L5071.25,12839.5L5071.68,12840.2L5072.11,12840.8L5072.54,12841.4L5072.97,12842L5073.39,12842.6L5073.82,12843.3L5074.24,12843.9L5074.66,12844.5L5075.07,12845.2L5075.49,12845.8L5075.9,12846.4L5076.32,12847.1L5076.73,12847.7L5077.14,12848.3L5077.54,12849L5077.95,12849.6L5078.35,12850.2L5078.75,12850.9L5079.15,12851.5L5079.55,12852.2L5079.95,12852.8L5080.34,12853.5L5080.73,12854.1L5081.12,12854.7L5081.51,12855.4L5081.9,12856L5082.28,12856.7L5082.66,12857.4L5083.04,12858L5083.42,12858.7L5083.8,12859.3L5084.17,12860L5084.55,12860.6L5084.92,12861.3L5085.29,12862L5085.65,12862.6L5086.02,12863.3L5086.38,12864L5086.74,12864.6L5087.1,12865.3L5087.46,12866L5087.81,12866.6L5088.17,12867.3L5088.52,12868L5088.87,12868.7L5089.21,12869.3L5089.56,12870L5089.9,12870.7L5090.24,12871.4L5090.58,12872L5090.92,12872.7L5091.26,12873.4L5091.59,12874.1L5091.92,12874.8L5092.25,12875.5L5092.58,12876.1L5092.9,12876.8L5093.23,12877.5L5093.55,12878.2L5093.87,12878.9L5094.18,12879.6L5094.5,12880.3L5094.81,12881L5095.12,12881.7L5095.43,12882.4L5095.74,12883.1L5096.04,12883.8L5096.35,12884.5L5096.65,12885.2L5096.94,12885.9L5097.24,12886.6L5097.54,12887.3L5097.83,12888L5098.12,12888.7L5098.41,12889.4L5098.69,12890.1L5098.98,12890.8L5099.26,12891.6L5099.54,12892.3L5099.82,12893L5100.09,12893.7L5100.36,12894.4L5100.64,12895.1L5100.9,12895.8L5101.17,12896.6L5101.44,12897.3L5101.7,12898L5101.96,12898.7L5102.22,12899.4L5102.48,12900.2L5102.73,12900.9L5102.98,12901.6L5103.23,12902.3L5103.48,12903.1L5103.72,12903.8L5103.97,12904.5L5104.21,12905.3L5104.45,12906L5104.68,12906.7L5104.92,12907.5L5105.15,12908.2L5105.38,12908.9L5105.61,12909.7L5105.84,12910.4L5106.06,12911.2L5106.28,12911.9L5106.5,12912.6L5106.72,12913.4L5106.93,12914.1L5107.14,12914.9L5107.35,12915.6L5107.56,12916.4L5107.77,12917.1L5107.97,12917.8L5108.17,12918.6L5108.37,12919.3L5108.57,12920.1L5108.76,12920.8L5108.95,12921.6L5109.14,12922.3L5109.33,12923.1L5109.52,12923.9L5109.7,12924.6L5109.88,12925.4L5110.06,12926.1L5110.24,12926.9L5110.41,12927.6L5110.58,12928.4L5110.75,12929.2L5110.92,12929.9L5111.08,12930.7L5111.25,12931.5L5111.41,12932.2L5111.56,12933L5111.72,12933.7L5111.87,12934.5L5112.02,12935.3L5112.17,12936L5112.32,12936.8L5112.46,12937.6L5112.6,12938.4L5112.74,12939.1L5112.88,12939.9L5113.01,12940.7L5113.15,12941.5L5113.28,12942.2L5113.4,12943L5113.53,12943.8L5113.65,12944.6L5113.77,12945.3L5113.89,12946.1L5114,12946.9L5114.12,12947.7L5114.23,12948.5L5114.34,12949.2L5114.44,12950L5114.54,12950.8L5114.65,12951.6L5114.74,12952.4L5114.84,12953.2L5114.93,12953.9L5115.02,12954.7L5115.11,12955.5L5115.2,12956.3L5115.28,12957.1L5115.36,12957.9L5115.44,12958.7L5115.52,12959.5L5115.6,12960.3L5115.67,12961.1L5115.74,12961.9L5115.8,12962.6L5115.87,12963.4L5115.93,12964.2L5115.99,12965L5116.05,12965.8L5116.1,12966.6L5116.15,12967.4L5116.2,12968.2L5116.25,12969L5116.29,12969.8L5116.33,12970.6L5116.37,12971.4L5116.41,12972.2L5116.44,12973L5116.48,12973.8L5116.51,12974.6L5116.53,12975.4L5116.56,12976.3L5116.58,12977.1L5116.6,12977.9L5116.61,12978.7L5116.63,12979.5L5116.64,12980.3L5116.65,12981.1L5116.65,12981.9L5116.66,12982.7L5116.66,12983.5L5116.66,12984.3L5116.65,12985.2L5116.65,12986L5116.64,12986.8L5116.63,12987.6L5116.61,12988.4L5116.6,12989.2L5116.58,12990L5116.56,12990.8L5116.53,12991.6L5116.51,12992.4L5116.48,12993.2L5116.44,12994L5116.41,12994.8L5116.37,12995.6L5116.33,12996.4L5116.29,12997.2L5116.25,12998L5116.2,12998.8L5116.15,12999.6L5116.1,13000.4L5116.05,13001.2L5115.99,13002L5115.93,13002.8L5115.87,13003.6L5115.8,13004.4L5115.74,13005.2L5115.67,13006L5115.6,13006.8L5115.52,13007.6L5115.44,13008.4L5115.36,13009.2L5115.28,13010L5115.2,13010.8L5115.11,13011.6L5115.02,13012.3L5114.93,13013.1L5114.84,13013.9L5114.74,13014.7L5114.65,13015.5L5114.54,13016.3L5114.44,13017.1L5114.34,13017.8L5114.23,13018.6L5114.12,13019.4L5114,13020.2L5113.89,13021L5113.77,13021.7L5113.65,13022.5L5113.53,13023.3L5113.4,13024.1L5113.28,13024.8L5113.15,13025.6L5113.01,13026.4L5112.88,13027.2L5112.74,13027.9L5112.6,13028.7L5112.46,13029.5L5112.32,13030.3L5112.17,13031L5112.02,13031.8L5111.87,13032.6L5111.72,13033.3L5111.56,13034.1L5111.41,13034.9L5111.25,13035.6L5111.08,13036.4L5110.92,13037.1L5110.75,13037.9L5110.58,13038.7L5110.41,13039.4L5110.24,13040.2L5110.06,13040.9L5109.88,13041.7L5109.7,13042.5L5109.52,13043.2L5109.33,13044L5109.14,13044.7L5108.95,13045.5L5108.76,13046.2L5108.57,13047L5108.37,13047.7L5108.17,13048.5L5107.97,13049.2L5107.77,13050L5107.56,13050.7L5107.35,13051.5L5107.14,13052.2L5106.93,13053L5106.72,13053.7L5106.5,13054.4L5106.28,13055.2L5106.06,13055.9L5105.84,13056.7L5105.61,13057.4L5105.38,13058.1L5105.15,13058.9L5104.92,13059.6L5104.68,13060.3L5104.45,13061.1L5104.21,13061.8L5103.97,13062.5L5103.72,13063.3L5103.48,13064L5103.23,13064.7L5102.98,13065.5L5102.73,13066.2L5102.48,13066.9L5102.22,13067.6L5101.96,13068.3L5101.7,13069.1L5101.44,13069.8L5101.17,13070.5L5100.9,13071.2L5100.64,13071.9L5100.36,13072.7L5100.09,13073.4L5099.82,13074.1L5099.54,13074.8L5099.26,13075.5L5098.98,13076.2L5098.69,13076.9L5098.41,13077.7L5098.12,13078.4L5097.83,13079.1L5097.54,13079.8L5097.24,13080.5L5096.94,13081.2L5096.65,13081.9L5096.35,13082.6L5096.04,13083.3L5095.74,13084L5095.43,13084.7L5095.12,13085.4L5094.81,13086.1L5094.5,13086.8L5094.18,13087.5L5093.87,13088.2L5093.55,13088.9L5093.23,13089.5L5092.9,13090.2L5092.58,13090.9L5092.25,13091.6L5091.92,13092.3L5091.59,13093L5091.26,13093.7L5090.92,13094.3L5090.58,13095L5090.24,13095.7L5089.9,13096.4L5089.56,13097.1L5089.21,13097.7L5088.87,13098.4L5088.52,13099.1L5088.17,13099.8L5087.81,13100.4L5087.46,13101.1L5087.1,13101.8L5086.74,13102.4L5086.38,13103.1L5086.02,13103.8L5085.65,13104.4L5085.29,13105.1L5084.92,13105.8L5084.55,13106.4L5084.17,13107.1L5083.8,13107.8L5083.42,13108.4L5083.04,13109.1L5082.66,13109.7L5082.28,13110.4L5081.9,13111L5081.51,13111.7L5081.12,13112.3L5080.73,13113L5080.34,13113.6L5079.95,13114.3L5079.55,13114.9L5079.15,13115.6L5078.75,13116.2L5078.35,13116.8L5077.95,13117.5L5077.54,13118.1L5077.14,13118.8L5076.73,13119.4L5076.32,13120L5075.9,13120.7L5075.49,13121.3L5075.07,13121.9L5074.66,13122.5L5074.24,13123.2L5073.82,13123.8L5073.39,13124.4L5072.97,13125L5072.54,13125.7L5072.11,13126.3L5071.68,13126.9L5071.25,13127.5L5070.81,13128.1L5070.38,13128.8L5069.94,13129.4L5069.5,13130L5069.06,13130.6L5068.61,13131.2L5068.17,13131.8L5067.72,13132.4L5067.27,13133L5066.82,13133.6L5066.37,13134.2L5065.91,13134.8L5065.46,13135.4L5065,13136L5064.54,13136.6L5064.08,13137.2L5063.62,13137.8L5063.15,13138.4L5062.69,13139L5062.22,13139.6L5061.75,13140.2L5061.28,13140.8L5060.8,13141.4L5060.33,13141.9L5059.85,13142.5L5059.37,13143.1L5058.89,13143.7L5058.41,13144.3L5057.93,13144.8L5057.44,13145.4L5056.96,13146L5056.47,13146.6L5055.98,13147.1L5055.48,13147.7L5054.99,13148.3L5054.5,13148.8L5054,13149.4L5053.5,13150L5053,13150.5L5052.5,13151.1L5051.99,13151.7L5051.49,13152.2L5050.98,13152.8L5050.47,13153.3L5049.96,13153.9L5049.45,13154.4L5048.94,13155L5048.42,13155.5L5047.91,13156.1L5047.39,13156.6L5046.87,13157.2L5046.35,13157.7L5045.82,13158.2L5045.3,13158.8L5044.77,13159.3L5044.24,13159.9L5043.72,13160.4L5043.18,13160.9L5042.65,13161.5L5042.12,13162L5041.58,13162.5L5041.04,13163L5040.5,13163.6L5039.96,13164.1L5039.42,13164.6L5038.88,13165.1L5038.33,13165.6L5037.78,13166.2L5037.24,13166.7L5036.69,13167.2L5036.14,13167.7L5035.58,13168.2L5035.03,13168.7L5034.47,13169.2L5033.91,13169.7L5033.36,13170.2L5032.79,13170.7L5032.23,13171.2L5031.67,13171.7L5031.1,13172.2L5030.54,13172.7L5029.97,13173.2L5029.4,13173.7L5028.83,13174.2L5028.26,13174.7L5027.68,13175.2L5027.11,13175.7L5026.53,13176.2L5025.95,13176.6L5025.37,13177.1L5024.79,13177.6L5024.2,13178.1L5023.62,13178.5L5023.03,13179L5022.45,13179.5L5021.86,13180L5021.27,13180.4L5020.68,13180.9L5020.08,13181.4L5019.49,13181.8L5018.89,13182.3L5018.3,13182.7L5017.7,13183.2L5017.1,13183.7L5016.5,13184.1L5015.89,13184.6L5015.29,13185L5014.68,13185.5L5014.08,13185.9L5013.47,13186.4L5012.86,13186.8L5012.25,13187.2L5011.63,13187.7L5011.02,13188.1L5010.4,13188.6L5009.79,13189L5009.17,13189.4L5008.55,13189.9L5007.93,13190.3L5007.31,13190.7L5006.68,13191.1L5006.06,13191.6L5005.43,13192L5004.8,13192.4L5004.18,13192.8L5003.55,13193.2L5002.91,13193.6L5002.28,13194.1L5001.65,13194.5L5001.01,13194.9L5000.37,13195.3L4999.74,13195.7L4999.1,13196.1L4998.45,13196.5L4997.81,13196.9L4997.17,13197.3L4996.53,13197.7L4995.88,13198.1L4995.23,13198.5L4994.58,13198.9L4993.93,13199.3L4993.28,13199.6L4992.63,13200L4991.98,13200.4L4991.32,13200.8L4990.67,13201.2L4990.01,13201.5L4989.35,13201.9L4988.69,13202.3L4988.03,13202.7L4987.37,13203L4986.7,13203.4L4986.04,13203.8L4985.37,13204.1L4984.71,13204.5L4984.04,13204.8L4983.37,13205.2L4982.7,13205.6L4982.03,13205.9L4981.35,13206.3L4980.68,13206.6L4980,13207L4979.33,13207.3L4978.65,13207.6L4977.97,13208L4977.29,13208.3L4976.61,13208.7L4975.93,13209L4975.24,13209.3L4974.56,13209.7L4973.87,13210L4973.18,13210.3L4972.49,13210.6L4971.81,13211L4971.11,13211.3L4970.42,13211.6L4969.73,13211.9L4969.04,13212.2L4968.34,13212.6L4967.65,13212.9L4966.95,13213.2L4966.25,13213.5L4965.55,13213.8L4964.85,13214.1L4964.15,13214.4L4963.44,13214.7L4962.74,13215L4962.03,13215.3L4961.33,13215.6L4960.62,13215.9L4959.91,13216.1L4959.2,13216.4L4958.49,13216.7L4957.78,13217L4957.07,13217.3L4956.36,13217.6L4955.64,13217.8L4954.93,13218.1L4954.21,13218.4L4953.49,13218.6L4952.77,13218.9L4952.05,13219.2L4951.33,13219.4L4950.61,13219.7L4949.89,13220L4949.16,13220.2L4948.44,13220.5L4947.71,13220.7L4946.98,13221L4946.25,13221.2L4945.53,13221.5L4944.8,13221.7L4944.06,13222L4943.33,13222.2L4942.6,13222.4L4941.86,13222.7L4941.13,13222.9L4940.39,13223.1L4939.66,13223.4L4938.92,13223.6L4938.18,13223.8L4937.44,13224L4936.7,13224.2L4935.96,13224.5L4935.22,13224.7L4934.47,13224.9L4933.73,13225.1L4932.98,13225.3L4932.23,13225.5L4931.49,13225.7L4930.74,13225.9L4929.99,13226.1L4929.24,13226.3L4928.49,13226.5L4927.74,13226.7L4926.98,13226.9L4926.23,13227.1L4925.48,13227.3L4924.72,13227.4L4923.96,13227.6L4923.21,13227.8L4922.45,13228L4921.69,13228.2L4920.93,13228.3L4920.17,13228.5L4919.41,13228.7L4918.64,13228.8L4917.88,13229L4917.12,13229.1L4916.35,13229.3L4915.59,13229.5L4914.82,13229.6L4914.05,13229.8L4913.28,13229.9L4912.51,13230.1L4911.74,13230.2L4910.97,13230.3L4910.2,13230.5L4909.43,13230.6L4908.65,13230.8L4907.88,13230.9L4907.1,13231L4906.33,13231.1L4905.55,13231.3L4904.78,13231.4L4904,13231.5L4903.22,13231.6L4902.44,13231.7L4901.66,13231.9L4900.88,13232L4900.09,13232.1L4899.31,13232.2L4898.53,13232.3L4897.74,13232.4L4896.96,13232.5L4896.17,13232.6L4895.39,13232.7L4894.6,13232.8L4893.81,13232.9L4893.02,13232.9L4892.23,13233L4891.44,13233.1L4890.65,13233.2L4889.86,13233.3L4889.07,13233.3L4888.27,13233.4L4887.48,13233.5L4886.69,13233.5L4885.89,13233.6L4885.09,13233.7L4884.3,13233.7L4883.5,13233.8L4882.7,13233.8L4881.9,13233.9L4881.1,13233.9L4880.3,13234L4879.5,13234L4878.7,13234.1L4877.9,13234.1L4877.1,13234.2L4876.3,13234.2L4875.49,13234.2L4874.69,13234.2L4873.88,13234.3L4873.07,13234.3L4872.27,13234.3L4871.46,13234.3L4870.65,13234.4L4869.85,13234.4L4869.04,13234.4L4868.23,13234.4L4867.42,13234.4L4866.61,13234.4L4865.8,13234.4L4864.98,13234.4L4864.17,13234.4L4863.36,13234.4L4862.55,13234.4L4861.74,13234.4L4860.94,13234.4L4860.13,13234.3L4859.32,13234.3L4858.52,13234.3L4857.71,13234.3L4856.9,13234.2L4856.1,13234.2L4855.3,13234.2L4854.49,13234.2L4853.69,13234.1L4852.89,13234.1L4852.09,13234L4851.29,13234L4850.49,13233.9L4849.69,13233.9L4848.89,13233.8L4848.09,13233.8L4847.29,13233.7L4846.5,13233.7L4845.7,13233.6L4844.9,13233.5L4844.11,13233.5L4843.32,13233.4L4842.52,13233.3L4841.73,13233.3L4840.94,13233.2L4840.15,13233.1L4839.36,13233L4838.57,13232.9L4837.78,13232.9L4836.99,13232.8L4836.2,13232.7L4835.42,13232.6L4834.63,13232.5L4833.85,13232.4L4833.06,13232.3L4832.28,13232.2L4831.5,13232.1L4830.72,13232L4829.93,13231.9L4829.15,13231.7L4828.37,13231.6L4827.59,13231.5L4826.82,13231.4L4826.04,13231.3L4825.26,13231.1L4824.49,13231L4823.71,13230.9L4822.94,13230.8L4822.16,13230.6L4821.39,13230.5L4820.62,13230.3L4819.85,13230.2L4819.08,13230.1L4818.31,13229.9L4817.54,13229.8L4816.77,13229.6L4816.01,13229.5L4815.24,13229.3L4814.48,13229.1L4813.71,13229L4812.95,13228.8L4812.18,13228.7L4811.42,13228.5L4810.66,13228.3L4809.9,13228.2L4809.14,13228L4808.39,13227.8L4807.63,13227.6L4806.87,13227.4L4806.11,13227.3L4805.36,13227.1L4804.61,13226.9L4803.85,13226.7L4803.1,13226.5L4802.35,13226.3L4801.6,13226.1L4800.85,13225.9L4800.1,13225.7L4799.36,13225.5L4798.61,13225.3L4797.86,13225.1L4797.12,13224.9L4796.38,13224.7L4795.63,13224.5L4794.89,13224.2L4794.15,13224L4793.41,13223.8L4792.67,13223.6L4791.93,13223.4L4791.2,13223.1L4790.46,13222.9L4789.73,13222.7L4788.99,13222.4L4788.26,13222.2L4787.53,13222L4786.8,13221.7L4786.07,13221.5L4785.34,13221.2L4784.61,13221L4783.88,13220.7L4783.15,13220.5L4782.43,13220.2L4781.7,13220L4780.98,13219.7L4780.26,13219.4L4779.54,13219.2L4778.82,13218.9L4778.1,13218.6L4777.38,13218.4L4776.67,13218.1L4775.95,13217.8L4775.23,13217.6L4774.52,13217.3L4773.81,13217L4773.1,13216.7L4772.39,13216.4L4771.68,13216.1L4770.97,13215.9L4770.26,13215.6L4769.56,13215.3L4768.85,13215L4768.15,13214.7L4767.44,13214.4L4766.74,13214.1L4766.04,13213.8L4765.34,13213.5L4764.64,13213.2L4763.94,13212.9L4763.25,13212.6L4762.55,13212.2L4761.86,13211.9L4761.17,13211.6L4760.48,13211.3L4759.78,13211L4759.1,13210.6L4758.41,13210.3L4757.72,13210L4757.03,13209.7L4756.35,13209.3L4755.66,13209L4754.98,13208.7L4754.3,13208.3L4753.62,13208L4752.94,13207.6L4752.26,13207.3L4751.59,13207L4750.91,13206.6L4750.24,13206.3L4749.56,13205.9L4748.89,13205.6L4748.22,13205.2L4747.55,13204.8L4746.88,13204.5L4746.22,13204.1L4745.55,13203.8L4744.89,13203.4L4744.22,13203L4743.56,13202.7L4742.9,13202.3L4742.24,13201.9L4741.58,13201.5L4740.92,13201.2L4740.27,13200.8L4739.61,13200.4L4738.96,13200L4738.31,13199.6L4737.66,13199.3L4737.01,13198.9L4736.36,13198.5L4735.71,13198.1L4735.07,13197.7L4734.42,13197.3L4733.78,13196.9L4733.14,13196.5L4732.49,13196.1L4731.85,13195.7L4731.22,13195.3L4730.58,13194.9L4729.94,13194.5L4729.31,13194.1L4728.68,13193.6L4728.05,13193.2L4727.41,13192.8L4726.79,13192.4L4726.16,13192L4725.53,13191.6L4724.91,13191.1L4724.28,13190.7L4723.66,13190.3L4723.04,13189.9L4722.42,13189.4L4721.8,13189L4721.19,13188.6L4720.57,13188.1L4719.96,13187.7L4719.34,13187.2L4718.73,13186.8L4718.12,13186.4L4717.51,13185.9L4716.91,13185.5L4716.3,13185L4715.7,13184.6L4715.09,13184.1L4714.49,13183.7L4713.89,13183.2L4713.29,13182.7L4712.7,13182.3L4712.1,13181.8L4711.51,13181.4L4710.91,13180.9L4710.32,13180.4L4709.73,13180L4709.14,13179.5L4708.56,13179L4707.97,13178.5L4707.39,13178.1L4706.8,13177.6L4706.22,13177.1L4705.64,13176.6L4705.06,13176.2L4704.48,13175.7L4703.91,13175.2L4703.34,13174.7L4702.76,13174.2L4702.19,13173.7L4701.62,13173.2L4701.05,13172.7L4700.49,13172.2L4699.92,13171.7L4699.36,13171.2L4698.8,13170.7L4698.23,13170.2L4697.68,13169.7L4697.12,13169.2L4696.56,13168.7L4696.01,13168.2L4695.45,13167.7L4694.9,13167.2L4694.35,13166.7L4693.81,13166.2L4693.26,13165.6L4692.71,13165.1L4692.17,13164.6L4691.63,13164.1L4691.09,13163.6L4690.55,13163L4690.01,13162.5L4689.47,13162L4688.94,13161.5L4688.41,13160.9L4687.88,13160.4L4687.35,13159.9L4686.82,13159.3L4686.29,13158.8L4685.77,13158.2L4685.24,13157.7L4684.72,13157.2L4684.2,13156.6L4683.68,13156.1L4683.17,13155.5L4682.65,13155L4682.14,13154.4L4681.63,13153.9L4681.12,13153.3L4680.61,13152.8L4680.1,13152.2L4679.6,13151.7L4679.09,13151.1L4678.59,13150.5L4678.09,13150L4677.59,13149.4L4677.09,13148.8L4676.6,13148.3L4676.11,13147.7L4675.61,13147.1L4675.12,13146.6L4674.63,13146L4674.15,13145.4L4673.66,13144.8L4673.18,13144.3L4672.7,13143.7L4672.22,13143.1L4671.74,13142.5L4671.26,13141.9L4670.79,13141.4L4670.31,13140.8L4669.84,13140.2L4669.37,13139.6L4668.9,13139L4668.44,13138.4L4667.97,13137.8L4667.51,13137.2L4667.05,13136.6L4666.59,13136L4666.13,13135.4L4665.68,13134.8L4665.22,13134.2L4664.77,13133.6L4664.32,13133L4663.87,13132.4L4663.42,13131.8L4662.98,13131.2L4662.53,13130.6L4662.09,13130L4661.65,13129.4L4661.21,13128.8L4660.78,13128.1L4660.34,13127.5L4659.91,13126.9L4659.48,13126.3L4659.05,13125.7L4658.62,13125L4658.2,13124.4L4657.78,13123.8L4657.35,13123.2L4656.93,13122.5L4656.52,13121.9L4656.1,13121.3L4655.69,13120.7L4655.27,13120L4654.86,13119.4L4654.45,13118.8L4654.05,13118.1L4653.64,13117.5L4653.24,13116.8L4652.84,13116.2L4652.44,13115.6L4652.04,13114.9L4651.64,13114.3L4651.25,13113.6L4650.86,13113L4650.47,13112.3L4650.08,13111.7L4649.69,13111L4649.31,13110.4L4648.93,13109.7L4648.55,13109.1L4648.17,13108.4L4647.79,13107.8L4647.42,13107.1L4647.04,13106.4L4646.67,13105.8L4646.3,13105.1L4645.94,13104.4L4645.57,13103.8L4645.21,13103.1L4644.85,13102.4L4644.49,13101.8L4644.13,13101.1L4643.78,13100.4L4643.42,13099.8L4643.07,13099.1L4642.72,13098.4L4642.38,13097.7L4642.03,13097.1L4641.69,13096.4L4641.35,13095.7L4641.01,13095L4640.67,13094.3L4640.33,13093.7L4640,13093L4639.67,13092.3L4639.34,13091.6L4639.01,13090.9L4638.69,13090.2L4638.36,13089.5L4638.04,13088.9L4637.72,13088.2L4637.41,13087.5L4637.09,13086.8L4636.78,13086.1L4636.47,13085.4L4636.16,13084.7L4635.85,13084L4635.55,13083.3L4635.24,13082.6L4634.94,13081.9L4634.65,13081.2L4634.35,13080.5L4634.05,13079.8L4633.76,13079.1L4633.47,13078.4L4633.18,13077.7L4632.9,13076.9L4632.61,13076.2L4632.33,13075.5L4632.05,13074.8L4631.77,13074.1L4631.5,13073.4L4631.23,13072.7L4630.95,13071.9L4630.68,13071.2L4630.42,13070.5L4630.15,13069.8L4629.89,13069.1L4629.63,13068.3L4629.37,13067.6L4629.11,13066.9L4628.86,13066.2L4628.61,13065.5L4628.36,13064.7L4628.11,13064L4627.86,13063.3L4627.62,13062.5L4627.38,13061.8L4627.14,13061.1L4626.9,13060.3L4626.67,13059.6L4626.44,13058.9L4626.21,13058.1L4625.98,13057.4L4625.75,13056.7L4625.53,13055.9L4625.31,13055.2L4625.09,13054.4L4624.87,13053.7L4624.66,13053L4624.45,13052.2L4624.24,13051.5L4624.03,13050.7L4623.82,13050L4623.62,13049.2L4623.42,13048.5L4623.22,13047.7L4623.02,13047L4622.83,13046.2L4622.64,13045.5L4622.44,13044.7L4622.26,13044L4622.07,13043.2L4621.89,13042.5L4621.71,13041.7L4621.53,13040.9L4621.35,13040.2L4621.18,13039.4L4621.01,13038.7L4620.84,13037.9L4620.67,13037.1L4620.51,13036.4L4620.34,13035.6L4620.18,13034.9L4620.03,13034.1L4619.87,13033.3L4619.72,13032.6L4619.57,13031.8L4619.42,13031L4619.27,13030.3L4619.13,13029.5L4618.99,13028.7L4618.85,13027.9L4618.71,13027.2L4618.58,13026.4L4618.44,13025.6L4618.32,13024.8L4618.19,13024.1L4618.06,13023.3L4617.94,13022.5L4617.82,13021.7L4617.7,13021L4617.59,13020.2L4617.47,13019.4L4617.36,13018.6L4617.26,13017.8L4617.15,13017.1L4617.05,13016.3L4616.94,13015.5L4616.85,13014.7L4616.75,13013.9L4616.66,13013.1L4616.57,13012.3L4616.48,13011.6L4616.39,13010.8L4616.31,13010L4616.22,13009.2L4616.15,13008.4L4616.07,13007.6L4615.99,13006.8L4615.92,13006L4615.85,13005.2L4615.79,13004.4L4615.72,13003.6L4615.66,13002.8L4615.6,13002L4615.54,13001.2L4615.49,13000.4L4615.44,12999.6L4615.39,12998.8L4615.34,12998L4615.3,12997.2L4615.26,12996.4L4615.22,12995.6L4615.18,12994.8L4615.15,12994L4615.11,12993.2L4615.08,12992.4L4615.06,12991.6L4615.03,12990.8L4615.01,12990L4614.99,12989.2L4614.98,12988.4L4614.96,12987.6L4614.95,12986.8L4614.94,12986L4614.93,12985.2L4614.93,12984.3L4614.93,12983.5L4614.93,12982.7L4614.93,12981.9L4614.94,12981.1L4614.95,12980.3L4614.96,12979.5L4614.98,12978.7L4614.99,12977.9L4615.01,12977.1L4615.03,12976.3L4615.06,12975.4L4615.08,12974.6L4615.11,12973.8L4615.15,12973L4615.18,12972.2L4615.22,12971.4L4615.26,12970.6L4615.3,12969.8L4615.34,12969L4615.39,12968.2L4615.44,12967.4L4615.49,12966.6L4615.54,12965.8L4615.6,12965L4615.66,12964.2L4615.72,12963.4L4615.79,12962.6L4615.85,12961.9L4615.92,12961.1L4615.99,12960.3L4616.07,12959.5L4616.15,12958.7L4616.22,12957.9L4616.31,12957.1L4616.39,12956.3L4616.48,12955.5L4616.57,12954.7L4616.66,12953.9L4616.75,12953.2L4616.85,12952.4L4616.94,12951.6L4617.05,12950.8L4617.15,12950L4617.26,12949.2L4617.36,12948.5L4617.47,12947.7L4617.59,12946.9L4617.7,12946.1L4617.82,12945.3L4617.94,12944.6L4618.06,12943.8L4618.19,12943L4618.32,12942.2L4618.44,12941.5L4618.58,12940.7L4618.71,12939.9L4618.85,12939.1L4618.99,12938.4L4619.13,12937.6L4619.27,12936.8L4619.42,12936L4619.57,12935.3L4619.72,12934.5L4619.87,12933.7L4620.03,12933L4620.18,12932.2L4620.34,12931.5L4620.51,12930.7L4620.67,12929.9L4620.84,12929.2L4621.01,12928.4L4621.18,12927.6L4621.35,12926.9L4621.53,12926.1L4621.71,12925.4L4621.89,12924.6L4622.07,12923.9L4622.26,12923.1L4622.44,12922.3L4622.64,12921.6L4622.83,12920.8L4623.02,12920.1L4623.22,12919.3L4623.42,12918.6L4623.62,12917.8L4623.82,12917.1L4624.03,12916.4L4624.24,12915.6L4624.45,12914.9L4624.66,12914.1L4624.87,12913.4L4625.09,12912.6L4625.31,12911.9L4625.53,12911.2L4625.75,12910.4L4625.98,12909.7L4626.21,12908.9L4626.44,12908.2L4626.67,12907.5L4626.9,12906.7L4627.14,12906L4627.38,12905.3L4627.62,12904.5L4627.86,12903.8L4628.11,12903.1L4628.36,12902.3L4628.61,12901.6L4628.86,12900.9L4629.11,12900.2L4629.37,12899.4L4629.63,12898.7L4629.89,12898L4630.15,12897.3L4630.42,12896.6L4630.68,12895.8L4630.95,12895.1L4631.23,12894.4L4631.5,12893.7L4631.77,12893L4632.05,12892.3L4632.33,12891.6L4632.61,12890.8L4632.9,12890.1L4633.18,12889.4L4633.47,12888.7L4633.76,12888L4634.05,12887.3L4634.35,12886.6L4634.65,12885.9L4634.94,12885.2L4635.24,12884.5L4635.55,12883.8L4635.85,12883.1L4636.16,12882.4L4636.47,12881.7L4636.78,12881L4637.09,12880.3L4637.41,12879.6L4637.72,12878.9L4638.04,12878.2L4638.36,12877.5L4638.69,12876.8L4639.01,12876.1L4639.34,12875.5L4639.67,12874.8L4640,12874.1L4640.33,12873.4L4640.67,12872.7L4641.01,12872L4641.35,12871.4L4641.69,12870.7L4642.03,12870L4642.38,12869.3L4642.72,12868.7L4643.07,12868L4643.42,12867.3L4643.78,12866.6L4644.13,12866L4644.49,12865.3L4644.85,12864.6L4645.21,12864L4645.57,12863.3L4645.94,12862.6L4646.3,12862L4646.67,12861.3L4647.04,12860.6L4647.42,12860L4647.79,12859.3L4648.17,12858.7L4648.55,12858L4648.93,12857.4L4649.31,12856.7L4649.69,12856L4650.08,12855.4L4650.47,12854.7L4650.86,12854.1L4651.25,12853.5L4651.64,12852.8L4652.04,12852.2L4652.44,12851.5L4652.84,12850.9L4653.24,12850.2L4653.64,12849.6L4654.05,12849L4654.45,12848.3L4654.86,12847.7L4655.27,12847.1L4655.69,12846.4L4656.1,12845.8L4656.52,12845.2L4656.93,12844.5L4657.35,12843.9L4657.78,12843.3L4658.2,12842.6L4658.62,12842L4659.05,12841.4L4659.48,12840.8L4659.91,12840.2L4660.34,12839.5L4660.78,12838.9L4661.21,12838.3L4661.65,12837.7L4662.09,12837.1L4662.53,12836.5L4662.98,12835.9L4663.42,12835.3L4663.87,12834.6L4664.32,12834L4664.77,12833.4L4665.22,12832.8L4665.68,12832.2L4666.13,12831.6L4666.59,12831L4667.05,12830.4L4667.51,12829.8L4667.97,12829.2L4668.44,12828.7L4668.9,12828.1L4669.37,12827.5L4669.84,12826.9L4670.31,12826.3L4670.79,12825.7L4671.26,12825.1L4671.74,12824.5L4672.22,12824L4672.7,12823.4L4673.18,12822.8L4673.66,12822.2L4674.15,12821.7L4674.63,12821.1L4675.12,12820.5L4675.61,12819.9L4676.11,12819.4L4676.6,12818.8L4677.09,12818.2L4677.59,12817.7L4678.09,12817.1L4678.59,12816.5L4679.09,12816L4679.6,12815.4L4680.1,12814.9L4680.61,12814.3L4681.12,12813.8L4681.63,12813.2L4682.14,12812.6L4682.65,12812.1L4683.17,12811.5L4683.68,12811L4684.2,12810.5L4684.72,12809.9L4685.24,12809.4L4685.77,12808.8L4686.29,12808.3L4686.82,12807.8L4687.35,12807.2L4687.88,12806.7L4688.41,12806.1L4688.94,12805.6L4689.47,12805.1L4690.01,12804.6L4690.55,12804L4691.09,12803.5L4691.63,12803L4692.17,12802.5L4692.71,12801.9L4693.26,12801.4L4693.81,12800.9L4694.35,12800.4L4694.9,12799.9L4695.45,12799.4L4696.01,12798.9L4696.56,12798.4L4697.12,12797.8L4697.68,12797.3L4698.23,12796.8L4698.8,12796.3L4699.36,12795.8L4699.92,12795.3L4700.49,12794.8L4701.05,12794.3L4701.62,12793.8L4702.19,12793.4L4702.76,12792.9L4703.34,12792.4L4703.91,12791.9L4704.48,12791.4L4705.06,12790.9L4705.64,12790.4L4706.22,12790L4706.8,12789.5L4707.39,12789L4707.97,12788.5L4708.56,12788.1L4709.14,12787.6L4709.73,12787.1L4710.32,12786.6L4710.91,12786.2L4711.51,12785.7L4712.1,12785.3L4712.7,12784.8L4713.29,12784.3L4713.89,12783.9L4714.49,12783.4L4715.09,12783L4715.7,12782.5L4716.3,12782.1L4716.91,12781.6L4717.51,12781.2L4718.12,12780.7L4718.73,12780.3L4719.34,12779.8L4719.96,12779.4L4720.57,12779L4721.19,12778.5L4721.8,12778.1L4722.42,12777.7L4723.04,12777.2L4723.66,12776.8L4724.28,12776.4L4724.91,12775.9L4725.53,12775.5L4726.16,12775.1L4726.79,12774.7L4727.41,12774.3L4728.05,12773.8L4728.68,12773.4L4729.31,12773L4729.94,12772.6L4730.58,12772.2L4731.22,12771.8L4731.85,12771.4L4732.49,12771L4733.14,12770.6L4733.78,12770.2L4734.42,12769.8L4735.07,12769.4L4735.71,12769L4736.36,12768.6L4737.01,12768.2L4737.66,12767.8L4738.31,12767.4L4738.96,12767.1L4739.61,12766.7L4740.27,12766.3L4740.92,12765.9L4741.58,12765.5L4742.24,12765.2L4742.9,12764.8L4743.56,12764.4L4744.22,12764L4744.89,12763.7L4745.55,12763.3L4746.22,12763L4746.88,12762.6L4747.55,12762.2L4748.22,12761.9L4748.89,12761.5L4749.56,12761.2L4750.24,12760.8L4750.91,12760.5L4751.59,12760.1L4752.26,12759.8L4752.94,12759.4L4753.62,12759.1L4754.3,12758.7L4754.98,12758.4L4755.66,12758.1L4756.35,12757.7L4757.03,12757.4L4757.72,12757.1L4758.41,12756.8L4759.1,12756.4L4759.78,12756.1L4760.48,12755.8L4761.17,12755.5L4761.86,12755.1L4762.55,12754.8L4763.25,12754.5L4763.94,12754.2L4764.64,12753.9L4765.34,12753.6L4766.04,12753.3L4766.74,12753L4767.44,12752.7L4768.15,12752.4L4768.85,12752.1L4769.56,12751.8L4770.26,12751.5L4770.97,12751.2L4771.68,12750.9L4772.39,12750.6L4773.1,12750.4L4773.81,12750.1L4774.52,12749.8L4775.23,12749.5L4775.95,12749.2L4776.67,12749L4777.38,12748.7L4778.1,12748.4L4778.82,12748.2L4779.54,12747.9L4780.26,12747.6L4780.98,12747.4L4781.7,12747.1L4782.43,12746.9L4783.15,12746.6L4783.88,12746.4L4784.61,12746.1L4785.34,12745.9L4786.07,12745.6L4786.8,12745.4L4787.53,12745.1L4788.26,12744.9L4788.99,12744.6L4789.73,12744.4L4790.46,12744.2L4791.2,12744L4791.93,12743.7L4792.67,12743.5L4793.41,12743.3L4794.15,12743.1L4794.89,12742.8L4795.63,12742.6L4796.38,12742.4L4797.12,12742.2L4797.86,12742L4798.61,12741.8L4799.36,12741.6L4800.1,12741.4L4800.85,12741.2L4801.6,12741L4802.35,12740.8L4803.1,12740.6L4803.85,12740.4L4804.61,12740.2L4805.36,12740L4806.11,12739.8L4806.87,12739.6L4807.63,12739.5L4808.39,12739.3L4809.14,12739.1L4809.9,12738.9L4810.66,12738.8L4811.42,12738.6L4812.18,12738.4L4812.95,12738.2L4813.71,12738.1L4814.48,12737.9L4815.24,12737.8L4816.01,12737.6L4816.77,12737.5L4817.54,12737.3L4818.31,12737.2L4819.08,12737L4819.85,12736.9L4820.62,12736.7L4821.39,12736.6L4822.16,12736.5L4822.94,12736.3L4823.71,12736.2L4824.49,12736.1L4825.26,12735.9L4826.04,12735.8L4826.82,12735.7L4827.59,12735.6L4828.37,12735.4L4829.15,12735.3L4829.93,12735.2L4830.72,12735.1L4831.5,12735L4832.28,12734.9L4833.06,12734.8L4833.85,12734.7L4834.63,12734.6L4835.42,12734.5L4836.2,12734.4L4836.99,12734.3L4837.78,12734.2L4838.57,12734.1L4839.36,12734L4840.15,12734L4840.94,12733.9L4841.73,12733.8L4842.52,12733.7L4843.32,12733.7L4844.11,12733.6L4844.9,12733.5L4845.7,12733.5L4846.5,12733.4L4847.29,12733.3L4848.09,12733.3L4848.89,12733.2L4849.69,12733.2L4850.49,12733.1L4851.29,12733.1L4852.09,12733L4852.89,12733L4853.69,12733L4854.49,12732.9L4855.3,12732.9L4856.1,12732.9L4856.9,12732.8L4857.71,12732.8L4858.52,12732.8L4859.32,12732.8L4860.13,12732.7L4860.94,12732.7L4861.74,12732.7L4862.55,12732.7L4863.36,12732.7L4864.17,12732.7L4864.98,12732.7L4865.8,12732.7L4866.61,12732.7ZM4865,12737.7L4864.2,12737.7L4863.41,12737.7L4862.62,12737.7L4861.82,12737.7L4861.03,12737.7L4860.24,12737.7L4859.45,12737.8L4858.66,12737.8L4857.87,12737.8L4857.08,12737.8L4856.29,12737.9L4855.5,12737.9L4854.71,12737.9L4853.93,12738L4853.14,12738L4852.36,12738L4851.57,12738.1L4850.79,12738.1L4850,12738.2L4849.22,12738.2L4848.44,12738.3L4847.66,12738.3L4846.88,12738.4L4846.1,12738.5L4845.32,12738.5L4844.54,12738.6L4843.76,12738.6L4842.98,12738.7L4842.2,12738.8L4841.43,12738.9L4840.65,12738.9L4839.88,12739L4839.11,12739.1L4838.33,12739.2L4837.56,12739.3L4836.79,12739.4L4836.02,12739.5L4835.25,12739.6L4834.48,12739.6L4833.71,12739.7L4832.94,12739.8L4832.17,12740L4831.41,12740.1L4830.64,12740.2L4829.88,12740.3L4829.11,12740.4L4828.35,12740.5L4827.59,12740.6L4826.82,12740.7L4826.06,12740.9L4825.3,12741L4824.54,12741.1L4823.78,12741.2L4823.03,12741.4L4822.27,12741.5L4821.51,12741.6L4820.76,12741.8L4820,12741.9L4819.25,12742.1L4818.5,12742.2L4817.74,12742.4L4816.99,12742.5L4816.24,12742.7L4815.49,12742.8L4814.74,12743L4813.99,12743.1L4813.25,12743.3L4812.5,12743.5L4811.76,12743.6L4811.01,12743.8L4810.27,12744L4809.52,12744.1L4808.78,12744.3L4808.04,12744.5L4807.3,12744.7L4806.56,12744.9L4805.82,12745L4805.09,12745.2L4804.35,12745.4L4803.61,12745.6L4802.88,12745.8L4802.14,12746L4801.41,12746.2L4800.68,12746.4L4799.94,12746.6L4799.22,12746.8L4798.48,12747L4797.76,12747.2L4797.03,12747.4L4796.3,12747.6L4795.58,12747.8L4794.85,12748.1L4794.13,12748.3L4793.4,12748.5L4792.68,12748.7L4791.96,12749L4791.24,12749.2L4790.52,12749.4L4789.8,12749.6L4789.09,12749.9L4788.37,12750.1L4787.65,12750.3L4786.94,12750.6L4786.23,12750.8L4785.51,12751.1L4784.8,12751.3L4784.09,12751.6L4783.38,12751.8L4782.67,12752.1L4781.97,12752.3L4781.26,12752.6L4780.55,12752.9L4779.85,12753.1L4779.15,12753.4L4778.44,12753.6L4777.74,12753.9L4777.04,12754.2L4776.34,12754.5L4775.64,12754.7L4774.95,12755L4774.25,12755.3L4773.55,12755.6L4772.86,12755.8L4772.17,12756.1L4771.48,12756.4L4770.78,12756.7L4770.09,12757L4769.4,12757.3L4768.72,12757.6L4768.03,12757.9L4767.35,12758.2L4766.66,12758.5L4765.98,12758.8L4765.3,12759.1L4764.61,12759.4L4763.93,12759.7L4763.26,12760L4762.58,12760.3L4761.9,12760.6L4761.22,12761L4760.55,12761.3L4759.88,12761.6L4759.2,12761.9L4758.53,12762.2L4757.86,12762.6L4757.19,12762.9L4756.53,12763.2L4755.86,12763.6L4755.19,12763.9L4754.53,12764.2L4753.87,12764.6L4753.2,12764.9L4752.54,12765.3L4751.88,12765.6L4751.23,12765.9L4750.57,12766.3L4749.91,12766.6L4749.26,12767L4748.6,12767.3L4747.95,12767.7L4747.3,12768.1L4746.65,12768.4L4746,12768.8L4745.35,12769.1L4744.7,12769.5L4744.06,12769.9L4743.42,12770.2L4742.77,12770.6L4742.13,12771L4741.49,12771.4L4740.85,12771.7L4740.21,12772.1L4739.58,12772.5L4738.94,12772.9L4738.31,12773.3L4737.67,12773.7L4737.04,12774L4736.41,12774.4L4735.78,12774.8L4735.15,12775.2L4734.53,12775.6L4733.9,12776L4733.28,12776.4L4732.65,12776.8L4732.03,12777.2L4731.41,12777.6L4730.79,12778L4730.18,12778.4L4729.56,12778.8L4728.94,12779.2L4728.33,12779.7L4727.72,12780.1L4727.11,12780.5L4726.5,12780.9L4725.89,12781.3L4725.28,12781.8L4724.68,12782.2L4724.07,12782.6L4723.47,12783L4722.87,12783.5L4722.27,12783.9L4721.67,12784.3L4721.07,12784.8L4720.47,12785.2L4719.88,12785.6L4719.28,12786.1L4718.69,12786.5L4718.1,12787L4717.51,12787.4L4716.92,12787.9L4716.34,12788.3L4715.75,12788.8L4715.17,12789.2L4714.58,12789.7L4714,12790.1L4713.42,12790.6L4712.84,12791L4712.27,12791.5L4711.69,12791.9L4711.12,12792.4L4710.54,12792.9L4709.97,12793.3L4709.4,12793.8L4708.83,12794.3L4708.27,12794.8L4707.7,12795.2L4707.14,12795.7L4706.57,12796.2L4706.01,12796.7L4705.45,12797.1L4704.9,12797.6L4704.34,12798.1L4703.78,12798.6L4703.23,12799.1L4702.68,12799.6L4702.12,12800.1L4701.58,12800.6L4701.03,12801L4700.48,12801.5L4699.94,12802L4699.39,12802.5L4698.85,12803L4698.31,12803.5L4697.77,12804L4697.23,12804.5L4696.7,12805.1L4696.16,12805.6L4695.63,12806.1L4695.1,12806.6L4694.57,12807.1L4694.04,12807.6L4693.51,12808.1L4692.99,12808.6L4692.46,12809.2L4691.94,12809.7L4691.42,12810.2L4690.9,12810.7L4690.39,12811.3L4689.87,12811.8L4689.35,12812.3L4688.84,12812.8L4688.33,12813.4L4687.82,12813.9L4687.31,12814.4L4686.81,12815L4686.3,12815.5L4685.8,12816.1L4685.3,12816.6L4684.8,12817.1L4684.3,12817.7L4683.8,12818.2L4683.31,12818.8L4682.81,12819.3L4682.32,12819.9L4681.83,12820.4L4681.34,12821L4680.85,12821.5L4680.37,12822.1L4679.88,12822.6L4679.4,12823.2L4678.92,12823.8L4678.44,12824.3L4677.97,12824.9L4677.49,12825.4L4677.02,12826L4676.54,12826.6L4676.07,12827.1L4675.6,12827.7L4675.14,12828.3L4674.67,12828.9L4674.21,12829.4L4673.74,12830L4673.28,12830.6L4672.82,12831.2L4672.37,12831.7L4671.91,12832.3L4671.46,12832.9L4671.01,12833.5L4670.56,12834.1L4670.11,12834.7L4669.66,12835.3L4669.22,12835.8L4668.77,12836.4L4668.33,12837L4667.89,12837.6L4667.45,12838.2L4667.02,12838.8L4666.58,12839.4L4666.15,12840L4665.72,12840.6L4665.29,12841.2L4664.86,12841.8L4664.44,12842.4L4664.01,12843L4663.59,12843.6L4663.17,12844.2L4662.75,12844.8L4662.33,12845.5L4661.92,12846.1L4661.51,12846.7L4661.09,12847.3L4660.68,12847.9L4660.28,12848.5L4659.87,12849.2L4659.47,12849.8L4659.06,12850.4L4658.66,12851L4658.26,12851.6L4657.87,12852.3L4657.47,12852.9L4657.08,12853.5L4656.69,12854.2L4656.3,12854.8L4655.91,12855.4L4655.52,12856L4655.14,12856.7L4654.76,12857.3L4654.38,12858L4654,12858.6L4653.62,12859.2L4653.25,12859.9L4652.87,12860.5L4652.5,12861.2L4652.13,12861.8L4651.77,12862.4L4651.4,12863.1L4651.04,12863.7L4650.68,12864.4L4650.32,12865L4649.96,12865.7L4649.6,12866.3L4649.25,12867L4648.9,12867.7L4648.55,12868.3L4648.2,12869L4647.85,12869.6L4647.51,12870.3L4647.17,12870.9L4646.83,12871.6L4646.49,12872.3L4646.15,12872.9L4645.82,12873.6L4645.48,12874.3L4645.15,12874.9L4644.82,12875.6L4644.5,12876.3L4644.17,12876.9L4643.85,12877.6L4643.53,12878.3L4643.21,12879L4642.89,12879.6L4642.58,12880.3L4642.27,12881L4641.96,12881.7L4641.65,12882.4L4641.34,12883L4641.04,12883.7L4640.73,12884.4L4640.43,12885.1L4640.13,12885.8L4639.84,12886.5L4639.54,12887.1L4639.25,12887.8L4638.96,12888.5L4638.67,12889.2L4638.38,12889.9L4638.1,12890.6L4637.82,12891.3L4637.54,12892L4637.26,12892.7L4636.98,12893.4L4636.71,12894.1L4636.44,12894.8L4636.17,12895.5L4635.9,12896.2L4635.63,12896.9L4635.37,12897.6L4635.11,12898.3L4634.85,12899L4634.59,12899.7L4634.34,12900.4L4634.08,12901.1L4633.83,12901.8L4633.58,12902.5L4633.33,12903.3L4633.09,12904L4632.85,12904.7L4632.61,12905.4L4632.37,12906.1L4632.13,12906.8L4631.9,12907.5L4631.67,12908.3L4631.44,12909L4631.21,12909.7L4630.98,12910.4L4630.76,12911.1L4630.54,12911.9L4630.32,12912.6L4630.1,12913.3L4629.89,12914L4629.68,12914.8L4629.46,12915.5L4629.26,12916.2L4629.05,12917L4628.85,12917.7L4628.65,12918.4L4628.44,12919.1L4628.25,12919.9L4628.05,12920.6L4627.86,12921.4L4627.67,12922.1L4627.48,12922.8L4627.3,12923.6L4627.11,12924.3L4626.93,12925L4626.75,12925.8L4626.57,12926.5L4626.4,12927.3L4626.23,12928L4626.06,12928.8L4625.89,12929.5L4625.72,12930.2L4625.56,12931L4625.4,12931.7L4625.24,12932.5L4625.08,12933.2L4624.92,12934L4624.77,12934.7L4624.62,12935.5L4624.47,12936.2L4624.33,12937L4624.19,12937.7L4624.04,12938.5L4623.91,12939.3L4623.77,12940L4623.64,12940.8L4623.5,12941.5L4623.37,12942.3L4623.25,12943L4623.12,12943.8L4623,12944.6L4622.88,12945.3L4622.76,12946.1L4622.65,12946.9L4622.53,12947.6L4622.42,12948.4L4622.32,12949.1L4622.21,12949.9L4622.11,12950.7L4622,12951.5L4621.9,12952.2L4621.81,12953L4621.71,12953.8L4621.62,12954.5L4621.53,12955.3L4621.45,12956.1L4621.36,12956.8L4621.28,12957.6L4621.2,12958.4L4621.12,12959.2L4621.05,12959.9L4620.97,12960.7L4620.9,12961.5L4620.84,12962.3L4620.77,12963.1L4620.71,12963.8L4620.65,12964.6L4620.59,12965.4L4620.53,12966.2L4620.48,12967L4620.43,12967.7L4620.38,12968.5L4620.33,12969.3L4620.29,12970.1L4620.25,12970.9L4620.21,12971.7L4620.17,12972.5L4620.14,12973.2L4620.11,12974L4620.08,12974.8L4620.06,12975.6L4620.03,12976.4L4620.01,12977.2L4619.99,12978L4619.97,12978.8L4619.96,12979.6L4619.95,12980.4L4619.94,12981.2L4619.93,12981.9L4619.93,12982.7L4619.93,12983.5L4619.93,12984.3L4619.93,12985.1L4619.94,12985.9L4619.95,12986.7L4619.96,12987.5L4619.97,12988.3L4619.99,12989.1L4620.01,12989.9L4620.03,12990.7L4620.06,12991.5L4620.08,12992.3L4620.11,12993L4620.14,12993.8L4620.17,12994.6L4620.21,12995.4L4620.25,12996.2L4620.29,12997L4620.33,12997.8L4620.38,12998.5L4620.43,12999.3L4620.48,13000.1L4620.53,13000.9L4620.59,13001.7L4620.65,13002.5L4620.71,13003.2L4620.77,13004L4620.84,13004.8L4620.9,13005.6L4620.97,13006.3L4621.05,13007.1L4621.12,13007.9L4621.2,13008.7L4621.28,13009.5L4621.36,13010.2L4621.45,13011L4621.53,13011.8L4621.62,13012.5L4621.71,13013.3L4621.81,13014.1L4621.9,13014.9L4622,13015.6L4622.11,13016.4L4622.21,13017.2L4622.32,13017.9L4622.42,13018.7L4622.53,13019.5L4622.65,13020.2L4622.76,13021L4622.88,13021.7L4623,13022.5L4623.12,13023.3L4623.25,13024L4623.37,13024.8L4623.5,13025.5L4623.64,13026.3L4623.77,13027.1L4623.91,13027.8L4624.04,13028.6L4624.19,13029.3L4624.33,13030.1L4624.47,13030.8L4624.62,13031.6L4624.77,13032.3L4624.92,13033.1L4625.08,13033.8L4625.24,13034.6L4625.4,13035.3L4625.56,13036.1L4625.72,13036.8L4625.89,13037.6L4626.06,13038.3L4626.23,13039.1L4626.4,13039.8L4626.57,13040.5L4626.75,13041.3L4626.93,13042L4627.11,13042.8L4627.3,13043.5L4627.48,13044.2L4627.67,13045L4627.86,13045.7L4628.05,13046.5L4628.25,13047.2L4628.44,13047.9L4628.65,13048.7L4628.85,13049.4L4629.05,13050.1L4629.26,13050.8L4629.46,13051.6L4629.68,13052.3L4629.89,13053L4630.1,13053.8L4630.32,13054.5L4630.54,13055.2L4630.76,13055.9L4630.98,13056.6L4631.21,13057.4L4631.44,13058.1L4631.67,13058.8L4631.9,13059.5L4632.13,13060.2L4632.37,13061L4632.61,13061.7L4632.85,13062.4L4633.09,13063.1L4633.33,13063.8L4633.58,13064.5L4633.83,13065.2L4634.08,13066L4634.34,13066.7L4634.59,13067.4L4634.85,13068.1L4635.11,13068.8L4635.37,13069.5L4635.63,13070.2L4635.9,13070.9L4636.17,13071.6L4636.44,13072.3L4636.71,13073L4636.98,13073.7L4637.26,13074.4L4637.54,13075.1L4637.82,13075.8L4638.1,13076.5L4638.38,13077.2L4638.67,13077.9L4638.96,13078.5L4639.25,13079.2L4639.54,13079.9L4639.84,13080.6L4640.13,13081.3L4640.43,13082L4640.73,13082.7L4641.04,13083.4L4641.34,13084L4641.65,13084.7L4641.96,13085.4L4642.27,13086.1L4642.58,13086.8L4642.89,13087.4L4643.21,13088.1L4643.53,13088.8L4643.85,13089.5L4644.17,13090.1L4644.5,13090.8L4644.82,13091.5L4645.15,13092.1L4645.48,13092.8L4645.82,13093.5L4646.15,13094.1L4646.49,13094.8L4646.83,13095.5L4647.17,13096.1L4647.51,13096.8L4647.85,13097.4L4648.2,13098.1L4648.55,13098.8L4648.9,13099.4L4649.25,13100.1L4649.6,13100.7L4649.96,13101.4L4650.32,13102L4650.68,13102.7L4651.04,13103.3L4651.4,13104L4651.77,13104.6L4652.13,13105.3L4652.5,13105.9L4652.87,13106.6L4653.25,13107.2L4653.62,13107.8L4654,13108.5L4654.38,13109.1L4654.76,13109.8L4655.14,13110.4L4655.52,13111L4655.91,13111.7L4656.3,13112.3L4656.69,13112.9L4657.08,13113.5L4657.47,13114.2L4657.87,13114.8L4658.26,13115.4L4658.66,13116.1L4659.06,13116.7L4659.47,13117.3L4659.87,13117.9L4660.28,13118.5L4660.68,13119.2L4661.09,13119.8L4661.51,13120.4L4661.92,13121L4662.33,13121.6L4662.75,13122.2L4663.17,13122.8L4663.59,13123.4L4664.01,13124.1L4664.44,13124.7L4664.86,13125.3L4665.29,13125.9L4665.72,13126.5L4666.15,13127.1L4666.58,13127.7L4667.02,13128.3L4667.45,13128.9L4667.89,13129.5L4668.33,13130L4668.77,13130.6L4669.22,13131.2L4669.66,13131.8L4670.11,13132.4L4670.56,13133L4671.01,13133.6L4671.46,13134.2L4671.91,13134.7L4672.37,13135.3L4672.82,13135.9L4673.28,13136.5L4673.74,13137.1L4674.21,13137.6L4674.67,13138.2L4675.14,13138.8L4675.6,13139.4L4676.07,13139.9L4676.54,13140.5L4677.02,13141.1L4677.49,13141.6L4677.97,13142.2L4678.44,13142.8L4678.92,13143.3L4679.4,13143.9L4679.88,13144.4L4680.37,13145L4680.85,13145.5L4681.34,13146.1L4681.83,13146.7L4682.32,13147.2L4682.81,13147.8L4683.31,13148.3L4683.8,13148.9L4684.3,13149.4L4684.8,13149.9L4685.3,13150.5L4685.8,13151L4686.3,13151.6L4686.81,13152.1L4687.31,13152.6L4687.82,13153.2L4688.33,13153.7L4688.84,13154.2L4689.35,13154.8L4689.87,13155.3L4690.39,13155.8L4690.9,13156.3L4691.42,13156.9L4691.94,13157.4L4692.46,13157.9L4692.99,13158.4L4693.51,13158.9L4694.04,13159.5L4694.57,13160L4695.1,13160.5L4695.63,13161L4696.16,13161.5L4696.7,13162L4697.23,13162.5L4697.77,13163L4698.31,13163.5L4698.85,13164L4699.39,13164.5L4699.94,13165L4700.48,13165.5L4701.03,13166L4701.58,13166.5L4702.12,13167L4702.68,13167.5L4703.23,13168L4703.78,13168.5L4704.34,13169L4704.9,13169.4L4705.45,13169.9L4706.01,13170.4L4706.57,13170.9L4707.14,13171.4L4707.7,13171.8L4708.27,13172.3L4708.83,13172.8L4709.4,13173.3L4709.97,13173.7L4710.54,13174.2L4711.12,13174.7L4711.69,13175.1L4712.27,13175.6L4712.84,13176L4713.42,13176.5L4714,13177L4714.58,13177.4L4715.17,13177.9L4715.75,13178.3L4716.34,13178.8L4716.92,13179.2L4717.51,13179.7L4718.1,13180.1L4718.69,13180.6L4719.28,13181L4719.88,13181.4L4720.47,13181.9L4721.07,13182.3L4721.67,13182.7L4722.27,13183.2L4722.87,13183.6L4723.47,13184L4724.07,13184.5L4724.68,13184.9L4725.28,13185.3L4725.89,13185.7L4726.5,13186.2L4727.11,13186.6L4727.72,13187L4728.33,13187.4L4728.94,13187.8L4729.56,13188.2L4730.18,13188.6L4730.79,13189.1L4731.41,13189.5L4732.03,13189.9L4732.65,13190.3L4733.28,13190.7L4733.9,13191.1L4734.53,13191.5L4735.15,13191.9L4735.78,13192.3L4736.41,13192.6L4737.04,13193L4737.67,13193.4L4738.31,13193.8L4738.94,13194.2L4739.58,13194.6L4740.21,13195L4740.85,13195.3L4741.49,13195.7L4742.13,13196.1L4742.77,13196.5L4743.42,13196.8L4744.06,13197.2L4744.7,13197.6L4745.35,13197.9L4746,13198.3L4746.65,13198.7L4747.3,13199L4747.95,13199.4L4748.6,13199.7L4749.26,13200.1L4749.91,13200.4L4750.57,13200.8L4751.23,13201.1L4751.88,13201.5L4752.54,13201.8L4753.2,13202.2L4753.87,13202.5L4754.53,13202.8L4755.19,13203.2L4755.86,13203.5L4756.53,13203.8L4757.19,13204.2L4757.86,13204.5L4758.53,13204.8L4759.2,13205.2L4759.88,13205.5L4760.55,13205.8L4761.22,13206.1L4761.9,13206.4L4762.58,13206.8L4763.26,13207.1L4763.93,13207.4L4764.61,13207.7L4765.3,13208L4765.98,13208.3L4766.66,13208.6L4767.35,13208.9L4768.03,13209.2L4768.72,13209.5L4769.4,13209.8L4770.09,13210.1L4770.78,13210.4L4771.48,13210.7L4772.17,13210.9L4772.86,13211.2L4773.55,13211.5L4774.25,13211.8L4774.95,13212.1L4775.64,13212.3L4776.34,13212.6L4777.04,13212.9L4777.74,13213.2L4778.44,13213.4L4779.15,13213.7L4779.85,13214L4780.55,13214.2L4781.26,13214.5L4781.97,13214.7L4782.67,13215L4783.38,13215.2L4784.09,13215.5L4784.8,13215.8L4785.51,13216L4786.23,13216.2L4786.94,13216.5L4787.65,13216.7L4788.37,13217L4789.09,13217.2L4789.8,13217.4L4790.52,13217.7L4791.24,13217.9L4791.96,13218.1L4792.68,13218.3L4793.4,13218.6L4794.13,13218.8L4794.85,13219L4795.58,13219.2L4796.3,13219.4L4797.03,13219.7L4797.76,13219.9L4798.48,13220.1L4799.22,13220.3L4799.94,13220.5L4800.68,13220.7L4801.41,13220.9L4802.14,13221.1L4802.88,13221.3L4803.61,13221.5L4804.35,13221.7L4805.09,13221.9L4805.82,13222L4806.56,13222.2L4807.3,13222.4L4808.04,13222.6L4808.78,13222.8L4809.52,13222.9L4810.27,13223.1L4811.01,13223.3L4811.76,13223.4L4812.5,13223.6L4813.25,13223.8L4813.99,13223.9L4814.74,13224.1L4815.49,13224.3L4816.24,13224.4L4816.99,13224.6L4817.74,13224.7L4818.5,13224.9L4819.25,13225L4820,13225.1L4820.76,13225.3L4821.51,13225.4L4822.27,13225.6L4823.03,13225.7L4823.78,13225.8L4824.54,13226L4825.3,13226.1L4826.06,13226.2L4826.82,13226.3L4827.59,13226.5L4828.35,13226.6L4829.11,13226.7L4829.88,13226.8L4830.64,13226.9L4831.41,13227L4832.17,13227.1L4832.94,13227.2L4833.71,13227.3L4834.48,13227.4L4835.25,13227.5L4836.02,13227.6L4836.79,13227.7L4837.56,13227.8L4838.33,13227.9L4839.11,13228L4839.88,13228.1L4840.65,13228.1L4841.43,13228.2L4842.2,13228.3L4842.98,13228.4L4843.76,13228.4L4844.54,13228.5L4845.32,13228.6L4846.1,13228.6L4846.88,13228.7L4847.66,13228.7L4848.44,13228.8L4849.22,13228.9L4850,13228.9L4850.79,13229L4851.57,13229L4852.36,13229L4853.14,13229.1L4853.93,13229.1L4854.71,13229.2L4855.5,13229.2L4856.29,13229.2L4857.08,13229.3L4857.87,13229.3L4858.66,13229.3L4859.45,13229.3L4860.24,13229.3L4861.03,13229.4L4861.82,13229.4L4862.62,13229.4L4863.41,13229.4L4864.2,13229.4L4865,13229.4L4865.8,13229.4L4866.59,13229.4L4867.39,13229.4L4868.18,13229.4L4868.97,13229.4L4869.77,13229.4L4870.56,13229.4L4871.35,13229.3L4872.14,13229.3L4872.93,13229.3L4873.72,13229.3L4874.51,13229.3L4875.3,13229.2L4876.09,13229.2L4876.88,13229.2L4877.66,13229.1L4878.45,13229.1L4879.23,13229L4880.02,13229L4880.8,13229L4881.59,13228.9L4882.37,13228.9L4883.15,13228.8L4883.93,13228.7L4884.72,13228.7L4885.49,13228.6L4886.27,13228.6L4887.05,13228.5L4887.83,13228.4L4888.61,13228.4L4889.39,13228.3L4890.16,13228.2L4890.94,13228.1L4891.71,13228.1L4892.48,13228L4893.26,13227.9L4894.03,13227.8L4894.8,13227.7L4895.57,13227.6L4896.34,13227.5L4897.11,13227.4L4897.88,13227.3L4898.65,13227.2L4899.42,13227.1L4900.18,13227L4900.95,13226.9L4901.71,13226.8L4902.48,13226.7L4903.24,13226.6L4904,13226.5L4904.77,13226.3L4905.53,13226.2L4906.29,13226.1L4907.05,13226L4907.81,13225.8L4908.56,13225.7L4909.32,13225.6L4910.08,13225.4L4910.83,13225.3L4911.59,13225.1L4912.34,13225L4913.09,13224.9L4913.85,13224.7L4914.6,13224.6L4915.35,13224.4L4916.1,13224.3L4916.85,13224.1L4917.6,13223.9L4918.34,13223.8L4919.09,13223.6L4919.83,13223.4L4920.58,13223.3L4921.32,13223.1L4922.07,13222.9L4922.81,13222.8L4923.55,13222.6L4924.29,13222.4L4925.03,13222.2L4925.77,13222L4926.51,13221.9L4927.24,13221.7L4927.98,13221.5L4928.71,13221.3L4929.45,13221.1L4930.18,13220.9L4930.91,13220.7L4931.65,13220.5L4932.38,13220.3L4933.11,13220.1L4933.83,13219.9L4934.56,13219.7L4935.29,13219.4L4936.01,13219.2L4936.74,13219L4937.46,13218.8L4938.19,13218.6L4938.91,13218.3L4939.63,13218.1L4940.35,13217.9L4941.07,13217.7L4941.79,13217.4L4942.51,13217.2L4943.22,13217L4943.94,13216.7L4944.65,13216.5L4945.36,13216.2L4946.08,13216L4946.79,13215.8L4947.5,13215.5L4948.21,13215.2L4948.92,13215L4949.62,13214.7L4950.33,13214.5L4951.04,13214.2L4951.74,13214L4952.44,13213.7L4953.15,13213.4L4953.85,13213.2L4954.55,13212.9L4955.25,13212.6L4955.95,13212.3L4956.64,13212.1L4957.34,13211.8L4958.04,13211.5L4958.73,13211.2L4959.42,13210.9L4960.11,13210.7L4960.81,13210.4L4961.5,13210.1L4962.19,13209.8L4962.87,13209.5L4963.56,13209.2L4964.24,13208.9L4964.93,13208.6L4965.61,13208.3L4966.3,13208L4966.98,13207.7L4967.66,13207.4L4968.34,13207.1L4969.01,13206.8L4969.69,13206.4L4970.37,13206.1L4971.04,13205.8L4971.71,13205.5L4972.39,13205.2L4973.06,13204.8L4973.73,13204.5L4974.4,13204.2L4975.06,13203.8L4975.73,13203.5L4976.4,13203.2L4977.06,13202.8L4977.72,13202.5L4978.39,13202.2L4979.05,13201.8L4979.71,13201.5L4980.36,13201.1L4981.02,13200.8L4981.68,13200.4L4982.33,13200.1L4982.99,13199.7L4983.64,13199.4L4984.29,13199L4984.94,13198.7L4985.59,13198.3L4986.24,13197.9L4986.89,13197.6L4987.53,13197.2L4988.17,13196.8L4988.82,13196.5L4989.46,13196.1L4990.1,13195.7L4990.74,13195.3L4991.38,13195L4992.01,13194.6L4992.65,13194.2L4993.28,13193.8L4993.92,13193.4L4994.55,13193L4995.18,13192.6L4995.81,13192.3L4996.44,13191.9L4997.06,13191.5L4997.69,13191.1L4998.31,13190.7L4998.94,13190.3L4999.56,13189.9L5000.18,13189.5L5000.8,13189.1L5001.41,13188.6L5002.03,13188.2L5002.65,13187.8L5003.26,13187.4L5003.87,13187L5004.48,13186.6L5005.09,13186.2L5005.7,13185.7L5006.31,13185.3L5006.91,13184.9L5007.52,13184.5L5008.12,13184L5008.72,13183.6L5009.32,13183.2L5009.92,13182.7L5010.52,13182.3L5011.12,13181.9L5011.71,13181.4L5012.31,13181L5012.9,13180.6L5013.49,13180.1L5014.08,13179.7L5014.67,13179.2L5015.25,13178.8L5015.84,13178.3L5016.42,13177.9L5017.01,13177.4L5017.59,13177L5018.17,13176.5L5018.75,13176L5019.32,13175.6L5019.9,13175.1L5020.47,13174.7L5021.05,13174.2L5021.62,13173.7L5022.19,13173.3L5022.76,13172.8L5023.32,13172.3L5023.89,13171.8L5024.45,13171.4L5025.02,13170.9L5025.58,13170.4L5026.14,13169.9L5026.69,13169.4L5027.25,13169L5027.81,13168.5L5028.36,13168L5028.91,13167.5L5029.47,13167L5030.01,13166.5L5030.56,13166L5031.11,13165.5L5031.65,13165L5032.2,13164.5L5032.74,13164L5033.28,13163.5L5033.82,13163L5034.36,13162.5L5034.89,13162L5035.43,13161.5L5035.96,13161L5036.49,13160.5L5037.02,13160L5037.55,13159.5L5038.08,13158.9L5038.6,13158.4L5039.13,13157.9L5039.65,13157.4L5040.17,13156.9L5040.69,13156.3L5041.2,13155.8L5041.72,13155.3L5042.24,13154.8L5042.75,13154.2L5043.26,13153.7L5043.77,13153.2L5044.28,13152.6L5044.78,13152.1L5045.29,13151.6L5045.79,13151L5046.29,13150.5L5046.79,13149.9L5047.29,13149.4L5047.79,13148.9L5048.28,13148.3L5048.78,13147.8L5049.27,13147.2L5049.76,13146.7L5050.25,13146.1L5050.74,13145.5L5051.22,13145L5051.71,13144.4L5052.19,13143.9L5052.67,13143.3L5053.15,13142.8L5053.62,13142.2L5054.1,13141.6L5054.57,13141.1L5055.05,13140.5L5055.52,13139.9L5055.99,13139.4L5056.45,13138.8L5056.92,13138.2L5057.38,13137.6L5057.85,13137.1L5058.31,13136.5L5058.77,13135.9L5059.22,13135.3L5059.68,13134.7L5060.13,13134.2L5060.58,13133.6L5061.03,13133L5061.48,13132.4L5061.93,13131.8L5062.37,13131.2L5062.82,13130.6L5063.26,13130L5063.7,13129.5L5064.14,13128.9L5064.57,13128.3L5065.01,13127.7L5065.44,13127.1L5065.87,13126.5L5066.3,13125.9L5066.73,13125.3L5067.15,13124.7L5067.58,13124.1L5068,13123.4L5068.42,13122.8L5068.84,13122.2L5069.26,13121.6L5069.67,13121L5070.09,13120.4L5070.5,13119.8L5070.91,13119.2L5071.31,13118.5L5071.72,13117.9L5072.12,13117.3L5072.53,13116.7L5072.93,13116.1L5073.33,13115.4L5073.72,13114.8L5074.12,13114.2L5074.51,13113.5L5074.9,13112.9L5075.29,13112.3L5075.68,13111.7L5076.07,13111L5076.45,13110.4L5076.83,13109.8L5077.21,13109.1L5077.59,13108.5L5077.97,13107.8L5078.34,13107.2L5078.72,13106.6L5079.09,13105.9L5079.46,13105.3L5079.82,13104.6L5080.19,13104L5080.55,13103.3L5080.91,13102.7L5081.27,13102L5081.63,13101.4L5081.99,13100.7L5082.34,13100.1L5082.69,13099.4L5083.04,13098.8L5083.39,13098.1L5083.74,13097.4L5084.08,13096.8L5084.42,13096.1L5084.76,13095.5L5085.1,13094.8L5085.44,13094.1L5085.77,13093.5L5086.11,13092.8L5086.44,13092.1L5086.77,13091.5L5087.09,13090.8L5087.42,13090.1L5087.74,13089.5L5088.06,13088.8L5088.38,13088.1L5088.69,13087.4L5089.01,13086.8L5089.32,13086.1L5089.63,13085.4L5089.94,13084.7L5090.25,13084L5090.55,13083.4L5090.86,13082.7L5091.16,13082L5091.46,13081.3L5091.75,13080.6L5092.05,13079.9L5092.34,13079.2L5092.63,13078.5L5092.92,13077.9L5093.2,13077.2L5093.49,13076.5L5093.77,13075.8L5094.05,13075.1L5094.33,13074.4L5094.61,13073.7L5094.88,13073L5095.15,13072.3L5095.42,13071.6L5095.69,13070.9L5095.96,13070.2L5096.22,13069.5L5096.48,13068.8L5096.74,13068.1L5097,13067.4L5097.26,13066.7L5097.51,13066L5097.76,13065.2L5098.01,13064.5L5098.26,13063.8L5098.5,13063.1L5098.74,13062.4L5098.98,13061.7L5099.22,13061L5099.46,13060.2L5099.69,13059.5L5099.92,13058.8L5100.15,13058.1L5100.38,13057.4L5100.61,13056.6L5100.83,13055.9L5101.05,13055.2L5101.27,13054.5L5101.49,13053.8L5101.7,13053L5101.91,13052.3L5102.12,13051.6L5102.33,13050.8L5102.54,13050.1L5102.74,13049.4L5102.94,13048.7L5103.14,13047.9L5103.34,13047.2L5103.54,13046.5L5103.73,13045.7L5103.92,13045L5104.11,13044.2L5104.29,13043.5L5104.48,13042.8L5104.66,13042L5104.84,13041.3L5105.02,13040.5L5105.19,13039.8L5105.36,13039.1L5105.53,13038.3L5105.7,13037.6L5105.87,13036.8L5106.03,13036.1L5106.19,13035.3L5106.35,13034.6L5106.51,13033.8L5106.66,13033.1L5106.82,13032.3L5106.97,13031.6L5107.11,13030.8L5107.26,13030.1L5107.4,13029.3L5107.55,13028.6L5107.68,13027.8L5107.82,13027.1L5107.95,13026.3L5108.09,13025.5L5108.22,13024.8L5108.34,13024L5108.47,13023.3L5108.59,13022.5L5108.71,13021.7L5108.83,13021L5108.94,13020.2L5109.06,13019.5L5109.17,13018.7L5109.28,13017.9L5109.38,13017.2L5109.48,13016.4L5109.59,13015.6L5109.69,13014.9L5109.78,13014.1L5109.88,13013.3L5109.97,13012.5L5110.06,13011.8L5110.14,13011L5110.23,13010.2L5110.31,13009.5L5110.39,13008.7L5110.47,13007.9L5110.54,13007.1L5110.62,13006.3L5110.69,13005.6L5110.75,13004.8L5110.82,13004L5110.88,13003.2L5110.94,13002.5L5111,13001.7L5111.06,13000.9L5111.11,13000.1L5111.16,12999.3L5111.21,12998.5L5111.26,12997.8L5111.3,12997L5111.34,12996.2L5111.38,12995.4L5111.41,12994.6L5111.45,12993.8L5111.48,12993L5111.51,12992.3L5111.53,12991.5L5111.56,12990.7L5111.58,12989.9L5111.6,12989.1L5111.61,12988.3L5111.63,12987.5L5111.64,12986.7L5111.65,12985.9L5111.65,12985.1L5111.66,12984.3L5111.66,12983.5L5111.66,12982.7L5111.65,12981.9L5111.65,12981.2L5111.64,12980.4L5111.63,12979.6L5111.61,12978.8L5111.6,12978L5111.58,12977.2L5111.56,12976.4L5111.53,12975.6L5111.51,12974.8L5111.48,12974L5111.45,12973.2L5111.41,12972.5L5111.38,12971.7L5111.34,12970.9L5111.3,12970.1L5111.26,12969.3L5111.21,12968.5L5111.16,12967.7L5111.11,12967L5111.06,12966.2L5111,12965.4L5110.94,12964.6L5110.88,12963.8L5110.82,12963.1L5110.75,12962.3L5110.69,12961.5L5110.62,12960.7L5110.54,12959.9L5110.47,12959.2L5110.39,12958.4L5110.31,12957.6L5110.23,12956.8L5110.14,12956.1L5110.06,12955.3L5109.97,12954.5L5109.88,12953.8L5109.78,12953L5109.69,12952.2L5109.59,12951.5L5109.48,12950.7L5109.38,12949.9L5109.28,12949.1L5109.17,12948.4L5109.06,12947.6L5108.94,12946.9L5108.83,12946.1L5108.71,12945.3L5108.59,12944.6L5108.47,12943.8L5108.34,12943L5108.22,12942.3L5108.09,12941.5L5107.95,12940.8L5107.82,12940L5107.68,12939.3L5107.55,12938.5L5107.4,12937.7L5107.26,12937L5107.11,12936.2L5106.97,12935.5L5106.82,12934.7L5106.66,12934L5106.51,12933.2L5106.35,12932.5L5106.19,12931.7L5106.03,12931L5105.87,12930.2L5105.7,12929.5L5105.53,12928.8L5105.36,12928L5105.19,12927.3L5105.02,12926.5L5104.84,12925.8L5104.66,12925L5104.48,12924.3L5104.29,12923.6L5104.11,12922.8L5103.92,12922.1L5103.73,12921.4L5103.54,12920.6L5103.34,12919.9L5103.14,12919.1L5102.94,12918.4L5102.74,12917.7L5102.54,12917L5102.33,12916.2L5102.12,12915.5L5101.91,12914.8L5101.7,12914L5101.49,12913.3L5101.27,12912.6L5101.05,12911.9L5100.83,12911.1L5100.61,12910.4L5100.38,12909.7L5100.15,12909L5099.92,12908.3L5099.69,12907.5L5099.46,12906.8L5099.22,12906.1L5098.98,12905.4L5098.74,12904.7L5098.5,12904L5098.26,12903.3L5098.01,12902.5L5097.76,12901.8L5097.51,12901.1L5097.26,12900.4L5097,12899.7L5096.74,12899L5096.48,12898.3L5096.22,12897.6L5095.96,12896.9L5095.69,12896.2L5095.42,12895.5L5095.15,12894.8L5094.88,12894.1L5094.61,12893.4L5094.33,12892.7L5094.05,12892L5093.77,12891.3L5093.49,12890.6L5093.2,12889.9L5092.92,12889.2L5092.63,12888.5L5092.34,12887.8L5092.05,12887.1L5091.75,12886.5L5091.46,12885.8L5091.16,12885.1L5090.86,12884.4L5090.55,12883.7L5090.25,12883L5089.94,12882.4L5089.63,12881.7L5089.32,12881L5089.01,12880.3L5088.69,12879.6L5088.38,12879L5088.06,12878.3L5087.74,12877.6L5087.42,12876.9L5087.09,12876.3L5086.77,12875.6L5086.44,12874.9L5086.11,12874.3L5085.77,12873.6L5085.44,12872.9L5085.1,12872.3L5084.76,12871.6L5084.42,12870.9L5084.08,12870.3L5083.74,12869.6L5083.39,12869L5083.04,12868.3L5082.69,12867.7L5082.34,12867L5081.99,12866.3L5081.63,12865.7L5081.27,12865L5080.91,12864.4L5080.55,12863.7L5080.19,12863.1L5079.82,12862.4L5079.46,12861.8L5079.09,12861.2L5078.72,12860.5L5078.34,12859.9L5077.97,12859.2L5077.59,12858.6L5077.21,12858L5076.83,12857.3L5076.45,12856.7L5076.07,12856L5075.68,12855.4L5075.29,12854.8L5074.9,12854.2L5074.51,12853.5L5074.12,12852.9L5073.72,12852.3L5073.33,12851.6L5072.93,12851L5072.53,12850.4L5072.12,12849.8L5071.72,12849.2L5071.31,12848.5L5070.91,12847.9L5070.5,12847.3L5070.09,12846.7L5069.67,12846.1L5069.26,12845.5L5068.84,12844.8L5068.42,12844.2L5068,12843.6L5067.58,12843L5067.15,12842.4L5066.73,12841.8L5066.3,12841.2L5065.87,12840.6L5065.44,12840L5065.01,12839.4L5064.57,12838.8L5064.14,12838.2L5063.7,12837.6L5063.26,12837L5062.82,12836.4L5062.37,12835.8L5061.93,12835.3L5061.48,12834.7L5061.03,12834.1L5060.58,12833.5L5060.13,12832.9L5059.68,12832.3L5059.22,12831.7L5058.77,12831.2L5058.31,12830.6L5057.85,12830L5057.38,12829.4L5056.92,12828.9L5056.45,12828.3L5055.99,12827.7L5055.52,12827.1L5055.05,12826.6L5054.57,12826L5054.1,12825.4L5053.62,12824.9L5053.15,12824.3L5052.67,12823.8L5052.19,12823.2L5051.71,12822.6L5051.22,12822.1L5050.74,12821.5L5050.25,12821L5049.76,12820.4L5049.27,12819.9L5048.78,12819.3L5048.28,12818.8L5047.79,12818.2L5047.29,12817.7L5046.79,12817.1L5046.29,12816.6L5045.79,12816.1L5045.29,12815.5L5044.78,12815L5044.28,12814.4L5043.77,12813.9L5043.26,12813.4L5042.75,12812.8L5042.24,12812.3L5041.72,12811.8L5041.2,12811.3L5040.69,12810.7L5040.17,12810.2L5039.65,12809.7L5039.13,12809.2L5038.6,12808.6L5038.08,12808.1L5037.55,12807.6L5037.02,12807.1L5036.49,12806.6L5035.96,12806.1L5035.43,12805.6L5034.89,12805.1L5034.36,12804.5L5033.82,12804L5033.28,12803.5L5032.74,12803L5032.2,12802.5L5031.65,12802L5031.11,12801.5L5030.56,12801L5030.01,12800.6L5029.47,12800.1L5028.91,12799.6L5028.36,12799.1L5027.81,12798.6L5027.25,12798.1L5026.69,12797.6L5026.14,12797.1L5025.58,12796.7L5025.02,12796.2L5024.45,12795.7L5023.89,12795.2L5023.32,12794.8L5022.76,12794.3L5022.19,12793.8L5021.62,12793.3L5021.05,12792.9L5020.47,12792.4L5019.9,12791.9L5019.32,12791.5L5018.75,12791L5018.17,12790.6L5017.59,12790.1L5017.01,12789.7L5016.42,12789.2L5015.84,12788.8L5015.25,12788.3L5014.67,12787.9L5014.08,12787.4L5013.49,12787L5012.9,12786.5L5012.31,12786.1L5011.71,12785.6L5011.12,12785.2L5010.52,12784.8L5009.92,12784.3L5009.32,12783.9L5008.72,12783.5L5008.12,12783L5007.52,12782.6L5006.91,12782.2L5006.31,12781.8L5005.7,12781.3L5005.09,12780.9L5004.48,12780.5L5003.87,12780.1L5003.26,12779.7L5002.65,12779.2L5002.03,12778.8L5001.41,12778.4L5000.8,12778L5000.18,12777.6L4999.56,12777.2L4998.94,12776.8L4998.31,12776.4L4997.69,12776L4997.06,12775.6L4996.44,12775.2L4995.81,12774.8L4995.18,12774.4L4994.55,12774L4993.92,12773.7L4993.28,12773.3L4992.65,12772.9L4992.01,12772.5L4991.38,12772.1L4990.74,12771.7L4990.1,12771.4L4989.46,12771L4988.82,12770.6L4988.17,12770.2L4987.53,12769.9L4986.89,12769.5L4986.24,12769.1L4985.59,12768.8L4984.94,12768.4L4984.29,12768.1L4983.64,12767.7L4982.99,12767.3L4982.33,12767L4981.68,12766.6L4981.02,12766.3L4980.36,12765.9L4979.71,12765.6L4979.05,12765.3L4978.39,12764.9L4977.72,12764.6L4977.06,12764.2L4976.4,12763.9L4975.73,12763.6L4975.06,12763.2L4974.4,12762.9L4973.73,12762.6L4973.06,12762.2L4972.39,12761.9L4971.71,12761.6L4971.04,12761.3L4970.37,12761L4969.69,12760.6L4969.01,12760.3L4968.34,12760L4967.66,12759.7L4966.98,12759.4L4966.3,12759.1L4965.61,12758.8L4964.93,12758.5L4964.24,12758.2L4963.56,12757.9L4962.87,12757.6L4962.19,12757.3L4961.5,12757L4960.81,12756.7L4960.11,12756.4L4959.42,12756.1L4958.73,12755.8L4958.04,12755.6L4957.34,12755.3L4956.65,12755L4955.95,12754.7L4955.25,12754.5L4954.55,12754.2L4953.85,12753.9L4953.15,12753.6L4952.44,12753.4L4951.74,12753.1L4951.04,12752.9L4950.33,12752.6L4949.62,12752.3L4948.92,12752.1L4948.21,12751.8L4947.5,12751.6L4946.79,12751.3L4946.08,12751.1L4945.36,12750.8L4944.65,12750.6L4943.94,12750.3L4943.22,12750.1L4942.51,12749.9L4941.79,12749.6L4941.07,12749.4L4940.35,12749.2L4939.63,12749L4938.91,12748.7L4938.19,12748.5L4937.46,12748.3L4936.74,12748.1L4936.01,12747.8L4935.29,12747.6L4934.56,12747.4L4933.83,12747.2L4933.11,12747L4932.38,12746.8L4931.65,12746.6L4930.91,12746.4L4930.18,12746.2L4929.45,12746L4928.71,12745.8L4927.98,12745.6L4927.24,12745.4L4926.51,12745.2L4925.77,12745L4925.03,12744.9L4924.29,12744.7L4923.55,12744.5L4922.81,12744.3L4922.07,12744.1L4921.32,12744L4920.58,12743.8L4919.83,12743.6L4919.09,12743.5L4918.34,12743.3L4917.6,12743.1L4916.85,12743L4916.1,12742.8L4915.35,12742.7L4914.6,12742.5L4913.85,12742.4L4913.09,12742.2L4912.34,12742.1L4911.59,12741.9L4910.83,12741.8L4910.08,12741.6L4909.32,12741.5L4908.56,12741.4L4907.81,12741.2L4907.05,12741.1L4906.29,12741L4905.53,12740.9L4904.77,12740.7L4904,12740.6L4903.24,12740.5L4902.48,12740.4L4901.71,12740.3L4900.95,12740.2L4900.18,12740.1L4899.42,12740L4898.65,12739.8L4897.88,12739.7L4897.11,12739.6L4896.34,12739.6L4895.57,12739.5L4894.8,12739.4L4894.03,12739.3L4893.26,12739.2L4892.48,12739.1L4891.71,12739L4890.94,12738.9L4890.16,12738.9L4889.39,12738.8L4888.61,12738.7L4887.83,12738.6L4887.05,12738.6L4886.27,12738.5L4885.49,12738.5L4884.72,12738.4L4883.93,12738.3L4883.15,12738.3L4882.37,12738.2L4881.59,12738.2L4880.8,12738.1L4880.02,12738.1L4879.23,12738L4878.45,12738L4877.66,12738L4876.88,12737.9L4876.09,12737.9L4875.3,12737.9L4874.51,12737.8L4873.72,12737.8L4872.93,12737.8L4872.14,12737.8L4871.35,12737.7L4870.56,12737.7L4869.77,12737.7L4868.97,12737.7L4868.18,12737.7L4867.39,12737.7L4866.59,12737.7L4865.8,12737.7L4865,12737.7Z" style="fill:rgb(39,62,69);"/>
            </g>
            <g transform="matrix(1,0,0,1,0,-770)">
                <path d="M4722.1,13076.5C4719.45,13076.5 4717.29,13078.6 4717.29,13081.3L4717.29,13082.5C4717.29,13092.2 4725.16,13100 4734.87,13100L4996.72,13100C5006.43,13100 5014.3,13092.2 5014.3,13082.5L5014.3,13081.3C5014.3,13078.6 5012.14,13076.5 5009.49,13076.5L4722.1,13076.5Z" style="fill:rgb(223,172,58);fill-rule:nonzero;"/>
            </g>
            <g transform="matrix(1,0,0,1,0,-770)">
                <path d="M5006.48,13032.3C5006.48,13044.1 4996.92,13053.7 4985.12,13053.7L4746.47,13053.7C4734.67,13053.7 4725.11,13044.1 4725.11,13032.3L4725.11,12899.6C4725.11,12887.8 4734.67,12878.3 4746.47,12878.3L4985.12,12878.3C4996.92,12878.3 5006.48,12887.8 5006.48,12899.6L5006.48,13032.3ZM4990.85,12861.8L4740.74,12861.8C4727.46,12861.8 4716.69,12872.6 4716.69,12885.8L4716.69,13046.1C4716.69,13059.4 4727.46,13070.2 4740.74,13070.2L4772.36,13070.2L4772.36,13068.2C4772.36,13064 4775.77,13060.6 4779.96,13060.6L4818.96,13060.6C4823.15,13060.6 4826.57,13064 4826.57,13068.2L4826.57,13070.2L4905.02,13070.2L4905.02,13068.2C4905.02,13064 4908.44,13060.6 4912.63,13060.6L4951.63,13060.6C4955.82,13060.6 4959.23,13064 4959.23,13068.2L4959.23,13070.2L4990.85,13070.2C5004.13,13070.2 5014.9,13059.4 5014.9,13046.1L5014.9,12885.8C5014.9,12872.6 5004.13,12861.8 4990.85,12861.8" style="fill:rgb(223,172,58);fill-rule:nonzero;"/>
            </g>
            <g transform="matrix(1,0,0,1,0,-770)">
                <path d="M4818.96,13063L4779.96,13063C4777.09,13063 4774.76,13065.3 4774.76,13068.2L4774.76,13073.8L4824.16,13073.8L4824.16,13068.2C4824.16,13065.3 4821.83,13063 4818.96,13063" style="fill:rgb(223,172,58);fill-rule:nonzero;"/>
            </g>
            <g transform="matrix(1,0,0,1,0,-770)">
                <path d="M4951.63,13063L4912.63,13063C4909.76,13063 4907.43,13065.3 4907.43,13068.2L4907.43,13073.8L4956.83,13073.8L4956.83,13068.2C4956.83,13065.3 4954.5,13063 4951.63,13063" style="fill:rgb(223,172,58);fill-rule:nonzero;"/>
            </g>
            <g transform="matrix(1,0,0,1,0,-770)">
                <path d="M4865.8,12992.7C4851.04,12992.7 4839.08,12980.7 4839.08,12966C4839.08,12951.2 4851.04,12939.3 4865.8,12939.3C4880.55,12939.3 4892.51,12951.2 4892.51,12966C4892.51,12980.7 4880.55,12992.7 4865.8,12992.7M4865.8,12931.7C4840.41,12931.7 4817.15,12944.6 4799.06,12966C4817.15,12987.4 4840.41,13000.2 4865.8,13000.2C4891.17,13000.2 4914.44,12987.4 4932.53,12966C4914.44,12944.6 4891.17,12931.7 4865.8,12931.7" style="fill:rgb(223,172,58);fill-rule:nonzero;"/>
            </g>
            <g transform="matrix(1,0,0,1,0,-770)">
                <path d="M4876.69,12966C4876.69,12972 4871.81,12976.9 4865.79,12976.9C4859.78,12976.9 4854.9,12972 4854.9,12966C4854.9,12960 4859.78,12955.1 4865.79,12955.1C4871.81,12955.1 4876.69,12960 4876.69,12966" style="fill:rgb(223,172,58);fill-rule:nonzero;"/>
            </g>
        </g>
    </g>
</svg>
