<?xml version="1.0" encoding="UTF-8" standalone="no"?>
<!DOCTYPE svg PUBLIC "-//W3C//DTD SVG 1.1//EN" "http://www.w3.org/Graphics/SVG/1.1/DTD/svg11.dtd">
<svg width="100%" height="100%" viewBox="0 0 509 508" version="1.1" xmlns="http://www.w3.org/2000/svg" xmlns:xlink="http://www.w3.org/1999/xlink" xml:space="preserve" style="fill-rule:evenodd;clip-rule:evenodd;stroke-linejoin:round;stroke-miterlimit:1.41421;">
    <g id="Artboard1" transform="matrix(1.00688,0,0,1.00921,-0.760826,-0.98341)">
        <rect x="0.756" y="0.974" width="504.692" height="502.416" style="fill:none;"/>
        <g transform="matrix(0.993167,0,0,0.990878,-3927.56,-11849.6)">
            <g transform="matrix(1,0,0,1,3955.34,11959.7)">
                <circle cx="219.778" cy="115.832" r="29.073" style="fill:white;"/>
            </g>
            <g transform="matrix(1,0,0,1,0,-770)">
                <path d="M4210.16,12732.7L4210.97,12732.7L4211.78,12732.7L4212.59,12732.7L4213.4,12732.7L4214.21,12732.7L4215.02,12732.7L4215.83,12732.8L4216.63,12732.8L4217.44,12732.8L4218.24,12732.8L4219.05,12732.9L4219.85,12732.9L4220.65,12732.9L4221.46,12733L4222.26,12733L4223.06,12733L4223.86,12733.1L4224.66,12733.1L4225.46,12733.2L4226.26,12733.2L4227.06,12733.3L4227.85,12733.3L4228.65,12733.4L4229.45,12733.5L4230.24,12733.5L4231.04,12733.6L4231.83,12733.7L4232.62,12733.7L4233.42,12733.8L4234.21,12733.9L4235,12734L4235.79,12734L4236.58,12734.1L4237.37,12734.2L4238.15,12734.3L4238.94,12734.4L4239.73,12734.5L4240.52,12734.6L4241.3,12734.7L4242.08,12734.8L4242.87,12734.9L4243.65,12735L4244.43,12735.1L4245.21,12735.2L4245.99,12735.3L4246.77,12735.4L4247.55,12735.6L4248.33,12735.7L4249.11,12735.8L4249.89,12735.9L4250.66,12736.1L4251.44,12736.2L4252.21,12736.3L4252.98,12736.5L4253.76,12736.6L4254.53,12736.7L4255.3,12736.9L4256.07,12737L4256.84,12737.2L4257.61,12737.3L4258.37,12737.5L4259.14,12737.6L4259.91,12737.8L4260.67,12737.9L4261.44,12738.1L4262.2,12738.2L4262.96,12738.4L4263.72,12738.6L4264.48,12738.8L4265.24,12738.9L4266,12739.1L4266.76,12739.3L4267.52,12739.5L4268.28,12739.6L4269.03,12739.8L4269.79,12740L4270.54,12740.2L4271.29,12740.4L4272.05,12740.6L4272.8,12740.8L4273.55,12741L4274.3,12741.2L4275.04,12741.4L4275.79,12741.6L4276.54,12741.8L4277.28,12742L4278.03,12742.2L4278.77,12742.4L4279.51,12742.6L4280.26,12742.8L4281,12743.1L4281.74,12743.3L4282.48,12743.5L4283.21,12743.7L4283.95,12744L4284.69,12744.2L4285.42,12744.4L4286.15,12744.6L4286.89,12744.9L4287.62,12745.1L4288.35,12745.4L4289.08,12745.6L4289.81,12745.9L4290.54,12746.1L4291.27,12746.4L4291.99,12746.6L4292.72,12746.9L4293.44,12747.1L4294.16,12747.4L4294.89,12747.6L4295.61,12747.9L4296.33,12748.2L4297.05,12748.4L4297.76,12748.7L4298.48,12749L4299.2,12749.2L4299.91,12749.5L4300.62,12749.8L4301.34,12750.1L4302.05,12750.4L4302.76,12750.6L4303.47,12750.9L4304.18,12751.2L4304.89,12751.5L4305.59,12751.8L4306.3,12752.1L4307,12752.4L4307.7,12752.7L4308.4,12753L4309.11,12753.3L4309.81,12753.6L4310.5,12753.9L4311.2,12754.2L4311.9,12754.5L4312.59,12754.8L4313.29,12755.1L4313.98,12755.5L4314.67,12755.8L4315.36,12756.1L4316.05,12756.4L4316.74,12756.8L4317.43,12757.1L4318.11,12757.4L4318.8,12757.7L4319.48,12758.1L4320.16,12758.4L4320.85,12758.7L4321.53,12759.1L4322.2,12759.4L4322.88,12759.8L4323.56,12760.1L4324.23,12760.5L4324.91,12760.8L4325.58,12761.2L4326.26,12761.5L4326.93,12761.9L4327.6,12762.2L4328.26,12762.6L4328.93,12763L4329.6,12763.3L4330.26,12763.7L4330.93,12764L4331.59,12764.4L4332.25,12764.8L4332.91,12765.2L4333.57,12765.5L4334.22,12765.9L4334.88,12766.3L4335.53,12766.7L4336.19,12767.1L4336.84,12767.4L4337.49,12767.8L4338.14,12768.2L4338.79,12768.6L4339.44,12769L4340.08,12769.4L4340.73,12769.8L4341.37,12770.2L4342.01,12770.6L4342.65,12771L4343.29,12771.4L4343.93,12771.8L4344.57,12772.2L4345.2,12772.6L4345.84,12773L4346.47,12773.4L4347.1,12773.8L4347.73,12774.3L4348.36,12774.7L4348.99,12775.1L4349.61,12775.5L4350.24,12775.9L4350.86,12776.4L4351.48,12776.8L4352.11,12777.2L4352.73,12777.7L4353.34,12778.1L4353.96,12778.5L4354.58,12779L4355.19,12779.4L4355.8,12779.8L4356.41,12780.3L4357.02,12780.7L4357.63,12781.2L4358.24,12781.6L4358.85,12782.1L4359.45,12782.5L4360.05,12783L4360.65,12783.4L4361.25,12783.9L4361.85,12784.3L4362.45,12784.8L4363.05,12785.3L4363.64,12785.7L4364.23,12786.2L4364.82,12786.6L4365.42,12787.1L4366,12787.6L4366.59,12788.1L4367.18,12788.5L4367.76,12789L4368.35,12789.5L4368.93,12790L4369.51,12790.4L4370.09,12790.9L4370.66,12791.4L4371.24,12791.9L4371.81,12792.4L4372.38,12792.9L4372.95,12793.4L4373.53,12793.8L4374.09,12794.3L4374.66,12794.8L4375.23,12795.3L4375.79,12795.8L4376.35,12796.3L4376.91,12796.8L4377.47,12797.3L4378.03,12797.8L4378.58,12798.4L4379.14,12798.9L4379.69,12799.4L4380.24,12799.9L4380.79,12800.4L4381.34,12800.9L4381.89,12801.4L4382.43,12801.9L4382.98,12802.5L4383.52,12803L4384.06,12803.5L4384.6,12804L4385.14,12804.6L4385.67,12805.1L4386.21,12805.6L4386.74,12806.1L4387.27,12806.7L4387.8,12807.2L4388.33,12807.8L4388.86,12808.3L4389.38,12808.8L4389.9,12809.4L4390.43,12809.9L4390.94,12810.5L4391.46,12811L4391.98,12811.5L4392.49,12812.1L4393.01,12812.6L4393.52,12813.2L4394.03,12813.8L4394.54,12814.3L4395.05,12814.9L4395.55,12815.4L4396.06,12816L4396.56,12816.5L4397.06,12817.1L4397.56,12817.7L4398.05,12818.2L4398.55,12818.8L4399.04,12819.4L4399.53,12819.9L4400.02,12820.5L4400.51,12821.1L4401,12821.7L4401.48,12822.2L4401.97,12822.8L4402.45,12823.4L4402.93,12824L4403.41,12824.5L4403.89,12825.1L4404.36,12825.7L4404.83,12826.3L4405.31,12826.9L4405.78,12827.5L4406.24,12828.1L4406.71,12828.7L4407.17,12829.2L4407.64,12829.8L4408.1,12830.4L4408.56,12831L4409.02,12831.6L4409.47,12832.2L4409.93,12832.8L4410.38,12833.4L4410.83,12834L4411.28,12834.6L4411.72,12835.3L4412.17,12835.9L4412.61,12836.5L4413.05,12837.1L4413.49,12837.7L4413.93,12838.3L4414.37,12838.9L4414.8,12839.5L4415.23,12840.2L4415.67,12840.8L4416.1,12841.4L4416.52,12842L4416.95,12842.6L4417.37,12843.3L4417.79,12843.9L4418.21,12844.5L4418.63,12845.2L4419.05,12845.8L4419.46,12846.4L4419.87,12847.1L4420.28,12847.7L4420.69,12848.3L4421.1,12849L4421.51,12849.6L4421.91,12850.2L4422.31,12850.9L4422.71,12851.5L4423.11,12852.2L4423.5,12852.8L4423.9,12853.5L4424.29,12854.1L4424.68,12854.7L4425.07,12855.4L4425.45,12856L4425.84,12856.7L4426.22,12857.4L4426.6,12858L4426.98,12858.7L4427.36,12859.3L4427.73,12860L4428.1,12860.6L4428.47,12861.3L4428.84,12862L4429.21,12862.6L4429.57,12863.3L4429.94,12864L4430.3,12864.6L4430.66,12865.3L4431.02,12866L4431.37,12866.6L4431.72,12867.3L4432.07,12868L4432.42,12868.7L4432.77,12869.3L4433.12,12870L4433.46,12870.7L4433.8,12871.4L4434.14,12872L4434.48,12872.7L4434.81,12873.4L4435.15,12874.1L4435.48,12874.8L4435.81,12875.5L4436.13,12876.1L4436.46,12876.8L4436.78,12877.5L4437.1,12878.2L4437.42,12878.9L4437.74,12879.6L4438.06,12880.3L4438.37,12881L4438.68,12881.7L4438.99,12882.4L4439.3,12883.1L4439.6,12883.8L4439.9,12884.5L4440.2,12885.2L4440.5,12885.9L4440.8,12886.6L4441.09,12887.3L4441.39,12888L4441.68,12888.7L4441.96,12889.4L4442.25,12890.1L4442.53,12890.8L4442.82,12891.6L4443.1,12892.3L4443.37,12893L4443.65,12893.7L4443.92,12894.4L4444.19,12895.1L4444.46,12895.8L4444.73,12896.6L4444.99,12897.3L4445.26,12898L4445.52,12898.7L4445.78,12899.4L4446.03,12900.2L4446.29,12900.9L4446.54,12901.6L4446.79,12902.3L4447.03,12903.1L4447.28,12903.8L4447.52,12904.5L4447.77,12905.3L4448,12906L4448.24,12906.7L4448.48,12907.5L4448.71,12908.2L4448.94,12908.9L4449.17,12909.7L4449.39,12910.4L4449.61,12911.2L4449.84,12911.9L4450.06,12912.6L4450.27,12913.4L4450.49,12914.1L4450.7,12914.9L4450.91,12915.6L4451.12,12916.4L4451.32,12917.1L4451.53,12917.8L4451.73,12918.6L4451.93,12919.3L4452.12,12920.1L4452.32,12920.8L4452.51,12921.6L4452.7,12922.3L4452.89,12923.1L4453.07,12923.9L4453.26,12924.6L4453.44,12925.4L4453.62,12926.1L4453.79,12926.9L4453.97,12927.6L4454.14,12928.4L4454.31,12929.2L4454.48,12929.9L4454.64,12930.7L4454.8,12931.5L4454.96,12932.2L4455.12,12933L4455.28,12933.7L4455.43,12934.5L4455.58,12935.3L4455.73,12936L4455.87,12936.8L4456.02,12937.6L4456.16,12938.4L4456.3,12939.1L4456.44,12939.9L4456.57,12940.7L4456.7,12941.5L4456.83,12942.2L4456.96,12943L4457.08,12943.8L4457.21,12944.6L4457.33,12945.3L4457.44,12946.1L4457.56,12946.9L4457.67,12947.7L4457.78,12948.5L4457.89,12949.2L4458,12950L4458.1,12950.8L4458.2,12951.6L4458.3,12952.4L4458.4,12953.2L4458.49,12953.9L4458.58,12954.7L4458.67,12955.5L4458.76,12956.3L4458.84,12957.1L4458.92,12957.9L4459,12958.7L4459.08,12959.5L4459.15,12960.3L4459.22,12961.1L4459.29,12961.9L4459.36,12962.6L4459.42,12963.4L4459.48,12964.2L4459.55,12965L4459.6,12965.8L4459.66,12966.6L4459.71,12967.4L4459.76,12968.2L4459.8,12969L4459.85,12969.8L4459.89,12970.6L4459.93,12971.4L4459.97,12972.2L4460,12973L4460.03,12973.8L4460.06,12974.6L4460.09,12975.4L4460.11,12976.3L4460.14,12977.1L4460.15,12977.9L4460.17,12978.7L4460.19,12979.5L4460.2,12980.3L4460.2,12981.1L4460.21,12981.9L4460.22,12982.7L4460.22,12983.5L4460.22,12984.3L4460.21,12985.2L4460.2,12986L4460.2,12986.8L4460.19,12987.6L4460.17,12988.4L4460.15,12989.2L4460.14,12990L4460.11,12990.8L4460.09,12991.6L4460.06,12992.4L4460.03,12993.2L4460,12994L4459.97,12994.8L4459.93,12995.6L4459.89,12996.4L4459.85,12997.2L4459.8,12998L4459.76,12998.8L4459.71,12999.6L4459.66,13000.4L4459.6,13001.2L4459.55,13002L4459.48,13002.8L4459.42,13003.6L4459.36,13004.4L4459.29,13005.2L4459.22,13006L4459.15,13006.8L4459.08,13007.6L4459,13008.4L4458.92,13009.2L4458.84,13010L4458.76,13010.8L4458.67,13011.6L4458.58,13012.3L4458.49,13013.1L4458.4,13013.9L4458.3,13014.7L4458.2,13015.5L4458.1,13016.3L4458,13017.1L4457.89,13017.8L4457.78,13018.6L4457.67,13019.4L4457.56,13020.2L4457.44,13021L4457.33,13021.7L4457.21,13022.5L4457.08,13023.3L4456.96,13024.1L4456.83,13024.8L4456.7,13025.6L4456.57,13026.4L4456.44,13027.2L4456.3,13027.9L4456.16,13028.7L4456.02,13029.5L4455.87,13030.3L4455.73,13031L4455.58,13031.8L4455.43,13032.6L4455.28,13033.3L4455.12,13034.1L4454.96,13034.9L4454.8,13035.6L4454.64,13036.4L4454.48,13037.1L4454.31,13037.9L4454.14,13038.7L4453.97,13039.4L4453.79,13040.2L4453.62,13040.9L4453.44,13041.7L4453.26,13042.5L4453.07,13043.2L4452.89,13044L4452.7,13044.7L4452.51,13045.5L4452.32,13046.2L4452.12,13047L4451.93,13047.7L4451.73,13048.5L4451.53,13049.2L4451.32,13050L4451.12,13050.7L4450.91,13051.5L4450.7,13052.2L4450.49,13053L4450.27,13053.7L4450.06,13054.4L4449.84,13055.2L4449.61,13055.9L4449.39,13056.7L4449.17,13057.4L4448.94,13058.1L4448.71,13058.9L4448.48,13059.6L4448.24,13060.3L4448,13061.1L4447.77,13061.8L4447.52,13062.5L4447.28,13063.3L4447.03,13064L4446.79,13064.7L4446.54,13065.5L4446.29,13066.2L4446.03,13066.9L4445.78,13067.6L4445.52,13068.3L4445.26,13069.1L4444.99,13069.8L4444.73,13070.5L4444.46,13071.2L4444.19,13071.9L4443.92,13072.7L4443.65,13073.4L4443.37,13074.1L4443.1,13074.8L4442.82,13075.5L4442.53,13076.2L4442.25,13076.9L4441.96,13077.7L4441.68,13078.4L4441.39,13079.1L4441.09,13079.8L4440.8,13080.5L4440.5,13081.2L4440.2,13081.9L4439.9,13082.6L4439.6,13083.3L4439.3,13084L4438.99,13084.7L4438.68,13085.4L4438.37,13086.1L4438.06,13086.8L4437.74,13087.5L4437.42,13088.2L4437.1,13088.9L4436.78,13089.5L4436.46,13090.2L4436.13,13090.9L4435.81,13091.6L4435.48,13092.3L4435.15,13093L4434.81,13093.7L4434.48,13094.3L4434.14,13095L4433.8,13095.7L4433.46,13096.4L4433.12,13097.1L4432.77,13097.7L4432.42,13098.4L4432.07,13099.1L4431.72,13099.8L4431.37,13100.4L4431.02,13101.1L4430.66,13101.8L4430.3,13102.4L4429.94,13103.1L4429.57,13103.8L4429.21,13104.4L4428.84,13105.1L4428.47,13105.8L4428.1,13106.4L4427.73,13107.1L4427.36,13107.8L4426.98,13108.4L4426.6,13109.1L4426.22,13109.7L4425.84,13110.4L4425.45,13111L4425.07,13111.7L4424.68,13112.3L4424.29,13113L4423.9,13113.6L4423.5,13114.3L4423.11,13114.9L4422.71,13115.6L4422.31,13116.2L4421.91,13116.8L4421.51,13117.5L4421.1,13118.1L4420.69,13118.8L4420.28,13119.4L4419.87,13120L4419.46,13120.7L4419.05,13121.3L4418.63,13121.9L4418.21,13122.5L4417.79,13123.2L4417.37,13123.8L4416.95,13124.4L4416.52,13125L4416.1,13125.7L4415.67,13126.3L4415.23,13126.9L4414.8,13127.5L4414.37,13128.1L4413.93,13128.8L4413.49,13129.4L4413.05,13130L4412.61,13130.6L4412.17,13131.2L4411.72,13131.8L4411.28,13132.4L4410.83,13133L4410.38,13133.6L4409.93,13134.2L4409.47,13134.8L4409.02,13135.4L4408.56,13136L4408.1,13136.6L4407.64,13137.2L4407.17,13137.8L4406.71,13138.4L4406.24,13139L4405.78,13139.6L4405.31,13140.2L4404.83,13140.8L4404.36,13141.4L4403.89,13141.9L4403.41,13142.5L4402.93,13143.1L4402.45,13143.7L4401.97,13144.3L4401.48,13144.8L4401,13145.4L4400.51,13146L4400.02,13146.6L4399.53,13147.1L4399.04,13147.7L4398.55,13148.3L4398.05,13148.8L4397.56,13149.4L4397.06,13150L4396.56,13150.5L4396.06,13151.1L4395.55,13151.7L4395.05,13152.2L4394.54,13152.8L4394.03,13153.3L4393.52,13153.9L4393.01,13154.4L4392.49,13155L4391.98,13155.5L4391.46,13156.1L4390.94,13156.6L4390.43,13157.2L4389.9,13157.7L4389.38,13158.2L4388.86,13158.8L4388.33,13159.3L4387.8,13159.9L4387.27,13160.4L4386.74,13160.9L4386.21,13161.5L4385.67,13162L4385.14,13162.5L4384.6,13163L4384.06,13163.6L4383.52,13164.1L4382.98,13164.6L4382.43,13165.1L4381.89,13165.6L4381.34,13166.2L4380.79,13166.7L4380.24,13167.2L4379.69,13167.7L4379.14,13168.2L4378.58,13168.7L4378.03,13169.2L4377.47,13169.7L4376.91,13170.2L4376.35,13170.7L4375.79,13171.2L4375.23,13171.7L4374.66,13172.2L4374.09,13172.7L4373.53,13173.2L4372.95,13173.7L4372.38,13174.2L4371.81,13174.7L4371.24,13175.2L4370.66,13175.7L4370.09,13176.2L4369.51,13176.6L4368.93,13177.1L4368.35,13177.6L4367.76,13178.1L4367.18,13178.5L4366.59,13179L4366,13179.5L4365.42,13180L4364.82,13180.4L4364.23,13180.9L4363.64,13181.4L4363.05,13181.8L4362.45,13182.3L4361.85,13182.7L4361.25,13183.2L4360.65,13183.7L4360.05,13184.1L4359.45,13184.6L4358.85,13185L4358.24,13185.5L4357.63,13185.9L4357.02,13186.4L4356.41,13186.8L4355.8,13187.2L4355.19,13187.7L4354.58,13188.1L4353.96,13188.6L4353.34,13189L4352.73,13189.4L4352.11,13189.9L4351.48,13190.3L4350.86,13190.7L4350.24,13191.1L4349.61,13191.6L4348.99,13192L4348.36,13192.4L4347.73,13192.8L4347.1,13193.2L4346.47,13193.6L4345.84,13194.1L4345.2,13194.5L4344.57,13194.9L4343.93,13195.3L4343.29,13195.7L4342.65,13196.1L4342.01,13196.5L4341.37,13196.9L4340.73,13197.3L4340.08,13197.7L4339.44,13198.1L4338.79,13198.5L4338.14,13198.9L4337.49,13199.3L4336.84,13199.6L4336.19,13200L4335.53,13200.4L4334.88,13200.8L4334.22,13201.2L4333.57,13201.5L4332.91,13201.9L4332.25,13202.3L4331.59,13202.7L4330.93,13203L4330.26,13203.4L4329.6,13203.8L4328.93,13204.1L4328.26,13204.5L4327.6,13204.8L4326.93,13205.2L4326.26,13205.6L4325.58,13205.9L4324.91,13206.3L4324.23,13206.6L4323.56,13207L4322.88,13207.3L4322.2,13207.6L4321.53,13208L4320.85,13208.3L4320.16,13208.7L4319.48,13209L4318.8,13209.3L4318.11,13209.7L4317.43,13210L4316.74,13210.3L4316.05,13210.6L4315.36,13211L4314.67,13211.3L4313.98,13211.6L4313.29,13211.9L4312.59,13212.2L4311.9,13212.6L4311.2,13212.9L4310.5,13213.2L4309.81,13213.5L4309.11,13213.8L4308.4,13214.1L4307.7,13214.4L4307,13214.7L4306.3,13215L4305.59,13215.3L4304.89,13215.6L4304.18,13215.9L4303.47,13216.1L4302.76,13216.4L4302.05,13216.7L4301.34,13217L4300.62,13217.3L4299.91,13217.6L4299.2,13217.8L4298.48,13218.1L4297.76,13218.4L4297.05,13218.6L4296.33,13218.9L4295.61,13219.2L4294.89,13219.4L4294.16,13219.7L4293.44,13220L4292.72,13220.2L4291.99,13220.5L4291.27,13220.7L4290.54,13221L4289.81,13221.2L4289.08,13221.5L4288.35,13221.7L4287.62,13222L4286.89,13222.2L4286.15,13222.4L4285.42,13222.7L4284.69,13222.9L4283.95,13223.1L4283.21,13223.4L4282.48,13223.6L4281.74,13223.8L4281,13224L4280.26,13224.2L4279.51,13224.5L4278.77,13224.7L4278.03,13224.9L4277.28,13225.1L4276.54,13225.3L4275.79,13225.5L4275.04,13225.7L4274.3,13225.9L4273.55,13226.1L4272.8,13226.3L4272.05,13226.5L4271.29,13226.7L4270.54,13226.9L4269.79,13227.1L4269.03,13227.3L4268.28,13227.4L4267.52,13227.6L4266.76,13227.8L4266,13228L4265.24,13228.2L4264.48,13228.3L4263.72,13228.5L4262.96,13228.7L4262.2,13228.8L4261.44,13229L4260.67,13229.1L4259.91,13229.3L4259.14,13229.5L4258.37,13229.6L4257.61,13229.8L4256.84,13229.9L4256.07,13230.1L4255.3,13230.2L4254.53,13230.3L4253.76,13230.5L4252.98,13230.6L4252.21,13230.8L4251.44,13230.9L4250.66,13231L4249.89,13231.1L4249.11,13231.3L4248.33,13231.4L4247.55,13231.5L4246.77,13231.6L4245.99,13231.7L4245.21,13231.9L4244.43,13232L4243.65,13232.1L4242.87,13232.2L4242.08,13232.3L4241.3,13232.4L4240.52,13232.5L4239.73,13232.6L4238.94,13232.7L4238.15,13232.8L4237.37,13232.9L4236.58,13232.9L4235.79,13233L4235,13233.1L4234.21,13233.2L4233.42,13233.3L4232.62,13233.3L4231.83,13233.4L4231.04,13233.5L4230.24,13233.5L4229.45,13233.6L4228.65,13233.7L4227.85,13233.7L4227.06,13233.8L4226.26,13233.8L4225.46,13233.9L4224.66,13233.9L4223.86,13234L4223.06,13234L4222.26,13234.1L4221.46,13234.1L4220.65,13234.2L4219.85,13234.2L4219.05,13234.2L4218.24,13234.2L4217.44,13234.3L4216.63,13234.3L4215.83,13234.3L4215.02,13234.3L4214.21,13234.4L4213.4,13234.4L4212.59,13234.4L4211.78,13234.4L4210.97,13234.4L4210.16,13234.4L4209.35,13234.4L4208.54,13234.4L4207.73,13234.4L4206.92,13234.4L4206.11,13234.4L4205.3,13234.4L4204.49,13234.4L4203.69,13234.3L4202.88,13234.3L4202.07,13234.3L4201.27,13234.3L4200.46,13234.2L4199.66,13234.2L4198.85,13234.2L4198.05,13234.2L4197.25,13234.1L4196.44,13234.1L4195.64,13234L4194.84,13234L4194.04,13233.9L4193.24,13233.9L4192.44,13233.8L4191.65,13233.8L4190.85,13233.7L4190.05,13233.7L4189.26,13233.6L4188.46,13233.5L4187.67,13233.5L4186.87,13233.4L4186.08,13233.3L4185.29,13233.3L4184.5,13233.2L4183.7,13233.1L4182.91,13233L4182.13,13232.9L4181.34,13232.9L4180.55,13232.8L4179.76,13232.7L4178.98,13232.6L4178.19,13232.5L4177.4,13232.4L4176.62,13232.3L4175.84,13232.2L4175.05,13232.1L4174.27,13232L4173.49,13231.9L4172.71,13231.7L4171.93,13231.6L4171.15,13231.5L4170.37,13231.4L4169.6,13231.3L4168.82,13231.1L4168.04,13231L4167.27,13230.9L4166.49,13230.8L4165.72,13230.6L4164.95,13230.5L4164.18,13230.3L4163.4,13230.2L4162.64,13230.1L4161.86,13229.9L4161.1,13229.8L4160.33,13229.6L4159.56,13229.5L4158.8,13229.3L4158.03,13229.1L4157.27,13229L4156.5,13228.8L4155.74,13228.7L4154.98,13228.5L4154.22,13228.3L4153.46,13228.2L4152.7,13228L4151.94,13227.8L4151.18,13227.6L4150.43,13227.4L4149.67,13227.3L4148.92,13227.1L4148.16,13226.9L4147.41,13226.7L4146.66,13226.5L4145.91,13226.3L4145.16,13226.1L4144.41,13225.9L4143.66,13225.7L4142.91,13225.5L4142.17,13225.3L4141.42,13225.1L4140.68,13224.9L4139.93,13224.7L4139.19,13224.5L4138.45,13224.2L4137.71,13224L4136.97,13223.8L4136.23,13223.6L4135.49,13223.4L4134.75,13223.1L4134.02,13222.9L4133.28,13222.7L4132.55,13222.4L4131.82,13222.2L4131.08,13222L4130.35,13221.7L4129.62,13221.5L4128.89,13221.2L4128.16,13221L4127.44,13220.7L4126.71,13220.5L4125.99,13220.2L4125.26,13220L4124.54,13219.7L4123.82,13219.4L4123.1,13219.2L4122.38,13218.9L4121.66,13218.6L4120.94,13218.4L4120.22,13218.1L4119.51,13217.8L4118.79,13217.6L4118.08,13217.3L4117.36,13217L4116.65,13216.7L4115.94,13216.4L4115.23,13216.1L4114.53,13215.9L4113.82,13215.6L4113.11,13215.3L4112.41,13215L4111.7,13214.7L4111,13214.4L4110.3,13214.1L4109.6,13213.8L4108.9,13213.5L4108.2,13213.2L4107.5,13212.9L4106.81,13212.6L4106.11,13212.2L4105.42,13211.9L4104.72,13211.6L4104.03,13211.3L4103.34,13211L4102.65,13210.6L4101.96,13210.3L4101.28,13210L4100.59,13209.7L4099.9,13209.3L4099.22,13209L4098.54,13208.7L4097.86,13208.3L4097.18,13208L4096.5,13207.6L4095.82,13207.3L4095.14,13207L4094.47,13206.6L4093.79,13206.3L4093.12,13205.9L4092.45,13205.6L4091.78,13205.2L4091.11,13204.8L4090.44,13204.5L4089.77,13204.1L4089.11,13203.8L4088.44,13203.4L4087.78,13203L4087.12,13202.7L4086.46,13202.3L4085.8,13201.9L4085.14,13201.5L4084.48,13201.2L4083.82,13200.8L4083.17,13200.4L4082.52,13200L4081.86,13199.6L4081.21,13199.3L4080.56,13198.9L4079.91,13198.5L4079.27,13198.1L4078.62,13197.7L4077.98,13197.3L4077.33,13196.9L4076.69,13196.5L4076.05,13196.1L4075.41,13195.7L4074.77,13195.3L4074.14,13194.9L4073.5,13194.5L4072.87,13194.1L4072.23,13193.6L4071.6,13193.2L4070.97,13192.8L4070.34,13192.4L4069.72,13192L4069.09,13191.6L4068.46,13191.1L4067.84,13190.7L4067.22,13190.3L4066.6,13189.9L4065.98,13189.4L4065.36,13189L4064.74,13188.6L4064.13,13188.1L4063.51,13187.7L4062.9,13187.2L4062.29,13186.8L4061.68,13186.4L4061.07,13185.9L4060.46,13185.5L4059.86,13185L4059.25,13184.6L4058.65,13184.1L4058.05,13183.7L4057.45,13183.2L4056.85,13182.7L4056.25,13182.3L4055.66,13181.8L4055.06,13181.4L4054.47,13180.9L4053.88,13180.4L4053.29,13180L4052.7,13179.5L4052.11,13179L4051.53,13178.5L4050.94,13178.1L4050.36,13177.6L4049.78,13177.1L4049.2,13176.6L4048.62,13176.2L4048.04,13175.7L4047.47,13175.2L4046.89,13174.7L4046.32,13174.2L4045.75,13173.7L4045.18,13173.2L4044.61,13172.7L4044.04,13172.2L4043.48,13171.7L4042.91,13171.2L4042.35,13170.7L4041.79,13170.2L4041.23,13169.7L4040.68,13169.2L4040.12,13168.7L4039.56,13168.2L4039.01,13167.7L4038.46,13167.2L4037.91,13166.7L4037.36,13166.2L4036.82,13165.6L4036.27,13165.1L4035.72,13164.6L4035.18,13164.1L4034.64,13163.6L4034.1,13163L4033.57,13162.5L4033.03,13162L4032.5,13161.5L4031.96,13160.9L4031.43,13160.4L4030.9,13159.9L4030.37,13159.3L4029.85,13158.8L4029.32,13158.2L4028.8,13157.7L4028.28,13157.2L4027.76,13156.6L4027.24,13156.1L4026.72,13155.5L4026.21,13155L4025.7,13154.4L4025.18,13153.9L4024.67,13153.3L4024.16,13152.8L4023.66,13152.2L4023.15,13151.7L4022.65,13151.1L4022.15,13150.5L4021.65,13150L4021.15,13149.4L4020.65,13148.8L4020.16,13148.3L4019.66,13147.7L4019.17,13147.1L4018.68,13146.6L4018.19,13146L4017.7,13145.4L4017.22,13144.8L4016.74,13144.3L4016.25,13143.7L4015.77,13143.1L4015.29,13142.5L4014.82,13141.9L4014.34,13141.4L4013.87,13140.8L4013.4,13140.2L4012.93,13139.6L4012.46,13139L4011.99,13138.4L4011.53,13137.8L4011.07,13137.2L4010.61,13136.6L4010.14,13136L4009.69,13135.4L4009.23,13134.8L4008.78,13134.2L4008.33,13133.6L4007.88,13133L4007.43,13132.4L4006.98,13131.8L4006.53,13131.2L4006.09,13130.6L4005.65,13130L4005.21,13129.4L4004.77,13128.8L4004.34,13128.1L4003.9,13127.5L4003.47,13126.9L4003.04,13126.3L4002.61,13125.7L4002.18,13125L4001.76,13124.4L4001.33,13123.8L4000.91,13123.2L4000.49,13122.5L4000.07,13121.9L3999.66,13121.3L3999.24,13120.7L3998.83,13120L3998.42,13119.4L3998.01,13118.8L3997.6,13118.1L3997.2,13117.5L3996.79,13116.8L3996.39,13116.2L3995.99,13115.6L3995.6,13114.9L3995.2,13114.3L3994.81,13113.6L3994.41,13113L3994.02,13112.3L3993.64,13111.7L3993.25,13111L3992.87,13110.4L3992.48,13109.7L3992.1,13109.1L3991.72,13108.4L3991.35,13107.8L3990.97,13107.1L3990.6,13106.4L3990.23,13105.8L3989.86,13105.1L3989.49,13104.4L3989.13,13103.8L3988.77,13103.1L3988.41,13102.4L3988.05,13101.8L3987.69,13101.1L3987.33,13100.4L3986.98,13099.8L3986.63,13099.1L3986.28,13098.4L3985.93,13097.7L3985.59,13097.1L3985.24,13096.4L3984.9,13095.7L3984.56,13095L3984.22,13094.3L3983.89,13093.7L3983.56,13093L3983.22,13092.3L3982.9,13091.6L3982.57,13090.9L3982.24,13090.2L3981.92,13089.5L3981.6,13088.9L3981.28,13088.2L3980.96,13087.5L3980.65,13086.8L3980.34,13086.1L3980.02,13085.4L3979.72,13084.7L3979.41,13084L3979.1,13083.3L3978.8,13082.6L3978.5,13081.9L3978.2,13081.2L3977.91,13080.5L3977.61,13079.8L3977.32,13079.1L3977.03,13078.4L3976.74,13077.7L3976.45,13076.9L3976.17,13076.2L3975.89,13075.5L3975.61,13074.8L3975.33,13074.1L3975.06,13073.4L3974.78,13072.7L3974.51,13071.9L3974.24,13071.2L3973.97,13070.5L3973.71,13069.8L3973.45,13069.1L3973.19,13068.3L3972.93,13067.6L3972.67,13066.9L3972.42,13066.2L3972.16,13065.5L3971.91,13064.7L3971.67,13064L3971.42,13063.3L3971.18,13062.5L3970.94,13061.8L3970.7,13061.1L3970.46,13060.3L3970.23,13059.6L3969.99,13058.9L3969.76,13058.1L3969.54,13057.4L3969.31,13056.7L3969.09,13055.9L3968.87,13055.2L3968.65,13054.4L3968.43,13053.7L3968.22,13053L3968,13052.2L3967.79,13051.5L3967.59,13050.7L3967.38,13050L3967.18,13049.2L3966.97,13048.5L3966.78,13047.7L3966.58,13047L3966.38,13046.2L3966.19,13045.5L3966,13044.7L3965.81,13044L3965.63,13043.2L3965.45,13042.5L3965.26,13041.7L3965.09,13040.9L3964.91,13040.2L3964.74,13039.4L3964.56,13038.7L3964.39,13037.9L3964.23,13037.1L3964.06,13036.4L3963.9,13035.6L3963.74,13034.9L3963.58,13034.1L3963.43,13033.3L3963.27,13032.6L3963.12,13031.8L3962.97,13031L3962.83,13030.3L3962.68,13029.5L3962.54,13028.7L3962.4,13027.9L3962.27,13027.2L3962.13,13026.4L3962,13025.6L3961.87,13024.8L3961.74,13024.1L3961.62,13023.3L3961.5,13022.5L3961.38,13021.7L3961.26,13021L3961.14,13020.2L3961.03,13019.4L3960.92,13018.6L3960.81,13017.8L3960.71,13017.1L3960.6,13016.3L3960.5,13015.5L3960.4,13014.7L3960.31,13013.9L3960.21,13013.1L3960.12,13012.3L3960.03,13011.6L3959.95,13010.8L3959.86,13010L3959.78,13009.2L3959.7,13008.4L3959.62,13007.6L3959.55,13006.8L3959.48,13006L3959.41,13005.2L3959.34,13004.4L3959.28,13003.6L3959.22,13002.8L3959.16,13002L3959.1,13001.2L3959.05,13000.4L3958.99,12999.6L3958.95,12998.8L3958.9,12998L3958.85,12997.2L3958.81,12996.4L3958.77,12995.6L3958.74,12994.8L3958.7,12994L3958.67,12993.2L3958.64,12992.4L3958.61,12991.6L3958.59,12990.8L3958.57,12990L3958.55,12989.2L3958.53,12988.4L3958.52,12987.6L3958.51,12986.8L3958.5,12986L3958.49,12985.2L3958.49,12984.3L3958.49,12983.5L3958.49,12982.7L3958.49,12981.9L3958.5,12981.1L3958.51,12980.3L3958.52,12979.5L3958.53,12978.7L3958.55,12977.9L3958.57,12977.1L3958.59,12976.3L3958.61,12975.4L3958.64,12974.6L3958.67,12973.8L3958.7,12973L3958.74,12972.2L3958.77,12971.4L3958.81,12970.6L3958.85,12969.8L3958.9,12969L3958.95,12968.2L3958.99,12967.4L3959.05,12966.6L3959.1,12965.8L3959.16,12965L3959.22,12964.2L3959.28,12963.4L3959.34,12962.6L3959.41,12961.9L3959.48,12961.1L3959.55,12960.3L3959.62,12959.5L3959.7,12958.7L3959.78,12957.9L3959.86,12957.1L3959.95,12956.3L3960.03,12955.5L3960.12,12954.7L3960.21,12953.9L3960.31,12953.2L3960.4,12952.4L3960.5,12951.6L3960.6,12950.8L3960.71,12950L3960.81,12949.2L3960.92,12948.5L3961.03,12947.7L3961.14,12946.9L3961.26,12946.1L3961.38,12945.3L3961.5,12944.6L3961.62,12943.8L3961.74,12943L3961.87,12942.2L3962,12941.5L3962.13,12940.7L3962.27,12939.9L3962.4,12939.1L3962.54,12938.4L3962.68,12937.6L3962.83,12936.8L3962.97,12936L3963.12,12935.3L3963.27,12934.5L3963.43,12933.7L3963.58,12933L3963.74,12932.2L3963.9,12931.5L3964.06,12930.7L3964.23,12929.9L3964.39,12929.2L3964.56,12928.4L3964.74,12927.6L3964.91,12926.9L3965.09,12926.1L3965.26,12925.4L3965.45,12924.6L3965.63,12923.9L3965.81,12923.1L3966,12922.3L3966.19,12921.6L3966.38,12920.8L3966.58,12920.1L3966.78,12919.3L3966.97,12918.6L3967.18,12917.8L3967.38,12917.1L3967.59,12916.4L3967.79,12915.6L3968,12914.9L3968.22,12914.1L3968.43,12913.4L3968.65,12912.6L3968.87,12911.9L3969.09,12911.2L3969.31,12910.4L3969.54,12909.7L3969.76,12908.9L3969.99,12908.2L3970.23,12907.5L3970.46,12906.7L3970.7,12906L3970.94,12905.3L3971.18,12904.5L3971.42,12903.8L3971.67,12903.1L3971.91,12902.3L3972.16,12901.6L3972.42,12900.9L3972.67,12900.2L3972.93,12899.4L3973.19,12898.7L3973.45,12898L3973.71,12897.3L3973.97,12896.6L3974.24,12895.8L3974.51,12895.1L3974.78,12894.4L3975.06,12893.7L3975.33,12893L3975.61,12892.3L3975.89,12891.6L3976.17,12890.8L3976.45,12890.1L3976.74,12889.4L3977.03,12888.7L3977.32,12888L3977.61,12887.3L3977.91,12886.6L3978.2,12885.9L3978.5,12885.2L3978.8,12884.5L3979.1,12883.8L3979.41,12883.1L3979.72,12882.4L3980.02,12881.7L3980.34,12881L3980.65,12880.3L3980.96,12879.6L3981.28,12878.9L3981.6,12878.2L3981.92,12877.5L3982.24,12876.8L3982.57,12876.1L3982.9,12875.5L3983.22,12874.8L3983.56,12874.1L3983.89,12873.4L3984.22,12872.7L3984.56,12872L3984.9,12871.4L3985.24,12870.7L3985.59,12870L3985.93,12869.3L3986.28,12868.7L3986.63,12868L3986.98,12867.3L3987.33,12866.6L3987.69,12866L3988.05,12865.3L3988.41,12864.6L3988.77,12864L3989.13,12863.3L3989.49,12862.6L3989.86,12862L3990.23,12861.3L3990.6,12860.6L3990.97,12860L3991.35,12859.3L3991.72,12858.7L3992.1,12858L3992.48,12857.4L3992.87,12856.7L3993.25,12856L3993.64,12855.4L3994.02,12854.7L3994.41,12854.1L3994.81,12853.5L3995.2,12852.8L3995.6,12852.2L3995.99,12851.5L3996.39,12850.9L3996.79,12850.2L3997.2,12849.6L3997.6,12849L3998.01,12848.3L3998.42,12847.7L3998.83,12847.1L3999.24,12846.4L3999.66,12845.8L4000.07,12845.2L4000.49,12844.5L4000.91,12843.9L4001.33,12843.3L4001.76,12842.6L4002.18,12842L4002.61,12841.4L4003.04,12840.8L4003.47,12840.2L4003.9,12839.5L4004.34,12838.9L4004.77,12838.3L4005.21,12837.7L4005.65,12837.1L4006.09,12836.5L4006.53,12835.9L4006.98,12835.3L4007.43,12834.6L4007.88,12834L4008.33,12833.4L4008.78,12832.8L4009.23,12832.2L4009.69,12831.6L4010.14,12831L4010.61,12830.4L4011.07,12829.8L4011.53,12829.2L4011.99,12828.7L4012.46,12828.1L4012.93,12827.5L4013.4,12826.9L4013.87,12826.3L4014.34,12825.7L4014.82,12825.1L4015.29,12824.5L4015.77,12824L4016.25,12823.4L4016.74,12822.8L4017.22,12822.2L4017.7,12821.7L4018.19,12821.1L4018.68,12820.5L4019.17,12819.9L4019.66,12819.4L4020.16,12818.8L4020.65,12818.2L4021.15,12817.7L4021.65,12817.1L4022.15,12816.5L4022.65,12816L4023.15,12815.4L4023.66,12814.9L4024.16,12814.3L4024.67,12813.8L4025.18,12813.2L4025.7,12812.6L4026.21,12812.1L4026.72,12811.5L4027.24,12811L4027.76,12810.5L4028.28,12809.9L4028.8,12809.4L4029.32,12808.8L4029.85,12808.3L4030.37,12807.8L4030.9,12807.2L4031.43,12806.7L4031.96,12806.1L4032.5,12805.6L4033.03,12805.1L4033.57,12804.6L4034.1,12804L4034.64,12803.5L4035.18,12803L4035.72,12802.5L4036.27,12801.9L4036.82,12801.4L4037.36,12800.9L4037.91,12800.4L4038.46,12799.9L4039.01,12799.4L4039.56,12798.9L4040.12,12798.4L4040.68,12797.8L4041.23,12797.3L4041.79,12796.8L4042.35,12796.3L4042.91,12795.8L4043.48,12795.3L4044.04,12794.8L4044.61,12794.3L4045.18,12793.8L4045.75,12793.4L4046.32,12792.9L4046.89,12792.4L4047.47,12791.9L4048.04,12791.4L4048.62,12790.9L4049.2,12790.4L4049.78,12790L4050.36,12789.5L4050.94,12789L4051.53,12788.5L4052.11,12788.1L4052.7,12787.6L4053.29,12787.1L4053.88,12786.6L4054.47,12786.2L4055.06,12785.7L4055.66,12785.3L4056.25,12784.8L4056.85,12784.3L4057.45,12783.9L4058.05,12783.4L4058.65,12783L4059.25,12782.5L4059.86,12782.1L4060.46,12781.6L4061.07,12781.2L4061.68,12780.7L4062.29,12780.3L4062.9,12779.8L4063.51,12779.4L4064.13,12779L4064.74,12778.5L4065.36,12778.1L4065.98,12777.7L4066.6,12777.2L4067.22,12776.8L4067.84,12776.4L4068.46,12775.9L4069.09,12775.5L4069.72,12775.1L4070.34,12774.7L4070.97,12774.3L4071.6,12773.8L4072.23,12773.4L4072.87,12773L4073.5,12772.6L4074.14,12772.2L4074.77,12771.8L4075.41,12771.4L4076.05,12771L4076.69,12770.6L4077.33,12770.2L4077.98,12769.8L4078.62,12769.4L4079.27,12769L4079.91,12768.6L4080.56,12768.2L4081.21,12767.8L4081.86,12767.4L4082.52,12767.1L4083.17,12766.7L4083.82,12766.3L4084.48,12765.9L4085.14,12765.5L4085.8,12765.2L4086.46,12764.8L4087.12,12764.4L4087.78,12764L4088.44,12763.7L4089.11,12763.3L4089.77,12763L4090.44,12762.6L4091.11,12762.2L4091.78,12761.9L4092.45,12761.5L4093.12,12761.2L4093.79,12760.8L4094.47,12760.5L4095.14,12760.1L4095.82,12759.8L4096.5,12759.4L4097.18,12759.1L4097.86,12758.7L4098.54,12758.4L4099.22,12758.1L4099.9,12757.7L4100.59,12757.4L4101.28,12757.1L4101.96,12756.8L4102.65,12756.4L4103.34,12756.1L4104.03,12755.8L4104.72,12755.5L4105.42,12755.1L4106.11,12754.8L4106.81,12754.5L4107.5,12754.2L4108.2,12753.9L4108.9,12753.6L4109.6,12753.3L4110.3,12753L4111,12752.7L4111.7,12752.4L4112.41,12752.1L4113.11,12751.8L4113.82,12751.5L4114.53,12751.2L4115.23,12750.9L4115.94,12750.6L4116.65,12750.4L4117.36,12750.1L4118.08,12749.8L4118.79,12749.5L4119.51,12749.2L4120.22,12749L4120.94,12748.7L4121.66,12748.4L4122.38,12748.2L4123.1,12747.9L4123.82,12747.6L4124.54,12747.4L4125.26,12747.1L4125.99,12746.9L4126.71,12746.6L4127.44,12746.4L4128.16,12746.1L4128.89,12745.9L4129.62,12745.6L4130.35,12745.4L4131.08,12745.1L4131.82,12744.9L4132.55,12744.6L4133.28,12744.4L4134.02,12744.2L4134.75,12744L4135.49,12743.7L4136.23,12743.5L4136.97,12743.3L4137.71,12743.1L4138.45,12742.8L4139.19,12742.6L4139.93,12742.4L4140.68,12742.2L4141.42,12742L4142.17,12741.8L4142.91,12741.6L4143.66,12741.4L4144.41,12741.2L4145.16,12741L4145.91,12740.8L4146.66,12740.6L4147.41,12740.4L4148.16,12740.2L4148.92,12740L4149.67,12739.8L4150.43,12739.6L4151.18,12739.5L4151.94,12739.3L4152.7,12739.1L4153.46,12738.9L4154.22,12738.8L4154.98,12738.6L4155.74,12738.4L4156.5,12738.2L4157.27,12738.1L4158.03,12737.9L4158.8,12737.8L4159.56,12737.6L4160.33,12737.5L4161.1,12737.3L4161.86,12737.2L4162.64,12737L4163.4,12736.9L4164.18,12736.7L4164.95,12736.6L4165.72,12736.5L4166.49,12736.3L4167.27,12736.2L4168.04,12736.1L4168.82,12735.9L4169.6,12735.8L4170.37,12735.7L4171.15,12735.6L4171.93,12735.4L4172.71,12735.3L4173.49,12735.2L4174.27,12735.1L4175.05,12735L4175.84,12734.9L4176.62,12734.8L4177.4,12734.7L4178.19,12734.6L4178.98,12734.5L4179.76,12734.4L4180.55,12734.3L4181.34,12734.2L4182.13,12734.1L4182.91,12734L4183.7,12734L4184.5,12733.9L4185.29,12733.8L4186.08,12733.7L4186.87,12733.7L4187.67,12733.6L4188.46,12733.5L4189.26,12733.5L4190.05,12733.4L4190.85,12733.3L4191.65,12733.3L4192.44,12733.2L4193.24,12733.2L4194.04,12733.1L4194.84,12733.1L4195.64,12733L4196.44,12733L4197.25,12733L4198.05,12732.9L4198.85,12732.9L4199.66,12732.9L4200.46,12732.8L4201.27,12732.8L4202.07,12732.8L4202.88,12732.8L4203.69,12732.7L4204.49,12732.7L4205.3,12732.7L4206.11,12732.7L4206.92,12732.7L4207.73,12732.7L4208.54,12732.7L4209.35,12732.7L4210.16,12732.7ZM4208.56,12737.7L4207.76,12737.7L4206.97,12737.7L4206.17,12737.7L4205.38,12737.7L4204.59,12737.7L4203.8,12737.7L4203.01,12737.8L4202.21,12737.8L4201.42,12737.8L4200.64,12737.8L4199.85,12737.9L4199.06,12737.9L4198.27,12737.9L4197.48,12738L4196.7,12738L4195.91,12738L4195.13,12738.1L4194.34,12738.1L4193.56,12738.2L4192.78,12738.2L4191.99,12738.3L4191.21,12738.3L4190.43,12738.4L4189.65,12738.5L4188.87,12738.5L4188.09,12738.6L4187.32,12738.6L4186.54,12738.7L4185.76,12738.8L4184.99,12738.9L4184.21,12738.9L4183.44,12739L4182.66,12739.1L4181.89,12739.2L4181.12,12739.3L4180.35,12739.4L4179.57,12739.5L4178.8,12739.6L4178.03,12739.6L4177.27,12739.7L4176.5,12739.8L4175.73,12740L4174.96,12740.1L4174.2,12740.2L4173.43,12740.3L4172.67,12740.4L4171.91,12740.5L4171.14,12740.6L4170.38,12740.7L4169.62,12740.9L4168.86,12741L4168.1,12741.1L4167.34,12741.2L4166.58,12741.4L4165.83,12741.5L4165.07,12741.6L4164.32,12741.8L4163.56,12741.9L4162.81,12742.1L4162.05,12742.2L4161.3,12742.4L4160.55,12742.5L4159.8,12742.7L4159.05,12742.8L4158.3,12743L4157.55,12743.1L4156.81,12743.3L4156.06,12743.5L4155.31,12743.6L4154.57,12743.8L4153.82,12744L4153.08,12744.1L4152.34,12744.3L4151.6,12744.5L4150.86,12744.7L4150.12,12744.9L4149.38,12745L4148.64,12745.2L4147.9,12745.4L4147.17,12745.6L4146.43,12745.8L4145.7,12746L4144.97,12746.2L4144.23,12746.4L4143.5,12746.6L4142.77,12746.8L4142.04,12747L4141.31,12747.2L4140.59,12747.4L4139.86,12747.6L4139.13,12747.8L4138.41,12748.1L4137.68,12748.3L4136.96,12748.5L4136.24,12748.7L4135.52,12749L4134.8,12749.2L4134.08,12749.4L4133.36,12749.6L4132.64,12749.9L4131.93,12750.1L4131.21,12750.3L4130.49,12750.6L4129.78,12750.8L4129.07,12751.1L4128.36,12751.3L4127.65,12751.6L4126.94,12751.8L4126.23,12752.1L4125.52,12752.3L4124.82,12752.6L4124.11,12752.9L4123.4,12753.1L4122.7,12753.4L4122,12753.6L4121.3,12753.9L4120.6,12754.2L4119.9,12754.5L4119.2,12754.7L4118.5,12755L4117.81,12755.3L4117.11,12755.6L4116.42,12755.8L4115.72,12756.1L4115.03,12756.4L4114.34,12756.7L4113.65,12757L4112.96,12757.3L4112.27,12757.6L4111.59,12757.9L4110.9,12758.2L4110.22,12758.5L4109.53,12758.8L4108.85,12759.1L4108.17,12759.4L4107.49,12759.7L4106.81,12760L4106.13,12760.3L4105.46,12760.6L4104.78,12761L4104.11,12761.3L4103.43,12761.6L4102.76,12761.9L4102.09,12762.2L4101.42,12762.6L4100.75,12762.9L4100.08,12763.2L4099.42,12763.6L4098.75,12763.9L4098.09,12764.2L4097.42,12764.6L4096.76,12764.9L4096.1,12765.3L4095.44,12765.6L4094.78,12765.9L4094.12,12766.3L4093.47,12766.6L4092.81,12767L4092.16,12767.3L4091.51,12767.7L4090.86,12768.1L4090.2,12768.4L4089.56,12768.8L4088.91,12769.1L4088.26,12769.5L4087.62,12769.9L4086.97,12770.2L4086.33,12770.6L4085.69,12771L4085.05,12771.4L4084.41,12771.7L4083.77,12772.1L4083.13,12772.5L4082.5,12772.9L4081.86,12773.3L4081.23,12773.7L4080.6,12774L4079.97,12774.4L4079.34,12774.8L4078.71,12775.2L4078.08,12775.6L4077.46,12776L4076.84,12776.4L4076.21,12776.8L4075.59,12777.2L4074.97,12777.6L4074.35,12778L4073.73,12778.4L4073.12,12778.8L4072.5,12779.2L4071.89,12779.7L4071.28,12780.1L4070.66,12780.5L4070.05,12780.9L4069.45,12781.3L4068.84,12781.8L4068.23,12782.2L4067.63,12782.6L4067.03,12783L4066.42,12783.5L4065.82,12783.9L4065.22,12784.3L4064.63,12784.8L4064.03,12785.2L4063.43,12785.6L4062.84,12786.1L4062.25,12786.5L4061.66,12787L4061.07,12787.4L4060.48,12787.9L4059.89,12788.3L4059.31,12788.8L4058.72,12789.2L4058.14,12789.7L4057.56,12790.1L4056.98,12790.6L4056.4,12791L4055.82,12791.5L4055.25,12791.9L4054.67,12792.4L4054.1,12792.9L4053.53,12793.3L4052.96,12793.8L4052.39,12794.3L4051.82,12794.8L4051.26,12795.2L4050.69,12795.7L4050.13,12796.2L4049.57,12796.7L4049.01,12797.1L4048.45,12797.6L4047.89,12798.1L4047.34,12798.6L4046.79,12799.1L4046.23,12799.6L4045.68,12800.1L4045.13,12800.6L4044.58,12801L4044.04,12801.5L4043.49,12802L4042.95,12802.5L4042.41,12803L4041.87,12803.5L4041.33,12804L4040.79,12804.5L4040.25,12805.1L4039.72,12805.6L4039.19,12806.1L4038.66,12806.6L4038.12,12807.1L4037.6,12807.6L4037.07,12808.1L4036.55,12808.6L4036.02,12809.2L4035.5,12809.7L4034.98,12810.2L4034.46,12810.7L4033.94,12811.3L4033.43,12811.8L4032.91,12812.3L4032.4,12812.8L4031.89,12813.4L4031.38,12813.9L4030.87,12814.4L4030.36,12815L4029.86,12815.5L4029.35,12816.1L4028.85,12816.6L4028.35,12817.1L4027.85,12817.7L4027.36,12818.2L4026.86,12818.8L4026.37,12819.3L4025.88,12819.9L4025.39,12820.4L4024.9,12821L4024.41,12821.5L4023.92,12822.1L4023.44,12822.6L4022.96,12823.2L4022.48,12823.8L4022,12824.3L4021.52,12824.9L4021.05,12825.4L4020.57,12826L4020.1,12826.6L4019.63,12827.1L4019.16,12827.7L4018.69,12828.3L4018.23,12828.9L4017.76,12829.4L4017.3,12830L4016.84,12830.6L4016.38,12831.2L4015.93,12831.7L4015.47,12832.3L4015.02,12832.9L4014.56,12833.5L4014.11,12834.1L4013.66,12834.7L4013.22,12835.3L4012.77,12835.8L4012.33,12836.4L4011.89,12837L4011.45,12837.6L4011.01,12838.2L4010.57,12838.8L4010.14,12839.4L4009.71,12840L4009.28,12840.6L4008.85,12841.2L4008.42,12841.8L4007.99,12842.4L4007.57,12843L4007.15,12843.6L4006.72,12844.2L4006.31,12844.8L4005.89,12845.5L4005.47,12846.1L4005.06,12846.7L4004.65,12847.3L4004.24,12847.9L4003.83,12848.5L4003.43,12849.2L4003.02,12849.8L4002.62,12850.4L4002.22,12851L4001.82,12851.6L4001.42,12852.3L4001.03,12852.9L4000.63,12853.5L4000.24,12854.2L3999.85,12854.8L3999.47,12855.4L3999.08,12856L3998.7,12856.7L3998.31,12857.3L3997.93,12858L3997.55,12858.6L3997.18,12859.2L3996.8,12859.9L3996.43,12860.5L3996.06,12861.2L3995.69,12861.8L3995.32,12862.4L3994.96,12863.1L3994.59,12863.7L3994.23,12864.4L3993.87,12865L3993.51,12865.7L3993.16,12866.3L3992.81,12867L3992.45,12867.7L3992.1,12868.3L3991.76,12869L3991.41,12869.6L3991.07,12870.3L3990.72,12870.9L3990.38,12871.6L3990.04,12872.3L3989.71,12872.9L3989.37,12873.6L3989.04,12874.3L3988.71,12874.9L3988.38,12875.6L3988.05,12876.3L3987.73,12876.9L3987.41,12877.6L3987.09,12878.3L3986.77,12879L3986.45,12879.6L3986.14,12880.3L3985.82,12881L3985.51,12881.7L3985.2,12882.4L3984.9,12883L3984.59,12883.7L3984.29,12884.4L3983.99,12885.1L3983.69,12885.8L3983.39,12886.5L3983.1,12887.1L3982.81,12887.8L3982.52,12888.5L3982.23,12889.2L3981.94,12889.9L3981.66,12890.6L3981.37,12891.3L3981.09,12892L3980.82,12892.7L3980.54,12893.4L3980.26,12894.1L3979.99,12894.8L3979.72,12895.5L3979.45,12896.2L3979.19,12896.9L3978.93,12897.6L3978.66,12898.3L3978.4,12899L3978.15,12899.7L3977.89,12900.4L3977.64,12901.1L3977.39,12901.8L3977.14,12902.5L3976.89,12903.3L3976.65,12904L3976.4,12904.7L3976.16,12905.4L3975.93,12906.1L3975.69,12906.8L3975.45,12907.5L3975.22,12908.3L3974.99,12909L3974.76,12909.7L3974.54,12910.4L3974.32,12911.1L3974.09,12911.9L3973.88,12912.6L3973.66,12913.3L3973.44,12914L3973.23,12914.8L3973.02,12915.5L3972.81,12916.2L3972.61,12917L3972.4,12917.7L3972.2,12918.4L3972,12919.1L3971.81,12919.9L3971.61,12920.6L3971.42,12921.4L3971.23,12922.1L3971.04,12922.8L3970.85,12923.6L3970.67,12924.3L3970.49,12925L3970.31,12925.8L3970.13,12926.5L3969.95,12927.3L3969.78,12928L3969.61,12928.8L3969.44,12929.5L3969.28,12930.2L3969.11,12931L3968.95,12931.7L3968.79,12932.5L3968.64,12933.2L3968.48,12934L3968.33,12934.7L3968.18,12935.5L3968.03,12936.2L3967.89,12937L3967.74,12937.7L3967.6,12938.5L3967.46,12939.3L3967.33,12940L3967.19,12940.8L3967.06,12941.5L3966.93,12942.3L3966.8,12943L3966.68,12943.8L3966.56,12944.6L3966.44,12945.3L3966.32,12946.1L3966.2,12946.9L3966.09,12947.6L3965.98,12948.4L3965.87,12949.1L3965.76,12949.9L3965.66,12950.7L3965.56,12951.5L3965.46,12952.2L3965.37,12953L3965.27,12953.8L3965.18,12954.5L3965.09,12955.3L3965,12956.1L3964.92,12956.8L3964.84,12957.6L3964.76,12958.4L3964.68,12959.2L3964.6,12959.9L3964.53,12960.7L3964.46,12961.5L3964.39,12962.3L3964.33,12963.1L3964.26,12963.8L3964.2,12964.6L3964.14,12965.4L3964.09,12966.2L3964.04,12967L3963.99,12967.7L3963.94,12968.5L3963.89,12969.3L3963.85,12970.1L3963.81,12970.9L3963.77,12971.7L3963.73,12972.5L3963.7,12973.2L3963.67,12974L3963.64,12974.8L3963.61,12975.6L3963.59,12976.4L3963.57,12977.2L3963.55,12978L3963.53,12978.8L3963.52,12979.6L3963.51,12980.4L3963.5,12981.2L3963.49,12981.9L3963.49,12982.7L3963.49,12983.5L3963.49,12984.3L3963.49,12985.1L3963.5,12985.9L3963.51,12986.7L3963.52,12987.5L3963.53,12988.3L3963.55,12989.1L3963.57,12989.9L3963.59,12990.7L3963.61,12991.5L3963.64,12992.3L3963.67,12993L3963.7,12993.8L3963.73,12994.6L3963.77,12995.4L3963.81,12996.2L3963.85,12997L3963.89,12997.8L3963.94,12998.5L3963.99,12999.3L3964.04,13000.1L3964.09,13000.9L3964.14,13001.7L3964.2,13002.5L3964.26,13003.2L3964.33,13004L3964.39,13004.8L3964.46,13005.6L3964.53,13006.3L3964.6,13007.1L3964.68,13007.9L3964.76,13008.7L3964.84,13009.5L3964.92,13010.2L3965,13011L3965.09,13011.8L3965.18,13012.5L3965.27,13013.3L3965.37,13014.1L3965.46,13014.9L3965.56,13015.6L3965.66,13016.4L3965.76,13017.2L3965.87,13017.9L3965.98,13018.7L3966.09,13019.5L3966.2,13020.2L3966.32,13021L3966.44,13021.7L3966.56,13022.5L3966.68,13023.3L3966.8,13024L3966.93,13024.8L3967.06,13025.5L3967.19,13026.3L3967.33,13027.1L3967.46,13027.8L3967.6,13028.6L3967.74,13029.3L3967.89,13030.1L3968.03,13030.8L3968.18,13031.6L3968.33,13032.3L3968.48,13033.1L3968.64,13033.8L3968.79,13034.6L3968.95,13035.3L3969.11,13036.1L3969.28,13036.8L3969.44,13037.6L3969.61,13038.3L3969.78,13039.1L3969.95,13039.8L3970.13,13040.5L3970.31,13041.3L3970.49,13042L3970.67,13042.8L3970.85,13043.5L3971.04,13044.2L3971.23,13045L3971.42,13045.7L3971.61,13046.5L3971.81,13047.2L3972,13047.9L3972.2,13048.7L3972.4,13049.4L3972.61,13050.1L3972.81,13050.8L3973.02,13051.6L3973.23,13052.3L3973.44,13053L3973.66,13053.8L3973.88,13054.5L3974.09,13055.2L3974.32,13055.9L3974.54,13056.6L3974.76,13057.4L3974.99,13058.1L3975.22,13058.8L3975.45,13059.5L3975.69,13060.2L3975.93,13061L3976.16,13061.7L3976.4,13062.4L3976.65,13063.1L3976.89,13063.8L3977.14,13064.5L3977.39,13065.2L3977.64,13066L3977.89,13066.7L3978.15,13067.4L3978.4,13068.1L3978.66,13068.8L3978.93,13069.5L3979.19,13070.2L3979.45,13070.9L3979.72,13071.6L3979.99,13072.3L3980.26,13073L3980.54,13073.7L3980.82,13074.4L3981.09,13075.1L3981.37,13075.8L3981.66,13076.5L3981.94,13077.2L3982.23,13077.9L3982.52,13078.5L3982.81,13079.2L3983.1,13079.9L3983.39,13080.6L3983.69,13081.3L3983.99,13082L3984.29,13082.7L3984.59,13083.4L3984.9,13084L3985.2,13084.7L3985.51,13085.4L3985.82,13086.1L3986.14,13086.8L3986.45,13087.4L3986.77,13088.1L3987.09,13088.8L3987.41,13089.5L3987.73,13090.1L3988.05,13090.8L3988.38,13091.5L3988.71,13092.1L3989.04,13092.8L3989.37,13093.5L3989.71,13094.1L3990.04,13094.8L3990.38,13095.5L3990.72,13096.1L3991.07,13096.8L3991.41,13097.4L3991.76,13098.1L3992.1,13098.8L3992.45,13099.4L3992.81,13100.1L3993.16,13100.7L3993.51,13101.4L3993.87,13102L3994.23,13102.7L3994.59,13103.3L3994.96,13104L3995.32,13104.6L3995.69,13105.3L3996.06,13105.9L3996.43,13106.6L3996.8,13107.2L3997.18,13107.8L3997.55,13108.5L3997.93,13109.1L3998.31,13109.8L3998.7,13110.4L3999.08,13111L3999.47,13111.7L3999.85,13112.3L4000.24,13112.9L4000.63,13113.5L4001.03,13114.2L4001.42,13114.8L4001.82,13115.4L4002.22,13116.1L4002.62,13116.7L4003.02,13117.3L4003.43,13117.9L4003.83,13118.5L4004.24,13119.2L4004.65,13119.8L4005.06,13120.4L4005.47,13121L4005.89,13121.6L4006.31,13122.2L4006.72,13122.8L4007.15,13123.4L4007.57,13124.1L4007.99,13124.7L4008.42,13125.3L4008.85,13125.9L4009.28,13126.5L4009.71,13127.1L4010.14,13127.7L4010.57,13128.3L4011.01,13128.9L4011.45,13129.5L4011.89,13130L4012.33,13130.6L4012.77,13131.2L4013.22,13131.8L4013.66,13132.4L4014.11,13133L4014.56,13133.6L4015.02,13134.2L4015.47,13134.7L4015.93,13135.3L4016.38,13135.9L4016.84,13136.5L4017.3,13137.1L4017.76,13137.6L4018.23,13138.2L4018.69,13138.8L4019.16,13139.4L4019.63,13139.9L4020.1,13140.5L4020.57,13141.1L4021.05,13141.6L4021.52,13142.2L4022,13142.8L4022.48,13143.3L4022.96,13143.9L4023.44,13144.4L4023.92,13145L4024.41,13145.5L4024.9,13146.1L4025.39,13146.7L4025.88,13147.2L4026.37,13147.8L4026.86,13148.3L4027.36,13148.9L4027.85,13149.4L4028.35,13149.9L4028.85,13150.5L4029.35,13151L4029.86,13151.6L4030.36,13152.1L4030.87,13152.6L4031.38,13153.2L4031.89,13153.7L4032.4,13154.2L4032.91,13154.8L4033.43,13155.3L4033.94,13155.8L4034.46,13156.3L4034.98,13156.9L4035.5,13157.4L4036.02,13157.9L4036.55,13158.4L4037.07,13158.9L4037.6,13159.5L4038.12,13160L4038.66,13160.5L4039.19,13161L4039.72,13161.5L4040.25,13162L4040.79,13162.5L4041.33,13163L4041.87,13163.5L4042.41,13164L4042.95,13164.5L4043.49,13165L4044.04,13165.5L4044.58,13166L4045.13,13166.5L4045.68,13167L4046.23,13167.5L4046.79,13168L4047.34,13168.5L4047.89,13169L4048.45,13169.4L4049.01,13169.9L4049.57,13170.4L4050.13,13170.9L4050.69,13171.4L4051.26,13171.8L4051.82,13172.3L4052.39,13172.8L4052.96,13173.3L4053.53,13173.7L4054.1,13174.2L4054.67,13174.7L4055.25,13175.1L4055.82,13175.6L4056.4,13176L4056.98,13176.5L4057.56,13177L4058.14,13177.4L4058.72,13177.9L4059.31,13178.3L4059.89,13178.8L4060.48,13179.2L4061.07,13179.7L4061.66,13180.1L4062.25,13180.6L4062.84,13181L4063.43,13181.4L4064.03,13181.9L4064.63,13182.3L4065.22,13182.7L4065.82,13183.2L4066.42,13183.6L4067.03,13184L4067.63,13184.5L4068.23,13184.9L4068.84,13185.3L4069.45,13185.7L4070.05,13186.2L4070.66,13186.6L4071.28,13187L4071.89,13187.4L4072.5,13187.8L4073.12,13188.2L4073.73,13188.6L4074.35,13189.1L4074.97,13189.5L4075.59,13189.9L4076.21,13190.3L4076.84,13190.7L4077.46,13191.1L4078.08,13191.5L4078.71,13191.9L4079.34,13192.3L4079.97,13192.6L4080.6,13193L4081.23,13193.4L4081.86,13193.8L4082.5,13194.2L4083.13,13194.6L4083.77,13195L4084.41,13195.3L4085.05,13195.7L4085.69,13196.1L4086.33,13196.5L4086.97,13196.8L4087.62,13197.2L4088.26,13197.6L4088.91,13197.9L4089.56,13198.3L4090.2,13198.7L4090.86,13199L4091.51,13199.4L4092.16,13199.7L4092.81,13200.1L4093.47,13200.4L4094.12,13200.8L4094.78,13201.1L4095.44,13201.5L4096.1,13201.8L4096.76,13202.2L4097.42,13202.5L4098.09,13202.8L4098.75,13203.2L4099.42,13203.5L4100.08,13203.8L4100.75,13204.2L4101.42,13204.5L4102.09,13204.8L4102.76,13205.2L4103.43,13205.5L4104.11,13205.8L4104.78,13206.1L4105.46,13206.4L4106.13,13206.8L4106.81,13207.1L4107.49,13207.4L4108.17,13207.7L4108.85,13208L4109.53,13208.3L4110.22,13208.6L4110.9,13208.9L4111.59,13209.2L4112.27,13209.5L4112.96,13209.8L4113.65,13210.1L4114.34,13210.4L4115.03,13210.7L4115.72,13210.9L4116.42,13211.2L4117.11,13211.5L4117.81,13211.8L4118.5,13212.1L4119.2,13212.3L4119.9,13212.6L4120.6,13212.9L4121.3,13213.2L4122,13213.4L4122.7,13213.7L4123.4,13214L4124.11,13214.2L4124.82,13214.5L4125.52,13214.7L4126.23,13215L4126.94,13215.2L4127.65,13215.5L4128.36,13215.8L4129.07,13216L4129.78,13216.2L4130.49,13216.5L4131.21,13216.7L4131.93,13217L4132.64,13217.2L4133.36,13217.4L4134.08,13217.7L4134.8,13217.9L4135.52,13218.1L4136.24,13218.3L4136.96,13218.6L4137.68,13218.8L4138.41,13219L4139.13,13219.2L4139.86,13219.4L4140.59,13219.7L4141.31,13219.9L4142.04,13220.1L4142.77,13220.3L4143.5,13220.5L4144.23,13220.7L4144.97,13220.9L4145.7,13221.1L4146.43,13221.3L4147.17,13221.5L4147.9,13221.7L4148.64,13221.9L4149.38,13222L4150.12,13222.2L4150.86,13222.4L4151.6,13222.6L4152.34,13222.8L4153.08,13222.9L4153.82,13223.1L4154.57,13223.3L4155.31,13223.4L4156.06,13223.6L4156.81,13223.8L4157.55,13223.9L4158.3,13224.1L4159.05,13224.3L4159.8,13224.4L4160.55,13224.6L4161.3,13224.7L4162.05,13224.9L4162.81,13225L4163.56,13225.1L4164.32,13225.3L4165.07,13225.4L4165.83,13225.6L4166.58,13225.7L4167.34,13225.8L4168.1,13226L4168.86,13226.1L4169.62,13226.2L4170.38,13226.3L4171.14,13226.5L4171.91,13226.6L4172.67,13226.7L4173.43,13226.8L4174.2,13226.9L4174.96,13227L4175.73,13227.1L4176.5,13227.2L4177.27,13227.3L4178.03,13227.4L4178.8,13227.5L4179.57,13227.6L4180.35,13227.7L4181.12,13227.8L4181.89,13227.9L4182.66,13228L4183.44,13228.1L4184.21,13228.1L4184.99,13228.2L4185.76,13228.3L4186.54,13228.4L4187.32,13228.4L4188.09,13228.5L4188.87,13228.6L4189.65,13228.6L4190.43,13228.7L4191.21,13228.7L4191.99,13228.8L4192.78,13228.9L4193.56,13228.9L4194.34,13229L4195.13,13229L4195.91,13229L4196.7,13229.1L4197.48,13229.1L4198.27,13229.2L4199.06,13229.2L4199.85,13229.2L4200.64,13229.3L4201.42,13229.3L4202.21,13229.3L4203.01,13229.3L4203.8,13229.3L4204.59,13229.4L4205.38,13229.4L4206.17,13229.4L4206.97,13229.4L4207.76,13229.4L4208.56,13229.4L4209.35,13229.4L4210.15,13229.4L4210.94,13229.4L4211.74,13229.4L4212.53,13229.4L4213.32,13229.4L4214.12,13229.4L4214.91,13229.3L4215.7,13229.3L4216.49,13229.3L4217.28,13229.3L4218.07,13229.3L4218.86,13229.2L4219.65,13229.2L4220.43,13229.2L4221.22,13229.1L4222.01,13229.1L4222.79,13229L4223.58,13229L4224.36,13229L4225.14,13228.9L4225.93,13228.9L4226.71,13228.8L4227.49,13228.7L4228.27,13228.7L4229.05,13228.6L4229.83,13228.6L4230.61,13228.5L4231.39,13228.4L4232.16,13228.4L4232.94,13228.3L4233.72,13228.2L4234.49,13228.1L4235.27,13228.1L4236.04,13228L4236.82,13227.9L4237.59,13227.8L4238.36,13227.7L4239.13,13227.6L4239.9,13227.5L4240.67,13227.4L4241.44,13227.3L4242.21,13227.2L4242.97,13227.1L4243.74,13227L4244.51,13226.9L4245.27,13226.8L4246.03,13226.7L4246.8,13226.6L4247.56,13226.5L4248.32,13226.3L4249.08,13226.2L4249.84,13226.1L4250.6,13226L4251.36,13225.8L4252.12,13225.7L4252.88,13225.6L4253.63,13225.4L4254.39,13225.3L4255.14,13225.1L4255.9,13225L4256.65,13224.9L4257.4,13224.7L4258.15,13224.6L4258.9,13224.4L4259.65,13224.3L4260.4,13224.1L4261.15,13223.9L4261.9,13223.8L4262.65,13223.6L4263.39,13223.4L4264.14,13223.3L4264.88,13223.1L4265.62,13222.9L4266.36,13222.8L4267.11,13222.6L4267.85,13222.4L4268.59,13222.2L4269.32,13222L4270.06,13221.9L4270.8,13221.7L4271.53,13221.5L4272.27,13221.3L4273,13221.1L4273.74,13220.9L4274.47,13220.7L4275.2,13220.5L4275.93,13220.3L4276.66,13220.1L4277.39,13219.9L4278.12,13219.7L4278.85,13219.4L4279.57,13219.2L4280.3,13219L4281.02,13218.8L4281.74,13218.6L4282.47,13218.3L4283.19,13218.1L4283.91,13217.9L4284.63,13217.7L4285.35,13217.4L4286.06,13217.2L4286.78,13217L4287.49,13216.7L4288.21,13216.5L4288.92,13216.2L4289.63,13216L4290.35,13215.8L4291.06,13215.5L4291.77,13215.2L4292.47,13215L4293.18,13214.7L4293.89,13214.5L4294.59,13214.2L4295.3,13214L4296,13213.7L4296.7,13213.4L4297.41,13213.2L4298.11,13212.9L4298.81,13212.6L4299.5,13212.3L4300.2,13212.1L4300.9,13211.8L4301.59,13211.5L4302.29,13211.2L4302.98,13210.9L4303.67,13210.7L4304.36,13210.4L4305.05,13210.1L4305.74,13209.8L4306.43,13209.5L4307.12,13209.2L4307.8,13208.9L4308.49,13208.6L4309.17,13208.3L4309.85,13208L4310.53,13207.7L4311.21,13207.4L4311.89,13207.1L4312.57,13206.8L4313.25,13206.4L4313.92,13206.1L4314.6,13205.8L4315.27,13205.5L4315.94,13205.2L4316.61,13204.8L4317.28,13204.5L4317.95,13204.2L4318.62,13203.8L4319.29,13203.5L4319.95,13203.2L4320.62,13202.8L4321.28,13202.5L4321.94,13202.2L4322.6,13201.8L4323.26,13201.5L4323.92,13201.1L4324.58,13200.8L4325.23,13200.4L4325.89,13200.1L4326.54,13199.7L4327.2,13199.4L4327.85,13199L4328.5,13198.7L4329.15,13198.3L4329.8,13197.9L4330.44,13197.6L4331.09,13197.2L4331.73,13196.8L4332.37,13196.5L4333.02,13196.1L4333.66,13195.7L4334.3,13195.3L4334.93,13195L4335.57,13194.6L4336.21,13194.2L4336.84,13193.8L4337.47,13193.4L4338.11,13193L4338.73,13192.6L4339.36,13192.3L4339.99,13191.9L4340.62,13191.5L4341.24,13191.1L4341.87,13190.7L4342.49,13190.3L4343.11,13189.9L4343.73,13189.5L4344.35,13189.1L4344.97,13188.6L4345.59,13188.2L4346.2,13187.8L4346.82,13187.4L4347.43,13187L4348.04,13186.6L4348.65,13186.2L4349.26,13185.7L4349.86,13185.3L4350.47,13184.9L4351.07,13184.5L4351.68,13184L4352.28,13183.6L4352.88,13183.2L4353.48,13182.7L4354.08,13182.3L4354.67,13181.9L4355.27,13181.4L4355.86,13181L4356.45,13180.6L4357.05,13180.1L4357.64,13179.7L4358.22,13179.2L4358.81,13178.8L4359.4,13178.3L4359.98,13177.9L4360.56,13177.4L4361.14,13177L4361.72,13176.5L4362.3,13176L4362.88,13175.6L4363.45,13175.1L4364.03,13174.7L4364.6,13174.2L4365.17,13173.7L4365.74,13173.3L4366.31,13172.8L4366.88,13172.3L4367.44,13171.8L4368.01,13171.4L4368.57,13170.9L4369.13,13170.4L4369.69,13169.9L4370.25,13169.4L4370.81,13169L4371.36,13168.5L4371.92,13168L4372.47,13167.5L4373.02,13167L4373.57,13166.5L4374.12,13166L4374.66,13165.5L4375.21,13165L4375.75,13164.5L4376.3,13164L4376.84,13163.5L4377.38,13163L4377.91,13162.5L4378.45,13162L4378.98,13161.5L4379.52,13161L4380.05,13160.5L4380.58,13160L4381.11,13159.5L4381.63,13158.9L4382.16,13158.4L4382.68,13157.9L4383.2,13157.4L4383.73,13156.9L4384.24,13156.3L4384.76,13155.8L4385.28,13155.3L4385.79,13154.8L4386.31,13154.2L4386.82,13153.7L4387.33,13153.2L4387.83,13152.6L4388.34,13152.1L4388.85,13151.6L4389.35,13151L4389.85,13150.5L4390.35,13149.9L4390.85,13149.4L4391.35,13148.9L4391.84,13148.3L4392.34,13147.8L4392.83,13147.2L4393.32,13146.7L4393.81,13146.1L4394.29,13145.5L4394.78,13145L4395.26,13144.4L4395.74,13143.9L4396.23,13143.3L4396.7,13142.8L4397.18,13142.2L4397.66,13141.6L4398.13,13141.1L4398.6,13140.5L4399.07,13139.9L4399.54,13139.4L4400.01,13138.8L4400.48,13138.2L4400.94,13137.6L4401.4,13137.1L4401.86,13136.5L4402.32,13135.9L4402.78,13135.3L4403.23,13134.7L4403.69,13134.2L4404.14,13133.6L4404.59,13133L4405.04,13132.4L4405.48,13131.8L4405.93,13131.2L4406.37,13130.6L4406.82,13130L4407.26,13129.5L4407.69,13128.9L4408.13,13128.3L4408.56,13127.7L4409,13127.1L4409.43,13126.5L4409.86,13125.9L4410.28,13125.3L4410.71,13124.7L4411.14,13124.1L4411.56,13123.4L4411.98,13122.8L4412.4,13122.2L4412.81,13121.6L4413.23,13121L4413.64,13120.4L4414.05,13119.8L4414.46,13119.2L4414.87,13118.5L4415.28,13117.9L4415.68,13117.3L4416.08,13116.7L4416.48,13116.1L4416.88,13115.4L4417.28,13114.8L4417.68,13114.2L4418.07,13113.5L4418.46,13112.9L4418.85,13112.3L4419.24,13111.7L4419.62,13111L4420.01,13110.4L4420.39,13109.8L4420.77,13109.1L4421.15,13108.5L4421.53,13107.8L4421.9,13107.2L4422.27,13106.6L4422.64,13105.9L4423.01,13105.3L4423.38,13104.6L4423.75,13104L4424.11,13103.3L4424.47,13102.7L4424.83,13102L4425.19,13101.4L4425.54,13100.7L4425.9,13100.1L4426.25,13099.4L4426.6,13098.8L4426.95,13098.1L4427.29,13097.4L4427.64,13096.8L4427.98,13096.1L4428.32,13095.5L4428.66,13094.8L4429,13094.1L4429.33,13093.5L4429.66,13092.8L4429.99,13092.1L4430.32,13091.5L4430.65,13090.8L4430.97,13090.1L4431.3,13089.5L4431.62,13088.8L4431.94,13088.1L4432.25,13087.4L4432.57,13086.8L4432.88,13086.1L4433.19,13085.4L4433.5,13084.7L4433.81,13084L4434.11,13083.4L4434.41,13082.7L4434.71,13082L4435.01,13081.3L4435.31,13080.6L4435.6,13079.9L4435.9,13079.2L4436.19,13078.5L4436.48,13077.9L4436.76,13077.2L4437.05,13076.5L4437.33,13075.8L4437.61,13075.1L4437.89,13074.4L4438.16,13073.7L4438.44,13073L4438.71,13072.3L4438.98,13071.6L4439.25,13070.9L4439.51,13070.2L4439.78,13069.5L4440.04,13068.8L4440.3,13068.1L4440.56,13067.4L4440.81,13066.7L4441.07,13066L4441.32,13065.2L4441.57,13064.5L4441.81,13063.8L4442.06,13063.1L4442.3,13062.4L4442.54,13061.7L4442.78,13061L4443.01,13060.2L4443.25,13059.5L4443.48,13058.8L4443.71,13058.1L4443.94,13057.4L4444.16,13056.6L4444.39,13055.9L4444.61,13055.2L4444.83,13054.5L4445.04,13053.8L4445.26,13053L4445.47,13052.3L4445.68,13051.6L4445.89,13050.8L4446.1,13050.1L4446.3,13049.4L4446.5,13048.7L4446.7,13047.9L4446.9,13047.2L4447.09,13046.5L4447.29,13045.7L4447.48,13045L4447.66,13044.2L4447.85,13043.5L4448.03,13042.8L4448.22,13042L4448.4,13041.3L4448.57,13040.5L4448.75,13039.8L4448.92,13039.1L4449.09,13038.3L4449.26,13037.6L4449.43,13036.8L4449.59,13036.1L4449.75,13035.3L4449.91,13034.6L4450.07,13033.8L4450.22,13033.1L4450.37,13032.3L4450.52,13031.6L4450.67,13030.8L4450.82,13030.1L4450.96,13029.3L4451.1,13028.6L4451.24,13027.8L4451.38,13027.1L4451.51,13026.3L4451.64,13025.5L4451.77,13024.8L4451.9,13024L4452.02,13023.3L4452.15,13022.5L4452.27,13021.7L4452.38,13021L4452.5,13020.2L4452.61,13019.5L4452.72,13018.7L4452.83,13017.9L4452.94,13017.2L4453.04,13016.4L4453.14,13015.6L4453.24,13014.9L4453.34,13014.1L4453.43,13013.3L4453.52,13012.5L4453.61,13011.8L4453.7,13011L4453.78,13010.2L4453.87,13009.5L4453.95,13008.7L4454.03,13007.9L4454.1,13007.1L4454.17,13006.3L4454.24,13005.6L4454.31,13004.8L4454.38,13004L4454.44,13003.2L4454.5,13002.5L4454.56,13001.7L4454.61,13000.9L4454.67,13000.1L4454.72,12999.3L4454.77,12998.5L4454.81,12997.8L4454.86,12997L4454.9,12996.2L4454.94,12995.4L4454.97,12994.6L4455.01,12993.8L4455.04,12993L4455.07,12992.3L4455.09,12991.5L4455.11,12990.7L4455.14,12989.9L4455.15,12989.1L4455.17,12988.3L4455.19,12987.5L4455.2,12986.7L4455.2,12985.9L4455.21,12985.1L4455.22,12984.3L4455.22,12983.5L4455.22,12982.7L4455.21,12981.9L4455.2,12981.2L4455.2,12980.4L4455.19,12979.6L4455.17,12978.8L4455.15,12978L4455.14,12977.2L4455.11,12976.4L4455.09,12975.6L4455.07,12974.8L4455.04,12974L4455.01,12973.2L4454.97,12972.5L4454.94,12971.7L4454.9,12970.9L4454.86,12970.1L4454.81,12969.3L4454.77,12968.5L4454.72,12967.7L4454.67,12967L4454.61,12966.2L4454.56,12965.4L4454.5,12964.6L4454.44,12963.8L4454.38,12963.1L4454.31,12962.3L4454.24,12961.5L4454.17,12960.7L4454.1,12959.9L4454.03,12959.2L4453.95,12958.4L4453.87,12957.6L4453.78,12956.8L4453.7,12956.1L4453.61,12955.3L4453.52,12954.5L4453.43,12953.8L4453.34,12953L4453.24,12952.2L4453.14,12951.5L4453.04,12950.7L4452.94,12949.9L4452.83,12949.1L4452.72,12948.4L4452.61,12947.6L4452.5,12946.9L4452.38,12946.1L4452.27,12945.3L4452.15,12944.6L4452.02,12943.8L4451.9,12943L4451.77,12942.3L4451.64,12941.5L4451.51,12940.8L4451.38,12940L4451.24,12939.3L4451.1,12938.5L4450.96,12937.7L4450.82,12937L4450.67,12936.2L4450.52,12935.5L4450.37,12934.7L4450.22,12934L4450.07,12933.2L4449.91,12932.5L4449.75,12931.7L4449.59,12931L4449.43,12930.2L4449.26,12929.5L4449.09,12928.8L4448.92,12928L4448.75,12927.3L4448.57,12926.5L4448.4,12925.8L4448.22,12925L4448.03,12924.3L4447.85,12923.6L4447.66,12922.8L4447.48,12922.1L4447.29,12921.4L4447.09,12920.6L4446.9,12919.9L4446.7,12919.1L4446.5,12918.4L4446.3,12917.7L4446.1,12917L4445.89,12916.2L4445.68,12915.5L4445.47,12914.8L4445.26,12914L4445.04,12913.3L4444.83,12912.6L4444.61,12911.9L4444.39,12911.1L4444.16,12910.4L4443.94,12909.7L4443.71,12909L4443.48,12908.3L4443.25,12907.5L4443.01,12906.8L4442.78,12906.1L4442.54,12905.4L4442.3,12904.7L4442.06,12904L4441.81,12903.3L4441.57,12902.5L4441.32,12901.8L4441.07,12901.1L4440.81,12900.4L4440.56,12899.7L4440.3,12899L4440.04,12898.3L4439.78,12897.6L4439.51,12896.9L4439.25,12896.2L4438.98,12895.5L4438.71,12894.8L4438.44,12894.1L4438.16,12893.4L4437.89,12892.7L4437.61,12892L4437.33,12891.3L4437.05,12890.6L4436.76,12889.9L4436.48,12889.2L4436.19,12888.5L4435.9,12887.8L4435.6,12887.1L4435.31,12886.5L4435.01,12885.8L4434.71,12885.1L4434.41,12884.4L4434.11,12883.7L4433.81,12883L4433.5,12882.4L4433.19,12881.7L4432.88,12881L4432.57,12880.3L4432.25,12879.6L4431.94,12879L4431.62,12878.3L4431.3,12877.6L4430.97,12876.9L4430.65,12876.3L4430.32,12875.6L4429.99,12874.9L4429.66,12874.3L4429.33,12873.6L4429,12872.9L4428.66,12872.3L4428.32,12871.6L4427.98,12870.9L4427.64,12870.3L4427.29,12869.6L4426.95,12869L4426.6,12868.3L4426.25,12867.7L4425.9,12867L4425.54,12866.3L4425.19,12865.7L4424.83,12865L4424.47,12864.4L4424.11,12863.7L4423.75,12863.1L4423.38,12862.4L4423.01,12861.8L4422.64,12861.2L4422.27,12860.5L4421.9,12859.9L4421.53,12859.2L4421.15,12858.6L4420.77,12858L4420.39,12857.3L4420.01,12856.7L4419.62,12856L4419.24,12855.4L4418.85,12854.8L4418.46,12854.2L4418.07,12853.5L4417.68,12852.9L4417.28,12852.3L4416.88,12851.6L4416.48,12851L4416.08,12850.4L4415.68,12849.8L4415.28,12849.2L4414.87,12848.5L4414.46,12847.9L4414.05,12847.3L4413.64,12846.7L4413.23,12846.1L4412.81,12845.5L4412.4,12844.8L4411.98,12844.2L4411.56,12843.6L4411.14,12843L4410.71,12842.4L4410.28,12841.8L4409.86,12841.2L4409.43,12840.6L4409,12840L4408.56,12839.4L4408.13,12838.8L4407.69,12838.2L4407.26,12837.6L4406.82,12837L4406.37,12836.4L4405.93,12835.8L4405.48,12835.3L4405.04,12834.7L4404.59,12834.1L4404.14,12833.5L4403.69,12832.9L4403.23,12832.3L4402.78,12831.7L4402.32,12831.2L4401.86,12830.6L4401.4,12830L4400.94,12829.4L4400.48,12828.9L4400.01,12828.3L4399.54,12827.7L4399.07,12827.1L4398.6,12826.6L4398.13,12826L4397.66,12825.4L4397.18,12824.9L4396.7,12824.3L4396.23,12823.8L4395.74,12823.2L4395.26,12822.6L4394.78,12822.1L4394.29,12821.5L4393.81,12821L4393.32,12820.4L4392.83,12819.9L4392.34,12819.3L4391.84,12818.8L4391.35,12818.2L4390.85,12817.7L4390.35,12817.1L4389.85,12816.6L4389.35,12816.1L4388.85,12815.5L4388.34,12815L4387.83,12814.4L4387.33,12813.9L4386.82,12813.4L4386.31,12812.8L4385.79,12812.3L4385.28,12811.8L4384.76,12811.3L4384.24,12810.7L4383.73,12810.2L4383.2,12809.7L4382.68,12809.2L4382.16,12808.6L4381.63,12808.1L4381.11,12807.6L4380.58,12807.1L4380.05,12806.6L4379.52,12806.1L4378.98,12805.6L4378.45,12805.1L4377.91,12804.5L4377.38,12804L4376.84,12803.5L4376.3,12803L4375.75,12802.5L4375.21,12802L4374.66,12801.5L4374.12,12801L4373.57,12800.6L4373.02,12800.1L4372.47,12799.6L4371.92,12799.1L4371.36,12798.6L4370.81,12798.1L4370.25,12797.6L4369.69,12797.1L4369.13,12796.7L4368.57,12796.2L4368.01,12795.7L4367.44,12795.2L4366.88,12794.8L4366.31,12794.3L4365.74,12793.8L4365.17,12793.3L4364.6,12792.9L4364.03,12792.4L4363.45,12791.9L4362.88,12791.5L4362.3,12791L4361.72,12790.6L4361.14,12790.1L4360.56,12789.7L4359.98,12789.2L4359.4,12788.8L4358.81,12788.3L4358.22,12787.9L4357.64,12787.4L4357.05,12787L4356.45,12786.5L4355.86,12786.1L4355.27,12785.6L4354.67,12785.2L4354.08,12784.8L4353.48,12784.3L4352.88,12783.9L4352.28,12783.5L4351.68,12783L4351.07,12782.6L4350.47,12782.2L4349.86,12781.8L4349.26,12781.3L4348.65,12780.9L4348.04,12780.5L4347.43,12780.1L4346.82,12779.7L4346.2,12779.2L4345.59,12778.8L4344.97,12778.4L4344.35,12778L4343.73,12777.6L4343.11,12777.2L4342.49,12776.8L4341.87,12776.4L4341.24,12776L4340.62,12775.6L4339.99,12775.2L4339.36,12774.8L4338.73,12774.4L4338.11,12774L4337.47,12773.7L4336.84,12773.3L4336.21,12772.9L4335.57,12772.5L4334.93,12772.1L4334.3,12771.7L4333.66,12771.4L4333.02,12771L4332.37,12770.6L4331.73,12770.2L4331.09,12769.9L4330.44,12769.5L4329.8,12769.1L4329.15,12768.8L4328.5,12768.4L4327.85,12768.1L4327.2,12767.7L4326.54,12767.3L4325.89,12767L4325.23,12766.6L4324.58,12766.3L4323.92,12765.9L4323.26,12765.6L4322.6,12765.3L4321.94,12764.9L4321.28,12764.6L4320.62,12764.2L4319.95,12763.9L4319.29,12763.6L4318.62,12763.2L4317.95,12762.9L4317.28,12762.6L4316.61,12762.2L4315.94,12761.9L4315.27,12761.6L4314.6,12761.3L4313.92,12761L4313.25,12760.6L4312.57,12760.3L4311.89,12760L4311.21,12759.7L4310.53,12759.4L4309.85,12759.1L4309.17,12758.8L4308.49,12758.5L4307.8,12758.2L4307.12,12757.9L4306.43,12757.6L4305.74,12757.3L4305.05,12757L4304.36,12756.7L4303.67,12756.4L4302.98,12756.1L4302.29,12755.8L4301.59,12755.6L4300.9,12755.3L4300.2,12755L4299.5,12754.7L4298.81,12754.5L4298.11,12754.2L4297.41,12753.9L4296.7,12753.6L4296,12753.4L4295.3,12753.1L4294.59,12752.9L4293.89,12752.6L4293.18,12752.3L4292.47,12752.1L4291.77,12751.8L4291.06,12751.6L4290.35,12751.3L4289.63,12751.1L4288.92,12750.8L4288.21,12750.6L4287.49,12750.3L4286.78,12750.1L4286.06,12749.9L4285.35,12749.6L4284.63,12749.4L4283.91,12749.2L4283.19,12749L4282.47,12748.7L4281.74,12748.5L4281.02,12748.3L4280.3,12748.1L4279.57,12747.8L4278.85,12747.6L4278.12,12747.4L4277.39,12747.2L4276.66,12747L4275.93,12746.8L4275.2,12746.6L4274.47,12746.4L4273.74,12746.2L4273,12746L4272.27,12745.8L4271.53,12745.6L4270.8,12745.4L4270.06,12745.2L4269.32,12745L4268.59,12744.9L4267.85,12744.7L4267.11,12744.5L4266.36,12744.3L4265.62,12744.1L4264.88,12744L4264.14,12743.8L4263.39,12743.6L4262.65,12743.5L4261.9,12743.3L4261.15,12743.1L4260.4,12743L4259.65,12742.8L4258.9,12742.7L4258.15,12742.5L4257.4,12742.4L4256.65,12742.2L4255.9,12742.1L4255.14,12741.9L4254.39,12741.8L4253.63,12741.6L4252.88,12741.5L4252.12,12741.4L4251.36,12741.2L4250.6,12741.1L4249.84,12741L4249.08,12740.9L4248.32,12740.7L4247.56,12740.6L4246.8,12740.5L4246.03,12740.4L4245.27,12740.3L4244.51,12740.2L4243.74,12740.1L4242.97,12740L4242.21,12739.8L4241.44,12739.7L4240.67,12739.6L4239.9,12739.6L4239.13,12739.5L4238.36,12739.4L4237.59,12739.3L4236.82,12739.2L4236.04,12739.1L4235.27,12739L4234.49,12738.9L4233.72,12738.9L4232.94,12738.8L4232.16,12738.7L4231.39,12738.6L4230.61,12738.6L4229.83,12738.5L4229.05,12738.5L4228.27,12738.4L4227.49,12738.3L4226.71,12738.3L4225.93,12738.2L4225.14,12738.2L4224.36,12738.1L4223.58,12738.1L4222.79,12738L4222.01,12738L4221.22,12738L4220.43,12737.9L4219.65,12737.9L4218.86,12737.9L4218.07,12737.8L4217.28,12737.8L4216.49,12737.8L4215.7,12737.8L4214.91,12737.7L4214.12,12737.7L4213.32,12737.7L4212.53,12737.7L4211.74,12737.7L4210.94,12737.7L4210.15,12737.7L4209.35,12737.7L4208.56,12737.7Z" style="fill:rgb(39,62,69);"/>
            </g>
            <g transform="matrix(1,0,0,1,0,-770)">
                <path d="M4287.78,12949.4C4280.82,12954 4278.9,12963.4 4283.51,12970.4L4285.05,12973.2L4272.76,12958.3C4267.4,12950.8 4256.97,12949 4249.45,12954.4C4241.92,12959.8 4240.19,12970.2 4245.55,12977.7L4253.95,12991.8L4234.63,12968.9C4228.97,12961.6 4218.47,12960.2 4211.17,12965.9C4203.89,12971.6 4202.55,12982.1 4208.22,12989.4L4225.62,13014L4158.95,12945.1C4152.53,12938.5 4141.94,12938.3 4135.31,12944.7C4128.74,12951.1 4128.49,12961.7 4134.91,12968.3L4210.18,13046.2C4210.85,13046.9 4211.57,13047.5 4212.3,13048C4223.96,13059.1 4244.65,13085 4225.36,13088L4176.59,13084.2C4166.52,13083.4 4157.7,13090.9 4156.91,13101C4156.12,13111.1 4163.65,13119.9 4173.73,13120.7L4223.45,13124.6C4224.82,13124.9 4226.25,13125.2 4227.78,13125.4C4268.31,13132.2 4294.88,13136 4309.67,13129.9C4323.12,13124.4 4361.11,13095.3 4365.98,13074.4C4370.35,13055.7 4343.69,13008.4 4326.69,12981.3C4326.34,12980.4 4325.91,12979.6 4325.39,12978.9L4308.75,12953.7C4304.14,12946.7 4294.76,12944.8 4287.78,12949.4" style="fill:rgb(3,157,79);fill-rule:nonzero;"/>
            </g>
            <g transform="matrix(1,0,0,1,0,-5600)">
                <path d="M3980.22,17842.5L4158.07,17842.5L4166.41,17851.1L3981.46,17851.1C3980.99,17848.2 3980.58,17845.3 3980.22,17842.5ZM3989.39,17743L4023.61,17743C4031.97,17743 4038.74,17749.8 4038.74,17758.1L4038.74,17806C4038.74,17814.3 4031.97,17821.1 4023.61,17821.1L3978.54,17821.1C3978.46,17818.6 3978.42,17816.1 3978.42,17813.5C3978.42,17788.9 3982.27,17765.2 3989.39,17743ZM4137.45,17821.1L4068.96,17821.1C4060.61,17821.1 4053.83,17814.3 4053.83,17806L4053.83,17758.1C4053.83,17749.8 4060.61,17743 4068.96,17743L4174.51,17743C4182.87,17743 4189.65,17749.8 4189.65,17758.1L4189.65,17786.7L4169.02,17765.4C4163.18,17759.3 4155.33,17756 4146.93,17756C4138.91,17756 4131.32,17759.1 4125.54,17764.7C4113.4,17776.5 4113.08,17795.9 4124.84,17808.1L4137.45,17821.1ZM4067.35,17631.4L4184.11,17631.4C4205.62,17631.4 4223.06,17648.9 4223.06,17670.4L4223.06,17778.5C4222.51,17778.4 4221.97,17778.4 4221.41,17778.4C4219.06,17778.4 4216.72,17778.7 4214.44,17779.2L4214.44,17714.4L4000.72,17714.4C4016.24,17681.8 4039.17,17653.4 4067.35,17631.4ZM4156.34,17664.1L4162.44,17658L4173.44,17669L4184.44,17658L4190.54,17664.1L4179.54,17675.1L4190.54,17686.1L4184.44,17692.2L4173.44,17681.2L4162.44,17692.2L4156.34,17686.1L4167.34,17675.1L4156.34,17664.1Z" style="fill:rgb(3,157,79);"/>
            </g>
        </g>
    </g>
</svg>
