<?xml version="1.0" encoding="UTF-8" standalone="no"?>
<!DOCTYPE svg PUBLIC "-//W3C//DTD SVG 1.1//EN" "http://www.w3.org/Graphics/SVG/1.1/DTD/svg11.dtd">
<svg width="100%" height="100%" viewBox="0 0 509 508" version="1.1" xmlns="http://www.w3.org/2000/svg" xmlns:xlink="http://www.w3.org/1999/xlink" xml:space="preserve" style="fill-rule:evenodd;clip-rule:evenodd;stroke-linejoin:round;stroke-miterlimit:1.41421;">
    <g id="Artboard1" transform="matrix(1.00688,0,0,1.00921,-0.760826,-0.98341)">
        <rect x="0.756" y="0.974" width="504.692" height="502.416" style="fill:none;"/>
        <g transform="matrix(0.993167,0,0,0.990878,-5232.98,-11849.6)">
            <g transform="matrix(1,0,0,1,0,-770)">
                <path d="M5524.57,12732.7L5525.38,12732.7L5526.19,12732.7L5527,12732.7L5527.81,12732.7L5528.62,12732.7L5529.43,12732.7L5530.23,12732.8L5531.04,12732.8L5531.85,12732.8L5532.65,12732.8L5533.46,12732.9L5534.26,12732.9L5535.06,12732.9L5535.87,12733L5536.67,12733L5537.47,12733L5538.27,12733.1L5539.07,12733.1L5539.87,12733.2L5540.67,12733.2L5541.47,12733.3L5542.26,12733.3L5543.06,12733.4L5543.86,12733.5L5544.65,12733.5L5545.45,12733.6L5546.24,12733.7L5547.03,12733.7L5547.82,12733.8L5548.62,12733.9L5549.41,12734L5550.2,12734L5550.99,12734.1L5551.78,12734.2L5552.56,12734.3L5553.35,12734.4L5554.14,12734.5L5554.92,12734.6L5555.71,12734.7L5556.49,12734.8L5557.28,12734.9L5558.06,12735L5558.84,12735.1L5559.62,12735.2L5560.4,12735.3L5561.18,12735.4L5561.96,12735.6L5562.74,12735.7L5563.52,12735.8L5564.29,12735.9L5565.07,12736.1L5565.85,12736.2L5566.62,12736.3L5567.39,12736.5L5568.16,12736.6L5568.94,12736.7L5569.71,12736.9L5570.48,12737L5571.25,12737.2L5572.02,12737.3L5572.78,12737.5L5573.55,12737.6L5574.32,12737.8L5575.08,12737.9L5575.85,12738.1L5576.61,12738.2L5577.37,12738.4L5578.13,12738.6L5578.89,12738.8L5579.65,12738.9L5580.41,12739.1L5581.17,12739.3L5581.93,12739.5L5582.69,12739.6L5583.44,12739.8L5584.2,12740L5584.95,12740.2L5585.7,12740.4L5586.45,12740.6L5587.2,12740.8L5587.95,12741L5588.7,12741.2L5589.45,12741.4L5590.2,12741.6L5590.95,12741.8L5591.69,12742L5592.44,12742.2L5593.18,12742.4L5593.92,12742.6L5594.66,12742.8L5595.41,12743.1L5596.15,12743.3L5596.89,12743.5L5597.62,12743.7L5598.36,12744L5599.1,12744.2L5599.83,12744.4L5600.57,12744.6L5601.3,12744.9L5602.03,12745.1L5602.76,12745.4L5603.49,12745.6L5604.22,12745.9L5604.95,12746.1L5605.68,12746.4L5606.4,12746.6L5607.13,12746.9L5607.85,12747.1L5608.57,12747.4L5609.3,12747.6L5610.02,12747.9L5610.74,12748.2L5611.46,12748.4L5612.17,12748.7L5612.89,12749L5613.61,12749.2L5614.32,12749.5L5615.03,12749.8L5615.75,12750.1L5616.46,12750.4L5617.17,12750.6L5617.88,12750.9L5618.59,12751.2L5619.29,12751.5L5620,12751.8L5620.71,12752.1L5621.41,12752.4L5622.11,12752.7L5622.81,12753L5623.52,12753.3L5624.22,12753.6L5624.91,12753.9L5625.61,12754.2L5626.31,12754.5L5627,12754.8L5627.7,12755.1L5628.39,12755.5L5629.08,12755.8L5629.77,12756.1L5630.46,12756.4L5631.15,12756.8L5631.84,12757.1L5632.52,12757.4L5633.21,12757.7L5633.89,12758.1L5634.57,12758.4L5635.26,12758.7L5635.94,12759.1L5636.61,12759.4L5637.29,12759.8L5637.97,12760.1L5638.65,12760.5L5639.32,12760.8L5639.99,12761.2L5640.66,12761.5L5641.34,12761.9L5642,12762.2L5642.67,12762.6L5643.34,12763L5644.01,12763.3L5644.67,12763.7L5645.33,12764L5646,12764.4L5646.66,12764.8L5647.32,12765.2L5647.98,12765.5L5648.63,12765.9L5649.29,12766.3L5649.94,12766.7L5650.6,12767.1L5651.25,12767.4L5651.9,12767.8L5652.55,12768.2L5653.2,12768.6L5653.85,12769L5654.49,12769.4L5655.14,12769.8L5655.78,12770.2L5656.42,12770.6L5657.06,12771L5657.7,12771.4L5658.34,12771.8L5658.98,12772.2L5659.61,12772.6L5660.25,12773L5660.88,12773.4L5661.51,12773.8L5662.14,12774.3L5662.77,12774.7L5663.4,12775.1L5664.02,12775.5L5664.65,12775.9L5665.27,12776.4L5665.89,12776.8L5666.52,12777.2L5667.14,12777.7L5667.75,12778.1L5668.37,12778.5L5668.98,12779L5669.6,12779.4L5670.21,12779.8L5670.82,12780.3L5671.43,12780.7L5672.04,12781.2L5672.65,12781.6L5673.26,12782.1L5673.86,12782.5L5674.46,12783L5675.06,12783.4L5675.66,12783.9L5676.26,12784.3L5676.86,12784.8L5677.45,12785.3L5678.05,12785.7L5678.64,12786.2L5679.23,12786.6L5679.82,12787.1L5680.41,12787.6L5681,12788.1L5681.59,12788.5L5682.17,12789L5682.75,12789.5L5683.34,12790L5683.91,12790.4L5684.49,12790.9L5685.07,12791.4L5685.65,12791.9L5686.22,12792.4L5686.79,12792.9L5687.36,12793.4L5687.93,12793.8L5688.5,12794.3L5689.07,12794.8L5689.63,12795.3L5690.2,12795.8L5690.76,12796.3L5691.32,12796.8L5691.88,12797.3L5692.44,12797.8L5692.99,12798.4L5693.55,12798.9L5694.1,12799.4L5694.65,12799.9L5695.2,12800.4L5695.75,12800.9L5696.3,12801.4L5696.84,12801.9L5697.39,12802.5L5697.93,12803L5698.47,12803.5L5699.01,12804L5699.55,12804.6L5700.08,12805.1L5700.62,12805.6L5701.15,12806.1L5701.68,12806.7L5702.21,12807.2L5702.74,12807.8L5703.26,12808.3L5703.79,12808.8L5704.31,12809.4L5704.83,12809.9L5705.35,12810.5L5705.87,12811L5706.39,12811.5L5706.9,12812.1L5707.42,12812.6L5707.93,12813.2L5708.44,12813.8L5708.95,12814.3L5709.45,12814.9L5709.96,12815.4L5710.46,12816L5710.97,12816.5L5711.47,12817.1L5711.97,12817.7L5712.46,12818.2L5712.96,12818.8L5713.45,12819.4L5713.94,12819.9L5714.43,12820.5L5714.92,12821.1L5715.41,12821.7L5715.89,12822.2L5716.38,12822.8L5716.86,12823.4L5717.34,12824L5717.82,12824.5L5718.3,12825.1L5718.77,12825.7L5719.24,12826.3L5719.72,12826.9L5720.18,12827.5L5720.65,12828.1L5721.12,12828.7L5721.58,12829.2L5722.05,12829.8L5722.51,12830.4L5722.97,12831L5723.42,12831.6L5723.88,12832.2L5724.33,12832.8L5724.79,12833.4L5725.24,12834L5725.69,12834.6L5726.13,12835.3L5726.58,12835.9L5727.02,12836.5L5727.46,12837.1L5727.9,12837.7L5728.34,12838.3L5728.78,12838.9L5729.21,12839.5L5729.65,12840.2L5730.08,12840.8L5730.51,12841.4L5730.93,12842L5731.36,12842.6L5731.78,12843.3L5732.2,12843.9L5732.62,12844.5L5733.04,12845.2L5733.46,12845.8L5733.87,12846.4L5734.28,12847.1L5734.69,12847.7L5735.1,12848.3L5735.51,12849L5735.91,12849.6L5736.32,12850.2L5736.72,12850.9L5737.12,12851.5L5737.52,12852.2L5737.91,12852.8L5738.31,12853.5L5738.7,12854.1L5739.09,12854.7L5739.48,12855.4L5739.86,12856L5740.25,12856.7L5740.63,12857.4L5741.01,12858L5741.39,12858.7L5741.76,12859.3L5742.14,12860L5742.51,12860.6L5742.88,12861.3L5743.25,12862L5743.62,12862.6L5743.98,12863.3L5744.35,12864L5744.71,12864.6L5745.07,12865.3L5745.42,12866L5745.78,12866.6L5746.13,12867.3L5746.48,12868L5746.83,12868.7L5747.18,12869.3L5747.53,12870L5747.87,12870.7L5748.21,12871.4L5748.55,12872L5748.89,12872.7L5749.22,12873.4L5749.56,12874.1L5749.89,12874.8L5750.22,12875.5L5750.54,12876.1L5750.87,12876.8L5751.19,12877.5L5751.51,12878.2L5751.83,12878.9L5752.15,12879.6L5752.46,12880.3L5752.78,12881L5753.09,12881.7L5753.4,12882.4L5753.7,12883.1L5754.01,12883.8L5754.31,12884.5L5754.61,12885.2L5754.91,12885.9L5755.21,12886.6L5755.5,12887.3L5755.79,12888L5756.08,12888.7L5756.37,12889.4L5756.66,12890.1L5756.94,12890.8L5757.22,12891.6L5757.5,12892.3L5757.78,12893L5758.06,12893.7L5758.33,12894.4L5758.6,12895.1L5758.87,12895.8L5759.14,12896.6L5759.4,12897.3L5759.67,12898L5759.93,12898.7L5760.19,12899.4L5760.44,12900.2L5760.69,12900.9L5760.95,12901.6L5761.2,12902.3L5761.44,12903.1L5761.69,12903.8L5761.93,12904.5L5762.17,12905.3L5762.41,12906L5762.65,12906.7L5762.89,12907.5L5763.12,12908.2L5763.35,12908.9L5763.57,12909.7L5763.8,12910.4L5764.02,12911.2L5764.25,12911.9L5764.47,12912.6L5764.68,12913.4L5764.9,12914.1L5765.11,12914.9L5765.32,12915.6L5765.53,12916.4L5765.73,12917.1L5765.94,12917.8L5766.14,12918.6L5766.34,12919.3L5766.53,12920.1L5766.73,12920.8L5766.92,12921.6L5767.11,12922.3L5767.3,12923.1L5767.48,12923.9L5767.67,12924.6L5767.85,12925.4L5768.03,12926.1L5768.2,12926.9L5768.38,12927.6L5768.55,12928.4L5768.72,12929.2L5768.88,12929.9L5769.05,12930.7L5769.21,12931.5L5769.37,12932.2L5769.53,12933L5769.69,12933.7L5769.84,12934.5L5769.99,12935.3L5770.14,12936L5770.28,12936.8L5770.43,12937.6L5770.57,12938.4L5770.71,12939.1L5770.85,12939.9L5770.98,12940.7L5771.11,12941.5L5771.24,12942.2L5771.37,12943L5771.49,12943.8L5771.61,12944.6L5771.74,12945.3L5771.85,12946.1L5771.97,12946.9L5772.08,12947.7L5772.19,12948.5L5772.3,12949.2L5772.41,12950L5772.51,12950.8L5772.61,12951.6L5772.71,12952.4L5772.81,12953.2L5772.9,12953.9L5772.99,12954.7L5773.08,12955.5L5773.16,12956.3L5773.25,12957.1L5773.33,12957.9L5773.41,12958.7L5773.49,12959.5L5773.56,12960.3L5773.63,12961.1L5773.7,12961.9L5773.77,12962.6L5773.83,12963.4L5773.9,12964.2L5773.95,12965L5774.01,12965.8L5774.07,12966.6L5774.12,12967.4L5774.17,12968.2L5774.21,12969L5774.26,12969.8L5774.3,12970.6L5774.34,12971.4L5774.38,12972.2L5774.41,12973L5774.44,12973.8L5774.47,12974.6L5774.5,12975.4L5774.52,12976.3L5774.54,12977.1L5774.56,12977.9L5774.58,12978.7L5774.59,12979.5L5774.61,12980.3L5774.61,12981.1L5774.62,12981.9L5774.62,12982.7L5774.63,12983.5L5774.62,12984.3L5774.62,12985.2L5774.61,12986L5774.61,12986.8L5774.59,12987.6L5774.58,12988.4L5774.56,12989.2L5774.54,12990L5774.52,12990.8L5774.5,12991.6L5774.47,12992.4L5774.44,12993.2L5774.41,12994L5774.38,12994.8L5774.34,12995.6L5774.3,12996.4L5774.26,12997.2L5774.21,12998L5774.17,12998.8L5774.12,12999.6L5774.07,13000.4L5774.01,13001.2L5773.95,13002L5773.9,13002.8L5773.83,13003.6L5773.77,13004.4L5773.7,13005.2L5773.63,13006L5773.56,13006.8L5773.49,13007.6L5773.41,13008.4L5773.33,13009.2L5773.25,13010L5773.16,13010.8L5773.08,13011.6L5772.99,13012.3L5772.9,13013.1L5772.81,13013.9L5772.71,13014.7L5772.61,13015.5L5772.51,13016.3L5772.41,13017.1L5772.3,13017.8L5772.19,13018.6L5772.08,13019.4L5771.97,13020.2L5771.85,13021L5771.74,13021.7L5771.61,13022.5L5771.49,13023.3L5771.37,13024.1L5771.24,13024.8L5771.11,13025.6L5770.98,13026.4L5770.85,13027.2L5770.71,13027.9L5770.57,13028.7L5770.43,13029.5L5770.28,13030.3L5770.14,13031L5769.99,13031.8L5769.84,13032.6L5769.69,13033.3L5769.53,13034.1L5769.37,13034.9L5769.21,13035.6L5769.05,13036.4L5768.88,13037.1L5768.72,13037.9L5768.55,13038.7L5768.38,13039.4L5768.2,13040.2L5768.03,13040.9L5767.85,13041.7L5767.67,13042.5L5767.48,13043.2L5767.3,13044L5767.11,13044.7L5766.92,13045.5L5766.73,13046.2L5766.53,13047L5766.34,13047.7L5766.14,13048.5L5765.94,13049.2L5765.73,13050L5765.53,13050.7L5765.32,13051.5L5765.11,13052.2L5764.9,13053L5764.68,13053.7L5764.47,13054.4L5764.25,13055.2L5764.02,13055.9L5763.8,13056.7L5763.57,13057.4L5763.35,13058.1L5763.12,13058.9L5762.89,13059.6L5762.65,13060.3L5762.41,13061.1L5762.17,13061.8L5761.93,13062.5L5761.69,13063.3L5761.44,13064L5761.2,13064.7L5760.95,13065.5L5760.69,13066.2L5760.44,13066.9L5760.19,13067.6L5759.93,13068.3L5759.67,13069.1L5759.4,13069.8L5759.14,13070.5L5758.87,13071.2L5758.6,13071.9L5758.33,13072.7L5758.06,13073.4L5757.78,13074.1L5757.5,13074.8L5757.22,13075.5L5756.94,13076.2L5756.66,13076.9L5756.37,13077.7L5756.08,13078.4L5755.79,13079.1L5755.5,13079.8L5755.21,13080.5L5754.91,13081.2L5754.61,13081.9L5754.31,13082.6L5754.01,13083.3L5753.7,13084L5753.4,13084.7L5753.09,13085.4L5752.78,13086.1L5752.46,13086.8L5752.15,13087.5L5751.83,13088.2L5751.51,13088.9L5751.19,13089.5L5750.87,13090.2L5750.54,13090.9L5750.22,13091.6L5749.89,13092.3L5749.56,13093L5749.22,13093.7L5748.89,13094.3L5748.55,13095L5748.21,13095.7L5747.87,13096.4L5747.53,13097.1L5747.18,13097.7L5746.83,13098.4L5746.48,13099.1L5746.13,13099.8L5745.78,13100.4L5745.42,13101.1L5745.07,13101.8L5744.71,13102.4L5744.35,13103.1L5743.98,13103.8L5743.62,13104.4L5743.25,13105.1L5742.88,13105.8L5742.51,13106.4L5742.14,13107.1L5741.76,13107.8L5741.39,13108.4L5741.01,13109.1L5740.63,13109.7L5740.25,13110.4L5739.86,13111L5739.48,13111.7L5739.09,13112.3L5738.7,13113L5738.31,13113.6L5737.91,13114.3L5737.52,13114.9L5737.12,13115.6L5736.72,13116.2L5736.32,13116.8L5735.91,13117.5L5735.51,13118.1L5735.1,13118.8L5734.69,13119.4L5734.28,13120L5733.87,13120.7L5733.46,13121.3L5733.04,13121.9L5732.62,13122.5L5732.2,13123.2L5731.78,13123.8L5731.36,13124.4L5730.93,13125L5730.51,13125.7L5730.08,13126.3L5729.65,13126.9L5729.21,13127.5L5728.78,13128.1L5728.34,13128.8L5727.9,13129.4L5727.46,13130L5727.02,13130.6L5726.58,13131.2L5726.13,13131.8L5725.69,13132.4L5725.24,13133L5724.79,13133.6L5724.33,13134.2L5723.88,13134.8L5723.42,13135.4L5722.97,13136L5722.51,13136.6L5722.05,13137.2L5721.58,13137.8L5721.12,13138.4L5720.65,13139L5720.18,13139.6L5719.72,13140.2L5719.24,13140.8L5718.77,13141.4L5718.3,13141.9L5717.82,13142.5L5717.34,13143.1L5716.86,13143.7L5716.38,13144.3L5715.89,13144.8L5715.41,13145.4L5714.92,13146L5714.43,13146.6L5713.94,13147.1L5713.45,13147.7L5712.96,13148.3L5712.46,13148.8L5711.97,13149.4L5711.47,13150L5710.97,13150.5L5710.46,13151.1L5709.96,13151.7L5709.45,13152.2L5708.95,13152.8L5708.44,13153.3L5707.93,13153.9L5707.42,13154.4L5706.9,13155L5706.39,13155.5L5705.87,13156.1L5705.35,13156.6L5704.83,13157.2L5704.31,13157.7L5703.79,13158.2L5703.26,13158.8L5702.74,13159.3L5702.21,13159.9L5701.68,13160.4L5701.15,13160.9L5700.62,13161.5L5700.08,13162L5699.55,13162.5L5699.01,13163L5698.47,13163.6L5697.93,13164.1L5697.39,13164.6L5696.84,13165.1L5696.3,13165.6L5695.75,13166.2L5695.2,13166.7L5694.65,13167.2L5694.1,13167.7L5693.55,13168.2L5692.99,13168.7L5692.44,13169.2L5691.88,13169.7L5691.32,13170.2L5690.76,13170.7L5690.2,13171.2L5689.63,13171.7L5689.07,13172.2L5688.5,13172.7L5687.93,13173.2L5687.36,13173.7L5686.79,13174.2L5686.22,13174.7L5685.65,13175.2L5685.07,13175.7L5684.49,13176.2L5683.91,13176.6L5683.34,13177.1L5682.75,13177.6L5682.17,13178.1L5681.59,13178.5L5681,13179L5680.41,13179.5L5679.82,13180L5679.23,13180.4L5678.64,13180.9L5678.05,13181.4L5677.45,13181.8L5676.86,13182.3L5676.26,13182.7L5675.66,13183.2L5675.06,13183.7L5674.46,13184.1L5673.86,13184.6L5673.26,13185L5672.65,13185.5L5672.04,13185.9L5671.43,13186.4L5670.82,13186.8L5670.21,13187.2L5669.6,13187.7L5668.98,13188.1L5668.37,13188.6L5667.75,13189L5667.14,13189.4L5666.52,13189.9L5665.89,13190.3L5665.27,13190.7L5664.65,13191.1L5664.02,13191.6L5663.4,13192L5662.77,13192.4L5662.14,13192.8L5661.51,13193.2L5660.88,13193.6L5660.25,13194.1L5659.61,13194.5L5658.98,13194.9L5658.34,13195.3L5657.7,13195.7L5657.06,13196.1L5656.42,13196.5L5655.78,13196.9L5655.14,13197.3L5654.49,13197.7L5653.85,13198.1L5653.2,13198.5L5652.55,13198.9L5651.9,13199.3L5651.25,13199.6L5650.6,13200L5649.94,13200.4L5649.29,13200.8L5648.63,13201.2L5647.98,13201.5L5647.32,13201.9L5646.66,13202.3L5646,13202.7L5645.33,13203L5644.67,13203.4L5644.01,13203.8L5643.34,13204.1L5642.67,13204.5L5642,13204.8L5641.34,13205.2L5640.66,13205.6L5639.99,13205.9L5639.32,13206.3L5638.65,13206.6L5637.97,13207L5637.29,13207.3L5636.61,13207.6L5635.94,13208L5635.26,13208.3L5634.57,13208.7L5633.89,13209L5633.21,13209.3L5632.52,13209.7L5631.84,13210L5631.15,13210.3L5630.46,13210.6L5629.77,13211L5629.08,13211.3L5628.39,13211.6L5627.7,13211.9L5627,13212.2L5626.31,13212.6L5625.61,13212.9L5624.91,13213.2L5624.22,13213.5L5623.52,13213.8L5622.81,13214.1L5622.11,13214.4L5621.41,13214.7L5620.71,13215L5620,13215.3L5619.29,13215.6L5618.59,13215.9L5617.88,13216.1L5617.17,13216.4L5616.46,13216.7L5615.75,13217L5615.03,13217.3L5614.32,13217.6L5613.61,13217.8L5612.89,13218.1L5612.17,13218.4L5611.46,13218.6L5610.74,13218.9L5610.02,13219.2L5609.3,13219.4L5608.57,13219.7L5607.85,13220L5607.13,13220.2L5606.4,13220.5L5605.68,13220.7L5604.95,13221L5604.22,13221.2L5603.49,13221.5L5602.76,13221.7L5602.03,13222L5601.3,13222.2L5600.57,13222.4L5599.83,13222.7L5599.1,13222.9L5598.36,13223.1L5597.62,13223.4L5596.89,13223.6L5596.15,13223.8L5595.41,13224L5594.66,13224.2L5593.92,13224.5L5593.18,13224.7L5592.44,13224.9L5591.69,13225.1L5590.95,13225.3L5590.2,13225.5L5589.45,13225.7L5588.7,13225.9L5587.95,13226.1L5587.2,13226.3L5586.45,13226.5L5585.7,13226.7L5584.95,13226.9L5584.2,13227.1L5583.44,13227.3L5582.69,13227.4L5581.93,13227.6L5581.17,13227.8L5580.41,13228L5579.65,13228.2L5578.89,13228.3L5578.13,13228.5L5577.37,13228.7L5576.61,13228.8L5575.85,13229L5575.08,13229.1L5574.32,13229.3L5573.55,13229.5L5572.78,13229.6L5572.02,13229.8L5571.25,13229.9L5570.48,13230.1L5569.71,13230.2L5568.94,13230.3L5568.16,13230.5L5567.39,13230.6L5566.62,13230.8L5565.85,13230.9L5565.07,13231L5564.29,13231.1L5563.52,13231.3L5562.74,13231.4L5561.96,13231.5L5561.18,13231.6L5560.4,13231.7L5559.62,13231.9L5558.84,13232L5558.06,13232.1L5557.28,13232.2L5556.49,13232.3L5555.71,13232.4L5554.92,13232.5L5554.14,13232.6L5553.35,13232.7L5552.56,13232.8L5551.78,13232.9L5550.99,13232.9L5550.2,13233L5549.41,13233.1L5548.62,13233.2L5547.82,13233.3L5547.03,13233.3L5546.24,13233.4L5545.45,13233.5L5544.65,13233.5L5543.86,13233.6L5543.06,13233.7L5542.26,13233.7L5541.47,13233.8L5540.67,13233.8L5539.87,13233.9L5539.07,13233.9L5538.27,13234L5537.47,13234L5536.67,13234.1L5535.87,13234.1L5535.06,13234.2L5534.26,13234.2L5533.46,13234.2L5532.65,13234.2L5531.85,13234.3L5531.04,13234.3L5530.23,13234.3L5529.43,13234.3L5528.62,13234.4L5527.81,13234.4L5527,13234.4L5526.19,13234.4L5525.38,13234.4L5524.57,13234.4L5523.76,13234.4L5522.95,13234.4L5522.14,13234.4L5521.33,13234.4L5520.52,13234.4L5519.71,13234.4L5518.9,13234.4L5518.09,13234.3L5517.29,13234.3L5516.48,13234.3L5515.68,13234.3L5514.87,13234.2L5514.07,13234.2L5513.26,13234.2L5512.46,13234.2L5511.66,13234.1L5510.85,13234.1L5510.05,13234L5509.25,13234L5508.45,13233.9L5507.65,13233.9L5506.85,13233.8L5506.06,13233.8L5505.26,13233.7L5504.46,13233.7L5503.67,13233.6L5502.87,13233.5L5502.08,13233.5L5501.28,13233.4L5500.49,13233.3L5499.7,13233.3L5498.9,13233.2L5498.11,13233.1L5497.32,13233L5496.53,13232.9L5495.75,13232.9L5494.96,13232.8L5494.17,13232.7L5493.38,13232.6L5492.6,13232.5L5491.81,13232.4L5491.03,13232.3L5490.24,13232.2L5489.46,13232.1L5488.68,13232L5487.9,13231.9L5487.12,13231.7L5486.34,13231.6L5485.56,13231.5L5484.78,13231.4L5484,13231.3L5483.23,13231.1L5482.45,13231L5481.68,13230.9L5480.9,13230.8L5480.13,13230.6L5479.36,13230.5L5478.59,13230.3L5477.81,13230.2L5477.04,13230.1L5476.28,13229.9L5475.51,13229.8L5474.74,13229.6L5473.97,13229.5L5473.21,13229.3L5472.44,13229.1L5471.68,13229L5470.91,13228.8L5470.15,13228.7L5469.39,13228.5L5468.63,13228.3L5467.87,13228.2L5467.11,13228L5466.35,13227.8L5465.59,13227.6L5464.84,13227.4L5464.08,13227.3L5463.33,13227.1L5462.57,13226.9L5461.82,13226.7L5461.07,13226.5L5460.32,13226.3L5459.57,13226.1L5458.82,13225.9L5458.07,13225.7L5457.32,13225.5L5456.57,13225.3L5455.83,13225.1L5455.09,13224.9L5454.34,13224.7L5453.6,13224.5L5452.86,13224.2L5452.12,13224L5451.38,13223.8L5450.64,13223.6L5449.9,13223.4L5449.16,13223.1L5448.43,13222.9L5447.69,13222.7L5446.96,13222.4L5446.22,13222.2L5445.49,13222L5444.76,13221.7L5444.03,13221.5L5443.3,13221.2L5442.57,13221L5441.85,13220.7L5441.12,13220.5L5440.4,13220.2L5439.67,13220L5438.95,13219.7L5438.23,13219.4L5437.51,13219.2L5436.78,13218.9L5436.07,13218.6L5435.35,13218.4L5434.63,13218.1L5433.92,13217.8L5433.2,13217.6L5432.49,13217.3L5431.78,13217L5431.06,13216.7L5430.35,13216.4L5429.64,13216.1L5428.94,13215.9L5428.23,13215.6L5427.52,13215.3L5426.82,13215L5426.11,13214.7L5425.41,13214.4L5424.71,13214.1L5424.01,13213.8L5423.31,13213.5L5422.61,13213.2L5421.91,13212.9L5421.22,13212.6L5420.52,13212.2L5419.83,13211.9L5419.13,13211.6L5418.44,13211.3L5417.75,13211L5417.06,13210.6L5416.37,13210.3L5415.69,13210L5415,13209.7L5414.31,13209.3L5413.63,13209L5412.95,13208.7L5412.27,13208.3L5411.59,13208L5410.91,13207.6L5410.23,13207.3L5409.55,13207L5408.88,13206.6L5408.2,13206.3L5407.53,13205.9L5406.86,13205.6L5406.19,13205.2L5405.52,13204.8L5404.85,13204.5L5404.18,13204.1L5403.52,13203.8L5402.85,13203.4L5402.19,13203L5401.53,13202.7L5400.86,13202.3L5400.2,13201.9L5399.55,13201.5L5398.89,13201.2L5398.23,13200.8L5397.58,13200.4L5396.93,13200L5396.27,13199.6L5395.62,13199.3L5394.97,13198.9L5394.32,13198.5L5393.68,13198.1L5393.03,13197.7L5392.39,13197.3L5391.74,13196.9L5391.1,13196.5L5390.46,13196.1L5389.82,13195.7L5389.18,13195.3L5388.55,13194.9L5387.91,13194.5L5387.28,13194.1L5386.64,13193.6L5386.01,13193.2L5385.38,13192.8L5384.75,13192.4L5384.12,13192L5383.5,13191.6L5382.87,13191.1L5382.25,13190.7L5381.63,13190.3L5381.01,13189.9L5380.39,13189.4L5379.77,13189L5379.15,13188.6L5378.54,13188.1L5377.92,13187.7L5377.31,13187.2L5376.7,13186.8L5376.09,13186.4L5375.48,13185.9L5374.87,13185.5L5374.27,13185L5373.66,13184.6L5373.06,13184.1L5372.46,13183.7L5371.86,13183.2L5371.26,13182.7L5370.66,13182.3L5370.07,13181.8L5369.47,13181.4L5368.88,13180.9L5368.29,13180.4L5367.7,13180L5367.11,13179.5L5366.52,13179L5365.94,13178.5L5365.35,13178.1L5364.77,13177.6L5364.19,13177.1L5363.61,13176.6L5363.03,13176.2L5362.45,13175.7L5361.88,13175.2L5361.3,13174.7L5360.73,13174.2L5360.16,13173.7L5359.59,13173.2L5359.02,13172.7L5358.45,13172.2L5357.89,13171.7L5357.32,13171.2L5356.76,13170.7L5356.2,13170.2L5355.64,13169.7L5355.08,13169.2L5354.53,13168.7L5353.97,13168.2L5353.42,13167.7L5352.87,13167.2L5352.32,13166.7L5351.77,13166.2L5351.22,13165.6L5350.68,13165.1L5350.14,13164.6L5349.59,13164.1L5349.05,13163.6L5348.51,13163L5347.98,13162.5L5347.44,13162L5346.9,13161.5L5346.37,13160.9L5345.84,13160.4L5345.31,13159.9L5344.78,13159.3L5344.26,13158.8L5343.73,13158.2L5343.21,13157.7L5342.69,13157.2L5342.17,13156.6L5341.65,13156.1L5341.13,13155.5L5340.62,13155L5340.1,13154.4L5339.59,13153.9L5339.08,13153.3L5338.57,13152.8L5338.07,13152.2L5337.56,13151.7L5337.06,13151.1L5336.56,13150.5L5336.06,13150L5335.56,13149.4L5335.06,13148.8L5334.56,13148.3L5334.07,13147.7L5333.58,13147.1L5333.09,13146.6L5332.6,13146L5332.11,13145.4L5331.63,13144.8L5331.14,13144.3L5330.66,13143.7L5330.18,13143.1L5329.7,13142.5L5329.23,13141.9L5328.75,13141.4L5328.28,13140.8L5327.81,13140.2L5327.34,13139.6L5326.87,13139L5326.4,13138.4L5325.94,13137.8L5325.48,13137.2L5325.01,13136.6L5324.56,13136L5324.1,13135.4L5323.64,13134.8L5323.19,13134.2L5322.73,13133.6L5322.28,13133L5321.84,13132.4L5321.39,13131.8L5320.94,13131.2L5320.5,13130.6L5320.06,13130L5319.62,13129.4L5319.18,13128.8L5318.74,13128.1L5318.31,13127.5L5317.88,13126.9L5317.45,13126.3L5317.02,13125.7L5316.59,13125L5316.16,13124.4L5315.74,13123.8L5315.32,13123.2L5314.9,13122.5L5314.48,13121.9L5314.07,13121.3L5313.65,13120.7L5313.24,13120L5312.83,13119.4L5312.42,13118.8L5312.01,13118.1L5311.61,13117.5L5311.2,13116.8L5310.8,13116.2L5310.4,13115.6L5310.01,13114.9L5309.61,13114.3L5309.22,13113.6L5308.82,13113L5308.43,13112.3L5308.05,13111.7L5307.66,13111L5307.28,13110.4L5306.89,13109.7L5306.51,13109.1L5306.13,13108.4L5305.76,13107.8L5305.38,13107.1L5305.01,13106.4L5304.64,13105.8L5304.27,13105.1L5303.9,13104.4L5303.54,13103.8L5303.18,13103.1L5302.81,13102.4L5302.45,13101.8L5302.1,13101.1L5301.74,13100.4L5301.39,13099.8L5301.04,13099.1L5300.69,13098.4L5300.34,13097.7L5300,13097.1L5299.65,13096.4L5299.31,13095.7L5298.97,13095L5298.63,13094.3L5298.3,13093.7L5297.97,13093L5297.64,13092.3L5297.31,13091.6L5296.98,13090.9L5296.65,13090.2L5296.33,13089.5L5296.01,13088.9L5295.69,13088.2L5295.37,13087.5L5295.06,13086.8L5294.74,13086.1L5294.43,13085.4L5294.12,13084.7L5293.82,13084L5293.51,13083.3L5293.21,13082.6L5292.91,13081.9L5292.61,13081.2L5292.31,13080.5L5292.02,13079.8L5291.73,13079.1L5291.44,13078.4L5291.15,13077.7L5290.86,13076.9L5290.58,13076.2L5290.3,13075.5L5290.02,13074.8L5289.74,13074.1L5289.46,13073.4L5289.19,13072.7L5288.92,13071.9L5288.65,13071.2L5288.38,13070.5L5288.12,13069.8L5287.86,13069.1L5287.6,13068.3L5287.34,13067.6L5287.08,13066.9L5286.83,13066.2L5286.57,13065.5L5286.32,13064.7L5286.08,13064L5285.83,13063.3L5285.59,13062.5L5285.35,13061.8L5285.11,13061.1L5284.87,13060.3L5284.64,13059.6L5284.4,13058.9L5284.17,13058.1L5283.95,13057.4L5283.72,13056.7L5283.5,13055.9L5283.28,13055.2L5283.06,13054.4L5282.84,13053.7L5282.62,13053L5282.41,13052.2L5282.2,13051.5L5281.99,13050.7L5281.79,13050L5281.59,13049.2L5281.38,13048.5L5281.18,13047.7L5280.99,13047L5280.79,13046.2L5280.6,13045.5L5280.41,13044.7L5280.22,13044L5280.04,13043.2L5279.86,13042.5L5279.67,13041.7L5279.49,13040.9L5279.32,13040.2L5279.15,13039.4L5278.97,13038.7L5278.8,13037.9L5278.64,13037.1L5278.47,13036.4L5278.31,13035.6L5278.15,13034.9L5277.99,13034.1L5277.84,13033.3L5277.68,13032.6L5277.53,13031.8L5277.38,13031L5277.24,13030.3L5277.09,13029.5L5276.95,13028.7L5276.81,13027.9L5276.68,13027.2L5276.54,13026.4L5276.41,13025.6L5276.28,13024.8L5276.15,13024.1L5276.03,13023.3L5275.91,13022.5L5275.78,13021.7L5275.67,13021L5275.55,13020.2L5275.44,13019.4L5275.33,13018.6L5275.22,13017.8L5275.11,13017.1L5275.01,13016.3L5274.91,13015.5L5274.81,13014.7L5274.72,13013.9L5274.62,13013.1L5274.53,13012.3L5274.44,13011.6L5274.36,13010.8L5274.27,13010L5274.19,13009.2L5274.11,13008.4L5274.03,13007.6L5273.96,13006.8L5273.89,13006L5273.82,13005.2L5273.75,13004.4L5273.69,13003.6L5273.63,13002.8L5273.57,13002L5273.51,13001.2L5273.46,13000.4L5273.4,12999.6L5273.36,12998.8L5273.31,12998L5273.26,12997.2L5273.22,12996.4L5273.18,12995.6L5273.15,12994.8L5273.11,12994L5273.08,12993.2L5273.05,12992.4L5273.02,12991.6L5273,12990.8L5272.98,12990L5272.96,12989.2L5272.94,12988.4L5272.93,12987.6L5272.92,12986.8L5272.91,12986L5272.9,12985.2L5272.9,12984.3L5272.9,12983.5L5272.9,12982.7L5272.9,12981.9L5272.91,12981.1L5272.92,12980.3L5272.93,12979.5L5272.94,12978.7L5272.96,12977.9L5272.98,12977.1L5273,12976.3L5273.02,12975.4L5273.05,12974.6L5273.08,12973.8L5273.11,12973L5273.15,12972.2L5273.18,12971.4L5273.22,12970.6L5273.26,12969.8L5273.31,12969L5273.36,12968.2L5273.4,12967.4L5273.46,12966.6L5273.51,12965.8L5273.57,12965L5273.63,12964.2L5273.69,12963.4L5273.75,12962.6L5273.82,12961.9L5273.89,12961.1L5273.96,12960.3L5274.03,12959.5L5274.11,12958.7L5274.19,12957.9L5274.27,12957.1L5274.36,12956.3L5274.44,12955.5L5274.53,12954.7L5274.62,12953.9L5274.72,12953.2L5274.81,12952.4L5274.91,12951.6L5275.01,12950.8L5275.11,12950L5275.22,12949.2L5275.33,12948.5L5275.44,12947.7L5275.55,12946.9L5275.67,12946.1L5275.78,12945.3L5275.91,12944.6L5276.03,12943.8L5276.15,12943L5276.28,12942.2L5276.41,12941.5L5276.54,12940.7L5276.68,12939.9L5276.81,12939.1L5276.95,12938.4L5277.09,12937.6L5277.24,12936.8L5277.38,12936L5277.53,12935.3L5277.68,12934.5L5277.84,12933.7L5277.99,12933L5278.15,12932.2L5278.31,12931.5L5278.47,12930.7L5278.64,12929.9L5278.8,12929.2L5278.97,12928.4L5279.15,12927.6L5279.32,12926.9L5279.49,12926.1L5279.67,12925.4L5279.86,12924.6L5280.04,12923.9L5280.22,12923.1L5280.41,12922.3L5280.6,12921.6L5280.79,12920.8L5280.99,12920.1L5281.18,12919.3L5281.38,12918.6L5281.59,12917.8L5281.79,12917.1L5281.99,12916.4L5282.2,12915.6L5282.41,12914.9L5282.62,12914.1L5282.84,12913.4L5283.06,12912.6L5283.28,12911.9L5283.5,12911.2L5283.72,12910.4L5283.95,12909.7L5284.17,12908.9L5284.4,12908.2L5284.64,12907.5L5284.87,12906.7L5285.11,12906L5285.35,12905.3L5285.59,12904.5L5285.83,12903.8L5286.08,12903.1L5286.32,12902.3L5286.57,12901.6L5286.83,12900.9L5287.08,12900.2L5287.34,12899.4L5287.6,12898.7L5287.86,12898L5288.12,12897.3L5288.38,12896.6L5288.65,12895.8L5288.92,12895.1L5289.19,12894.4L5289.46,12893.7L5289.74,12893L5290.02,12892.3L5290.3,12891.6L5290.58,12890.8L5290.86,12890.1L5291.15,12889.4L5291.44,12888.7L5291.73,12888L5292.02,12887.3L5292.31,12886.6L5292.61,12885.9L5292.91,12885.2L5293.21,12884.5L5293.51,12883.8L5293.82,12883.1L5294.12,12882.4L5294.43,12881.7L5294.74,12881L5295.06,12880.3L5295.37,12879.6L5295.69,12878.9L5296.01,12878.2L5296.33,12877.5L5296.65,12876.8L5296.98,12876.1L5297.31,12875.5L5297.64,12874.8L5297.97,12874.1L5298.3,12873.4L5298.63,12872.7L5298.97,12872L5299.31,12871.4L5299.65,12870.7L5300,12870L5300.34,12869.3L5300.69,12868.7L5301.04,12868L5301.39,12867.3L5301.74,12866.6L5302.1,12866L5302.45,12865.3L5302.81,12864.6L5303.18,12864L5303.54,12863.3L5303.9,12862.6L5304.27,12862L5304.64,12861.3L5305.01,12860.6L5305.38,12860L5305.76,12859.3L5306.13,12858.7L5306.51,12858L5306.89,12857.4L5307.28,12856.7L5307.66,12856L5308.05,12855.4L5308.43,12854.7L5308.82,12854.1L5309.22,12853.5L5309.61,12852.8L5310.01,12852.2L5310.4,12851.5L5310.8,12850.9L5311.2,12850.2L5311.61,12849.6L5312.01,12849L5312.42,12848.3L5312.83,12847.7L5313.24,12847.1L5313.65,12846.4L5314.07,12845.8L5314.48,12845.2L5314.9,12844.5L5315.32,12843.9L5315.74,12843.3L5316.16,12842.6L5316.59,12842L5317.02,12841.4L5317.45,12840.8L5317.88,12840.2L5318.31,12839.5L5318.74,12838.9L5319.18,12838.3L5319.62,12837.7L5320.06,12837.1L5320.5,12836.5L5320.94,12835.9L5321.39,12835.3L5321.84,12834.6L5322.28,12834L5322.73,12833.4L5323.19,12832.8L5323.64,12832.2L5324.1,12831.6L5324.56,12831L5325.01,12830.4L5325.48,12829.8L5325.94,12829.2L5326.4,12828.7L5326.87,12828.1L5327.34,12827.5L5327.81,12826.9L5328.28,12826.3L5328.75,12825.7L5329.23,12825.1L5329.7,12824.5L5330.18,12824L5330.66,12823.4L5331.14,12822.8L5331.63,12822.2L5332.11,12821.7L5332.6,12821.1L5333.09,12820.5L5333.58,12819.9L5334.07,12819.4L5334.56,12818.8L5335.06,12818.2L5335.56,12817.7L5336.06,12817.1L5336.56,12816.5L5337.06,12816L5337.56,12815.4L5338.07,12814.9L5338.57,12814.3L5339.08,12813.8L5339.59,12813.2L5340.1,12812.6L5340.62,12812.1L5341.13,12811.5L5341.65,12811L5342.17,12810.5L5342.69,12809.9L5343.21,12809.4L5343.73,12808.8L5344.26,12808.3L5344.78,12807.8L5345.31,12807.2L5345.84,12806.7L5346.37,12806.1L5346.9,12805.6L5347.44,12805.1L5347.98,12804.6L5348.51,12804L5349.05,12803.5L5349.59,12803L5350.14,12802.5L5350.68,12801.9L5351.22,12801.4L5351.77,12800.9L5352.32,12800.4L5352.87,12799.9L5353.42,12799.4L5353.97,12798.9L5354.53,12798.4L5355.08,12797.8L5355.64,12797.3L5356.2,12796.8L5356.76,12796.3L5357.32,12795.8L5357.89,12795.3L5358.45,12794.8L5359.02,12794.3L5359.59,12793.8L5360.16,12793.4L5360.73,12792.9L5361.3,12792.4L5361.88,12791.9L5362.45,12791.4L5363.03,12790.9L5363.61,12790.4L5364.19,12790L5364.77,12789.5L5365.35,12789L5365.94,12788.5L5366.52,12788.1L5367.11,12787.6L5367.7,12787.1L5368.29,12786.6L5368.88,12786.2L5369.47,12785.7L5370.07,12785.3L5370.66,12784.8L5371.26,12784.3L5371.86,12783.9L5372.46,12783.4L5373.06,12783L5373.66,12782.5L5374.27,12782.1L5374.87,12781.6L5375.48,12781.2L5376.09,12780.7L5376.7,12780.3L5377.31,12779.8L5377.92,12779.4L5378.54,12779L5379.15,12778.5L5379.77,12778.1L5380.39,12777.7L5381.01,12777.2L5381.63,12776.8L5382.25,12776.4L5382.87,12775.9L5383.5,12775.5L5384.12,12775.1L5384.75,12774.7L5385.38,12774.3L5386.01,12773.8L5386.64,12773.4L5387.28,12773L5387.91,12772.6L5388.55,12772.2L5389.18,12771.8L5389.82,12771.4L5390.46,12771L5391.1,12770.6L5391.74,12770.2L5392.39,12769.8L5393.03,12769.4L5393.68,12769L5394.32,12768.6L5394.97,12768.2L5395.62,12767.8L5396.27,12767.4L5396.93,12767.1L5397.58,12766.7L5398.23,12766.3L5398.89,12765.9L5399.55,12765.5L5400.2,12765.2L5400.86,12764.8L5401.53,12764.4L5402.19,12764L5402.85,12763.7L5403.52,12763.3L5404.18,12763L5404.85,12762.6L5405.52,12762.2L5406.19,12761.9L5406.86,12761.5L5407.53,12761.2L5408.2,12760.8L5408.88,12760.5L5409.55,12760.1L5410.23,12759.8L5410.91,12759.4L5411.59,12759.1L5412.27,12758.7L5412.95,12758.4L5413.63,12758.1L5414.31,12757.7L5415,12757.4L5415.69,12757.1L5416.37,12756.8L5417.06,12756.4L5417.75,12756.1L5418.44,12755.8L5419.13,12755.5L5419.83,12755.1L5420.52,12754.8L5421.22,12754.5L5421.91,12754.2L5422.61,12753.9L5423.31,12753.6L5424.01,12753.3L5424.71,12753L5425.41,12752.7L5426.11,12752.4L5426.82,12752.1L5427.52,12751.8L5428.23,12751.5L5428.94,12751.2L5429.64,12750.9L5430.35,12750.6L5431.06,12750.4L5431.78,12750.1L5432.49,12749.8L5433.2,12749.5L5433.92,12749.2L5434.63,12749L5435.35,12748.7L5436.07,12748.4L5436.78,12748.2L5437.51,12747.9L5438.23,12747.6L5438.95,12747.4L5439.67,12747.1L5440.4,12746.9L5441.12,12746.6L5441.85,12746.4L5442.57,12746.1L5443.3,12745.9L5444.03,12745.6L5444.76,12745.4L5445.49,12745.1L5446.22,12744.9L5446.96,12744.6L5447.69,12744.4L5448.43,12744.2L5449.16,12744L5449.9,12743.7L5450.64,12743.5L5451.38,12743.3L5452.12,12743.1L5452.86,12742.8L5453.6,12742.6L5454.34,12742.4L5455.09,12742.2L5455.83,12742L5456.57,12741.8L5457.32,12741.6L5458.07,12741.4L5458.82,12741.2L5459.57,12741L5460.32,12740.8L5461.07,12740.6L5461.82,12740.4L5462.57,12740.2L5463.33,12740L5464.08,12739.8L5464.84,12739.6L5465.59,12739.5L5466.35,12739.3L5467.11,12739.1L5467.87,12738.9L5468.63,12738.8L5469.39,12738.6L5470.15,12738.4L5470.91,12738.2L5471.68,12738.1L5472.44,12737.9L5473.21,12737.8L5473.97,12737.6L5474.74,12737.5L5475.51,12737.3L5476.28,12737.2L5477.04,12737L5477.81,12736.9L5478.59,12736.7L5479.36,12736.6L5480.13,12736.5L5480.9,12736.3L5481.68,12736.2L5482.45,12736.1L5483.23,12735.9L5484,12735.8L5484.78,12735.7L5485.56,12735.6L5486.34,12735.4L5487.12,12735.3L5487.9,12735.2L5488.68,12735.1L5489.46,12735L5490.24,12734.9L5491.03,12734.8L5491.81,12734.7L5492.6,12734.6L5493.38,12734.5L5494.17,12734.4L5494.96,12734.3L5495.75,12734.2L5496.53,12734.1L5497.32,12734L5498.11,12734L5498.91,12733.9L5499.7,12733.8L5500.49,12733.7L5501.28,12733.7L5502.08,12733.6L5502.87,12733.5L5503.67,12733.5L5504.46,12733.4L5505.26,12733.3L5506.06,12733.3L5506.85,12733.2L5507.65,12733.2L5508.45,12733.1L5509.25,12733.1L5510.05,12733L5510.85,12733L5511.66,12733L5512.46,12732.9L5513.26,12732.9L5514.07,12732.9L5514.87,12732.8L5515.68,12732.8L5516.48,12732.8L5517.29,12732.8L5518.09,12732.7L5518.9,12732.7L5519.71,12732.7L5520.52,12732.7L5521.33,12732.7L5522.14,12732.7L5522.95,12732.7L5523.76,12732.7L5524.57,12732.7ZM5522.97,12737.7L5522.17,12737.7L5521.38,12737.7L5520.58,12737.7L5519.79,12737.7L5519,12737.7L5518.2,12737.7L5517.41,12737.8L5516.62,12737.8L5515.83,12737.8L5515.04,12737.8L5514.26,12737.9L5513.47,12737.9L5512.68,12737.9L5511.89,12738L5511.11,12738L5510.32,12738L5509.54,12738.1L5508.75,12738.1L5507.97,12738.2L5507.19,12738.2L5506.4,12738.3L5505.62,12738.3L5504.84,12738.4L5504.06,12738.5L5503.28,12738.5L5502.5,12738.6L5501.73,12738.6L5500.95,12738.7L5500.17,12738.8L5499.4,12738.9L5498.62,12738.9L5497.85,12739L5497.07,12739.1L5496.3,12739.2L5495.53,12739.3L5494.75,12739.4L5493.98,12739.5L5493.21,12739.6L5492.44,12739.6L5491.68,12739.7L5490.91,12739.8L5490.14,12740L5489.37,12740.1L5488.61,12740.2L5487.84,12740.3L5487.08,12740.4L5486.32,12740.5L5485.55,12740.6L5484.79,12740.7L5484.03,12740.9L5483.27,12741L5482.51,12741.1L5481.75,12741.2L5480.99,12741.4L5480.24,12741.5L5479.48,12741.6L5478.72,12741.8L5477.97,12741.9L5477.22,12742.1L5476.46,12742.2L5475.71,12742.4L5474.96,12742.5L5474.21,12742.7L5473.46,12742.8L5472.71,12743L5471.96,12743.1L5471.21,12743.3L5470.47,12743.5L5469.72,12743.6L5468.98,12743.8L5468.23,12744L5467.49,12744.1L5466.75,12744.3L5466.01,12744.5L5465.27,12744.7L5464.53,12744.9L5463.79,12745L5463.05,12745.2L5462.31,12745.4L5461.58,12745.6L5460.84,12745.8L5460.11,12746L5459.38,12746.2L5458.64,12746.4L5457.91,12746.6L5457.18,12746.8L5456.45,12747L5455.72,12747.2L5454.99,12747.4L5454.27,12747.6L5453.54,12747.8L5452.82,12748.1L5452.09,12748.3L5451.37,12748.5L5450.65,12748.7L5449.93,12749L5449.21,12749.2L5448.49,12749.4L5447.77,12749.6L5447.05,12749.9L5446.33,12750.1L5445.62,12750.3L5444.9,12750.6L5444.19,12750.8L5443.48,12751.1L5442.77,12751.3L5442.06,12751.6L5441.35,12751.8L5440.64,12752.1L5439.93,12752.3L5439.22,12752.6L5438.52,12752.9L5437.81,12753.1L5437.11,12753.4L5436.41,12753.6L5435.71,12753.9L5435.01,12754.2L5434.31,12754.5L5433.61,12754.7L5432.91,12755L5432.22,12755.3L5431.52,12755.6L5430.83,12755.8L5430.13,12756.1L5429.44,12756.4L5428.75,12756.7L5428.06,12757L5427.37,12757.3L5426.68,12757.6L5426,12757.9L5425.31,12758.2L5424.63,12758.5L5423.94,12758.8L5423.26,12759.1L5422.58,12759.4L5421.9,12759.7L5421.22,12760L5420.54,12760.3L5419.87,12760.6L5419.19,12761L5418.52,12761.3L5417.84,12761.6L5417.17,12761.9L5416.5,12762.2L5415.83,12762.6L5415.16,12762.9L5414.49,12763.2L5413.82,12763.6L5413.16,12763.9L5412.49,12764.2L5411.83,12764.6L5411.17,12764.9L5410.51,12765.3L5409.85,12765.6L5409.19,12765.9L5408.53,12766.3L5407.88,12766.6L5407.22,12767L5406.57,12767.3L5405.92,12767.7L5405.27,12768.1L5404.61,12768.4L5403.97,12768.8L5403.32,12769.1L5402.67,12769.5L5402.03,12769.9L5401.38,12770.2L5400.74,12770.6L5400.1,12771L5399.46,12771.4L5398.82,12771.7L5398.18,12772.1L5397.54,12772.5L5396.91,12772.9L5396.27,12773.3L5395.64,12773.7L5395.01,12774L5394.38,12774.4L5393.75,12774.8L5393.12,12775.2L5392.49,12775.6L5391.87,12776L5391.24,12776.4L5390.62,12776.8L5390,12777.2L5389.38,12777.6L5388.76,12778L5388.14,12778.4L5387.53,12778.8L5386.91,12779.2L5386.3,12779.7L5385.69,12780.1L5385.07,12780.5L5384.46,12780.9L5383.86,12781.3L5383.25,12781.8L5382.64,12782.2L5382.04,12782.6L5381.43,12783L5380.83,12783.5L5380.23,12783.9L5379.63,12784.3L5379.03,12784.8L5378.44,12785.2L5377.84,12785.6L5377.25,12786.1L5376.66,12786.5L5376.07,12787L5375.48,12787.4L5374.89,12787.9L5374.3,12788.3L5373.72,12788.8L5373.13,12789.2L5372.55,12789.7L5371.97,12790.1L5371.39,12790.6L5370.81,12791L5370.23,12791.5L5369.66,12791.9L5369.08,12792.4L5368.51,12792.9L5367.94,12793.3L5367.37,12793.8L5366.8,12794.3L5366.23,12794.8L5365.67,12795.2L5365.1,12795.7L5364.54,12796.2L5363.98,12796.7L5363.42,12797.1L5362.86,12797.6L5362.3,12798.1L5361.75,12798.6L5361.19,12799.1L5360.64,12799.6L5360.09,12800.1L5359.54,12800.6L5358.99,12801L5358.45,12801.5L5357.9,12802L5357.36,12802.5L5356.82,12803L5356.28,12803.5L5355.74,12804L5355.2,12804.5L5354.66,12805.1L5354.13,12805.6L5353.6,12806.1L5353.06,12806.6L5352.53,12807.1L5352.01,12807.6L5351.48,12808.1L5350.95,12808.6L5350.43,12809.2L5349.91,12809.7L5349.39,12810.2L5348.87,12810.7L5348.35,12811.3L5347.83,12811.8L5347.32,12812.3L5346.81,12812.8L5346.3,12813.4L5345.79,12813.9L5345.28,12814.4L5344.77,12815L5344.27,12815.5L5343.76,12816.1L5343.26,12816.6L5342.76,12817.1L5342.26,12817.7L5341.77,12818.2L5341.27,12818.8L5340.78,12819.3L5340.28,12819.9L5339.8,12820.4L5339.31,12821L5338.82,12821.5L5338.33,12822.1L5337.85,12822.6L5337.37,12823.2L5336.89,12823.8L5336.41,12824.3L5335.93,12824.9L5335.45,12825.4L5334.98,12826L5334.51,12826.6L5334.04,12827.1L5333.57,12827.7L5333.1,12828.3L5332.64,12828.9L5332.17,12829.4L5331.71,12830L5331.25,12830.6L5330.79,12831.2L5330.33,12831.7L5329.88,12832.3L5329.43,12832.9L5328.97,12833.5L5328.52,12834.1L5328.07,12834.7L5327.63,12835.3L5327.18,12835.8L5326.74,12836.4L5326.3,12837L5325.86,12837.6L5325.42,12838.2L5324.98,12838.8L5324.55,12839.4L5324.11,12840L5323.68,12840.6L5323.26,12841.2L5322.83,12841.8L5322.4,12842.4L5321.98,12843L5321.56,12843.6L5321.14,12844.2L5320.72,12844.8L5320.3,12845.5L5319.88,12846.1L5319.47,12846.7L5319.06,12847.3L5318.65,12847.9L5318.24,12848.5L5317.84,12849.2L5317.43,12849.8L5317.03,12850.4L5316.63,12851L5316.23,12851.6L5315.83,12852.3L5315.44,12852.9L5315.04,12853.5L5314.65,12854.2L5314.26,12854.8L5313.87,12855.4L5313.49,12856L5313.1,12856.7L5312.72,12857.3L5312.34,12858L5311.96,12858.6L5311.59,12859.2L5311.21,12859.9L5310.84,12860.5L5310.47,12861.2L5310.1,12861.8L5309.73,12862.4L5309.37,12863.1L5309,12863.7L5308.64,12864.4L5308.28,12865L5307.92,12865.7L5307.57,12866.3L5307.21,12867L5306.86,12867.7L5306.51,12868.3L5306.16,12869L5305.82,12869.6L5305.47,12870.3L5305.13,12870.9L5304.79,12871.6L5304.45,12872.3L5304.12,12872.9L5303.78,12873.6L5303.45,12874.3L5303.12,12874.9L5302.79,12875.6L5302.46,12876.3L5302.14,12876.9L5301.82,12877.6L5301.49,12878.3L5301.18,12879L5300.86,12879.6L5300.55,12880.3L5300.23,12881L5299.92,12881.7L5299.61,12882.4L5299.31,12883L5299,12883.7L5298.7,12884.4L5298.4,12885.1L5298.1,12885.8L5297.8,12886.5L5297.51,12887.1L5297.22,12887.8L5296.93,12888.5L5296.64,12889.2L5296.35,12889.9L5296.07,12890.6L5295.78,12891.3L5295.5,12892L5295.23,12892.7L5294.95,12893.4L5294.67,12894.1L5294.4,12894.8L5294.13,12895.5L5293.86,12896.2L5293.6,12896.9L5293.34,12897.6L5293.07,12898.3L5292.81,12899L5292.56,12899.7L5292.3,12900.4L5292.05,12901.1L5291.8,12901.8L5291.55,12902.5L5291.3,12903.3L5291.06,12904L5290.81,12904.7L5290.57,12905.4L5290.33,12906.1L5290.1,12906.8L5289.86,12907.5L5289.63,12908.3L5289.4,12909L5289.17,12909.7L5288.95,12910.4L5288.73,12911.1L5288.5,12911.9L5288.28,12912.6L5288.07,12913.3L5287.85,12914L5287.64,12914.8L5287.43,12915.5L5287.22,12916.2L5287.02,12917L5286.81,12917.7L5286.61,12918.4L5286.41,12919.1L5286.21,12919.9L5286.02,12920.6L5285.83,12921.4L5285.64,12922.1L5285.45,12922.8L5285.26,12923.6L5285.08,12924.3L5284.9,12925L5284.72,12925.8L5284.54,12926.5L5284.36,12927.3L5284.19,12928L5284.02,12928.8L5283.85,12929.5L5283.69,12930.2L5283.52,12931L5283.36,12931.7L5283.2,12932.5L5283.05,12933.2L5282.89,12934L5282.74,12934.7L5282.59,12935.5L5282.44,12936.2L5282.29,12937L5282.15,12937.7L5282.01,12938.5L5281.87,12939.3L5281.73,12940L5281.6,12940.8L5281.47,12941.5L5281.34,12942.3L5281.21,12943L5281.09,12943.8L5280.97,12944.6L5280.85,12945.3L5280.73,12946.1L5280.61,12946.9L5280.5,12947.6L5280.39,12948.4L5280.28,12949.1L5280.17,12949.9L5280.07,12950.7L5279.97,12951.5L5279.87,12952.2L5279.77,12953L5279.68,12953.8L5279.59,12954.5L5279.5,12955.3L5279.41,12956.1L5279.33,12956.8L5279.24,12957.6L5279.16,12958.4L5279.09,12959.2L5279.01,12959.9L5278.94,12960.7L5278.87,12961.5L5278.8,12962.3L5278.74,12963.1L5278.67,12963.8L5278.61,12964.6L5278.55,12965.4L5278.5,12966.2L5278.44,12967L5278.39,12967.7L5278.35,12968.5L5278.3,12969.3L5278.26,12970.1L5278.22,12970.9L5278.18,12971.7L5278.14,12972.5L5278.11,12973.2L5278.07,12974L5278.05,12974.8L5278.02,12975.6L5278,12976.4L5277.98,12977.2L5277.96,12978L5277.94,12978.8L5277.93,12979.6L5277.91,12980.4L5277.91,12981.2L5277.9,12981.9L5277.9,12982.7L5277.9,12983.5L5277.9,12984.3L5277.9,12985.1L5277.91,12985.9L5277.91,12986.7L5277.93,12987.5L5277.94,12988.3L5277.96,12989.1L5277.98,12989.9L5278,12990.7L5278.02,12991.5L5278.05,12992.3L5278.07,12993L5278.11,12993.8L5278.14,12994.6L5278.18,12995.4L5278.22,12996.2L5278.26,12997L5278.3,12997.8L5278.35,12998.5L5278.39,12999.3L5278.44,13000.1L5278.5,13000.9L5278.55,13001.7L5278.61,13002.5L5278.67,13003.2L5278.74,13004L5278.8,13004.8L5278.87,13005.6L5278.94,13006.3L5279.01,13007.1L5279.09,13007.9L5279.16,13008.7L5279.24,13009.5L5279.33,13010.2L5279.41,13011L5279.5,13011.8L5279.59,13012.5L5279.68,13013.3L5279.77,13014.1L5279.87,13014.9L5279.97,13015.6L5280.07,13016.4L5280.17,13017.2L5280.28,13017.9L5280.39,13018.7L5280.5,13019.5L5280.61,13020.2L5280.73,13021L5280.85,13021.7L5280.97,13022.5L5281.09,13023.3L5281.21,13024L5281.34,13024.8L5281.47,13025.5L5281.6,13026.3L5281.73,13027.1L5281.87,13027.8L5282.01,13028.6L5282.15,13029.3L5282.29,13030.1L5282.44,13030.8L5282.59,13031.6L5282.74,13032.3L5282.89,13033.1L5283.05,13033.8L5283.2,13034.6L5283.36,13035.3L5283.52,13036.1L5283.69,13036.8L5283.85,13037.6L5284.02,13038.3L5284.19,13039.1L5284.36,13039.8L5284.54,13040.5L5284.72,13041.3L5284.9,13042L5285.08,13042.8L5285.26,13043.5L5285.45,13044.2L5285.64,13045L5285.83,13045.7L5286.02,13046.5L5286.21,13047.2L5286.41,13047.9L5286.61,13048.7L5286.81,13049.4L5287.02,13050.1L5287.22,13050.8L5287.43,13051.6L5287.64,13052.3L5287.85,13053L5288.07,13053.8L5288.28,13054.5L5288.5,13055.2L5288.73,13055.9L5288.95,13056.6L5289.17,13057.4L5289.4,13058.1L5289.63,13058.8L5289.86,13059.5L5290.1,13060.2L5290.33,13061L5290.57,13061.7L5290.81,13062.4L5291.06,13063.1L5291.3,13063.8L5291.55,13064.5L5291.8,13065.2L5292.05,13066L5292.3,13066.7L5292.56,13067.4L5292.81,13068.1L5293.07,13068.8L5293.34,13069.5L5293.6,13070.2L5293.86,13070.9L5294.13,13071.6L5294.4,13072.3L5294.67,13073L5294.95,13073.7L5295.23,13074.4L5295.5,13075.1L5295.78,13075.8L5296.07,13076.5L5296.35,13077.2L5296.64,13077.9L5296.93,13078.5L5297.22,13079.2L5297.51,13079.9L5297.8,13080.6L5298.1,13081.3L5298.4,13082L5298.7,13082.7L5299,13083.4L5299.31,13084L5299.61,13084.7L5299.92,13085.4L5300.23,13086.1L5300.55,13086.8L5300.86,13087.4L5301.18,13088.1L5301.49,13088.8L5301.82,13089.5L5302.14,13090.1L5302.46,13090.8L5302.79,13091.5L5303.12,13092.1L5303.45,13092.8L5303.78,13093.5L5304.12,13094.1L5304.45,13094.8L5304.79,13095.5L5305.13,13096.1L5305.47,13096.8L5305.82,13097.4L5306.16,13098.1L5306.51,13098.8L5306.86,13099.4L5307.22,13100.1L5307.57,13100.7L5307.92,13101.4L5308.28,13102L5308.64,13102.7L5309,13103.3L5309.37,13104L5309.73,13104.6L5310.1,13105.3L5310.47,13105.9L5310.84,13106.6L5311.21,13107.2L5311.59,13107.8L5311.96,13108.5L5312.34,13109.1L5312.72,13109.8L5313.1,13110.4L5313.49,13111L5313.87,13111.7L5314.26,13112.3L5314.65,13112.9L5315.04,13113.5L5315.44,13114.2L5315.83,13114.8L5316.23,13115.4L5316.63,13116.1L5317.03,13116.7L5317.43,13117.3L5317.84,13117.9L5318.24,13118.5L5318.65,13119.2L5319.06,13119.8L5319.47,13120.4L5319.88,13121L5320.3,13121.6L5320.72,13122.2L5321.14,13122.8L5321.56,13123.4L5321.98,13124.1L5322.4,13124.7L5322.83,13125.3L5323.26,13125.9L5323.68,13126.5L5324.11,13127.1L5324.55,13127.7L5324.98,13128.3L5325.42,13128.9L5325.86,13129.5L5326.3,13130L5326.74,13130.6L5327.18,13131.2L5327.63,13131.8L5328.07,13132.4L5328.52,13133L5328.97,13133.6L5329.43,13134.2L5329.88,13134.7L5330.33,13135.3L5330.79,13135.9L5331.25,13136.5L5331.71,13137.1L5332.17,13137.6L5332.64,13138.2L5333.1,13138.8L5333.57,13139.4L5334.04,13139.9L5334.51,13140.5L5334.98,13141.1L5335.45,13141.6L5335.93,13142.2L5336.41,13142.8L5336.89,13143.3L5337.37,13143.9L5337.85,13144.4L5338.33,13145L5338.82,13145.5L5339.31,13146.1L5339.8,13146.7L5340.28,13147.2L5340.78,13147.8L5341.27,13148.3L5341.77,13148.9L5342.26,13149.4L5342.76,13149.9L5343.26,13150.5L5343.76,13151L5344.27,13151.6L5344.77,13152.1L5345.28,13152.6L5345.79,13153.2L5346.3,13153.7L5346.81,13154.2L5347.32,13154.8L5347.84,13155.3L5348.35,13155.8L5348.87,13156.3L5349.39,13156.9L5349.91,13157.4L5350.43,13157.9L5350.95,13158.4L5351.48,13158.9L5352.01,13159.5L5352.53,13160L5353.06,13160.5L5353.6,13161L5354.13,13161.5L5354.66,13162L5355.2,13162.5L5355.74,13163L5356.28,13163.5L5356.82,13164L5357.36,13164.5L5357.9,13165L5358.45,13165.5L5358.99,13166L5359.54,13166.5L5360.09,13167L5360.64,13167.5L5361.19,13168L5361.75,13168.5L5362.3,13169L5362.86,13169.4L5363.42,13169.9L5363.98,13170.4L5364.54,13170.9L5365.1,13171.4L5365.67,13171.8L5366.23,13172.3L5366.8,13172.8L5367.37,13173.3L5367.94,13173.7L5368.51,13174.2L5369.08,13174.7L5369.66,13175.1L5370.23,13175.6L5370.81,13176L5371.39,13176.5L5371.97,13177L5372.55,13177.4L5373.13,13177.9L5373.72,13178.3L5374.3,13178.8L5374.89,13179.2L5375.48,13179.7L5376.07,13180.1L5376.66,13180.6L5377.25,13181L5377.84,13181.4L5378.44,13181.9L5379.03,13182.3L5379.63,13182.7L5380.23,13183.2L5380.83,13183.6L5381.43,13184L5382.04,13184.5L5382.64,13184.9L5383.25,13185.3L5383.86,13185.7L5384.46,13186.2L5385.07,13186.6L5385.69,13187L5386.3,13187.4L5386.91,13187.8L5387.53,13188.2L5388.14,13188.6L5388.76,13189.1L5389.38,13189.5L5390,13189.9L5390.62,13190.3L5391.24,13190.7L5391.87,13191.1L5392.49,13191.5L5393.12,13191.9L5393.75,13192.3L5394.38,13192.6L5395.01,13193L5395.64,13193.4L5396.27,13193.8L5396.91,13194.2L5397.54,13194.6L5398.18,13195L5398.82,13195.3L5399.46,13195.7L5400.1,13196.1L5400.74,13196.5L5401.38,13196.8L5402.03,13197.2L5402.67,13197.6L5403.32,13197.9L5403.97,13198.3L5404.61,13198.7L5405.27,13199L5405.92,13199.4L5406.57,13199.7L5407.22,13200.1L5407.88,13200.4L5408.53,13200.8L5409.19,13201.1L5409.85,13201.5L5410.51,13201.8L5411.17,13202.2L5411.83,13202.5L5412.49,13202.8L5413.16,13203.2L5413.82,13203.5L5414.49,13203.8L5415.16,13204.2L5415.83,13204.5L5416.5,13204.8L5417.17,13205.2L5417.84,13205.5L5418.52,13205.8L5419.19,13206.1L5419.87,13206.4L5420.54,13206.8L5421.22,13207.1L5421.9,13207.4L5422.58,13207.7L5423.26,13208L5423.94,13208.3L5424.63,13208.6L5425.31,13208.9L5426,13209.2L5426.68,13209.5L5427.37,13209.8L5428.06,13210.1L5428.75,13210.4L5429.44,13210.7L5430.13,13210.9L5430.83,13211.2L5431.52,13211.5L5432.22,13211.8L5432.91,13212.1L5433.61,13212.3L5434.31,13212.6L5435.01,13212.9L5435.71,13213.2L5436.41,13213.4L5437.11,13213.7L5437.81,13214L5438.52,13214.2L5439.22,13214.5L5439.93,13214.7L5440.64,13215L5441.35,13215.2L5442.06,13215.5L5442.77,13215.8L5443.48,13216L5444.19,13216.2L5444.9,13216.5L5445.62,13216.7L5446.33,13217L5447.05,13217.2L5447.77,13217.4L5448.49,13217.7L5449.21,13217.9L5449.93,13218.1L5450.65,13218.3L5451.37,13218.6L5452.09,13218.8L5452.82,13219L5453.54,13219.2L5454.27,13219.4L5454.99,13219.7L5455.72,13219.9L5456.45,13220.1L5457.18,13220.3L5457.91,13220.5L5458.64,13220.7L5459.38,13220.9L5460.11,13221.1L5460.84,13221.3L5461.58,13221.5L5462.31,13221.7L5463.05,13221.9L5463.79,13222L5464.53,13222.2L5465.27,13222.4L5466.01,13222.6L5466.75,13222.8L5467.49,13222.9L5468.23,13223.1L5468.98,13223.3L5469.72,13223.4L5470.47,13223.6L5471.21,13223.8L5471.96,13223.9L5472.71,13224.1L5473.46,13224.3L5474.21,13224.4L5474.96,13224.6L5475.71,13224.7L5476.46,13224.9L5477.22,13225L5477.97,13225.1L5478.72,13225.3L5479.48,13225.4L5480.24,13225.6L5480.99,13225.7L5481.75,13225.8L5482.51,13226L5483.27,13226.1L5484.03,13226.2L5484.79,13226.3L5485.55,13226.5L5486.32,13226.6L5487.08,13226.7L5487.84,13226.8L5488.61,13226.9L5489.37,13227L5490.14,13227.1L5490.91,13227.2L5491.68,13227.3L5492.44,13227.4L5493.21,13227.5L5493.98,13227.6L5494.75,13227.7L5495.53,13227.8L5496.3,13227.9L5497.07,13228L5497.85,13228.1L5498.62,13228.1L5499.4,13228.2L5500.17,13228.3L5500.95,13228.4L5501.73,13228.4L5502.5,13228.5L5503.28,13228.6L5504.06,13228.6L5504.84,13228.7L5505.62,13228.7L5506.4,13228.8L5507.19,13228.9L5507.97,13228.9L5508.75,13229L5509.54,13229L5510.32,13229L5511.11,13229.1L5511.89,13229.1L5512.68,13229.2L5513.47,13229.2L5514.26,13229.2L5515.04,13229.3L5515.83,13229.3L5516.62,13229.3L5517.41,13229.3L5518.2,13229.3L5519,13229.4L5519.79,13229.4L5520.58,13229.4L5521.38,13229.4L5522.17,13229.4L5522.97,13229.4L5523.76,13229.4L5524.56,13229.4L5525.35,13229.4L5526.15,13229.4L5526.94,13229.4L5527.73,13229.4L5528.53,13229.4L5529.32,13229.3L5530.11,13229.3L5530.9,13229.3L5531.69,13229.3L5532.48,13229.3L5533.27,13229.2L5534.06,13229.2L5534.84,13229.2L5535.63,13229.1L5536.41,13229.1L5537.2,13229L5537.99,13229L5538.77,13229L5539.55,13228.9L5540.34,13228.9L5541.12,13228.8L5541.9,13228.7L5542.68,13228.7L5543.46,13228.6L5544.24,13228.6L5545.02,13228.5L5545.8,13228.4L5546.57,13228.4L5547.35,13228.3L5548.13,13228.2L5548.9,13228.1L5549.68,13228.1L5550.45,13228L5551.22,13227.9L5552,13227.8L5552.77,13227.7L5553.54,13227.6L5554.31,13227.5L5555.08,13227.4L5555.85,13227.3L5556.61,13227.2L5557.38,13227.1L5558.15,13227L5558.91,13226.9L5559.68,13226.8L5560.44,13226.7L5561.21,13226.6L5561.97,13226.5L5562.73,13226.3L5563.49,13226.2L5564.25,13226.1L5565.01,13226L5565.77,13225.8L5566.53,13225.7L5567.29,13225.6L5568.04,13225.4L5568.8,13225.3L5569.55,13225.1L5570.31,13225L5571.06,13224.9L5571.81,13224.7L5572.56,13224.6L5573.31,13224.4L5574.06,13224.3L5574.81,13224.1L5575.56,13223.9L5576.31,13223.8L5577.05,13223.6L5577.8,13223.4L5578.55,13223.3L5579.29,13223.1L5580.03,13222.9L5580.77,13222.8L5581.52,13222.6L5582.26,13222.4L5582.99,13222.2L5583.73,13222L5584.47,13221.9L5585.21,13221.7L5585.94,13221.5L5586.68,13221.3L5587.41,13221.1L5588.15,13220.9L5588.88,13220.7L5589.61,13220.5L5590.34,13220.3L5591.07,13220.1L5591.8,13219.9L5592.53,13219.7L5593.25,13219.4L5593.98,13219.2L5594.7,13219L5595.43,13218.8L5596.15,13218.6L5596.88,13218.3L5597.6,13218.1L5598.32,13217.9L5599.03,13217.7L5599.75,13217.4L5600.47,13217.2L5601.19,13217L5601.9,13216.7L5602.62,13216.5L5603.33,13216.2L5604.04,13216L5604.76,13215.8L5605.47,13215.5L5606.18,13215.2L5606.88,13215L5607.59,13214.7L5608.3,13214.5L5609,13214.2L5609.71,13214L5610.41,13213.7L5611.11,13213.4L5611.82,13213.2L5612.52,13212.9L5613.22,13212.6L5613.91,13212.3L5614.61,13212.1L5615.31,13211.8L5616,13211.5L5616.7,13211.2L5617.39,13210.9L5618.08,13210.7L5618.77,13210.4L5619.46,13210.1L5620.15,13209.8L5620.84,13209.5L5621.53,13209.2L5622.21,13208.9L5622.9,13208.6L5623.58,13208.3L5624.26,13208L5624.94,13207.7L5625.62,13207.4L5626.3,13207.1L5626.98,13206.8L5627.66,13206.4L5628.33,13206.1L5629.01,13205.8L5629.68,13205.5L5630.35,13205.2L5631.02,13204.8L5631.69,13204.5L5632.36,13204.2L5633.03,13203.8L5633.7,13203.5L5634.36,13203.2L5635.03,13202.8L5635.69,13202.5L5636.35,13202.2L5637.01,13201.8L5637.67,13201.5L5638.33,13201.1L5638.99,13200.8L5639.64,13200.4L5640.3,13200.1L5640.95,13199.7L5641.61,13199.4L5642.26,13199L5642.91,13198.7L5643.56,13198.3L5644.2,13197.9L5644.85,13197.6L5645.5,13197.2L5646.14,13196.8L5646.78,13196.5L5647.43,13196.1L5648.07,13195.7L5648.7,13195.3L5649.34,13195L5649.98,13194.6L5650.61,13194.2L5651.25,13193.8L5651.88,13193.4L5652.51,13193L5653.14,13192.6L5653.77,13192.3L5654.4,13191.9L5655.03,13191.5L5655.65,13191.1L5656.28,13190.7L5656.9,13190.3L5657.52,13189.9L5658.14,13189.5L5658.76,13189.1L5659.38,13188.6L5660,13188.2L5660.61,13187.8L5661.23,13187.4L5661.84,13187L5662.45,13186.6L5663.06,13186.2L5663.67,13185.7L5664.27,13185.3L5664.88,13184.9L5665.48,13184.5L5666.09,13184L5666.69,13183.6L5667.29,13183.2L5667.89,13182.7L5668.49,13182.3L5669.08,13181.9L5669.68,13181.4L5670.27,13181L5670.86,13180.6L5671.45,13180.1L5672.05,13179.7L5672.63,13179.2L5673.22,13178.8L5673.81,13178.3L5674.39,13177.9L5674.97,13177.4L5675.55,13177L5676.13,13176.5L5676.71,13176L5677.29,13175.6L5677.86,13175.1L5678.44,13174.7L5679.01,13174.2L5679.58,13173.7L5680.15,13173.3L5680.72,13172.8L5681.29,13172.3L5681.85,13171.8L5682.42,13171.4L5682.98,13170.9L5683.54,13170.4L5684.1,13169.9L5684.66,13169.4L5685.22,13169L5685.77,13168.5L5686.33,13168L5686.88,13167.5L5687.43,13167L5687.98,13166.5L5688.53,13166L5689.07,13165.5L5689.62,13165L5690.16,13164.5L5690.7,13164L5691.25,13163.5L5691.78,13163L5692.32,13162.5L5692.86,13162L5693.39,13161.5L5693.93,13161L5694.46,13160.5L5694.99,13160L5695.52,13159.5L5696.04,13158.9L5696.57,13158.4L5697.09,13157.9L5697.61,13157.4L5698.13,13156.9L5698.65,13156.3L5699.17,13155.8L5699.69,13155.3L5700.2,13154.8L5700.71,13154.2L5701.23,13153.7L5701.73,13153.2L5702.24,13152.6L5702.75,13152.1L5703.26,13151.6L5703.76,13151L5704.26,13150.5L5704.76,13149.9L5705.26,13149.4L5705.76,13148.9L5706.25,13148.3L5706.74,13147.8L5707.24,13147.2L5707.73,13146.7L5708.22,13146.1L5708.7,13145.5L5709.19,13145L5709.67,13144.4L5710.15,13143.9L5710.64,13143.3L5711.11,13142.8L5711.59,13142.2L5712.07,13141.6L5712.54,13141.1L5713.01,13140.5L5713.48,13139.9L5713.95,13139.4L5714.42,13138.8L5714.89,13138.2L5715.35,13137.6L5715.81,13137.1L5716.27,13136.5L5716.73,13135.9L5717.19,13135.3L5717.64,13134.7L5718.1,13134.2L5718.55,13133.6L5719,13133L5719.45,13132.4L5719.89,13131.8L5720.34,13131.2L5720.78,13130.6L5721.22,13130L5721.66,13129.5L5722.1,13128.9L5722.54,13128.3L5722.97,13127.7L5723.41,13127.1L5723.84,13126.5L5724.27,13125.9L5724.69,13125.3L5725.12,13124.7L5725.54,13124.1L5725.97,13123.4L5726.39,13122.8L5726.81,13122.2L5727.22,13121.6L5727.64,13121L5728.05,13120.4L5728.46,13119.8L5728.87,13119.2L5729.28,13118.5L5729.69,13117.9L5730.09,13117.3L5730.49,13116.7L5730.89,13116.1L5731.29,13115.4L5731.69,13114.8L5732.09,13114.2L5732.48,13113.5L5732.87,13112.9L5733.26,13112.3L5733.65,13111.7L5734.03,13111L5734.42,13110.4L5734.8,13109.8L5735.18,13109.1L5735.56,13108.5L5735.94,13107.8L5736.31,13107.2L5736.68,13106.6L5737.05,13105.9L5737.42,13105.3L5737.79,13104.6L5738.15,13104L5738.52,13103.3L5738.88,13102.7L5739.24,13102L5739.6,13101.4L5739.95,13100.7L5740.31,13100.1L5740.66,13099.4L5741.01,13098.8L5741.36,13098.1L5741.7,13097.4L5742.05,13096.8L5742.39,13096.1L5742.73,13095.5L5743.07,13094.8L5743.4,13094.1L5743.74,13093.5L5744.07,13092.8L5744.4,13092.1L5744.73,13091.5L5745.06,13090.8L5745.38,13090.1L5745.7,13089.5L5746.03,13088.8L5746.34,13088.1L5746.66,13087.4L5746.98,13086.8L5747.29,13086.1L5747.6,13085.4L5747.91,13084.7L5748.22,13084L5748.52,13083.4L5748.82,13082.7L5749.12,13082L5749.42,13081.3L5749.72,13080.6L5750.01,13079.9L5750.31,13079.2L5750.6,13078.5L5750.89,13077.9L5751.17,13077.2L5751.46,13076.5L5751.74,13075.8L5752.02,13075.1L5752.3,13074.4L5752.57,13073.7L5752.85,13073L5753.12,13072.3L5753.39,13071.6L5753.66,13070.9L5753.92,13070.2L5754.19,13069.5L5754.45,13068.8L5754.71,13068.1L5754.97,13067.4L5755.22,13066.7L5755.47,13066L5755.73,13065.2L5755.97,13064.5L5756.22,13063.8L5756.47,13063.1L5756.71,13062.4L5756.95,13061.7L5757.19,13061L5757.42,13060.2L5757.66,13059.5L5757.89,13058.8L5758.12,13058.1L5758.35,13057.4L5758.57,13056.6L5758.8,13055.9L5759.02,13055.2L5759.24,13054.5L5759.45,13053.8L5759.67,13053L5759.88,13052.3L5760.09,13051.6L5760.3,13050.8L5760.51,13050.1L5760.71,13049.4L5760.91,13048.7L5761.11,13047.9L5761.31,13047.2L5761.5,13046.5L5761.69,13045.7L5761.89,13045L5762.07,13044.2L5762.26,13043.5L5762.44,13042.8L5762.63,13042L5762.81,13041.3L5762.98,13040.5L5763.16,13039.8L5763.33,13039.1L5763.5,13038.3L5763.67,13037.6L5763.84,13036.8L5764,13036.1L5764.16,13035.3L5764.32,13034.6L5764.48,13033.8L5764.63,13033.1L5764.78,13032.3L5764.93,13031.6L5765.08,13030.8L5765.23,13030.1L5765.37,13029.3L5765.51,13028.6L5765.65,13027.8L5765.79,13027.1L5765.92,13026.3L5766.05,13025.5L5766.18,13024.8L5766.31,13024L5766.43,13023.3L5766.56,13022.5L5766.68,13021.7L5766.79,13021L5766.91,13020.2L5767.02,13019.5L5767.13,13018.7L5767.24,13017.9L5767.35,13017.2L5767.45,13016.4L5767.55,13015.6L5767.65,13014.9L5767.75,13014.1L5767.84,13013.3L5767.93,13012.5L5768.02,13011.8L5768.11,13011L5768.19,13010.2L5768.28,13009.5L5768.36,13008.7L5768.43,13007.9L5768.51,13007.1L5768.58,13006.3L5768.65,13005.6L5768.72,13004.8L5768.78,13004L5768.85,13003.2L5768.91,13002.5L5768.97,13001.7L5769.02,13000.9L5769.08,13000.1L5769.13,12999.3L5769.18,12998.5L5769.22,12997.8L5769.27,12997L5769.31,12996.2L5769.35,12995.4L5769.38,12994.6L5769.41,12993.8L5769.45,12993L5769.47,12992.3L5769.5,12991.5L5769.52,12990.7L5769.55,12989.9L5769.56,12989.1L5769.58,12988.3L5769.6,12987.5L5769.61,12986.7L5769.61,12985.9L5769.62,12985.1L5769.62,12984.3L5769.63,12983.5L5769.62,12982.7L5769.62,12981.9L5769.61,12981.2L5769.61,12980.4L5769.6,12979.6L5769.58,12978.8L5769.56,12978L5769.55,12977.2L5769.52,12976.4L5769.5,12975.6L5769.47,12974.8L5769.45,12974L5769.41,12973.2L5769.38,12972.5L5769.35,12971.7L5769.31,12970.9L5769.27,12970.1L5769.22,12969.3L5769.18,12968.5L5769.13,12967.7L5769.08,12967L5769.02,12966.2L5768.97,12965.4L5768.91,12964.6L5768.85,12963.8L5768.78,12963.1L5768.72,12962.3L5768.65,12961.5L5768.58,12960.7L5768.51,12959.9L5768.43,12959.2L5768.36,12958.4L5768.28,12957.6L5768.19,12956.8L5768.11,12956.1L5768.02,12955.3L5767.93,12954.5L5767.84,12953.8L5767.75,12953L5767.65,12952.2L5767.55,12951.5L5767.45,12950.7L5767.35,12949.9L5767.24,12949.1L5767.13,12948.4L5767.02,12947.6L5766.91,12946.9L5766.79,12946.1L5766.68,12945.3L5766.56,12944.6L5766.43,12943.8L5766.31,12943L5766.18,12942.3L5766.05,12941.5L5765.92,12940.8L5765.79,12940L5765.65,12939.3L5765.51,12938.5L5765.37,12937.7L5765.23,12937L5765.08,12936.2L5764.93,12935.5L5764.78,12934.7L5764.63,12934L5764.48,12933.2L5764.32,12932.5L5764.16,12931.7L5764,12931L5763.84,12930.2L5763.67,12929.5L5763.5,12928.8L5763.33,12928L5763.16,12927.3L5762.98,12926.5L5762.81,12925.8L5762.63,12925L5762.44,12924.3L5762.26,12923.6L5762.07,12922.8L5761.89,12922.1L5761.69,12921.4L5761.5,12920.6L5761.31,12919.9L5761.11,12919.1L5760.91,12918.4L5760.71,12917.7L5760.51,12917L5760.3,12916.2L5760.09,12915.5L5759.88,12914.8L5759.67,12914L5759.45,12913.3L5759.24,12912.6L5759.02,12911.9L5758.8,12911.1L5758.57,12910.4L5758.35,12909.7L5758.12,12909L5757.89,12908.3L5757.66,12907.5L5757.42,12906.8L5757.19,12906.1L5756.95,12905.4L5756.71,12904.7L5756.47,12904L5756.22,12903.3L5755.97,12902.5L5755.73,12901.8L5755.47,12901.1L5755.22,12900.4L5754.97,12899.7L5754.71,12899L5754.45,12898.3L5754.19,12897.6L5753.92,12896.9L5753.66,12896.2L5753.39,12895.5L5753.12,12894.8L5752.85,12894.1L5752.57,12893.4L5752.3,12892.7L5752.02,12892L5751.74,12891.3L5751.46,12890.6L5751.17,12889.9L5750.89,12889.2L5750.6,12888.5L5750.31,12887.8L5750.01,12887.1L5749.72,12886.5L5749.42,12885.8L5749.12,12885.1L5748.82,12884.4L5748.52,12883.7L5748.22,12883L5747.91,12882.4L5747.6,12881.7L5747.29,12881L5746.98,12880.3L5746.66,12879.6L5746.34,12879L5746.03,12878.3L5745.7,12877.6L5745.38,12876.9L5745.06,12876.3L5744.73,12875.6L5744.4,12874.9L5744.07,12874.3L5743.74,12873.6L5743.4,12872.9L5743.07,12872.3L5742.73,12871.6L5742.39,12870.9L5742.05,12870.3L5741.7,12869.6L5741.36,12869L5741.01,12868.3L5740.66,12867.7L5740.31,12867L5739.95,12866.3L5739.6,12865.7L5739.24,12865L5738.88,12864.4L5738.52,12863.7L5738.15,12863.1L5737.79,12862.4L5737.42,12861.8L5737.05,12861.2L5736.68,12860.5L5736.31,12859.9L5735.94,12859.2L5735.56,12858.6L5735.18,12858L5734.8,12857.3L5734.42,12856.7L5734.03,12856L5733.65,12855.4L5733.26,12854.8L5732.87,12854.2L5732.48,12853.5L5732.09,12852.9L5731.69,12852.3L5731.29,12851.6L5730.89,12851L5730.49,12850.4L5730.09,12849.8L5729.69,12849.2L5729.28,12848.5L5728.87,12847.9L5728.46,12847.3L5728.05,12846.7L5727.64,12846.1L5727.22,12845.5L5726.81,12844.8L5726.39,12844.2L5725.97,12843.6L5725.54,12843L5725.12,12842.4L5724.69,12841.8L5724.27,12841.2L5723.84,12840.6L5723.41,12840L5722.97,12839.4L5722.54,12838.8L5722.1,12838.2L5721.66,12837.6L5721.22,12837L5720.78,12836.4L5720.34,12835.8L5719.89,12835.3L5719.45,12834.7L5719,12834.1L5718.55,12833.5L5718.1,12832.9L5717.64,12832.3L5717.19,12831.7L5716.73,12831.2L5716.27,12830.6L5715.81,12830L5715.35,12829.4L5714.89,12828.9L5714.42,12828.3L5713.95,12827.7L5713.48,12827.1L5713.01,12826.6L5712.54,12826L5712.07,12825.4L5711.59,12824.9L5711.11,12824.3L5710.64,12823.8L5710.15,12823.2L5709.67,12822.6L5709.19,12822.1L5708.7,12821.5L5708.22,12821L5707.73,12820.4L5707.24,12819.9L5706.74,12819.3L5706.25,12818.8L5705.76,12818.2L5705.26,12817.7L5704.76,12817.1L5704.26,12816.6L5703.76,12816.1L5703.26,12815.5L5702.75,12815L5702.24,12814.4L5701.73,12813.9L5701.23,12813.4L5700.71,12812.8L5700.2,12812.3L5699.69,12811.8L5699.17,12811.3L5698.65,12810.7L5698.13,12810.2L5697.61,12809.7L5697.09,12809.2L5696.57,12808.6L5696.04,12808.1L5695.52,12807.6L5694.99,12807.1L5694.46,12806.6L5693.93,12806.1L5693.39,12805.6L5692.86,12805.1L5692.32,12804.5L5691.78,12804L5691.25,12803.5L5690.7,12803L5690.16,12802.5L5689.62,12802L5689.07,12801.5L5688.53,12801L5687.98,12800.6L5687.43,12800.1L5686.88,12799.6L5686.33,12799.1L5685.77,12798.6L5685.22,12798.1L5684.66,12797.6L5684.1,12797.1L5683.54,12796.7L5682.98,12796.2L5682.42,12795.7L5681.85,12795.2L5681.29,12794.8L5680.72,12794.3L5680.15,12793.8L5679.58,12793.3L5679.01,12792.9L5678.44,12792.4L5677.86,12791.9L5677.29,12791.5L5676.71,12791L5676.13,12790.6L5675.55,12790.1L5674.97,12789.7L5674.39,12789.2L5673.81,12788.8L5673.22,12788.3L5672.63,12787.9L5672.05,12787.4L5671.45,12787L5670.86,12786.5L5670.27,12786.1L5669.68,12785.6L5669.08,12785.2L5668.49,12784.8L5667.89,12784.3L5667.29,12783.9L5666.69,12783.5L5666.09,12783L5665.48,12782.6L5664.88,12782.2L5664.27,12781.8L5663.67,12781.3L5663.06,12780.9L5662.45,12780.5L5661.84,12780.1L5661.23,12779.7L5660.61,12779.2L5660,12778.8L5659.38,12778.4L5658.76,12778L5658.14,12777.6L5657.52,12777.2L5656.9,12776.8L5656.28,12776.4L5655.65,12776L5655.03,12775.6L5654.4,12775.2L5653.77,12774.8L5653.14,12774.4L5652.51,12774L5651.88,12773.7L5651.25,12773.3L5650.61,12772.9L5649.98,12772.5L5649.34,12772.1L5648.7,12771.7L5648.07,12771.4L5647.43,12771L5646.78,12770.6L5646.14,12770.2L5645.5,12769.9L5644.85,12769.5L5644.2,12769.1L5643.56,12768.8L5642.91,12768.4L5642.26,12768.1L5641.61,12767.7L5640.95,12767.3L5640.3,12767L5639.64,12766.6L5638.99,12766.3L5638.33,12765.9L5637.67,12765.6L5637.01,12765.3L5636.35,12764.9L5635.69,12764.6L5635.03,12764.2L5634.36,12763.9L5633.7,12763.6L5633.03,12763.2L5632.36,12762.9L5631.69,12762.6L5631.02,12762.2L5630.35,12761.9L5629.68,12761.6L5629.01,12761.3L5628.33,12761L5627.66,12760.6L5626.98,12760.3L5626.3,12760L5625.62,12759.7L5624.94,12759.4L5624.26,12759.1L5623.58,12758.8L5622.9,12758.5L5622.21,12758.2L5621.53,12757.9L5620.84,12757.6L5620.15,12757.3L5619.46,12757L5618.77,12756.7L5618.08,12756.4L5617.39,12756.1L5616.7,12755.8L5616,12755.6L5615.31,12755.3L5614.61,12755L5613.91,12754.7L5613.22,12754.5L5612.52,12754.2L5611.82,12753.9L5611.11,12753.6L5610.41,12753.4L5609.71,12753.1L5609,12752.9L5608.3,12752.6L5607.59,12752.3L5606.88,12752.1L5606.18,12751.8L5605.47,12751.6L5604.76,12751.3L5604.04,12751.1L5603.33,12750.8L5602.62,12750.6L5601.9,12750.3L5601.19,12750.1L5600.47,12749.9L5599.75,12749.6L5599.03,12749.4L5598.32,12749.2L5597.6,12749L5596.88,12748.7L5596.15,12748.5L5595.43,12748.3L5594.7,12748.1L5593.98,12747.8L5593.25,12747.6L5592.53,12747.4L5591.8,12747.2L5591.07,12747L5590.34,12746.8L5589.61,12746.6L5588.88,12746.4L5588.15,12746.2L5587.41,12746L5586.68,12745.8L5585.94,12745.6L5585.21,12745.4L5584.47,12745.2L5583.73,12745L5582.99,12744.9L5582.26,12744.7L5581.52,12744.5L5580.77,12744.3L5580.03,12744.1L5579.29,12744L5578.55,12743.8L5577.8,12743.6L5577.06,12743.5L5576.31,12743.3L5575.56,12743.1L5574.81,12743L5574.06,12742.8L5573.31,12742.7L5572.56,12742.5L5571.81,12742.4L5571.06,12742.2L5570.31,12742.1L5569.55,12741.9L5568.8,12741.8L5568.04,12741.6L5567.29,12741.5L5566.53,12741.4L5565.77,12741.2L5565.01,12741.1L5564.25,12741L5563.49,12740.9L5562.73,12740.7L5561.97,12740.6L5561.21,12740.5L5560.44,12740.4L5559.68,12740.3L5558.91,12740.2L5558.15,12740.1L5557.38,12740L5556.61,12739.8L5555.85,12739.7L5555.08,12739.6L5554.31,12739.6L5553.54,12739.5L5552.77,12739.4L5552,12739.3L5551.22,12739.2L5550.45,12739.1L5549.68,12739L5548.9,12738.9L5548.13,12738.9L5547.35,12738.8L5546.57,12738.7L5545.8,12738.6L5545.02,12738.6L5544.24,12738.5L5543.46,12738.5L5542.68,12738.4L5541.9,12738.3L5541.12,12738.3L5540.34,12738.2L5539.55,12738.2L5538.77,12738.1L5537.99,12738.1L5537.2,12738L5536.41,12738L5535.63,12738L5534.84,12737.9L5534.06,12737.9L5533.27,12737.9L5532.48,12737.8L5531.69,12737.8L5530.9,12737.8L5530.11,12737.8L5529.32,12737.7L5528.53,12737.7L5527.73,12737.7L5526.94,12737.7L5526.15,12737.7L5525.35,12737.7L5524.56,12737.7L5523.76,12737.7L5522.97,12737.7Z" style="fill:rgb(39,62,69);"/>
            </g>
            <g transform="matrix(1,0,0,1.06432,5269.75,11942.3)">
                <rect x="148.131" y="270.209" width="211.23" height="166.711" style="fill:white;"/>
            </g>
            <g transform="matrix(1,0,0,1,0,-770)">
                <path d="M5491.37,12982.8L5491.37,12981.4C5491.37,12976.8 5495.09,12973.1 5499.67,12973.1L5547.85,12973.1C5552.43,12973.1 5556.15,12976.8 5556.15,12981.4L5556.15,12982.8L5491.37,12982.8Z" style="fill:rgb(225,80,72);fill-rule:nonzero;"/>
            </g>
            <g transform="matrix(1,0,0,1,0,-5600)">
                <path d="M5623.41,17818.8C5642.39,17818.8 5657.78,17834.2 5657.78,17853.2L5657.78,17998.9C5620.11,18026.2 5573.82,18042.3 5523.76,18042.3C5473.71,18042.3 5427.41,18026.2 5389.74,17998.9L5389.74,17853.2C5389.74,17834.2 5405.13,17818.8 5424.11,17818.8L5623.41,17818.8ZM5523.76,17996.2C5520.8,17996.2 5517.81,17996.1 5514.87,17995.9L5516.97,17960.3C5521.33,17960.6 5525.8,17960.6 5530.16,17960.4L5532.14,17996C5529.37,17996.1 5526.55,17996.2 5523.76,17996.2ZM5540.55,17995.3L5536.56,17959.8C5540.91,17959.3 5545.27,17958.6 5549.52,17957.6L5557.6,17992.3C5552.01,17993.6 5546.27,17994.6 5540.55,17995.3ZM5506.48,17995.2C5500.76,17994.5 5495.03,17993.5 5489.44,17992.2L5497.64,17957.5C5501.88,17958.5 5506.23,17959.3 5510.58,17959.8L5506.48,17995.2ZM5565.77,17990.2L5555.72,17956C5559.91,17954.7 5564.07,17953.2 5568.09,17951.5L5582.07,17984.3C5576.77,17986.6 5571.29,17988.6 5565.77,17990.2ZM5465.01,17984.1L5479.1,17951.4C5483.11,17953.1 5487.27,17954.6 5491.45,17955.9L5481.28,17990C5475.77,17988.4 5470.29,17986.4 5465.01,17984.1ZM5589.74,17980.8L5573.91,17948.8C5577.82,17946.9 5581.67,17944.7 5585.34,17942.3L5604.77,17972.2C5599.94,17975.4 5594.89,17978.3 5589.74,17980.8ZM5442.36,17972L5461.88,17942.1C5465.54,17944.5 5469.38,17946.7 5473.28,17948.7L5457.35,17980.6C5452.21,17978 5447.17,17975.1 5442.36,17972ZM5577.45,17925.1C5557.05,17925.1 5540.51,17908.6 5540.51,17888.2C5540.51,17867.8 5557.05,17851.2 5577.45,17851.2C5597.86,17851.2 5614.39,17867.8 5614.39,17888.2C5614.39,17908.6 5597.86,17925.1 5577.45,17925.1ZM5470.07,17851.2C5490.47,17851.2 5507.01,17867.8 5507.01,17888.2C5507.01,17908.6 5490.47,17925.1 5470.07,17925.1C5449.67,17925.1 5433.13,17908.6 5433.13,17888.2C5433.13,17867.8 5449.67,17851.2 5470.07,17851.2Z" style="fill:rgb(225,80,72);"/>
            </g>
            <g transform="matrix(1,0,0,1,0,-770)">
                <path d="M5484.72,13045.5C5484.72,13053.6 5478.16,13060.2 5470.07,13060.2C5461.98,13060.2 5455.42,13053.6 5455.42,13045.5C5455.42,13037.4 5461.98,13030.9 5470.07,13030.9C5478.16,13030.9 5484.72,13037.4 5484.72,13045.5" style="fill:rgb(225,80,72);fill-rule:nonzero;"/>
            </g>
            <g transform="matrix(1,0,0,1,0,-770)">
                <path d="M5592.1,13045.5C5592.1,13053.6 5585.54,13060.2 5577.45,13060.2C5569.36,13060.2 5562.8,13053.6 5562.8,13045.5C5562.8,13037.4 5569.36,13030.9 5577.45,13030.9C5585.54,13030.9 5592.1,13037.4 5592.1,13045.5" style="fill:rgb(225,80,72);fill-rule:nonzero;"/>
            </g>
            <g transform="matrix(1,0,0,1,0,-770)">
                <path d="M5546.93,12967.5C5546.93,12961.2 5550.18,12955.5 5554.1,12950.6C5559.43,12943.9 5562.62,12935.5 5562.62,12926.3C5562.62,12904.9 5545.22,12887.5 5523.76,12887.5C5502.3,12887.5 5484.9,12904.9 5484.9,12926.3C5484.9,12935.5 5488.09,12943.9 5493.42,12950.6C5497.35,12955.5 5500.59,12961.2 5500.59,12967.5L5546.93,12967.5Z" style="fill:rgb(225,80,72);fill-rule:nonzero;"/>
            </g>
            <g transform="matrix(1,0,0,1,0,-770)">
                <rect x="5575.65" y="12923.3" width="35.658" height="8.334" style="fill:rgb(39,62,69);fill-rule:nonzero;"/>
            </g>
            <g transform="matrix(1,0,0,1,0,-770)">
                <rect x="5436.21" y="12923.3" width="35.657" height="8.334" style="fill:rgb(39,62,69);fill-rule:nonzero;"/>
            </g>
            <g transform="matrix(1,0,0,1,0,-770)">
                <path d="M5570.78,12905.1L5566.62,12897.9L5597.5,12880.1L5601.66,12887.3L5570.78,12905.1Z" style="fill:rgb(39,62,69);fill-rule:nonzero;"/>
            </g>
            <g transform="matrix(1,0,0,1,0,-770)">
                <path d="M5450.02,12974.9L5445.86,12967.6L5476.74,12949.8L5480.9,12957L5450.02,12974.9Z" style="fill:rgb(39,62,69);fill-rule:nonzero;"/>
            </g>
            <g transform="matrix(1,0,0,1,0,-770)">
                <path d="M5553.32,12884.6L5546.1,12880.4L5563.93,12849.6L5571.14,12853.7L5553.32,12884.6Z" style="fill:rgb(39,62,69);fill-rule:nonzero;"/>
            </g>
            <g transform="matrix(1,0,0,1,0,-770)">
                <rect x="5519.59" y="12839.9" width="8.333" height="35.658" style="fill:rgb(39,62,69);fill-rule:nonzero;"/>
            </g>
            <g transform="matrix(1,0,0,1,0,-770)">
                <path d="M5494.21,12884.6L5476.38,12853.7L5483.59,12849.6L5501.42,12880.4L5494.21,12884.6Z" style="fill:rgb(39,62,69);fill-rule:nonzero;"/>
            </g>
            <g transform="matrix(1,0,0,1,0,-770)">
                <path d="M5476.74,12905.1L5445.86,12887.3L5450.02,12880.1L5480.9,12897.9L5476.74,12905.1Z" style="fill:rgb(39,62,69);fill-rule:nonzero;"/>
            </g>
            <g transform="matrix(1,0,0,1,0,-770)">
                <path d="M5597.5,12974.9L5566.62,12957L5570.78,12949.8L5601.66,12967.6L5597.5,12974.9Z" style="fill:rgb(39,62,69);fill-rule:nonzero;"/>
            </g>
        </g>
    </g>
</svg>
