<?xml version="1.0" encoding="UTF-8" standalone="no"?>
<!DOCTYPE svg PUBLIC "-//W3C//DTD SVG 1.1//EN" "http://www.w3.org/Graphics/SVG/1.1/DTD/svg11.dtd">
<svg width="100%" height="100%" viewBox="0 0 257 257" version="1.1" xmlns="http://www.w3.org/2000/svg" xmlns:xlink="http://www.w3.org/1999/xlink" xml:space="preserve" style="fill-rule:evenodd;clip-rule:evenodd;stroke-linejoin:round;stroke-miterlimit:1.41421;">
    <rect id="Artboard1" x="0" y="0" width="256.074" height="256.074" style="fill:none;"/>
    <clipPath id="_clip1">
        <rect id="Artboard11" x="0" y="0" width="256.074" height="256.074"/>
    </clipPath>
    <g clip-path="url(#_clip1)">
        <g transform="matrix(1,0,0,1,-171.963,-271.963)">
            <g transform="matrix(0.145627,0,0,0.145627,-629.798,-1153.15)">
                <circle cx="6384.79" cy="10665.3" r="879.212" style="fill:rgb(235,235,235);"/>
            </g>
            <g transform="matrix(0.145627,0,0,0.145627,-612.872,-351.7)">
                <g transform="matrix(1,0,0,1,0,-5600)">
                    <path d="M6549.96,10630.7C6632.47,10630.7 6699.46,10697.7 6699.46,10780.2L6699.46,11079.2C6699.46,11161.8 6632.47,11228.7 6549.96,11228.7L5987.17,11228.7C5904.65,11228.7 5837.66,11161.8 5837.66,11079.2L5837.66,10780.2C5837.66,10697.7 5904.65,10630.7 5987.17,10630.7L6549.96,10630.7ZM6349.25,11092.1L6322.72,10938.8C6346.97,10921.8 6362.83,10893.6 6362.83,10861.7C6362.83,10809.7 6320.59,10767.4 6268.56,10767.4C6216.54,10767.4 6174.3,10809.7 6174.3,10861.7C6174.3,10893.6 6190.15,10921.8 6214.4,10938.8L6187.88,11092.1L6349.25,11092.1Z" style="fill:rgb(136,134,134);"/>
                </g>
                <g transform="matrix(0.984799,0,0,0.984799,95.1024,-4892.09)">
                    <path d="M6257.12,9621.23C6260.9,9621.24 6264.69,9621.33 6268.47,9621.49C6275.94,9621.82 6283.4,9622.47 6290.82,9623.41C6308.16,9625.61 6325.29,9629.5 6341.89,9635.01C6353.44,9638.84 6364.74,9643.46 6375.68,9648.82C6388.21,9654.96 6400.27,9662.06 6411.71,9670.05C6425.54,9679.69 6438.47,9690.63 6450.28,9702.66C6457.7,9710.21 6464.69,9718.2 6471.18,9726.57C6481.91,9740.38 6491.31,9755.23 6499.19,9770.85C6504.55,9781.45 6509.2,9792.41 6513.12,9803.63C6519.63,9822.26 6524.08,9841.6 6526.38,9861.2C6527.19,9868.06 6527.73,9874.96 6528.02,9881.86C6528.11,9884.19 6528.18,9886.52 6528.22,9888.85C6528.24,9890.28 6528.25,9891.72 6528.25,9893.16L6528.25,10013.2L6426.71,10013.2C6426.71,9972.99 6426.79,9932.82 6426.71,9892.65C6426.69,9889.36 6426.59,9886.06 6426.4,9882.77C6426.05,9877.03 6425.41,9871.31 6424.49,9865.64C6422.33,9852.35 6418.58,9839.33 6413.33,9826.93C6410.31,9819.81 6406.81,9812.89 6402.86,9806.25C6396.03,9794.79 6387.86,9784.13 6378.57,9774.56C6372.14,9767.94 6365.18,9761.83 6357.77,9756.32C6348.68,9749.57 6338.93,9743.72 6328.68,9738.89C6320.06,9734.83 6311.09,9731.5 6301.91,9728.95C6294.58,9726.92 6287.12,9725.38 6279.59,9724.35C6276.21,9723.88 6272.81,9723.53 6269.41,9723.27C6263.76,9722.84 6258.07,9722.68 6252.4,9722.81C6245.35,9722.97 6238.3,9723.56 6231.32,9724.58C6228.7,9724.96 6226.08,9725.41 6223.48,9725.92C6219.84,9726.63 6216.23,9727.45 6212.65,9728.4C6209.78,9729.16 6206.92,9730 6204.1,9730.9C6194.72,9733.91 6185.62,9737.76 6176.91,9742.35C6165.26,9748.5 6154.32,9756.02 6144.39,9764.68C6138.34,9769.95 6132.65,9775.66 6127.39,9781.73C6116.39,9794.42 6107.27,9808.74 6100.44,9824.08C6094.69,9837 6090.57,9850.63 6088.22,9864.57C6087.26,9870.24 6086.59,9875.95 6086.2,9881.68C6086.02,9884.42 6085.91,9887.16 6085.85,9889.9C6085.83,9891.02 6085.82,9892.13 6085.82,9893.25L6085.82,10013.2L5984.28,10013.2L5984.28,9893.18C5984.28,9889.11 5984.37,9885.05 5984.55,9880.99C5984.88,9873.52 5985.52,9866.06 5986.46,9858.65C5988.67,9841.31 5992.56,9824.18 5998.06,9807.59C6003.62,9790.82 6010.84,9774.6 6019.56,9759.24C6026.69,9746.67 6034.82,9734.67 6043.85,9723.39C6060.68,9702.37 6080.62,9683.85 6102.84,9668.65C6112.78,9661.85 6123.16,9655.7 6133.91,9650.28C6144.27,9645.05 6154.96,9640.49 6165.91,9636.63C6183.97,9630.26 6202.71,9625.82 6221.72,9623.41C6229.14,9622.47 6236.59,9621.82 6244.07,9621.49C6246.67,9621.38 6249.28,9621.3 6251.88,9621.26C6252.76,9621.25 6253.64,9621.24 6254.52,9621.23C6255.39,9621.23 6256.25,9621.23 6257.12,9621.23Z" style="fill:rgb(136,134,134);fill-rule:nonzero;"/>
                </g>
            </g>
        </g>
    </g>
</svg>
