<?xml version="1.0" encoding="UTF-8" standalone="no"?>
<!DOCTYPE svg PUBLIC "-//W3C//DTD SVG 1.1//EN" "http://www.w3.org/Graphics/SVG/1.1/DTD/svg11.dtd">
<svg width="100%" height="100%" viewBox="0 0 336 64" version="1.1" xmlns="http://www.w3.org/2000/svg" xmlns:xlink="http://www.w3.org/1999/xlink" xml:space="preserve" style="fill-rule:evenodd;clip-rule:evenodd;stroke-linejoin:round;stroke-miterlimit:1.41421;">
    <g id="Artboard1" transform="matrix(0.986462,0,0,0.930142,0.107949,-0.325713)">
        <rect x="-0.109" y="0.35" width="313.71" height="68.189" style="fill:none;"/>
        <g transform="matrix(0.229303,0,0,0.243187,-187.865,-18.9494)">
            <g transform="matrix(1.07828,0,0,1.07828,-4588.5,-1459.08)">
                <path d="M5478.77,1532.86L5478.77,1642.83L5469.63,1642.83L5469.63,1515.66L5476.62,1515.66L5565.82,1627.6L5565.82,1515.66L5574.95,1515.66L5574.95,1642.83L5566.53,1642.83L5478.77,1532.86Z" style="fill:white;fill-rule:nonzero;"/>
                <path d="M5596.44,1642.83L5596.44,1549.69L5605.4,1549.69L5605.4,1642.83L5596.44,1642.83ZM5596.44,1528.56L5596.44,1512.08L5605.4,1512.08L5605.4,1528.56L5596.44,1528.56Z" style="fill:white;fill-rule:nonzero;"/>
                <path d="M5662.18,1644.26C5655.73,1644.26 5649.82,1642.92 5644.44,1640.23C5639.07,1637.54 5634.44,1633.96 5630.56,1629.49C5626.68,1625.01 5623.64,1619.9 5621.43,1614.17C5619.22,1608.44 5618.11,1602.53 5618.11,1596.44C5618.11,1590.11 5619.16,1584.02 5621.25,1578.17C5623.34,1572.32 5626.29,1567.15 5630.11,1562.68C5633.94,1558.2 5638.5,1554.65 5643.82,1552.02C5649.13,1549.39 5655.01,1548.08 5661.46,1548.08C5669.58,1548.08 5676.65,1550.2 5682.68,1554.44C5688.71,1558.68 5693.82,1563.84 5698,1569.93L5698,1549.69L5706.23,1549.69L5706.23,1644.62C5706.23,1650.95 5705.04,1656.5 5702.65,1661.28C5700.27,1666.05 5697.07,1670.02 5693.07,1673.19C5689.07,1676.35 5684.41,1678.74 5679.1,1680.35C5673.79,1681.96 5668.2,1682.77 5662.35,1682.77C5656.98,1682.77 5652.15,1682.26 5647.85,1681.25C5643.55,1680.23 5639.76,1678.8 5636.47,1676.95C5633.19,1675.1 5630.26,1672.83 5627.7,1670.14C5625.13,1667.45 5622.89,1664.5 5620.98,1661.28L5627.07,1657.16C5630.77,1663.49 5635.79,1668.11 5642.11,1671.04C5648.44,1673.96 5655.19,1675.43 5662.35,1675.43C5667.13,1675.43 5671.64,1674.77 5675.88,1673.46C5680.12,1672.14 5683.82,1670.2 5686.98,1667.63C5690.15,1665.07 5692.65,1661.87 5694.5,1658.05C5696.36,1654.23 5697.28,1649.75 5697.28,1644.62L5697.28,1624.2C5693.46,1630.29 5688.38,1635.16 5682.06,1638.8C5675.73,1642.44 5669.1,1644.26 5662.18,1644.26ZM5664.32,1636.56C5668.27,1636.56 5672.11,1635.81 5675.88,1634.32C5679.64,1632.83 5683.04,1630.89 5686.09,1628.5C5689.13,1626.11 5691.64,1623.42 5693.61,1620.44C5695.58,1617.45 5696.8,1614.47 5697.28,1611.48L5697.28,1580.86C5695.85,1577.28 5693.94,1573.96 5691.55,1570.92C5689.16,1567.87 5686.44,1565.27 5683.4,1563.12C5680.35,1560.98 5677.07,1559.27 5673.55,1558.02C5670.03,1556.77 5666.47,1556.14 5662.89,1556.14C5657.28,1556.14 5652.26,1557.33 5647.85,1559.72C5643.43,1562.11 5639.7,1565.22 5636.65,1569.04C5633.61,1572.86 5631.28,1577.18 5629.67,1582.02C5628.06,1586.86 5627.25,1591.72 5627.25,1596.62C5627.25,1601.99 5628.2,1607.07 5630.11,1611.84C5632.03,1616.62 5634.65,1620.86 5637.99,1624.56C5641.34,1628.26 5645.28,1631.19 5649.82,1633.34C5654.35,1635.49 5659.19,1636.56 5664.32,1636.56Z" style="fill:white;fill-rule:nonzero;"/>
                <path d="M5801.34,1642.83L5792.39,1642.83L5792.39,1590.89C5792.39,1567.84 5784.69,1556.32 5769.28,1556.32C5765.46,1556.32 5761.73,1557.04 5758.09,1558.47C5754.44,1559.9 5751.04,1561.93 5747.88,1564.56C5744.71,1567.18 5741.94,1570.26 5739.55,1573.78C5737.16,1577.31 5735.37,1581.1 5734.18,1585.15L5734.18,1642.83L5725.22,1642.83L5725.22,1512.08L5734.18,1512.08L5734.18,1571.9C5738,1564.62 5743.28,1558.83 5750.03,1554.53C5756.77,1550.23 5764.03,1548.08 5771.79,1548.08C5776.92,1548.08 5781.34,1549.04 5785.04,1550.95C5788.74,1552.86 5791.82,1555.6 5794.27,1559.18C5796.72,1562.77 5798.51,1567.1 5799.64,1572.17C5800.77,1577.25 5801.34,1582.95 5801.34,1589.28L5801.34,1642.83Z" style="fill:white;fill-rule:nonzero;"/>
                <path d="M5860.09,1638.35C5859.61,1638.59 5858.81,1639.04 5857.67,1639.69C5856.54,1640.35 5855.1,1640.98 5853.37,1641.57C5851.64,1642.17 5849.7,1642.71 5847.55,1643.19C5845.4,1643.66 5843.07,1643.9 5840.57,1643.9C5838.06,1643.9 5835.7,1643.55 5833.49,1642.83C5831.28,1642.11 5829.34,1641.04 5827.67,1639.6C5826,1638.17 5824.69,1636.44 5823.73,1634.41C5822.78,1632.38 5822.3,1629.99 5822.3,1627.25L5822.3,1557.04L5809.22,1557.04L5809.22,1549.69L5822.3,1549.69L5822.3,1517.81L5831.25,1517.81L5831.25,1549.69L5852.93,1549.69L5852.93,1557.04L5831.25,1557.04L5831.25,1625.1C5831.25,1628.56 5832.45,1631.16 5834.84,1632.89C5837.22,1634.62 5839.91,1635.49 5842.9,1635.49C5846.6,1635.49 5849.79,1634.86 5852.48,1633.6C5855.16,1632.35 5856.81,1631.54 5857.4,1631.19L5860.09,1638.35Z" style="fill:white;fill-rule:nonzero;"/>
                <path d="M5860.81,1578.35C5860.81,1570.71 5862.15,1563.1 5864.84,1555.51C5867.52,1547.93 5871.43,1541.15 5876.57,1535.18C5881.7,1529.21 5888,1524.35 5895.46,1520.59C5902.93,1516.83 5911.43,1514.94 5920.99,1514.94C5932.33,1514.94 5942,1517.54 5950,1522.74C5958,1527.93 5963.97,1534.59 5967.91,1542.71L5960.39,1547.01C5958.12,1542.59 5955.46,1538.89 5952.42,1535.9C5949.37,1532.92 5946.09,1530.5 5942.57,1528.65C5939.05,1526.8 5935.37,1525.45 5931.55,1524.62C5927.73,1523.78 5923.97,1523.36 5920.27,1523.36C5912.15,1523.36 5904.98,1525.01 5898.78,1528.29C5892.57,1531.57 5887.31,1535.84 5883.02,1541.1C5878.72,1546.35 5875.46,1552.29 5873.25,1558.92C5871.04,1565.54 5869.94,1572.2 5869.94,1578.89C5869.94,1586.41 5871.25,1593.57 5873.88,1600.38C5876.51,1607.19 5880.09,1613.19 5884.63,1618.38C5889.16,1623.57 5894.54,1627.72 5900.75,1630.83C5906.95,1633.93 5913.64,1635.49 5920.81,1635.49C5924.63,1635.49 5928.57,1635.01 5932.63,1634.05C5936.69,1633.1 5940.57,1631.6 5944.27,1629.57C5947.97,1627.54 5951.43,1624.95 5954.66,1621.78C5957.88,1618.62 5960.57,1614.89 5962.72,1610.59L5970.6,1614.35C5968.45,1619.13 5965.52,1623.37 5961.82,1627.07C5958.12,1630.77 5954,1633.87 5949.46,1636.38C5944.93,1638.89 5940.12,1640.77 5935.05,1642.02C5929.97,1643.28 5924.99,1643.9 5920.09,1643.9C5911.37,1643.9 5903.4,1641.99 5896.18,1638.17C5888.95,1634.35 5882.72,1629.37 5877.46,1623.22C5872.21,1617.07 5868.12,1610.08 5865.19,1602.26C5862.27,1594.44 5860.81,1586.47 5860.81,1578.35Z" style="fill:white;fill-rule:nonzero;"/>
                <path d="M5982.24,1512.08L5991.38,1512.08L5991.38,1624.38C5991.38,1627.84 5992.36,1630.59 5994.33,1632.62C5996.3,1634.65 5999.02,1635.66 6002.48,1635.66C6003.79,1635.66 6005.38,1635.52 6007.23,1635.22C6009.08,1634.92 6010.78,1634.47 6012.33,1633.87L6014.12,1641.04C6012.09,1641.87 6009.58,1642.56 6006.6,1643.1C6003.61,1643.63 6001.05,1643.9 5998.9,1643.9C5993.88,1643.9 5989.85,1642.38 5986.81,1639.34C5983.76,1636.29 5982.24,1632.2 5982.24,1627.07L5982.24,1512.08Z" style="fill:white;fill-rule:nonzero;"/>
                <path d="M6058,1644.62C6051.44,1644.62 6045.38,1643.34 6039.82,1640.77C6034.27,1638.2 6029.47,1634.71 6025.4,1630.29C6021.35,1625.87 6018.18,1620.74 6015.91,1614.89C6013.64,1609.04 6012.51,1602.89 6012.51,1596.44C6012.51,1589.87 6013.67,1583.66 6016,1577.81C6018.33,1571.96 6021.53,1566.83 6025.58,1562.41C6029.64,1557.99 6034.45,1554.5 6040,1551.93C6045.56,1549.36 6051.56,1548.08 6058,1548.08C6064.45,1548.08 6070.42,1549.36 6075.91,1551.93C6081.41,1554.5 6086.21,1557.99 6090.33,1562.41C6094.45,1566.83 6097.68,1571.96 6100,1577.81C6102.33,1583.66 6103.5,1589.87 6103.5,1596.44C6103.5,1602.89 6102.33,1609.04 6100,1614.89C6097.68,1620.74 6094.48,1625.87 6090.42,1630.29C6086.36,1634.71 6081.56,1638.2 6076,1640.77C6070.45,1643.34 6064.45,1644.62 6058,1644.62ZM6021.47,1596.8C6021.47,1602.29 6022.42,1607.45 6024.33,1612.29C6026.24,1617.13 6028.84,1621.34 6032.12,1624.92C6035.4,1628.5 6039.26,1631.34 6043.67,1633.42C6048.09,1635.52 6052.81,1636.56 6057.82,1636.56C6062.84,1636.56 6067.56,1635.52 6071.97,1633.42C6076.39,1631.34 6080.27,1628.44 6083.61,1624.74C6086.96,1621.04 6089.59,1616.77 6091.5,1611.93C6093.41,1607.1 6094.36,1601.87 6094.36,1596.26C6094.36,1590.77 6093.41,1585.6 6091.5,1580.77C6089.59,1575.93 6086.96,1571.69 6083.61,1568.05C6080.27,1564.41 6076.42,1561.51 6072.06,1559.36C6067.7,1557.22 6063.02,1556.14 6058,1556.14C6052.99,1556.14 6048.27,1557.22 6043.85,1559.36C6039.44,1561.51 6035.59,1564.44 6032.3,1568.14C6029.02,1571.84 6026.39,1576.17 6024.42,1581.12C6022.45,1586.08 6021.47,1591.31 6021.47,1596.8Z" style="fill:white;fill-rule:nonzero;"/>
                <path d="M6144.87,1644.62C6125.05,1644.62 6115.14,1630.89 6115.14,1603.42L6115.14,1549.69L6124.09,1549.69L6124.09,1602.17C6124.09,1625.1 6131.91,1636.56 6147.56,1636.56C6151.5,1636.56 6155.32,1635.87 6159.02,1634.5C6162.72,1633.13 6166.18,1631.22 6169.41,1628.77C6172.63,1626.32 6175.47,1623.37 6177.92,1619.9C6180.36,1616.44 6182.3,1612.62 6183.74,1608.44L6183.74,1549.69L6192.69,1549.69L6192.69,1630.29C6192.69,1633.28 6193.95,1634.77 6196.45,1634.77L6196.45,1642.83C6195.86,1642.95 6195.32,1643.01 6194.84,1643.01C6194.36,1643.01 6194.01,1643.01 6193.77,1643.01C6191.38,1643.01 6189.26,1642.26 6187.41,1640.77C6185.56,1639.28 6184.63,1637.28 6184.63,1634.77L6184.63,1620.8C6180.57,1628.32 6174.99,1634.17 6167.89,1638.35C6160.78,1642.53 6153.11,1644.62 6144.87,1644.62Z" style="fill:white;fill-rule:nonzero;"/>
                <path d="M6250.54,1644.62C6244.1,1644.62 6238.13,1643.28 6232.63,1640.59C6227.14,1637.9 6222.39,1634.32 6218.39,1629.84C6214.39,1625.37 6211.29,1620.23 6209.08,1614.44C6206.87,1608.65 6205.77,1602.65 6205.77,1596.44C6205.77,1589.99 6206.84,1583.84 6208.99,1577.99C6211.14,1572.14 6214.12,1567.01 6217.95,1562.59C6221.77,1558.17 6226.28,1554.65 6231.47,1552.02C6236.66,1549.39 6242.36,1548.08 6248.57,1548.08C6252.63,1548.08 6256.45,1548.68 6260.04,1549.87C6263.62,1551.07 6266.96,1552.65 6270.07,1554.62C6273.17,1556.59 6275.98,1558.89 6278.48,1561.51C6280.99,1564.14 6283.14,1566.95 6284.93,1569.93L6284.93,1512.08L6293.89,1512.08L6293.89,1630.29C6293.89,1633.28 6295.14,1634.77 6297.65,1634.77L6297.65,1642.83C6296.93,1642.95 6296.34,1643.04 6295.86,1643.1C6295.38,1643.16 6294.9,1643.19 6294.43,1643.19C6292.04,1643.19 6290.01,1642.26 6288.34,1640.41C6286.66,1638.56 6285.83,1636.62 6285.83,1634.59L6285.83,1624.2C6282.01,1630.41 6276.9,1635.37 6270.51,1639.07C6264.13,1642.77 6257.47,1644.62 6250.54,1644.62ZM6252.16,1636.56C6255.38,1636.56 6258.84,1635.9 6262.54,1634.59C6266.24,1633.28 6269.68,1631.45 6272.84,1629.13C6276.01,1626.8 6278.72,1624.14 6280.99,1621.16C6283.26,1618.17 6284.57,1614.95 6284.93,1611.48L6284.93,1580.86C6283.62,1577.51 6281.74,1574.32 6279.29,1571.28C6276.84,1568.23 6274.07,1565.6 6270.96,1563.39C6267.86,1561.18 6264.51,1559.42 6260.93,1558.11C6257.35,1556.8 6253.89,1556.14 6250.54,1556.14C6245.17,1556.14 6240.28,1557.3 6235.86,1559.63C6231.44,1561.96 6227.68,1565.01 6224.57,1568.77C6221.47,1572.53 6219.08,1576.83 6217.41,1581.66C6215.74,1586.5 6214.9,1591.48 6214.9,1596.62C6214.9,1601.99 6215.86,1607.07 6217.77,1611.84C6219.68,1616.62 6222.33,1620.86 6225.74,1624.56C6229.14,1628.26 6233.08,1631.19 6237.56,1633.34C6242.04,1635.49 6246.9,1636.56 6252.16,1636.56Z" style="fill:white;fill-rule:nonzero;"/>
                <rect x="6306.43" y="1632.3" width="6.34" height="10.532" style="fill:white;fill-rule:nonzero;"/>
                <path d="M6322.44,1642.83L6322.44,1586.84L6329.74,1586.84L6329.74,1642.83L6322.44,1642.83ZM6322.44,1575.12L6322.44,1564.38L6329.74,1564.38L6329.74,1575.12L6322.44,1575.12Z" style="fill:white;fill-rule:nonzero;"/>
                <path d="M6364.35,1643.9C6360.27,1643.9 6356.54,1643.13 6353.17,1641.59C6349.81,1640.05 6346.89,1637.96 6344.41,1635.31C6341.94,1632.65 6340.03,1629.57 6338.66,1626.06C6337.3,1622.55 6336.62,1618.86 6336.62,1615C6336.62,1611.05 6337.32,1607.33 6338.72,1603.82C6340.11,1600.31 6342.05,1597.23 6344.52,1594.58C6346.99,1591.93 6349.91,1589.81 6353.28,1588.24C6356.65,1586.66 6360.34,1585.87 6364.35,1585.87C6368.36,1585.87 6372.07,1586.66 6375.47,1588.24C6378.87,1589.81 6381.81,1591.93 6384.28,1594.58C6386.76,1597.23 6388.69,1600.31 6390.09,1603.82C6391.48,1607.33 6392.18,1611.05 6392.18,1615C6392.18,1618.86 6391.5,1622.55 6390.14,1626.06C6388.78,1629.57 6386.86,1632.65 6384.39,1635.31C6381.92,1637.96 6378.98,1640.05 6375.58,1641.59C6372.18,1643.13 6368.43,1643.9 6364.35,1643.9ZM6344.04,1615.1C6344.04,1618.26 6344.57,1621.17 6345.65,1623.86C6346.73,1626.55 6348.18,1628.91 6350,1630.95C6351.83,1633 6353.98,1634.59 6356.45,1635.74C6358.92,1636.88 6361.56,1637.45 6364.35,1637.45C6367.14,1637.45 6369.78,1636.86 6372.25,1635.68C6374.72,1634.5 6376.89,1632.89 6378.75,1630.85C6380.61,1628.8 6382.08,1626.42 6383.15,1623.7C6384.23,1620.98 6384.77,1618.04 6384.77,1614.89C6384.77,1611.81 6384.23,1608.89 6383.15,1606.13C6382.08,1603.37 6380.61,1600.97 6378.75,1598.93C6376.89,1596.89 6374.72,1595.28 6372.25,1594.09C6369.78,1592.91 6367.14,1592.32 6364.35,1592.32C6361.56,1592.32 6358.94,1592.91 6356.5,1594.09C6354.07,1595.28 6351.92,1596.9 6350.06,1598.98C6348.19,1601.06 6346.73,1603.48 6345.65,1606.24C6344.57,1609 6344.04,1611.95 6344.04,1615.1Z" style="fill:white;fill-rule:nonzero;"/>
            </g>
            <g transform="matrix(1,0,0,1,-6956.82,-2852)">
                <path d="M8100.55,3011.78C8102.51,3011.8 8104.47,3011.87 8106.43,3012.01C8108.94,3012.18 8111.43,3012.46 8113.92,3012.84C8121.47,3013.99 8128.88,3016.1 8135.9,3019.1C8141.01,3021.27 8145.91,3023.92 8150.53,3026.98C8155.35,3030.17 8159.87,3033.82 8164.01,3037.86C8171.71,3045.38 8178.09,3054.25 8182.72,3063.97C8184.41,3067.5 8185.87,3071.14 8187.09,3074.86C8188.84,3080.18 8190.09,3085.67 8190.83,3091.22C8192.1,3100.76 8191.88,3110.5 8190.16,3119.97C8189.13,3125.63 8187.56,3131.19 8185.49,3136.56C8183.84,3140.8 8181.88,3144.91 8179.63,3148.86C8176.44,3154.45 8172.66,3159.69 8168.38,3164.49C8165.27,3167.98 8161.89,3171.23 8158.28,3174.2C8154.24,3177.54 8149.91,3180.53 8145.36,3183.13C8142.78,3184.6 8140.14,3185.94 8137.44,3187.15C8135.66,3187.96 8133.85,3188.7 8132.01,3189.38C8125.8,3191.7 8119.34,3193.33 8112.78,3194.25C8109.9,3194.66 8107,3194.92 8104.09,3195.05C8102.81,3195.11 8101.54,3195.14 8100.26,3195.14C8016.28,3195.37 7932.3,3195.14 7848.32,3195.14C7847.25,3195.14 7846.18,3195.12 7845.11,3195.07C7843,3194.98 7840.89,3194.79 7838.79,3194.51C7835.27,3194.04 7831.78,3193.31 7828.37,3192.31C7825.57,3191.5 7822.82,3190.51 7820.15,3189.36C7814.47,3186.93 7809.12,3183.74 7804.26,3179.92C7802.02,3178.16 7799.88,3176.26 7797.86,3174.24C7791.78,3168.16 7786.81,3160.98 7783.27,3153.15C7780.23,3146.45 7778.26,3139.27 7777.42,3131.97C7776.55,3124.34 7776.9,3116.57 7778.48,3109.06C7779.99,3101.88 7782.61,3094.95 7786.24,3088.57C7791.15,3079.93 7797.89,3072.34 7805.88,3066.42C7809.01,3064.1 7812.33,3062.04 7815.8,3060.26C7817.96,3059.15 7820.17,3058.16 7822.43,3057.28C7822.4,3057.05 7822.36,3056.82 7822.33,3056.59C7822.27,3056.08 7822.21,3055.56 7822.16,3055.05C7822.05,3053.91 7821.99,3052.76 7821.97,3051.61C7821.91,3047.96 7822.32,3044.3 7823.19,3040.75C7824.27,3036.34 7826.06,3032.09 7828.47,3028.24C7831.75,3022.98 7836.17,3018.44 7841.36,3015.03C7842.8,3014.08 7844.3,3013.22 7845.86,3012.45C7847.89,3011.44 7850.01,3010.59 7852.18,3009.91C7856.89,3008.44 7861.85,3007.81 7866.78,3008.01C7870.19,3008.16 7873.59,3008.7 7876.87,3009.65C7878.2,3010.04 7879.51,3010.48 7880.79,3010.99C7881.32,3011.2 7881.85,3011.43 7882.37,3011.66L7882.49,3011.71C7882.66,3011.36 7882.84,3011.01 7883.02,3010.66C7883.18,3010.34 7883.34,3010.02 7883.51,3009.71C7884.41,3007.97 7885.36,3006.26 7886.34,3004.57C7887.86,3001.97 7889.48,2999.43 7891.19,2996.95C7897,2988.52 7903.9,2980.85 7911.64,2974.15C7921.85,2965.33 7933.54,2958.22 7946.1,2953.27C7950.63,2951.48 7955.27,2949.96 7959.99,2948.74C7966.59,2947.03 7973.33,2945.88 7980.12,2945.31C7988.87,2944.58 7997.69,2944.8 8006.39,2945.96C8009.64,2946.39 8012.87,2946.96 8016.07,2947.66C8028.24,2950.31 8039.98,2954.89 8050.74,2961.16C8060.86,2967.05 8070.12,2974.43 8078.12,2982.98C8083.74,2988.98 8088.75,2995.55 8093.03,3002.57C8094.23,3004.52 8095.36,3006.5 8096.44,3008.51C8097.02,3009.6 8097.59,3010.7 8098.14,3011.8C8098.56,3011.79 8098.98,3011.78 8099.4,3011.78C8099.78,3011.78 8100.17,3011.78 8100.55,3011.78ZM7989.76,2952.89C7988.52,2952.9 7987.28,2952.92 7986.04,2952.97C7983.94,2953.05 7981.84,2953.18 7979.75,2953.38C7972.41,2954.06 7965.15,2955.46 7958.09,2957.57C7949.13,2960.25 7940.51,2964.06 7932.49,2968.88C7921.75,2975.34 7912.1,2983.61 7904.07,2993.22C7899.94,2998.17 7896.23,3003.46 7893,3009.04C7891.84,3011.05 7890.73,3013.1 7889.7,3015.18C7889.18,3016.22 7888.68,3017.27 7888.19,3018.33L7886.16,3022.77L7882.11,3020.47C7881.95,3020.38 7881.78,3020.28 7881.62,3020.2C7881.3,3020.02 7880.97,3019.85 7880.64,3019.68C7879.73,3019.22 7878.79,3018.8 7877.84,3018.43C7874.94,3017.28 7871.88,3016.52 7868.78,3016.18C7864.73,3015.74 7860.6,3016 7856.64,3016.97C7853.25,3017.8 7849.99,3019.14 7847,3020.93C7844.05,3022.7 7841.37,3024.9 7839.06,3027.45C7836.79,3029.94 7834.88,3032.77 7833.41,3035.81C7831.95,3038.85 7830.93,3042.1 7830.4,3045.43C7829.94,3048.35 7829.84,3051.34 7830.12,3054.29C7830.26,3055.7 7830.48,3057.1 7830.78,3058.49L7830.84,3058.73L7831.71,3062.52L7827.97,3063.77C7826.31,3064.34 7824.67,3064.97 7823.07,3065.67C7819.32,3067.3 7815.74,3069.29 7812.37,3071.61C7809.28,3073.74 7806.39,3076.15 7803.72,3078.79C7799.61,3082.86 7796.05,3087.49 7793.19,3092.53C7791.37,3095.74 7789.82,3099.11 7788.59,3102.59C7787.68,3105.14 7786.94,3107.75 7786.38,3110.39C7785,3116.77 7784.63,3123.37 7785.25,3129.86C7785.87,3136.38 7787.5,3142.78 7790.09,3148.8C7791.95,3153.13 7794.31,3157.26 7797.09,3161.08C7798.89,3163.54 7800.86,3165.86 7802.99,3168.05C7808.58,3173.78 7815.28,3178.45 7822.6,3181.7C7828.08,3184.14 7833.91,3185.79 7839.85,3186.58C7841.72,3186.83 7843.59,3187 7845.47,3187.08C7846.28,3187.12 7847.1,3187.13 7847.92,3187.14C7932.11,3187.44 8016.31,3187.61 8100.5,3187.14C8101.58,3187.13 8102.66,3187.11 8103.73,3187.06C8106.12,3186.95 8108.51,3186.75 8110.88,3186.44C8113.57,3186.09 8116.23,3185.61 8118.87,3185C8122.13,3184.25 8125.35,3183.29 8128.49,3182.15C8136.59,3179.22 8144.21,3175.02 8151.03,3169.76C8158.45,3164.03 8164.92,3157.05 8170.05,3149.2C8172.31,3145.74 8174.32,3142.12 8176.04,3138.36C8177.89,3134.33 8179.42,3130.15 8180.61,3125.88C8181.79,3121.6 8182.64,3117.23 8183.13,3112.81C8183.68,3107.84 8183.79,3102.81 8183.45,3097.82C8183.06,3091.89 8182.04,3086.01 8180.4,3080.31C8179.36,3076.7 8178.07,3073.16 8176.56,3069.72C8175.91,3068.25 8175.22,3066.8 8174.49,3065.37C8171.92,3060.36 8168.85,3055.61 8165.33,3051.21C8163.23,3048.6 8160.98,3046.11 8158.6,3043.76C8154.77,3040 8150.59,3036.61 8146.12,3033.65C8144.78,3032.77 8143.42,3031.92 8142.04,3031.12C8140.74,3030.35 8139.4,3029.62 8138.05,3028.93C8135.87,3027.81 8133.63,3026.79 8131.35,3025.87C8127.23,3024.2 8122.96,3022.85 8118.61,3021.87C8116.15,3021.31 8113.65,3020.86 8111.14,3020.52C8107.62,3020.05 8104.06,3019.8 8100.51,3019.78C8099.38,3019.78 8098.26,3019.79 8097.14,3019.83L8096.88,3019.84L8096.37,3019.86L8093.18,3020L8091.83,3017.14C8091.69,3016.84 8091.55,3016.54 8091.41,3016.25C8090.76,3014.91 8090.09,3013.6 8089.39,3012.29C8088.38,3010.41 8087.32,3008.56 8086.21,3006.74C8082.97,3001.44 8079.3,2996.41 8075.23,2991.72C8067.32,2982.59 8057.95,2974.74 8047.56,2968.57C8039.74,2963.92 8031.36,2960.24 8022.66,2957.62C8016.5,2955.77 8010.18,2954.46 8003.8,2953.69C8001.06,2953.37 7998.3,2953.14 7995.54,2953.01C7993.97,2952.94 7992.39,2952.9 7990.82,2952.89C7990.47,2952.89 7990.11,2952.89 7989.76,2952.89Z" style="fill:white;fill-rule:nonzero;"/>
            </g>
            <g transform="matrix(1,0,0,1,-4160.39,-1322.91)">
                <path d="M5113.52,1412.43C5113.12,1408.92 5116.56,1406.23 5119.87,1407.45L5164.82,1423.99L5119.7,1467.51L5113.52,1412.43Z" style="fill:rgb(61,115,127);fill-rule:nonzero;"/>
                <path d="M5272.44,1412.43C5272.83,1408.92 5269.4,1406.23 5266.09,1407.45L5221.14,1423.99L5266.26,1467.51L5272.44,1412.43Z" style="fill:rgb(61,115,127);fill-rule:nonzero;"/>
                <path d="M5301.98,1558.23C5301.98,1609.66 5253.41,1651.35 5193.5,1651.35C5133.59,1651.35 5085.02,1609.66 5085.02,1558.23C5085.02,1506.8 5133.59,1465.11 5193.5,1465.11C5253.41,1465.11 5301.98,1506.8 5301.98,1558.23" style="fill:rgb(83,132,150);fill-rule:nonzero;"/>
                <path d="M5283.26,1532.79C5283.26,1602.24 5243.07,1658.55 5193.5,1658.55C5143.93,1658.55 5103.74,1602.24 5103.74,1532.79C5103.74,1463.34 5143.93,1407.04 5193.5,1407.04C5243.07,1407.04 5283.26,1463.34 5283.26,1532.79" style="fill:rgb(61,115,127);fill-rule:nonzero;"/>
                <path d="M5199.12,1490C5199.12,1516.34 5180.38,1537.69 5157.27,1537.69C5134.15,1537.69 5115.41,1516.34 5115.41,1490C5115.41,1463.66 5134.15,1442.31 5157.27,1442.31C5180.38,1442.31 5199.12,1463.66 5199.12,1490" style="fill:white;fill-rule:nonzero;"/>
                <path d="M5256.02,1584.76C5256.02,1616.89 5228.03,1642.95 5193.5,1642.95C5158.97,1642.95 5130.98,1616.89 5130.98,1584.76C5130.98,1552.62 5158.97,1526.57 5193.5,1526.57C5228.03,1526.57 5256.02,1552.62 5256.02,1584.76" style="fill:white;fill-rule:nonzero;"/>
                <path d="M5270.8,1490C5270.8,1516.34 5252.06,1537.69 5228.94,1537.69C5205.83,1537.69 5187.09,1516.34 5187.09,1490C5187.09,1463.66 5205.83,1442.31 5228.94,1442.31C5252.06,1442.31 5270.8,1463.66 5270.8,1490" style="fill:white;fill-rule:nonzero;"/>
                <path d="M5190.06,1506.25C5192.37,1505.34 5194.96,1505.37 5197.25,1506.32C5204.55,1509.36 5209.77,1513.09 5214.37,1518.52C5215.89,1520.31 5215.98,1522.91 5214.73,1524.9C5209.94,1532.52 5204.14,1538.25 5196.75,1543.93C5194.94,1545.32 5192.41,1545.32 5190.61,1543.93C5183.22,1538.25 5177.42,1532.52 5172.63,1524.9C5171.39,1522.93 5171.5,1520.36 5173,1518.58C5177.77,1512.94 5182.43,1509.26 5190.06,1506.25" style="fill:rgb(255,158,92);fill-rule:nonzero;"/>
                <path d="M5189.35,1555.26C5189.35,1559.88 5185.6,1563.62 5180.98,1563.62C5176.36,1563.62 5172.61,1559.88 5172.61,1555.26L5189.35,1555.26Z" style="fill:rgb(214,214,214);fill-rule:nonzero;"/>
                <path d="M5214.76,1555.26C5214.76,1559.88 5211.02,1563.62 5206.4,1563.62C5201.77,1563.62 5198.03,1559.88 5198.03,1555.26L5214.76,1555.26Z" style="fill:rgb(214,214,214);fill-rule:nonzero;"/>
                <path d="M5176.64,1571.94C5176.64,1576.56 5172.89,1580.31 5168.27,1580.31C5163.65,1580.31 5159.9,1576.56 5159.9,1571.94L5176.64,1571.94Z" style="fill:rgb(214,214,214);fill-rule:nonzero;"/>
                <path d="M5202.06,1571.94C5202.06,1576.56 5198.31,1580.31 5193.69,1580.31C5189.06,1580.31 5185.32,1576.56 5185.32,1571.94L5202.06,1571.94Z" style="fill:rgb(214,214,214);fill-rule:nonzero;"/>
                <path d="M5227.47,1571.94C5227.47,1576.56 5223.73,1580.31 5219.1,1580.31C5214.48,1580.31 5210.74,1576.56 5210.74,1571.94L5227.47,1571.94Z" style="fill:rgb(214,214,214);fill-rule:nonzero;"/>
                <path d="M5163.93,1588.25C5163.93,1592.87 5160.18,1596.62 5155.56,1596.62C5150.94,1596.62 5147.19,1592.87 5147.19,1588.25L5163.93,1588.25Z" style="fill:rgb(214,214,214);fill-rule:nonzero;"/>
                <path d="M5189.35,1588.25C5189.35,1592.87 5185.6,1596.62 5180.98,1596.62C5176.36,1596.62 5172.61,1592.87 5172.61,1588.25L5189.35,1588.25Z" style="fill:rgb(214,214,214);fill-rule:nonzero;"/>
                <path d="M5214.76,1588.25C5214.76,1592.87 5211.02,1596.62 5206.4,1596.62C5201.77,1596.62 5198.03,1592.87 5198.03,1588.25L5214.76,1588.25Z" style="fill:rgb(214,214,214);fill-rule:nonzero;"/>
                <path d="M5240.18,1588.25C5240.18,1592.87 5236.44,1596.62 5231.82,1596.62C5227.19,1596.62 5223.45,1592.87 5223.45,1588.25L5240.18,1588.25Z" style="fill:rgb(214,214,214);fill-rule:nonzero;"/>
                <path d="M5176.64,1604.93C5176.64,1609.56 5172.89,1613.3 5168.27,1613.3C5163.65,1613.3 5159.9,1609.56 5159.9,1604.93L5176.64,1604.93Z" style="fill:rgb(214,214,214);fill-rule:nonzero;"/>
                <path d="M5202.06,1604.93C5202.06,1609.56 5198.31,1613.3 5193.69,1613.3C5189.06,1613.3 5185.32,1609.56 5185.32,1604.93L5202.06,1604.93Z" style="fill:rgb(214,214,214);fill-rule:nonzero;"/>
                <path d="M5227.47,1604.93C5227.47,1609.56 5223.73,1613.3 5219.1,1613.3C5214.48,1613.3 5210.74,1609.56 5210.74,1604.93L5227.47,1604.93Z" style="fill:rgb(214,214,214);fill-rule:nonzero;"/>
                <path d="M5189.35,1621.25C5189.35,1625.87 5185.6,1629.62 5180.98,1629.62C5176.36,1629.62 5172.61,1625.87 5172.61,1621.25L5189.35,1621.25Z" style="fill:rgb(214,214,214);fill-rule:nonzero;"/>
                <path d="M5214.76,1621.25C5214.76,1625.87 5211.02,1629.62 5206.4,1629.62C5201.77,1629.62 5198.03,1625.87 5198.03,1621.25L5214.76,1621.25Z" style="fill:rgb(214,214,214);fill-rule:nonzero;"/>
                <path d="M5187.09,1484.66C5187.09,1498.12 5176.18,1509.02 5162.73,1509.02C5149.27,1509.02 5138.37,1498.12 5138.37,1484.66C5138.37,1471.21 5149.27,1460.31 5162.73,1460.31C5176.18,1460.31 5187.09,1471.21 5187.09,1484.66" style="fill:rgb(194,221,235);fill-rule:nonzero;"/>
                <path d="M5177.97,1484.66C5177.97,1493.08 5171.14,1499.9 5162.73,1499.9C5154.31,1499.9 5147.49,1493.08 5147.49,1484.66C5147.49,1476.25 5154.31,1469.42 5162.73,1469.42C5171.14,1469.42 5177.97,1476.25 5177.97,1484.66" style="fill-rule:nonzero;"/>
                <path d="M5172.21,1479.03C5172.21,1482.14 5169.68,1484.66 5166.57,1484.66C5163.45,1484.66 5160.93,1482.14 5160.93,1479.03C5160.93,1475.91 5163.45,1473.38 5166.57,1473.38C5169.68,1473.38 5172.21,1475.91 5172.21,1479.03" style="fill:white;fill-rule:nonzero;"/>
                <path d="M5246.68,1484.66C5246.68,1498.12 5235.77,1509.02 5222.32,1509.02C5208.86,1509.02 5197.96,1498.12 5197.96,1484.66C5197.96,1471.21 5208.86,1460.31 5222.32,1460.31C5235.77,1460.31 5246.68,1471.21 5246.68,1484.66" style="fill:rgb(194,221,235);fill-rule:nonzero;"/>
                <path d="M5237.56,1484.66C5237.56,1493.08 5230.73,1499.9 5222.32,1499.9C5213.9,1499.9 5207.08,1493.08 5207.08,1484.66C5207.08,1476.25 5213.9,1469.42 5222.32,1469.42C5230.73,1469.42 5237.56,1476.25 5237.56,1484.66" style="fill-rule:nonzero;"/>
                <path d="M5231.8,1479.03C5231.8,1482.14 5229.27,1484.66 5226.16,1484.66C5223.04,1484.66 5220.52,1482.14 5220.52,1479.03C5220.52,1475.91 5223.04,1473.38 5226.16,1473.38C5229.27,1473.38 5231.8,1475.91 5231.8,1479.03" style="fill:white;fill-rule:nonzero;"/>
                <path d="M5244.06,1658.55C5244.06,1664.97 5240.52,1670.17 5236.15,1670.17C5231.78,1670.17 5228.23,1664.97 5228.23,1658.55C5228.23,1664.97 5224.69,1670.17 5220.32,1670.17C5215.95,1670.17 5212.41,1664.97 5212.41,1658.55C5212.41,1664.97 5208.86,1670.17 5204.49,1670.17C5200.12,1670.17 5196.58,1664.97 5196.58,1658.55C5196.58,1649.47 5207.18,1642.12 5220.25,1642.12C5233.32,1642.12 5243.92,1649.47 5243.92,1658.55L5244.06,1658.55Z" style="fill:rgb(255,158,92);fill-rule:nonzero;"/>
                <path d="M5190.07,1658.55C5190.07,1664.97 5186.53,1670.17 5182.16,1670.17C5177.79,1670.17 5174.24,1664.97 5174.24,1658.55C5174.24,1664.97 5170.7,1670.17 5166.33,1670.17C5161.96,1670.17 5158.42,1664.97 5158.42,1658.55C5158.42,1664.97 5154.88,1670.17 5150.51,1670.17C5146.14,1670.17 5142.59,1664.97 5142.59,1658.55C5142.59,1649.47 5153.19,1642.12 5166.26,1642.12C5179.33,1642.12 5189.93,1649.47 5189.93,1658.55L5190.07,1658.55Z" style="fill:rgb(255,158,92);fill-rule:nonzero;"/>
            </g>
        </g>
    </g>
</svg>
