<?xml version="1.0" encoding="UTF-8" standalone="no"?>
<!DOCTYPE svg PUBLIC "-//W3C//DTD SVG 1.1//EN" "http://www.w3.org/Graphics/SVG/1.1/DTD/svg11.dtd">
<svg width="100%" height="100%" viewBox="0 0 267 333" version="1.1" xmlns="http://www.w3.org/2000/svg" xmlns:xlink="http://www.w3.org/1999/xlink" xml:space="preserve" style="fill-rule:evenodd;clip-rule:evenodd;stroke-linejoin:round;stroke-miterlimit:1.41421;">
    <g id="Artboard1" transform="matrix(0.947995,0,0,0.97469,-0.299202,0.134664)">
        <rect x="0.316" y="-0.138" width="280.895" height="340.758" style="fill:none;"/>
        <g transform="matrix(1.36536,0,0,1.01246,-1627.71,-313.95)">
            <g transform="matrix(0.940766,0,0,1.2618,-4892.16,-2672.83)">
                <path d="M6496.81,2369.52C6496.41,2366.02 6499.84,2363.33 6503.16,2364.55L6548.11,2381.09L6502.99,2424.61L6496.81,2369.52Z" style="fill:rgb(61,115,127);fill-rule:nonzero;"/>
            </g>
            <g transform="matrix(0.940766,0,0,1.2618,-4892.16,-2672.83)">
                <path d="M6655.73,2369.52C6656.12,2366.02 6652.69,2363.33 6649.38,2364.55L6604.43,2381.09L6649.55,2424.61L6655.73,2369.52Z" style="fill:rgb(61,115,127);fill-rule:nonzero;"/>
            </g>
            <g transform="matrix(0.940766,0,0,1.2618,-4892.16,-2672.83)">
                <path d="M6685.27,2515.32C6685.27,2566.75 6636.7,2608.44 6576.79,2608.44C6516.88,2608.44 6468.31,2566.75 6468.31,2515.32C6468.31,2463.89 6516.88,2422.2 6576.79,2422.2C6636.7,2422.2 6685.27,2463.89 6685.27,2515.32" style="fill:rgb(83,132,150);fill-rule:nonzero;"/>
            </g>
            <g transform="matrix(0.940766,0,0,1.2618,-4892.16,-2672.83)">
                <path d="M6666.55,2489.89C6666.55,2559.34 6626.36,2615.64 6576.79,2615.64C6527.22,2615.64 6487.03,2559.34 6487.03,2489.89C6487.03,2420.43 6527.22,2364.13 6576.79,2364.13C6626.36,2364.13 6666.55,2420.43 6666.55,2489.89" style="fill:rgb(61,115,127);fill-rule:nonzero;"/>
            </g>
            <g transform="matrix(0.940766,0,0,1.2618,-4892.16,-2672.83)">
                <path d="M6582.41,2447.1C6582.41,2473.43 6563.67,2494.79 6540.56,2494.79C6517.44,2494.79 6498.7,2473.43 6498.7,2447.1C6498.7,2420.76 6517.44,2399.41 6540.56,2399.41C6563.67,2399.41 6582.41,2420.76 6582.41,2447.1" style="fill:white;fill-rule:nonzero;"/>
            </g>
            <g transform="matrix(0.940766,0,0,1.2618,-4892.16,-2672.83)">
                <path d="M6639.31,2541.85C6639.31,2573.99 6611.32,2600.04 6576.79,2600.04C6542.26,2600.04 6514.28,2573.99 6514.28,2541.85C6514.28,2509.71 6542.26,2483.66 6576.79,2483.66C6611.32,2483.66 6639.31,2509.71 6639.31,2541.85" style="fill:white;fill-rule:nonzero;"/>
            </g>
            <g transform="matrix(0.940766,0,0,1.2618,-4892.16,-2672.83)">
                <path d="M6654.09,2447.1C6654.09,2473.43 6635.35,2494.79 6612.23,2494.79C6589.12,2494.79 6570.38,2473.43 6570.38,2447.1C6570.38,2420.76 6589.12,2399.41 6612.23,2399.41C6635.35,2399.41 6654.09,2420.76 6654.09,2447.1" style="fill:white;fill-rule:nonzero;"/>
            </g>
            <g transform="matrix(0.940766,0,0,1.2618,-4892.16,-2672.83)">
                <path d="M6573.35,2463.35C6575.66,2462.44 6578.25,2462.47 6580.54,2463.42C6587.84,2466.45 6593.06,2470.19 6597.66,2475.61C6599.18,2477.41 6599.27,2480 6598.02,2482C6593.23,2489.62 6587.43,2495.35 6580.04,2501.03C6578.24,2502.42 6575.7,2502.42 6573.9,2501.03C6566.51,2495.35 6560.71,2489.62 6555.92,2482C6554.68,2480.02 6554.79,2477.46 6556.29,2475.68C6561.06,2470.04 6565.72,2466.36 6573.35,2463.35" style="fill:rgb(255,158,92);fill-rule:nonzero;"/>
            </g>
            <g transform="matrix(0.940766,0,0,1.2618,-4892.16,-2672.83)">
                <path d="M6572.64,2512.35C6572.64,2516.97 6568.89,2520.72 6564.27,2520.72C6559.65,2520.72 6555.9,2516.97 6555.9,2512.35L6572.64,2512.35Z" style="fill:rgb(214,214,214);fill-rule:nonzero;"/>
            </g>
            <g transform="matrix(0.940766,0,0,1.2618,-4892.16,-2672.83)">
                <path d="M6598.05,2512.35C6598.05,2516.97 6594.31,2520.72 6589.69,2520.72C6585.06,2520.72 6581.32,2516.97 6581.32,2512.35L6598.05,2512.35Z" style="fill:rgb(214,214,214);fill-rule:nonzero;"/>
            </g>
            <g transform="matrix(0.940766,0,0,1.2618,-4892.16,-2672.83)">
                <path d="M6559.93,2529.03C6559.93,2533.66 6556.18,2537.4 6551.56,2537.4C6546.94,2537.4 6543.19,2533.66 6543.19,2529.03L6559.93,2529.03Z" style="fill:rgb(214,214,214);fill-rule:nonzero;"/>
            </g>
            <g transform="matrix(0.940766,0,0,1.2618,-4892.16,-2672.83)">
                <path d="M6585.35,2529.03C6585.35,2533.66 6581.6,2537.4 6576.98,2537.4C6572.35,2537.4 6568.61,2533.66 6568.61,2529.03L6585.35,2529.03Z" style="fill:rgb(214,214,214);fill-rule:nonzero;"/>
            </g>
            <g transform="matrix(0.940766,0,0,1.2618,-4892.16,-2672.83)">
                <path d="M6610.76,2529.03C6610.76,2533.66 6607.02,2537.4 6602.39,2537.4C6597.77,2537.4 6594.03,2533.66 6594.03,2529.03L6610.76,2529.03Z" style="fill:rgb(214,214,214);fill-rule:nonzero;"/>
            </g>
            <g transform="matrix(0.940766,0,0,1.2618,-4892.16,-2672.83)">
                <path d="M6547.22,2545.35C6547.22,2549.97 6543.47,2553.72 6538.85,2553.72C6534.23,2553.72 6530.48,2549.97 6530.48,2545.35L6547.22,2545.35Z" style="fill:rgb(214,214,214);fill-rule:nonzero;"/>
            </g>
            <g transform="matrix(0.940766,0,0,1.2618,-4892.16,-2672.83)">
                <path d="M6572.64,2545.35C6572.64,2549.97 6568.89,2553.72 6564.27,2553.72C6559.65,2553.72 6555.9,2549.97 6555.9,2545.35L6572.64,2545.35Z" style="fill:rgb(214,214,214);fill-rule:nonzero;"/>
            </g>
            <g transform="matrix(0.940766,0,0,1.2618,-4892.16,-2672.83)">
                <path d="M6598.05,2545.35C6598.05,2549.97 6594.31,2553.72 6589.69,2553.72C6585.06,2553.72 6581.32,2549.97 6581.32,2545.35L6598.05,2545.35Z" style="fill:rgb(214,214,214);fill-rule:nonzero;"/>
            </g>
            <g transform="matrix(0.940766,0,0,1.2618,-4892.16,-2672.83)">
                <path d="M6623.47,2545.35C6623.47,2549.97 6619.73,2553.72 6615.1,2553.72C6610.48,2553.72 6606.74,2549.97 6606.74,2545.35L6623.47,2545.35Z" style="fill:rgb(214,214,214);fill-rule:nonzero;"/>
            </g>
            <g transform="matrix(0.940766,0,0,1.2618,-4892.16,-2672.83)">
                <path d="M6559.93,2562.03C6559.93,2566.65 6556.18,2570.4 6551.56,2570.4C6546.94,2570.4 6543.19,2566.65 6543.19,2562.03L6559.93,2562.03Z" style="fill:rgb(214,214,214);fill-rule:nonzero;"/>
            </g>
            <g transform="matrix(0.940766,0,0,1.2618,-4892.16,-2672.83)">
                <path d="M6585.35,2562.03C6585.35,2566.65 6581.6,2570.4 6576.98,2570.4C6572.35,2570.4 6568.61,2566.65 6568.61,2562.03L6585.35,2562.03Z" style="fill:rgb(214,214,214);fill-rule:nonzero;"/>
            </g>
            <g transform="matrix(0.940766,0,0,1.2618,-4892.16,-2672.83)">
                <path d="M6610.76,2562.03C6610.76,2566.65 6607.02,2570.4 6602.39,2570.4C6597.77,2570.4 6594.03,2566.65 6594.03,2562.03L6610.76,2562.03Z" style="fill:rgb(214,214,214);fill-rule:nonzero;"/>
            </g>
            <g transform="matrix(0.940766,0,0,1.2618,-4892.16,-2672.83)">
                <path d="M6572.64,2578.34C6572.64,2582.96 6568.89,2586.71 6564.27,2586.71C6559.65,2586.71 6555.9,2582.96 6555.9,2578.34L6572.64,2578.34Z" style="fill:rgb(214,214,214);fill-rule:nonzero;"/>
            </g>
            <g transform="matrix(0.940766,0,0,1.2618,-4892.16,-2672.83)">
                <path d="M6598.05,2578.34C6598.05,2582.96 6594.31,2586.71 6589.69,2586.71C6585.06,2586.71 6581.32,2582.96 6581.32,2578.34L6598.05,2578.34Z" style="fill:rgb(214,214,214);fill-rule:nonzero;"/>
            </g>
            <g transform="matrix(0.940766,0,0,1.2618,-4892.16,-2672.83)">
                <path d="M6570.38,2441.76C6570.38,2455.21 6559.47,2466.12 6546.02,2466.12C6532.56,2466.12 6521.66,2455.21 6521.66,2441.76C6521.66,2428.31 6532.56,2417.4 6546.02,2417.4C6559.47,2417.4 6570.38,2428.31 6570.38,2441.76" style="fill:rgb(194,221,235);fill-rule:nonzero;"/>
            </g>
            <g transform="matrix(0.940766,0,0,1.2618,-4892.16,-2672.83)">
                <path d="M6561.26,2441.76C6561.26,2450.18 6554.43,2457 6546.02,2457C6537.6,2457 6530.78,2450.18 6530.78,2441.76C6530.78,2433.34 6537.6,2426.52 6546.02,2426.52C6554.43,2426.52 6561.26,2433.34 6561.26,2441.76" style="fill-rule:nonzero;"/>
            </g>
            <g transform="matrix(0.940766,0,0,1.2618,-4892.16,-2672.83)">
                <path d="M6555.5,2436.12C6555.5,2439.23 6552.97,2441.76 6549.86,2441.76C6546.74,2441.76 6544.22,2439.23 6544.22,2436.12C6544.22,2433.01 6546.74,2430.48 6549.86,2430.48C6552.97,2430.48 6555.5,2433.01 6555.5,2436.12" style="fill:white;fill-rule:nonzero;"/>
            </g>
            <g transform="matrix(0.940766,0,0,1.2618,-4892.16,-2672.83)">
                <path d="M6629.97,2441.76C6629.97,2455.21 6619.06,2466.12 6605.61,2466.12C6592.15,2466.12 6581.25,2455.21 6581.25,2441.76C6581.25,2428.31 6592.15,2417.4 6605.61,2417.4C6619.06,2417.4 6629.97,2428.31 6629.97,2441.76" style="fill:rgb(194,221,235);fill-rule:nonzero;"/>
            </g>
            <g transform="matrix(0.940766,0,0,1.2618,-4892.16,-2672.83)">
                <path d="M6620.85,2441.76C6620.85,2450.18 6614.03,2457 6605.61,2457C6597.19,2457 6590.37,2450.18 6590.37,2441.76C6590.37,2433.34 6597.19,2426.52 6605.61,2426.52C6614.03,2426.52 6620.85,2433.34 6620.85,2441.76" style="fill-rule:nonzero;"/>
            </g>
            <g transform="matrix(0.940766,0,0,1.2618,-4892.16,-2672.83)">
                <path d="M6615.09,2436.12C6615.09,2439.23 6612.56,2441.76 6609.45,2441.76C6606.33,2441.76 6603.81,2439.23 6603.81,2436.12C6603.81,2433.01 6606.33,2430.48 6609.45,2430.48C6612.56,2430.48 6615.09,2433.01 6615.09,2436.12" style="fill:white;fill-rule:nonzero;"/>
            </g>
            <g transform="matrix(0.940766,0,0,1.2618,-4891.6,-2669.9)">
                <path d="M6627.35,2615.64C6627.35,2622.07 6623.81,2627.27 6619.44,2627.27C6615.07,2627.27 6611.52,2622.07 6611.52,2615.64C6611.52,2622.07 6607.98,2627.27 6603.61,2627.27C6599.24,2627.27 6595.7,2622.07 6595.7,2615.64C6595.7,2622.07 6592.15,2627.27 6587.78,2627.27C6583.41,2627.27 6579.87,2622.07 6579.87,2615.64C6579.87,2606.57 6590.47,2599.21 6603.54,2599.21C6616.61,2599.21 6627.21,2606.57 6627.21,2615.64L6627.35,2615.64Z" style="fill:rgb(255,158,92);fill-rule:nonzero;"/>
            </g>
            <g transform="matrix(0.940766,0,0,1.2618,-4892.72,-2669.9)">
                <path d="M6573.36,2615.64C6573.36,2622.07 6569.82,2627.27 6565.45,2627.27C6561.08,2627.27 6557.53,2622.07 6557.53,2615.64C6557.53,2622.07 6553.99,2627.27 6549.62,2627.27C6545.25,2627.27 6541.71,2622.07 6541.71,2615.64C6541.71,2622.07 6538.17,2627.27 6533.8,2627.27C6529.43,2627.27 6525.88,2622.07 6525.88,2615.64C6525.88,2606.57 6536.48,2599.21 6549.55,2599.21C6562.62,2599.21 6573.22,2606.57 6573.22,2615.64L6573.36,2615.64Z" style="fill:rgb(255,158,92);fill-rule:nonzero;"/>
            </g>
        </g>
    </g>
</svg>
