<?xml version="1.0" encoding="UTF-8" standalone="no"?>
<!DOCTYPE svg PUBLIC "-//W3C//DTD SVG 1.1//EN" "http://www.w3.org/Graphics/SVG/1.1/DTD/svg11.dtd">
<svg width="100%" height="100%" viewBox="0 0 2856 1694" version="1.1" xmlns="http://www.w3.org/2000/svg" xmlns:xlink="http://www.w3.org/1999/xlink" xml:space="preserve" style="fill-rule:evenodd;clip-rule:evenodd;stroke-linejoin:round;stroke-miterlimit:1.41421;">
    <g id="Layer2">
        <g transform="matrix(1,0,0,1,-1.24382,14.9872)">
            <circle cx="609.54" cy="134.507" r="2.083" style="fill:white;fill-opacity:0.47322;"/>
        </g>
        <g transform="matrix(1,0,0,1,119.436,226.576)">
            <circle cx="609.54" cy="134.507" r="2.083" style="fill:white;fill-opacity:0.47322;"/>
        </g>
        <g transform="matrix(1,0,0,1,154.119,324.078)">
            <circle cx="609.54" cy="134.507" r="2.083" style="fill:white;fill-opacity:0.47322;"/>
        </g>
        <g transform="matrix(1,0,0,1,0.0933424,453.519)">
            <circle cx="609.54" cy="134.507" r="2.083" style="fill:white;fill-opacity:0.35;"/>
        </g>
        <g transform="matrix(1,0,0,1,119.672,665.614)">
            <circle cx="609.54" cy="134.507" r="2.083" style="fill:white;fill-opacity:0.2;"/>
        </g>
        <g transform="matrix(1,0,0,1,152.986,764.079)">
            <circle cx="609.54" cy="134.507" r="2.083" style="fill:white;fill-opacity:0.15;"/>
        </g>
        <g transform="matrix(1,0,0,1,764.444,945.681)">
            <circle cx="609.54" cy="134.507" r="2.083" style="fill:white;fill-opacity:0.1;"/>
        </g>
        <g transform="matrix(1,0,0,1,918.37,764.839)">
            <circle cx="609.54" cy="134.507" r="2.083" style="fill:white;fill-opacity:0.15;"/>
        </g>
        <g transform="matrix(1,0,0,1,885.334,668.029)">
            <circle cx="609.54" cy="134.507" r="2.083" style="fill:white;fill-opacity:0.2;"/>
        </g>
        <g transform="matrix(1,0,0,1,763.775,452.93)">
            <circle cx="609.54" cy="134.507" r="2.083" style="fill:white;fill-opacity:0.35;"/>
        </g>
        <g transform="matrix(1,0,0,1,1584.29,452.278)">
            <circle cx="609.54" cy="134.507" r="2.083" style="fill:white;fill-opacity:0.35;"/>
        </g>
        <g transform="matrix(1,0,0,1,1739.7,763.558)">
            <circle cx="609.54" cy="134.507" r="2.083" style="fill:white;fill-opacity:0.15;"/>
        </g>
        <g transform="matrix(1,0,0,1,1705.2,222.651)">
            <circle cx="609.54" cy="134.507" r="2.083" style="fill:white;fill-opacity:0.47322;"/>
        </g>
        <g transform="matrix(1,0,0,1,1738.95,321.996)">
            <circle cx="609.54" cy="134.507" r="2.083" style="fill:white;fill-opacity:0.47322;"/>
        </g>
        <g transform="matrix(1,0,0,1,1582.82,11.3228)">
            <circle cx="609.54" cy="134.507" r="2.083" style="fill:white;fill-opacity:0.47322;"/>
        </g>
        <g transform="matrix(1,0,0,1,1300.87,313.962)">
            <circle cx="609.54" cy="134.507" r="2.083" style="fill:white;fill-opacity:0.47322;"/>
        </g>
        <g transform="matrix(1,0,0,1,916.774,323.662)">
            <circle cx="609.54" cy="134.507" r="2.083" style="fill:white;fill-opacity:0.47322;"/>
        </g>
        <g transform="matrix(1,0,0,1,883.129,220.163)">
            <circle cx="609.54" cy="134.507" r="2.083" style="fill:white;fill-opacity:0.47322;"/>
        </g>
        <g transform="matrix(1,0,0,1,764.744,10.0301)">
            <circle cx="609.54" cy="134.507" r="2.083" style="fill:white;fill-opacity:0.47322;"/>
        </g>
        <g transform="matrix(1,0,0,1,360.282,944.962)">
            <circle cx="609.54" cy="134.507" r="2.083" style="fill:white;fill-opacity:0.1;"/>
        </g>
        <g transform="matrix(1,0,0,1,-1.64387,947.879)">
            <circle cx="609.54" cy="134.507" r="2.083" style="fill:white;fill-opacity:0.1;"/>
        </g>
        <g transform="matrix(0.606361,0,0,0.606361,348.483,94.8971)">
            <circle cx="609.54" cy="134.507" r="2.083" style="fill:white;fill-opacity:0.47322;"/>
        </g>
        <g transform="matrix(0.606361,0,0,0.606361,697.374,96.2658)">
            <circle cx="609.54" cy="134.507" r="2.083" style="fill:white;fill-opacity:0.47322;"/>
        </g>
        <g transform="matrix(0.606361,0,0,0.606361,1182.05,212.43)">
            <circle cx="609.54" cy="134.507" r="2.083" style="fill:white;fill-opacity:0.47322;"/>
        </g>
        <g transform="matrix(0.606361,0,0,0.606361,1150.02,441.361)">
            <circle cx="609.54" cy="134.507" r="2.083" style="fill:white;fill-opacity:0.35;"/>
        </g>
        <g transform="matrix(0.606361,0,0,0.606361,1113.01,535.924)">
            <circle cx="609.54" cy="134.507" r="2.083" style="fill:white;fill-opacity:0.35;"/>
        </g>
        <g transform="matrix(0.606361,0,0,0.606361,419.113,212.445)">
            <circle cx="609.54" cy="134.507" r="2.083" style="fill:white;fill-opacity:0.47322;"/>
        </g>
        <g transform="matrix(0.606361,0,0,0.606361,508.056,365.014)">
            <circle cx="609.54" cy="134.507" r="2.083" style="fill:white;fill-opacity:0.47322;"/>
        </g>
        <g transform="matrix(0.606361,0,0,0.606361,719.515,366.779)">
            <circle cx="609.54" cy="134.507" r="2.083" style="fill:white;fill-opacity:0.47322;"/>
        </g>
        <g transform="matrix(0.606361,0,0,0.606361,1114.18,94.1846)">
            <circle cx="609.54" cy="134.507" r="2.083" style="fill:white;fill-opacity:0.47322;"/>
        </g>
        <g transform="matrix(0.606361,0,0,0.606361,1364.21,61.0999)">
            <circle cx="609.54" cy="134.507" r="2.083" style="fill:white;fill-opacity:0.47322;"/>
        </g>
        <g transform="matrix(0.606361,0,0,0.606361,1514.14,97.5105)">
            <circle cx="609.54" cy="134.507" r="2.083" style="fill:white;fill-opacity:0.47322;"/>
        </g>
        <g transform="matrix(0.606361,0,0,0.606361,1684.75,158.367)">
            <circle cx="609.54" cy="134.507" r="2.083" style="fill:white;fill-opacity:0.47322;"/>
        </g>
        <g transform="matrix(0.606361,0,0,0.606361,1970.7,-0.65533)">
            <circle cx="609.54" cy="134.507" r="2.083" style="fill:white;fill-opacity:0.47322;"/>
        </g>
        <g transform="matrix(0.606361,0,0,0.606361,2093.95,-59.298)">
            <circle cx="609.54" cy="134.507" r="2.083" style="fill:white;fill-opacity:0.47322;"/>
        </g>
        <g transform="matrix(0.606361,0,0,0.606361,863.273,272.94)">
            <circle cx="609.54" cy="134.507" r="2.083" style="fill:white;fill-opacity:0.47322;"/>
        </g>
        <g transform="matrix(0.606361,0,0,0.606361,864.715,155.738)">
            <circle cx="609.54" cy="134.507" r="2.083" style="fill:white;fill-opacity:0.47322;"/>
        </g>
        <g transform="matrix(0.606361,0,0,0.606361,600.013,504.041)">
            <circle cx="609.54" cy="134.507" r="2.083" style="fill:white;fill-opacity:0.35;"/>
        </g>
        <g transform="matrix(0.606361,0,0,0.606361,697.23,539.607)">
            <circle cx="609.54" cy="134.507" r="2.083" style="fill:white;fill-opacity:0.3;"/>
        </g>
        <g transform="matrix(0.606361,0,0,0.606361,385.717,443.852)">
            <circle cx="609.54" cy="134.507" r="2.083" style="fill:white;fill-opacity:0.35;"/>
        </g>
        <g transform="matrix(0.606361,0,0,0.606361,349.099,536.117)">
            <circle cx="609.54" cy="134.507" r="2.083" style="fill:white;fill-opacity:0.35;"/>
        </g>
        <g transform="matrix(0.606361,0,0,0.606361,417.83,650.566)">
            <circle cx="609.54" cy="134.507" r="2.083" style="fill:white;fill-opacity:0.2;"/>
        </g>
        <g transform="matrix(0.606361,0,0,0.606361,386.432,939.189)">
            <circle cx="609.54" cy="134.507" r="2.083" style="fill:white;fill-opacity:0.15;"/>
        </g>
        <g transform="matrix(0.606361,0,0,0.606361,1066.51,944.994)">
            <circle cx="609.54" cy="134.507" r="2.083" style="fill:white;fill-opacity:0.15;"/>
        </g>
        <g transform="matrix(0.606361,0,0,0.606361,1366.87,994.765)">
            <circle cx="609.54" cy="134.507" r="2.083" style="fill:white;fill-opacity:0.1;"/>
        </g>
        <g transform="matrix(0.606361,0,0,0.606361,1540.33,804.654)">
            <circle cx="609.54" cy="134.507" r="2.083" style="fill:white;fill-opacity:0.15;"/>
        </g>
        <g transform="matrix(0.606361,0,0,0.606361,1683.58,713.443)">
            <circle cx="609.54" cy="134.507" r="2.083" style="fill:white;fill-opacity:0.2;"/>
        </g>
        <g transform="matrix(0.606361,0,0,0.606361,1685.37,601.222)">
            <circle cx="609.54" cy="134.507" r="2.083" style="fill:white;fill-opacity:0.2;"/>
        </g>
        <g transform="matrix(0.606361,0,0,0.606361,2003.7,211.781)">
            <circle cx="609.54" cy="134.507" r="2.083" style="fill:white;fill-opacity:0.47322;"/>
        </g>
        <g transform="matrix(0.606361,0,0,0.606361,2093.31,367.531)">
            <circle cx="609.54" cy="134.507" r="2.083" style="fill:white;fill-opacity:0.47322;"/>
        </g>
        <g transform="matrix(0.606361,0,0,0.606361,1970.53,440.205)">
            <circle cx="609.54" cy="134.507" r="2.083" style="fill:white;fill-opacity:0.35;"/>
        </g>
        <g transform="matrix(0.606361,0,0,0.606361,1932.06,531.889)">
            <circle cx="609.54" cy="134.507" r="2.083" style="fill:white;fill-opacity:0.35;"/>
        </g>
        <g transform="matrix(0.606361,0,0,0.606361,2183.92,500.115)">
            <circle cx="609.54" cy="134.507" r="2.083" style="fill:white;fill-opacity:0.35;"/>
        </g>
        <g transform="matrix(0.606361,0,0,0.606361,1942.89,721.033)">
            <circle cx="609.54" cy="134.507" r="2.083" style="fill:white;fill-opacity:0.2;"/>
        </g>
        <g transform="matrix(0.606361,0,0,0.606361,1824.09,999.402)">
            <circle cx="609.54" cy="134.507" r="2.083" style="fill:white;fill-opacity:0.1;"/>
        </g>
        <g transform="matrix(0.606361,0,0,0.606361,2002.85,651.559)">
            <circle cx="609.54" cy="134.507" r="2.083" style="fill:white;fill-opacity:0.2;"/>
        </g>
        <g transform="matrix(0.606361,0,0,0.606361,2182.54,997.174)">
            <circle cx="609.54" cy="134.507" r="2.083" style="fill:white;fill-opacity:0.1;"/>
        </g>
        <g transform="matrix(0.606361,0,0,0.606361,2093.95,856.984)">
            <circle cx="609.54" cy="134.507" r="2.083" style="fill:white;fill-opacity:0.15;"/>
        </g>
        <g transform="matrix(0.606361,0,0,0.606361,1971.09,936.092)">
            <circle cx="609.54" cy="134.507" r="2.083" style="fill:white;fill-opacity:0.15;"/>
        </g>
        <g transform="matrix(0.606361,0,0,0.606361,1886.96,943.351)">
            <circle cx="609.54" cy="134.507" r="2.083" style="fill:white;fill-opacity:0.15;"/>
        </g>
        <g transform="matrix(0.606361,0,0,0.606361,1182.25,649.519)">
            <circle cx="609.54" cy="134.507" r="2.083" style="fill:white;fill-opacity:0.2;"/>
        </g>
        <g transform="matrix(0.606361,0,0,0.606361,1366.11,503.613)">
            <circle cx="609.54" cy="134.507" r="2.083" style="fill:white;fill-opacity:0.35;"/>
        </g>
        <g transform="matrix(0.606361,0,0,0.606361,1517.84,538.704)">
            <circle cx="609.54" cy="134.507" r="2.083" style="fill:white;fill-opacity:0.3;"/>
        </g>
        <g transform="matrix(0.606361,0,0,0.606361,1684.03,272.975)">
            <circle cx="609.54" cy="134.507" r="2.083" style="fill:white;fill-opacity:0.47322;"/>
        </g>
        <g transform="matrix(0.606361,0,0,0.606361,1781.89,352.97)">
            <circle cx="609.54" cy="134.507" r="2.083" style="fill:white;fill-opacity:0.47322;"/>
        </g>
        <g transform="matrix(0.606361,0,0,0.606361,1933.36,93.2541)">
            <circle cx="609.54" cy="134.507" r="2.083" style="fill:white;fill-opacity:0.47322;"/>
        </g>
        <g transform="matrix(0.606361,0,0,0.606361,2185.02,60.0011)">
            <circle cx="609.54" cy="134.507" r="2.083" style="fill:white;fill-opacity:0.47322;"/>
        </g>
        <g transform="matrix(0.606361,0,0,0.606361,1273.79,365.821)">
            <circle cx="609.54" cy="134.507" r="2.083" style="fill:white;fill-opacity:0.47322;"/>
        </g>
        <g transform="matrix(0.606361,0,0,0.606361,1150.95,935.416)">
            <circle cx="609.54" cy="134.507" r="2.083" style="fill:white;fill-opacity:0.15;"/>
        </g>
        <g transform="matrix(0.606361,0,0,0.606361,1273.16,859.309)">
            <circle cx="609.54" cy="134.507" r="2.083" style="fill:white;fill-opacity:0.15;"/>
        </g>
        <g transform="matrix(0.745001,0,0,0.745001,-152.977,518.164)">
            <circle cx="609.54" cy="134.507" r="2.083" style="fill:white;fill-opacity:0.3;"/>
        </g>
        <g transform="matrix(0.606361,0,0,0.606361,98.559,601.912)">
            <circle cx="609.54" cy="134.507" r="2.083" style="fill:white;fill-opacity:0.2;"/>
        </g>
        <g transform="matrix(0.606361,0,0,0.606361,97.4146,715.028)">
            <circle cx="609.54" cy="134.507" r="2.083" style="fill:white;fill-opacity:0.2;"/>
        </g>
        <g transform="matrix(0.406073,0,0,0.406073,370.783,702.879)">
            <circle cx="609.54" cy="134.507" r="2.083" style="fill:white;fill-opacity:0.2;"/>
        </g>
        <g transform="matrix(0.406073,0,0,0.406073,204.223,459.432)">
            <circle cx="609.54" cy="134.507" r="2.083" style="fill:white;fill-opacity:0.35;"/>
        </g>
        <g transform="matrix(0.406073,0,0,0.406073,320.405,378.569)">
            <circle cx="609.54" cy="134.507" r="2.083" style="fill:white;fill-opacity:0.47322;"/>
        </g>
        <g transform="matrix(0.406073,0,0,0.406073,423.142,476.578)">
            <circle cx="609.54" cy="134.507" r="2.083" style="fill:white;fill-opacity:0.35;"/>
        </g>
        <g transform="matrix(0.406073,0,0,0.406073,702.415,716.499)">
            <circle cx="609.54" cy="134.507" r="2.083" style="fill:white;fill-opacity:0.2;"/>
        </g>
        <g transform="matrix(0.406073,0,0,0.406073,986.763,627.404)">
            <circle cx="609.54" cy="134.507" r="2.083" style="fill:white;fill-opacity:0.2;"/>
        </g>
        <g transform="matrix(0.406073,0,0,0.406073,1135.99,704.296)">
            <circle cx="609.54" cy="134.507" r="2.083" style="fill:white;fill-opacity:0.2;"/>
        </g>
        <g transform="matrix(0.406073,0,0,0.406073,1465.78,714.285)">
            <circle cx="609.54" cy="134.507" r="2.083" style="fill:white;fill-opacity:0.2;"/>
        </g>
        <g transform="matrix(0.406073,0,0,0.406073,968.917,460.33)">
            <circle cx="609.54" cy="134.507" r="2.083" style="fill:white;fill-opacity:0.35;"/>
        </g>
        <g transform="matrix(0.406073,0,0,0.406073,1085.35,379.202)">
            <circle cx="609.54" cy="134.507" r="2.083" style="fill:white;fill-opacity:0.47322;"/>
        </g>
        <g transform="matrix(0.406073,0,0,0.406073,1186.88,479.203)">
            <circle cx="609.54" cy="134.507" r="2.083" style="fill:white;fill-opacity:0.35;"/>
        </g>
        <g transform="matrix(0.406073,0,0,0.406073,1138.25,262.019)">
            <circle cx="609.54" cy="134.507" r="2.083" style="fill:white;fill-opacity:0.47322;"/>
        </g>
        <g transform="matrix(0.406073,0,0,0.406073,1466.64,272.947)">
            <circle cx="609.54" cy="134.507" r="2.083" style="fill:white;fill-opacity:0.47322;"/>
        </g>
        <g transform="matrix(0.406073,0,0,0.406073,1511.77,233.181)">
            <circle cx="609.54" cy="134.507" r="2.083" style="fill:white;fill-opacity:0.47322;"/>
        </g>
        <g transform="matrix(0.406073,0,0,0.406073,1789.47,18.5338)">
            <circle cx="609.54" cy="134.507" r="2.083" style="fill:white;fill-opacity:0.47322;"/>
        </g>
        <g transform="matrix(0.406073,0,0,0.406073,2009.79,38.847)">
            <circle cx="609.54" cy="134.507" r="2.083" style="fill:white;fill-opacity:0.47322;"/>
        </g>
        <g transform="matrix(0.406073,0,0,0.406073,1787.23,457.131)">
            <circle cx="609.54" cy="134.507" r="2.083" style="fill:white;fill-opacity:0.35;"/>
        </g>
        <g transform="matrix(0.406073,0,0,0.406073,1955.63,701.881)">
            <circle cx="609.54" cy="134.507" r="2.083" style="fill:white;fill-opacity:0.2;"/>
        </g>
        <g transform="matrix(0.406073,0,0,0.406073,2285.03,715.707)">
            <circle cx="609.54" cy="134.507" r="2.083" style="fill:white;fill-opacity:0.2;"/>
        </g>
        <g transform="matrix(0.406073,0,0,0.406073,1905.23,823.108)">
            <circle cx="609.54" cy="134.507" r="2.083" style="fill:white;fill-opacity:0.15;"/>
        </g>
        <g transform="matrix(0.406073,0,0,0.406073,2008.61,478.69)">
            <circle cx="609.54" cy="134.507" r="2.083" style="fill:white;fill-opacity:0.35;"/>
        </g>
        <g transform="matrix(0.406073,0,0,0.406073,1956.4,259.798)">
            <circle cx="609.54" cy="134.507" r="2.083" style="fill:white;fill-opacity:0.47322;"/>
        </g>
        <g transform="matrix(0.406073,0,0,0.406073,2284.07,273.085)">
            <circle cx="609.54" cy="134.507" r="2.083" style="fill:white;fill-opacity:0.47322;"/>
        </g>
        <g transform="matrix(0.406073,0,0,0.406073,985.786,739.293)">
            <circle cx="609.54" cy="134.507" r="2.083" style="fill:white;fill-opacity:0.2;"/>
        </g>
        <g transform="matrix(0.406073,0,0,0.406073,1084.38,823.027)">
            <circle cx="609.54" cy="134.507" r="2.083" style="fill:white;fill-opacity:0.15;"/>
        </g>
        <g transform="matrix(0.406073,0,0,0.406073,840.43,833.278)">
            <circle cx="609.54" cy="134.507" r="2.083" style="fill:white;fill-opacity:0.15;"/>
        </g>
        <g transform="matrix(0.406073,0,0,0.406073,631.785,887.343)">
            <circle cx="609.54" cy="134.507" r="2.083" style="fill:white;fill-opacity:0.15;"/>
        </g>
        <g transform="matrix(0.406073,0,0,0.406073,967.283,953.532)">
            <circle cx="609.54" cy="134.507" r="2.083" style="fill:white;fill-opacity:0.15;"/>
        </g>
        <g transform="matrix(0.406073,0,0,0.406073,370.668,258.96)">
            <circle cx="609.54" cy="134.507" r="2.083" style="fill:white;fill-opacity:0.47322;"/>
        </g>
        <g transform="matrix(0.406073,0,0,0.406073,422.408,36.2661)">
            <circle cx="609.54" cy="134.507" r="2.083" style="fill:white;fill-opacity:0.47322;"/>
        </g>
        <g transform="matrix(0.406073,0,0,0.406073,203.518,16.3431)">
            <circle cx="609.54" cy="134.507" r="2.083" style="fill:white;fill-opacity:0.47322;"/>
        </g>
        <g transform="matrix(0.406073,0,0,0.406073,699.701,274.383)">
            <circle cx="609.54" cy="134.507" r="2.083" style="fill:white;fill-opacity:0.47322;"/>
        </g>
        <g transform="matrix(0.406073,0,0,0.406073,77.9297,835.046)">
            <circle cx="609.54" cy="134.507" r="2.083" style="fill:white;fill-opacity:0.15;"/>
        </g>
        <g transform="matrix(0.406073,0,0,0.406073,319.393,824.115)">
            <circle cx="609.54" cy="134.507" r="2.083" style="fill:white;fill-opacity:0.15;"/>
        </g>
        <g transform="matrix(0.406073,0,0,0.406073,202.501,957.068)">
            <circle cx="609.54" cy="134.507" r="2.083" style="fill:white;fill-opacity:0.15;"/>
        </g>
        <g transform="matrix(0.406073,0,0,0.406073,422.269,973.632)">
            <circle cx="609.54" cy="134.507" r="2.083" style="fill:white;fill-opacity:0.15;"/>
        </g>
        <g transform="matrix(0.606361,0,0,0.606361,-46.2098,363.319)">
            <circle cx="609.54" cy="134.507" r="2.083" style="fill:white;fill-opacity:0.47322;"/>
        </g>
        <g transform="matrix(0.606361,0,0,0.606361,98.0026,275.813)">
            <circle cx="609.54" cy="134.507" r="2.083" style="fill:white;fill-opacity:0.47322;"/>
        </g>
        <g transform="matrix(0.606361,0,0,0.606361,599.943,63.43)">
            <circle cx="609.54" cy="134.507" r="2.083" style="fill:white;fill-opacity:0.47322;"/>
        </g>
        <g transform="matrix(0.606361,0,0,0.606361,-68.2866,98.9897)">
            <circle cx="609.54" cy="134.507" r="2.083" style="fill:white;fill-opacity:0.47322;"/>
        </g>
        <g transform="matrix(0.495408,0,0,0.495408,168.342,178.2)">
            <circle cx="609.54" cy="134.507" r="2.083" style="fill:white;fill-opacity:0.47322;"/>
        </g>
        <g transform="matrix(0.495408,0,0,0.495408,453.76,18.3347)">
            <circle cx="609.54" cy="134.507" r="2.083" style="fill:white;fill-opacity:0.47322;"/>
        </g>
        <g transform="matrix(0.495408,0,0,0.495408,576.309,-42.9117)">
            <circle cx="609.54" cy="134.507" r="2.083" style="fill:white;fill-opacity:0.47322;"/>
        </g>
        <g transform="matrix(0.495408,0,0,0.495408,915.057,1.23093)">
            <circle cx="609.54" cy="134.507" r="2.083" style="fill:white;fill-opacity:0.47322;"/>
        </g>
        <g transform="matrix(0.495408,0,0,0.495408,1134.75,25.5263)">
            <circle cx="609.54" cy="134.507" r="2.083" style="fill:white;fill-opacity:0.47322;"/>
        </g>
        <g transform="matrix(0.495408,0,0,0.495408,1221.08,13.1704)">
            <circle cx="609.54" cy="134.507" r="2.083" style="fill:white;fill-opacity:0.47322;"/>
        </g>
        <g transform="matrix(0.495408,0,0,0.495408,1339.09,-44.1622)">
            <circle cx="609.54" cy="134.507" r="2.083" style="fill:white;fill-opacity:0.47322;"/>
        </g>
    </g>
</svg>
