<?xml version="1.0" encoding="UTF-8" standalone="no"?>
<!DOCTYPE svg PUBLIC "-//W3C//DTD SVG 1.1//EN" "http://www.w3.org/Graphics/SVG/1.1/DTD/svg11.dtd">
<svg width="100%" height="100%" viewBox="0 0 3714 408" version="1.1" xmlns="http://www.w3.org/2000/svg" xmlns:xlink="http://www.w3.org/1999/xlink" xml:space="preserve" style="fill-rule:evenodd;clip-rule:evenodd;stroke-linejoin:round;stroke-miterlimit:1.41421;">
    <g id="Artboard1" transform="matrix(1.21367,0,0,0.896948,30.6229,33.3841)">
        <rect x="-25.232" y="-37.22" width="3059.54" height="453.777" style="fill:none;"/>
        <clipPath id="_clip1">
            <rect x="-25.232" y="-37.22" width="3059.54" height="453.777"/>
        </clipPath>
        <g clip-path="url(#_clip1)">
            <g transform="matrix(0.823947,0,0,1.11489,-7987.69,-4409.56)">
                <path d="M11520.4,4324.85L11524.2,4311.99L11527.8,4324.14L11529.7,4317.72L11532.1,4325.52L11536.6,4310.29L11540.5,4323.56L11543.5,4313.45L11545.7,4320.67L11550.5,4304.54L11556.5,4324.82L11561.5,4307.93L11564.9,4319.36L11569.7,4303.16L11576.5,4326.01L11586.5,4292.19L11594.5,4319.03L11599.2,4303.16L11603.5,4317.53L11609.4,4297.45L11614.1,4313.2L11625.1,4276.08L11639.1,4323.04L11648.9,4290.08L11654.8,4309.94L11663.7,4279.77L11668,4294.1L11680.5,4252.09L11696.9,4307.35L11702.5,4288.46L11710.7,4316.22L11729.8,4251.91L11736.3,4273.8L11746.5,4239.51L11768.3,4313.03L11780.6,4271.68L11788.1,4297.04L11812.6,4214.7L11834.7,4289.14L11853.4,4226.11L11868.3,4276.4L11893.2,4192.72L11920.5,4284.62L11960.4,4150.25L11990.7,4252.43L12014.9,4170.89L12036.3,4243.06L12080.4,4094.68L12111,4197.69L12166.7,4009.91L12222.3,4196.93L12252.6,4094.76L12272.5,4161.82L12343.5,3922.63L12419.9,4179.99L12478.8,3981.82L12557.4,4246.64L12579.9,4170.89L12600.3,4239.67L12643.3,4094.76L12673.7,4196.93L12729.2,4009.91L12784.9,4197.69L12815.5,4094.68L12859.6,4243.06L12881,4170.89L12905.2,4252.43L12935.6,4150.25L12975.5,4284.62L13002.7,4192.72L13027.6,4276.4L13042.5,4226.11L13061.2,4289.14L13083.3,4214.7L13111.3,4309L13122.6,4270.93L13131.4,4300.33L13149.4,4239.51L13159.6,4273.8L13166.1,4251.91L13183.2,4309.57L13191.9,4280.3L13199.5,4305.83L13215.5,4252.09L13227.9,4294.1L13232.2,4279.77L13241.1,4309.94L13247,4290.08L13256.8,4323.04L13270.8,4276.08L13279.6,4305.92L13284.3,4290.08L13292.1,4316.23L13295.6,4304.61L13297.1,4309.76L13298.5,4305.09L13302,4317.03L13309.4,4292.19L13316.7,4316.88L13322.5,4297.45L13330,4322.79L13334.4,4307.93L13339.4,4324.82L13345.5,4304.54L13350.9,4322.88L13353.6,4313.66L13357.2,4325.64L13362.5,4307.93L13367.7,4325.51L13371.7,4311.99L13376.7,4329.01L13368.7,4329.01L13368.7,4329.01L13349.1,4329.01L13349.1,4329.01L13340.7,4329.01L13340.7,4329.01L13331.9,4329.01L13331.9,4329.01L13320.3,4329.01L13320.3,4329.01L13302.8,4329.01L13302.8,4329.08L13288.3,4329.08L13288.3,4329.01L13286.5,4329.01L13286.5,4329.01L13255.1,4329.01L13255.1,4329.01L13246.8,4329.01L13246.8,4329.01L13238.3,4329.01L13238.3,4329.01L13192.6,4329.01L13192.6,4329.01L13177.5,4329.01L13143.2,4329.01L13143.2,4329.01L13139.9,4329.01L13139.9,4329.01L13117.3,4329.01L13117.3,4329.01L13049.4,4329.01L13049.4,4329.01L13012,4329.01L13012,4329.01L12988.6,4329.01L12988.6,4329.01L12928,4329.01L12928,4329.01L12834.1,4329.01L12834.1,4329.01L12746,4329.01L12746,4329.01L12712.9,4329.01L12712.9,4329.01L12626.8,4329.01L12626.8,4329.01L12532.9,4329.01L12532.9,4329.01L12375.7,4329.01L12375.7,4329.01L12322.1,4329.01L12322.1,4329.01L12150,4329.01L12150,4329.01L12061.8,4329.01L12061.8,4329.01L11968,4329.01L11968,4329.01L11907.3,4329.01L11907.3,4329.01L11883.9,4329.01L11883.9,4329.01L11822.8,4329.01L11822.8,4329.01L11778.6,4329.01C11778.6,4329.01 11763.6,4329.01 11763.6,4329.01L11763.6,4329.01L11752.7,4329.01L11752.7,4329.01L11706.9,4329.01L11706.9,4329.01L11703.3,4329.01L11703.3,4329.01L11660.4,4329.01L11660.4,4329.01L11637.3,4329.01L11637.3,4329.01L11618.8,4329.01L11618.8,4329.01L11600.1,4329.01L11600.1,4329.01L11597.5,4329.01L11575.6,4329.01L11567.8,4329.01L11567.8,4329.01L11555.2,4329.01L11555.2,4329.01L11543.2,4329.01L11543.2,4329.01L11533.1,4329.01C11533.1,4329.01 11526.4,4329.01 11526.4,4329.01L11519.2,4329.01C11519.2,4329.01 11513.6,4329.01 11513.6,4329.01L11513.6,4329.01L11494,4329.01L11494,4329.01L11485.6,4329.01L11485.6,4329.01L11476.8,4329.01L11476.8,4329.01L11465.2,4329.01L11465.2,4329.01L11447.7,4329.01L11447.7,4329.08L11433.2,4329.08L11433.2,4329.01L11431.4,4329.01L11431.4,4329.01L11400,4329.01L11400,4329.01L11391.7,4329.01L11391.7,4329.01L11383.2,4329.01L11383.2,4329.01L11337.5,4329.01L11337.5,4329.01L11322.4,4329.01L11288.1,4329.01L11288.1,4329.01L11284.8,4329.01L11284.8,4329.01L11262.2,4329.01L11262.2,4329.01L11194.3,4329.01L11194.3,4329.01L11156.9,4329.01L11156.9,4329.01L11133.6,4329.01L11133.6,4329.01L11072.9,4329.01L11072.9,4329.01L10979,4329.01L10979,4329.01L10890.9,4329.01L10890.9,4329.01L10857.8,4329.01L10857.8,4329.01L10771.7,4329.01L10771.7,4329.01L10677.8,4329.01L10677.8,4329.01L10520.6,4329.01L10520.6,4329.01L10467,4329.01L10467,4329.01L10294.9,4329.01L10294.9,4329.01L10206.8,4329.01L10206.8,4329.01L10112.9,4329.01L10112.9,4329.01L10052.2,4329.01L10052.2,4329.01L10028.9,4329.01L10028.9,4329.01L9967.75,4329.01L9967.75,4329.01L9923.54,4329.01C9923.54,4329.01 9908.48,4329.01 9908.48,4329.01L9908.48,4329.01L9897.61,4329.01L9897.61,4329.01L9851.82,4329.01L9851.82,4329.01L9848.2,4329.01L9848.2,4329.01L9805.34,4329.01L9805.34,4329.01L9782.22,4329.01L9782.22,4329.01L9763.72,4329.01L9763.72,4329.01L9744.98,4329.01L9744.98,4329.01L9742.37,4329.01L9720.51,4329.01L9712.66,4329.01L9712.66,4329.01L9700.15,4329.01L9700.15,4329.01L9688.1,4329.01L9688.1,4329.01L9678.01,4329.01L9671.3,4329.01L9664.09,4329.01L9669.14,4311.99L9672.75,4324.14L9674.65,4317.72L9676.97,4325.52L9681.49,4310.29L9685.43,4323.56L9688.43,4313.45L9690.58,4320.67L9695.37,4304.54L9701.39,4324.82L9706.41,4307.93L9709.8,4319.36L9714.61,4303.16L9721.4,4326.01L9731.44,4292.19L9739.41,4319.03L9744.12,4303.16L9748.39,4317.53L9754.35,4297.45L9759.03,4313.2L9770.05,4276.08L9783.99,4323.04L9793.78,4290.08L9799.68,4309.94L9808.64,4279.77L9812.89,4294.1L9825.36,4252.09L9841.77,4307.35L9847.38,4288.46L9855.62,4316.22L9874.72,4251.91L9881.22,4273.8L9891.4,4239.51L9913.23,4313.03L9925.51,4271.68L9933.04,4297.04L9957.49,4214.7L9979.59,4289.14L9998.3,4226.11L10013.2,4276.4L10038.1,4192.72L10065.4,4284.62L10105.3,4150.25L10135.6,4252.43L10159.8,4170.89L10181.2,4243.06L10225.3,4094.68L10255.9,4197.69L10311.6,4009.91L10367.2,4196.93L10397.5,4094.76L10417.4,4161.82L10488.4,3922.63L10564.8,4179.99L10623.7,3981.82L10702.3,4246.64L10724.8,4170.89L10745.2,4239.67L10788.2,4094.76L10818.6,4196.93L10874.1,4009.91L10929.9,4197.69L10960.4,4094.68L11004.5,4243.06L11025.9,4170.89L11050.1,4252.43L11080.5,4150.25L11120.4,4284.62L11147.7,4192.72L11172.5,4276.4L11187.4,4226.11L11206.1,4289.14L11228.3,4214.7L11256.2,4309L11267.6,4270.93L11276.3,4300.33L11294.3,4239.51L11304.5,4273.8L11311,4251.91L11328.1,4309.57L11336.8,4280.3L11344.4,4305.83L11360.4,4252.09L11372.8,4294.1L11377.1,4279.77L11386.1,4309.94L11392,4290.08L11401.7,4323.04L11415.7,4276.08L11424.5,4305.92L11429.2,4290.08L11437,4316.23L11440.5,4304.61L11442,4309.76L11443.4,4305.09L11446.9,4317.03L11454.3,4292.19L11461.6,4316.88L11467.4,4297.45L11474.9,4322.79L11479.3,4307.93L11484.3,4324.82L11490.4,4304.54L11495.8,4322.88L11498.5,4313.66L11502.1,4325.64L11507.4,4307.93L11512.6,4325.51L11516.6,4311.99L11520.4,4324.85ZM11529.8,4328.25L11529.8,4326.67L11531,4325.81L11530.8,4325.7L11529.8,4326.46L11529.8,4322.2L11529.6,4322.2L11529.6,4324.43L11528.8,4323.78L11528.7,4323.88L11529.6,4324.64L11529.6,4328.25L11529.8,4328.25ZM9674.75,4322.2L9674.56,4322.2L9674.56,4324.43L9673.71,4323.78L9673.58,4323.88L9674.56,4324.64L9674.56,4328.25L9674.75,4328.25L9674.75,4326.67L9675.88,4325.81L9675.74,4325.7L9674.75,4326.46L9674.75,4322.2ZM13353.8,4327.97L13353.8,4323.07L13355.1,4322.04L13354.9,4321.9L13353.8,4322.78L13353.8,4319.75L13353.5,4319.75L13353.5,4325.54L13352.2,4324.51L13352,4324.65L13353.5,4325.83L13353.5,4327.97L13353.8,4327.97ZM11498.7,4319.75L11498.4,4319.75L11498.4,4325.54L11497.1,4324.51L11496.9,4324.65L11498.4,4325.83L11498.4,4327.97L11498.7,4327.97L11498.7,4323.07L11500,4322.04L11499.8,4321.9L11498.7,4322.78L11498.7,4319.75ZM11544.4,4324.91L11543.7,4325.49L11543.7,4319.62L11543.4,4319.62L11543.4,4322.69L11542.2,4321.8L11542,4321.94L11543.4,4322.99L11543.4,4327.96L11543.5,4327.96L11543.7,4327.45L11543.7,4325.79L11544.3,4325.29L11544.4,4324.91ZM9688.57,4319.62L9688.3,4319.62L9688.3,4322.69L9687.14,4321.8L9686.95,4321.94L9688.3,4322.99L9688.3,4327.96L9688.42,4327.96L9688.57,4327.45L9688.57,4325.79L9689.21,4325.29L9689.32,4324.91L9688.57,4325.49L9688.57,4319.62ZM9669.29,4318.74L9668.99,4318.74L9668.99,4322.1L9667.72,4321.12L9667.52,4321.28L9668.99,4322.42L9668.99,4327.86L9669.29,4327.86L9669.29,4325.48L9670.99,4324.18L9670.78,4324.02L9669.29,4325.16L9669.29,4318.74ZM11524.4,4318.74L11524.1,4318.74L11524.1,4322.1L11522.8,4321.12L11522.6,4321.28L11524.1,4322.42L11524.1,4327.86L11524.4,4327.86L11524.4,4325.48L11526.1,4324.18L11525.9,4324.02L11524.4,4325.16L11524.4,4318.74ZM13371.8,4318.74L13371.5,4318.74L13371.5,4325.16L13370.1,4324.02L13369.8,4324.18L13371.5,4325.48L13371.5,4327.86L13371.8,4327.86L13371.8,4322.42L13373.3,4321.28L13373.1,4321.12L13371.8,4322.1L13371.8,4318.74ZM11516.7,4318.74L11516.4,4318.74L11516.4,4325.16L11515,4324.02L11514.8,4324.18L11516.4,4325.48L11516.4,4327.86L11516.7,4327.86L11516.7,4322.42L11518.2,4321.28L11518,4321.12L11516.7,4322.1L11516.7,4318.74ZM11536.7,4317.72L11536.4,4317.72L11536.4,4321.41L11535,4320.33L11534.8,4320.51L11536.4,4321.77L11536.4,4327.74L11536.7,4327.74L11536.7,4325.13L11538.6,4323.69L11538.4,4323.52L11536.7,4324.78L11536.7,4317.72ZM9681.65,4317.72L9681.33,4317.72L9681.33,4321.41L9679.93,4320.33L9679.7,4320.51L9681.33,4321.77L9681.33,4327.74L9681.65,4327.74L9681.65,4325.13L9683.52,4323.69L9683.29,4323.52L9681.65,4324.78L9681.65,4317.72ZM9706.59,4316.3L9706.22,4316.3L9706.22,4320.45L9704.65,4319.24L9704.39,4319.44L9706.22,4320.85L9706.22,4327.58L9706.59,4327.58L9706.59,4324.65L9708.69,4323.02L9708.43,4322.83L9706.59,4324.25L9706.59,4316.3ZM11561.7,4327.58L11561.7,4324.65L11563.8,4323.02L11563.5,4322.83L11561.7,4324.25L11561.7,4316.3L11561.3,4316.3L11561.3,4320.45L11559.7,4319.24L11559.5,4319.44L11561.3,4320.85L11561.3,4327.58L11561.7,4327.58ZM11479.5,4316.3L11479.1,4316.3L11479.1,4324.25L11477.3,4322.83L11477,4323.02L11479.1,4324.64L11479.1,4327.58L11479.5,4327.58L11479.5,4320.85L11481.3,4319.44L11481.1,4319.24L11479.5,4320.45L11479.5,4316.3ZM11507.5,4316.3L11507.2,4316.3L11507.2,4324.25L11505.3,4322.83L11505.1,4323.02L11507.2,4324.64L11507.2,4327.58L11507.5,4327.58L11507.5,4320.85L11509.4,4319.44L11509.1,4319.24L11507.5,4320.45L11507.5,4316.3ZM13334.6,4327.58L13334.6,4320.85L13336.4,4319.44L13336.2,4319.24L13334.6,4320.45L13334.6,4316.3L13334.2,4316.3L13334.2,4324.25L13332.4,4322.83L13332.1,4323.02L13334.2,4324.64L13334.2,4327.58L13334.6,4327.58ZM13362.6,4316.3L13362.3,4316.3L13362.3,4324.25L13360.4,4322.83L13360.2,4323.02L13362.3,4324.64L13362.3,4327.58L13362.6,4327.58L13362.6,4320.85L13364.5,4319.44L13364.2,4319.24L13362.6,4320.45L13362.6,4316.3ZM9695.58,4314.25L9695.16,4314.25L9695.16,4319.08L9693.33,4317.67L9693.03,4317.9L9695.16,4319.54L9695.16,4327.36L9695.58,4327.36L9695.58,4323.94L9698.02,4322.06L9697.72,4321.83L9695.58,4323.48L9695.58,4314.25ZM11550.7,4314.25L11550.2,4314.25L11550.2,4319.08L11548.4,4317.67L11548.1,4317.9L11550.2,4319.54L11550.2,4327.36L11550.7,4327.36L11550.7,4323.94L11553.1,4322.06L11552.8,4321.83L11550.7,4323.48L11550.7,4314.25ZM11490.6,4314.25L11490.2,4314.25L11490.2,4323.48L11488,4321.83L11487.7,4322.06L11490.2,4323.94L11490.2,4327.36L11490.6,4327.36L11490.6,4319.54L11492.7,4317.9L11492.4,4317.67L11490.6,4319.08L11490.6,4314.25ZM13345.7,4327.36L13345.7,4319.54L13347.8,4317.9L13347.5,4317.67L13345.7,4319.08L13345.7,4314.25L13345.2,4314.25L13345.2,4323.48L13343.1,4321.83L13342.8,4322.06L13345.2,4323.94L13345.2,4327.36L13345.7,4327.36ZM11599.4,4327.26L11599.4,4323.65L11602,4321.67L11601.7,4321.43L11599.4,4323.17L11599.4,4313.42L11599,4313.42L11599,4318.52L11597.1,4317.03L11596.7,4317.27L11599,4319L11599,4327.26L11599.4,4327.26ZM11569.9,4327.26L11569.9,4323.65L11572.5,4321.67L11572.2,4321.43L11569.9,4323.17L11569.9,4313.42L11569.5,4313.42L11569.5,4318.52L11567.5,4317.03L11567.2,4317.27L11569.5,4319L11569.5,4327.26L11569.9,4327.26ZM9714.83,4313.42L9714.39,4313.42L9714.39,4318.52L9712.46,4317.03L9712.14,4317.27L9714.39,4319L9714.39,4327.26L9714.83,4327.26L9714.83,4323.65L9717.41,4321.67L9717.1,4321.43L9714.83,4323.17L9714.83,4313.42ZM9744.34,4313.42L9743.9,4313.42L9743.9,4318.52L9741.97,4317.03L9741.65,4317.27L9743.9,4319L9743.9,4327.26L9744.34,4327.26L9744.34,4323.65L9746.92,4321.67L9746.61,4321.43L9744.34,4323.17L9744.34,4313.42ZM9754.63,4309.98L9754.08,4309.98L9754.08,4316.2L9751.73,4314.38L9751.34,4314.68L9754.08,4316.79L9754.08,4326.88L9754.63,4326.88L9754.63,4322.47L9756.77,4320.82L9757,4320.05L9754.63,4321.88L9754.63,4309.98ZM11609.7,4309.98L11609.2,4309.98L11609.2,4316.2L11606.8,4314.38L11606.4,4314.68L11609.2,4316.79L11609.2,4326.88L11609.7,4326.88L11609.7,4322.47L11611.9,4320.82L11612.1,4320.05L11609.7,4321.88L11609.7,4309.98ZM13322.8,4309.98L13322.2,4309.98L13322.2,4321.88L13319.5,4319.75L13319.1,4320.05L13322.2,4322.47L13322.2,4326.88L13322.8,4326.88L13322.8,4316.79L13325.5,4314.68L13325.1,4314.38L13322.8,4316.2L13322.8,4309.98ZM11467.7,4309.98L11467.1,4309.98L11467.1,4321.88L11464.4,4319.75L11464,4320.05L11467.1,4322.47L11467.1,4326.88L11467.7,4326.88L11467.7,4316.79L11470.4,4314.68L11470,4314.38L11467.7,4316.2L11467.7,4309.98ZM13309.7,4326.52L13309.7,4314.76L13312.9,4312.29L13312.5,4311.95L13309.7,4314.06L13309.7,4306.8L13309.1,4306.8L13309.1,4320.69L13305.8,4318.21L13305.4,4318.56L13309.1,4321.38L13309.1,4326.52L13309.7,4326.52ZM11454.6,4306.8L11454,4306.8L11454,4320.69L11450.8,4318.21L11450.3,4318.56L11454,4321.38L11454,4326.52L11454.6,4326.52L11454.6,4314.76L11457.8,4312.29L11457.4,4311.95L11454.6,4314.06L11454.6,4306.8ZM11586.8,4326.52L11586.8,4321.38L11590.5,4318.55L11590.1,4318.21L11586.8,4320.69L11586.8,4306.8L11586.2,4306.8L11586.2,4314.06L11583.5,4311.94L11583,4312.29L11586.2,4314.76L11586.2,4326.52L11586.8,4326.52ZM9731.76,4306.8L9731.12,4306.8L9731.12,4314.06L9728.37,4311.94L9727.92,4312.29L9731.12,4314.76L9731.12,4326.52L9731.76,4326.52L9731.76,4321.38L9735.43,4318.55L9734.98,4318.21L9731.76,4320.69L9731.76,4306.8ZM13247.4,4326.38L13247.4,4313.94L13250.8,4311.34L13250.3,4310.97L13247.4,4313.21L13247.4,4305.53L13246.7,4305.53L13246.7,4320.21L13243.5,4317.7L13243.7,4318.65L13246.7,4320.95L13246.7,4326.38L13247.4,4326.38ZM11392.3,4305.53L11391.6,4305.53L11391.6,4320.21L11388.4,4317.7L11388.6,4318.65L11391.6,4320.95L11391.6,4326.38L11392.3,4326.38L11392.3,4313.94L11395.7,4311.34L11395.2,4310.97L11392.3,4313.21L11392.3,4305.53ZM11652.5,4317.7L11649.2,4320.21L11649.2,4305.53L11648.5,4305.53L11648.5,4313.21L11645.6,4310.97L11645.2,4311.34L11648.5,4313.94L11648.5,4326.38L11649.2,4326.38L11649.2,4320.95L11652.2,4318.65L11652.5,4317.7ZM9794.12,4305.53L9793.44,4305.53L9793.44,4313.21L9790.54,4310.97L9790.06,4311.34L9793.44,4313.94L9793.44,4326.38L9794.12,4326.38L9794.12,4320.95L9797.09,4318.65L9797.37,4317.7L9794.12,4320.21L9794.12,4305.53ZM9847.73,4304.55L9847.03,4304.55L9847.03,4312.55L9844,4310.21L9843.51,4310.6L9847.03,4313.31L9847.03,4325.06L9847.39,4326.27L9847.73,4326.27L9847.73,4320.61L9851.77,4317.49L9851.28,4317.11L9847.73,4319.85L9847.73,4304.55ZM11702.8,4304.55L11702.1,4304.55L11702.1,4312.55L11699.1,4310.21L11698.6,4310.6L11702.1,4313.31L11702.1,4325.06L11702.5,4326.27L11702.8,4326.27L11702.8,4320.61L11706.9,4317.49L11706.4,4317.11L11702.8,4319.85L11702.8,4304.55ZM11337.3,4299.63L11336.4,4299.63L11336.4,4318L11332.2,4314.72L11331.6,4315.17L11336.4,4318.92L11336.4,4325.71L11337.3,4325.71L11337.3,4310.15L11341.5,4306.89L11340.9,4306.43L11337.3,4309.23L11337.3,4299.63ZM13192.3,4299.63L13191.5,4299.63L13191.5,4318L13187.2,4314.72L13186.6,4315.17L13191.5,4318.92L13191.5,4325.71L13192.3,4325.71L13192.3,4310.15L13196.6,4306.89L13196,4306.43L13192.3,4309.23L13192.3,4299.63ZM11416.1,4297.09L11415.2,4297.09L11415.2,4317.05L11410.6,4313.48L11410,4313.98L11415.2,4318.05L11415.2,4325.43L11416.1,4325.43L11416.1,4308.52L11420.7,4304.98L11420.1,4304.48L11416.1,4307.52L11416.1,4297.09ZM13271.2,4297.09L13270.3,4297.09L13270.3,4317.05L13265.7,4313.48L13265,4313.98L13270.3,4318.05L13270.3,4325.43L13271.2,4325.43L13271.2,4308.52L13275.8,4304.98L13275.2,4304.48L13271.2,4307.52L13271.2,4297.09ZM9770.51,4297.09L9769.59,4297.09L9769.59,4307.52L9765.64,4304.48L9765,4304.98L9769.59,4308.52L9769.59,4325.43L9770.51,4325.43L9770.51,4318.05L9775.79,4313.98L9775.14,4313.48L9770.51,4317.05L9770.51,4297.09ZM11625.6,4297.09L11624.7,4297.09L11624.7,4307.52L11620.7,4304.48L11620.1,4304.98L11624.7,4308.52L11624.7,4325.43L11625.6,4325.43L11625.6,4318.05L11630.9,4313.98L11630.2,4313.48L11625.6,4317.05L11625.6,4297.09ZM13123.1,4325.08L13123.1,4306.53L13128.2,4302.64L13127.5,4302.09L13123.1,4305.43L13123.1,4293.98L13122.1,4293.98L13122.1,4315.89L13117.1,4311.97L13116.4,4312.51L13122.1,4316.98L13122.1,4325.08L13123.1,4325.08ZM11268.1,4293.98L11267,4293.98L11267,4315.89L11262,4311.97L11261.3,4312.51L11267,4316.98L11267,4325.08L11268.1,4325.08L11268.1,4306.53L11273.1,4302.64L11272.4,4302.09L11268.1,4305.43L11268.1,4293.98ZM11781.1,4294.43L11780.1,4294.43L11780.1,4305.73L11775.8,4302.44L11775.1,4302.98L11780.1,4306.82L11780.1,4324.07L11781.1,4320.73L11781.1,4317.13L11782.5,4316.07L11782.9,4314.66L11781.1,4316.05L11781.1,4294.43ZM9926,4294.43L9925.01,4294.43L9925.01,4305.73L9920.73,4302.44L9920.03,4302.98L9925.01,4306.82L9925.01,4324.07L9926,4320.73L9926,4317.13L9927.39,4316.07L9927.8,4314.66L9926,4316.05L9926,4294.43ZM11361,4282.61L11359.7,4282.61L11359.7,4311.62L11353,4306.44L11352,4307.16L11359.7,4313.07L11359.7,4323.8L11361,4323.8L11361,4299.23L11367.7,4294.08L11366.8,4293.36L11361,4297.78L11361,4282.61ZM13216.1,4323.8L13216.1,4299.23L13222.8,4294.08L13221.9,4293.36L13216.1,4297.78L13216.1,4282.61L13214.8,4282.61L13214.8,4311.62L13208.1,4306.44L13207.1,4307.16L13214.8,4313.07L13214.8,4323.8L13216.1,4323.8ZM9826.02,4282.61L9824.69,4282.61L9824.69,4297.78L9818.95,4293.36L9818.01,4294.08L9824.69,4299.23L9824.69,4323.8L9826.02,4323.8L9826.02,4313.07L9833.69,4307.16L9832.75,4306.44L9826.02,4311.62L9826.02,4282.61ZM11681.1,4323.8L11681.1,4313.07L11688.8,4307.16L11687.8,4306.44L11681.1,4311.62L11681.1,4282.61L11679.8,4282.61L11679.8,4297.78L11674,4293.36L11673.1,4294.08L11679.8,4299.23L11679.8,4323.8L11681.1,4323.8ZM11429.6,4305.53L11428.9,4305.53L11428.9,4320.21L11428.8,4320.09L11429.6,4322.89L11429.6,4313.94L11433,4311.34L11432.5,4310.97L11429.6,4313.21L11429.6,4305.53ZM13284.7,4322.89L13284.7,4313.94L13288.1,4311.34L13287.6,4310.97L13284.7,4313.21L13284.7,4305.53L13284,4305.53L13284,4320.21L13283.8,4320.09L13284.7,4322.89ZM11188.3,4266.94L11186.5,4266.94L11186.5,4305.75L11179.6,4300.43L11180.4,4302.94L11186.5,4307.69L11186.5,4322.04L11188.3,4322.04L11188.3,4289.17L11197.3,4282.28L11196,4281.31L11188.3,4287.23L11188.3,4266.94ZM13043.4,4266.94L13041.6,4266.94L13041.6,4305.75L13034.7,4300.43L13035.5,4302.94L13041.6,4307.69L13041.6,4322.04L13043.4,4322.04L13043.4,4289.17L13052.4,4282.28L13051.1,4281.31L13043.4,4287.23L13043.4,4266.94ZM9999.19,4266.94L9997.41,4266.94L9997.41,4287.23L9989.73,4281.31L9988.47,4282.28L9997.41,4289.17L9997.41,4322.04L9999.19,4322.04L9999.19,4307.69L10005.4,4302.94L10006.1,4300.43L9999.19,4305.75L9999.19,4266.94ZM11854.3,4266.94L11852.5,4266.94L11852.5,4287.23L11844.8,4281.31L11843.6,4282.28L11852.5,4289.17L11852.5,4322.04L11854.3,4322.04L11854.3,4307.69L11860.4,4302.94L11861.2,4300.43L11854.3,4305.75L11854.3,4266.94ZM11813.6,4321.27L11813.6,4305.33L11825,4296.54L11823.6,4295.46L11813.6,4303.17L11813.6,4260.06L11811.6,4260.06L11811.6,4282.6L11803.1,4276.02L11801.7,4277.1L11811.6,4284.76L11811.6,4321.27L11813.6,4321.27ZM9958.47,4260.06L9956.5,4260.06L9956.5,4282.6L9947.96,4276.02L9946.57,4277.1L9956.5,4284.76L9956.5,4321.27L9958.47,4321.27L9958.47,4305.33L9969.87,4296.54L9968.47,4295.46L9958.47,4303.17L9958.47,4260.06ZM13084.3,4321.27L13084.3,4284.76L13094.3,4277.1L13092.9,4276.02L13084.3,4282.6L13084.3,4260.06L13082.4,4260.06L13082.4,4303.17L13072.4,4295.47L13071,4296.54L13082.4,4305.33L13082.4,4321.27L13084.3,4321.27ZM11229.2,4260.06L11227.3,4260.06L11227.3,4303.17L11217.3,4295.47L11215.9,4296.54L11227.3,4305.33L11227.3,4321.27L11229.2,4321.27L11229.2,4284.76L11239.2,4277.1L11237.8,4276.02L11229.2,4282.6L11229.2,4260.06ZM13003.9,4319.78L13003.9,4276.25L13015.8,4267.12L13014.1,4265.84L13003.9,4273.68L13003.9,4246.8L13001.6,4246.8L13001.6,4298.21L12989.6,4289.01L12988,4290.3L13001.6,4300.77L13001.6,4319.78L13003.9,4319.78ZM11148.8,4246.8L11146.5,4246.8L11146.5,4298.21L11134.6,4289.01L11132.9,4290.3L11146.5,4300.77L11146.5,4319.78L11148.8,4319.78L11148.8,4276.25L11160.7,4267.12L11159,4265.84L11148.8,4273.68L11148.8,4246.8ZM10039.3,4246.8L10036.9,4246.8L10036.9,4273.68L10026.7,4265.84L10025.1,4267.12L10036.9,4276.25L10036.9,4319.78L10039.3,4319.78L10039.3,4300.77L10052.8,4290.3L10051.2,4289.01L10039.3,4298.21L10039.3,4246.8ZM11894.4,4319.78L11894.4,4300.77L11907.9,4290.3L11906.3,4289.01L11894.4,4298.21L11894.4,4246.8L11892,4246.8L11892,4273.68L11881.8,4265.84L11880.2,4267.12L11892,4276.25L11892,4319.78L11894.4,4319.78ZM11444.6,4318.52L11444.7,4318.89L11445.7,4318.15L11445.4,4317.93L11444.6,4318.52ZM13299.7,4318.52L13299.8,4318.89L13300.8,4318.15L13300.5,4317.93L13299.7,4318.52ZM12882.4,4318.3L12882.4,4267.8L12896.1,4257.21L12894.2,4255.72L12882.4,4264.82L12882.4,4233.64L12879.7,4233.64L12879.7,4293.27L12873,4288.12L12874.1,4291.99L12879.7,4296.25L12879.7,4310.63L12881.9,4318.3L12882.4,4318.3ZM11027.3,4233.64L11024.6,4233.64L11024.6,4293.27L11017.9,4288.12L11019,4291.99L11024.6,4296.25L11024.6,4310.63L11026.8,4318.3L11027.3,4318.3L11027.3,4267.8L11041,4257.21L11039.1,4255.72L11027.3,4264.82L11027.3,4233.64ZM12022.9,4288.12L12016.3,4293.27L12016.3,4233.64L12013.5,4233.64L12013.5,4264.82L12001.7,4255.72L11999.8,4257.21L12013.5,4267.8L12013.5,4318.3L12014,4318.3L12016.3,4310.63L12016.3,4296.25L12021.8,4291.99L12022.9,4288.12ZM10161.2,4233.64L10158.4,4233.64L10158.4,4264.82L10146.6,4255.72L10144.7,4257.21L10158.4,4267.8L10158.4,4318.3L10158.9,4318.3L10161.2,4310.63L10161.2,4296.25L10166.7,4291.99L10167.9,4288.12L10161.2,4293.27L10161.2,4233.64ZM12937.1,4316.9L12937.1,4259.81L12952.6,4247.83L12950.5,4246.15L12937.1,4256.44L12937.1,4221.19L12934,4221.19L12934,4288.61L12918.4,4276.55L12916.2,4278.24L12934,4291.98L12934,4316.9L12937.1,4316.9ZM11082,4221.19L11078.9,4221.19L11078.9,4288.61L11063.3,4276.55L11061.1,4278.24L11078.9,4291.98L11078.9,4316.9L11082,4316.9L11082,4259.81L11097.6,4247.83L11095.4,4246.15L11082,4256.44L11082,4221.19ZM11961.9,4221.19L11958.8,4221.19L11958.8,4256.44L11945.5,4246.15L11943.3,4247.84L11958.8,4259.81L11958.8,4316.9L11961.9,4316.9L11961.9,4291.98L11979.7,4278.24L11977.5,4276.55L11961.9,4288.61L11961.9,4221.19ZM10106.8,4221.19L10103.7,4221.19L10103.7,4256.44L10090.4,4246.15L10088.2,4247.84L10103.7,4259.81L10103.7,4316.9L10106.8,4316.9L10106.8,4291.98L10124.6,4278.24L10122.4,4276.55L10106.8,4288.61L10106.8,4221.19ZM11440.2,4314.32L11440.2,4315.63L11440.6,4314.32L11440.2,4314.32ZM13295.3,4314.32L13295.3,4315.63L13295.7,4314.32L13295.3,4314.32ZM13298.5,4314.59L13298.7,4315.12L13298.7,4314.59L13298.5,4314.59ZM11443.4,4314.59L11443.6,4315.12L11443.6,4314.59L11443.4,4314.59ZM10726.2,4233.64L10723.4,4233.64L10723.4,4293.27L10714,4286L10715.1,4289.86L10723.4,4296.25L10723.4,4313.05L10726.2,4303.84L10726.2,4267.8L10739.9,4257.21L10738,4255.72L10726.2,4264.82L10726.2,4233.64ZM12581.3,4233.64L12578.5,4233.64L12578.5,4293.27L12569.1,4286L12570.2,4289.86L12578.5,4296.25L12578.5,4313.05L12581.3,4303.84L12581.3,4267.8L12595,4257.21L12593.1,4255.72L12581.3,4264.82L12581.3,4233.64ZM9892.17,4275.02L9890.62,4275.02L9890.62,4292.67L9885.69,4288.87L9886.34,4291.06L9890.62,4294.36L9890.62,4305.49L9892.17,4310.7L9892.17,4310.47L9901.09,4303.59L9900,4302.74L9892.17,4308.78L9892.17,4275.02ZM11747.3,4275.02L11745.7,4275.02L11745.7,4292.67L11740.8,4288.87L11741.4,4291.06L11745.7,4294.36L11745.7,4305.49L11747.3,4310.7L11747.3,4310.47L11756.2,4303.59L11755.1,4302.74L11747.3,4308.78L11747.3,4275.02ZM11295.1,4275.02L11293.6,4275.02L11293.6,4308.78L11285.7,4302.74L11284.6,4303.59L11293.6,4310.47L11293.6,4310.7L11295.1,4305.49L11295.1,4294.36L11299.4,4291.06L11300,4288.87L11295.1,4292.67L11295.1,4275.02ZM13150.2,4275.02L13148.7,4275.02L13148.7,4308.78L13140.8,4302.74L13139.7,4303.59L13148.7,4310.47L13148.7,4310.7L13150.2,4305.49L13150.2,4294.36L13154.5,4291.06L13155.1,4288.87L13150.2,4292.67L13150.2,4275.02ZM11377.5,4299.31L11376.7,4299.31L11376.7,4306.99L11377.6,4309.93L11381.8,4306.65L11381.2,4306.19L11377.5,4309.02L11377.5,4299.31ZM13232.6,4299.31L13231.8,4299.31L13231.8,4306.99L13232.6,4309.93L13236.9,4306.65L13236.3,4306.19L13232.6,4309.02L13232.6,4299.31ZM11664.2,4306.99L11664.2,4299.31L11663.3,4299.31L11663.3,4309.02L11659.6,4306.19L11659,4306.65L11663.3,4309.93L11664.2,4306.99ZM9809.06,4299.31L9808.21,4299.31L9808.21,4309.02L9804.53,4306.19L9803.93,4306.65L9808.19,4309.93L9809.06,4306.99L9809.06,4299.31ZM12082.4,4187.67L12078.4,4187.67L12078.4,4233.88L12060.9,4220.39L12058,4222.6L12078.4,4238.29L12078.4,4307.53L12082.4,4293.88L12082.4,4280.47L12087.6,4276.48L12089.3,4270.75L12082.4,4276.05L12082.4,4187.67ZM10227.3,4187.67L10223.3,4187.67L10223.3,4233.88L10205.8,4220.39L10202.9,4222.6L10223.3,4238.29L10223.3,4307.53L10227.3,4293.88L10227.3,4280.47L10232.5,4276.48L10234.2,4270.75L10227.3,4276.05L10227.3,4187.67ZM12817.6,4187.67L12813.5,4187.67L12813.5,4276.05L12806.6,4270.75L12808.3,4276.48L12813.5,4280.47L12813.5,4293.88L12817.6,4307.53L12817.6,4238.29L12837.9,4222.6L12835.1,4220.39L12817.6,4233.88L12817.6,4187.67ZM10962.5,4187.67L10958.4,4187.67L10958.4,4276.05L10951.6,4270.75L10953.3,4276.48L10958.4,4280.47L10958.4,4293.88L10962.5,4307.53L10962.5,4238.29L10982.8,4222.6L10980,4220.39L10962.5,4233.88L10962.5,4187.67ZM12169.5,4307.39L12169.5,4262.9L12201.3,4238.37L12197.4,4235.36L12169.5,4256.89L12169.5,4136.54L12164,4136.54L12164,4199.46L12140.1,4181.1L12136.2,4184.11L12164,4205.48L12164,4307.39L12169.5,4307.39ZM10314.4,4136.54L10308.9,4136.54L10308.9,4199.46L10285.1,4181.1L10281.2,4184.11L10308.9,4205.48L10308.9,4307.39L10314.4,4307.39L10314.4,4262.9L10346.2,4238.37L10342.3,4235.36L10314.4,4256.89L10314.4,4136.54ZM12732,4136.54L12726.4,4136.54L12726.4,4256.89L12698.5,4235.36L12694.6,4238.37L12726.4,4262.9L12726.4,4307.39L12732,4307.39L12732,4205.48L12759.7,4184.11L12755.8,4181.1L12732,4199.46L12732,4136.54ZM10876.9,4136.54L10871.3,4136.54L10871.3,4256.89L10843.4,4235.36L10839.5,4238.37L10871.3,4262.9L10871.3,4307.39L10876.9,4307.39L10876.9,4205.48L10904.6,4184.11L10900.7,4181.1L10876.9,4199.46L10876.9,4136.54ZM10790.3,4187.72L10786.2,4187.72L10786.2,4276.06L10765.7,4260.27L10762.9,4262.48L10786.2,4280.48L10786.2,4305.92L10790.3,4292.28L10790.3,4238.33L10810.6,4222.64L10807.8,4220.43L10790.3,4233.91L10790.3,4187.72ZM12645.4,4292.28L12645.4,4238.33L12665.7,4222.64L12662.8,4220.43L12645.4,4233.91L12645.4,4187.72L12641.3,4187.72L12641.3,4276.06L12620.8,4260.27L12617.9,4262.48L12641.3,4280.48L12641.3,4305.92L12645.4,4292.28ZM10626.7,4119.6L10620.7,4119.6L10620.7,4188.06L10594.8,4168.08L10590.5,4171.35L10620.7,4194.6L10620.7,4305.49L10626.7,4305.49L10626.7,4257.08L10661.3,4230.39L10657.1,4227.12L10626.7,4250.54L10626.7,4119.6ZM12481.8,4119.6L12475.8,4119.6L12475.8,4188.06L12449.8,4168.08L12445.6,4171.35L12475.8,4194.6L12475.8,4305.49L12481.8,4305.49L12481.8,4257.08L12516.4,4230.39L12512.1,4227.12L12481.8,4250.54L12481.8,4119.6ZM10491.9,4083.89L10484.9,4083.89L10484.9,4164.02L10454.6,4140.64L10449.6,4144.47L10484.9,4171.69L10484.9,4301.48L10491.9,4301.48L10491.9,4244.82L10532.5,4213.58L10527.5,4209.75L10491.9,4237.16L10491.9,4083.89ZM12347,4301.48L12347,4244.82L12387.6,4213.58L12382.6,4209.75L12347,4237.16L12347,4083.89L12340,4083.89L12340,4164.02L12309.7,4140.64L12304.7,4144.47L12340,4171.69L12340,4301.48L12347,4301.48ZM11311.7,4282.51L11310.4,4282.51L11310.4,4293.45L11312,4298.93L11318.4,4294L11317.4,4293.27L11311.7,4297.71L11311.7,4282.51ZM13166.8,4282.51L13165.4,4282.51L13165.4,4293.45L13167.1,4298.93L13173.5,4294L13172.5,4293.27L13166.8,4297.71L13166.8,4282.51ZM11728.8,4298.93L11730.5,4293.45L11730.5,4282.51L11729.1,4282.51L11729.1,4297.71L11723.4,4293.27L11722.4,4294L11728.8,4298.93ZM9875.38,4282.51L9874.05,4282.51L9874.05,4297.71L9868.29,4293.27L9867.35,4294L9873.75,4298.93L9875.38,4293.45L9875.38,4282.51ZM10399.5,4187.72L10395.5,4187.72L10395.5,4233.91L10378,4220.43L10375.1,4222.64L10394.8,4237.84L10399.5,4222.06L10399.5,4187.72ZM12254.6,4222.06L12254.6,4187.72L12250.6,4187.72L12250.6,4233.91L12233.1,4220.43L12230.2,4222.64L12249.9,4237.84L12254.6,4222.06Z" style="fill:rgb(11,33,43);"/>
            </g>
            <g transform="matrix(0.823947,0,0,0.916468,-7987.69,-3550.57)">
                <path d="M11520.4,4324.85L11524.2,4311.99L11527.8,4324.14L11529.7,4317.72L11532.1,4325.52L11536.6,4310.29L11540.5,4323.56L11543.5,4313.45L11545.7,4320.67L11550.5,4304.54L11556.5,4324.82L11561.5,4307.93L11564.9,4319.36L11569.7,4303.16L11576.5,4326.01L11586.5,4292.19L11594.5,4319.03L11599.2,4303.16L11603.5,4317.53L11609.4,4297.45L11614.1,4313.2L11625.1,4276.08L11639.1,4323.04L11648.9,4290.08L11654.8,4309.94L11663.7,4279.77L11668,4294.1L11680.5,4252.09L11696.9,4307.35L11702.5,4288.46L11710.7,4316.22L11729.8,4251.91L11736.3,4273.8L11746.5,4239.51L11768.3,4313.03L11780.6,4271.68L11788.1,4297.04L11812.6,4214.7L11834.7,4289.14L11853.4,4226.11L11868.3,4276.4L11893.2,4192.72L11920.5,4284.62L11960.4,4150.25L11990.7,4252.43L12014.9,4170.89L12036.3,4243.06L12080.4,4094.68L12111,4197.69L12166.7,4009.91L12222.3,4196.93L12252.6,4094.76L12272.5,4161.82L12343.5,3922.63L12419.9,4179.99L12478.8,3981.82L12557.4,4246.64L12579.9,4170.89L12600.3,4239.67L12643.3,4094.76L12673.7,4196.93L12729.2,4009.91L12784.9,4197.69L12815.5,4094.68L12859.6,4243.06L12881,4170.89L12905.2,4252.43L12935.6,4150.25L12975.5,4284.62L13002.7,4192.72L13027.6,4276.4L13042.5,4226.11L13061.2,4289.14L13083.3,4214.7L13111.3,4309L13122.6,4270.93L13131.4,4300.33L13149.4,4239.51L13159.6,4273.8L13166.1,4251.91L13183.2,4309.57L13191.9,4280.3L13199.5,4305.83L13215.5,4252.09L13227.9,4294.1L13232.2,4279.77L13241.1,4309.94L13247,4290.08L13256.8,4323.04L13270.8,4276.08L13279.6,4305.92L13284.3,4290.08L13292.1,4316.23L13295.6,4304.61L13297.1,4309.76L13298.5,4305.09L13302,4317.03L13309.4,4292.19L13316.7,4316.88L13322.5,4297.45L13330,4322.79L13334.4,4307.93L13339.4,4324.82L13345.5,4304.54L13350.9,4322.88L13353.6,4313.66L13357.2,4325.64L13362.5,4307.93L13367.7,4325.51L13371.7,4311.99L13376.7,4329.01L13368.7,4329.01L13368.7,4329.01L13349.1,4329.01L13349.1,4329.01L13340.7,4329.01L13340.7,4329.01L13331.9,4329.01L13331.9,4329.01L13320.3,4329.01L13320.3,4329.01L13302.8,4329.01L13302.8,4329.08L13288.3,4329.08L13288.3,4329.01L13286.5,4329.01L13286.5,4329.01L13255.1,4329.01L13255.1,4329.01L13246.8,4329.01L13246.8,4329.01L13238.3,4329.01L13238.3,4329.01L13192.6,4329.01L13192.6,4329.01L13177.5,4329.01L13143.2,4329.01L13143.2,4329.01L13139.9,4329.01L13139.9,4329.01L13117.3,4329.01L13117.3,4329.01L13049.4,4329.01L13049.4,4329.01L13012,4329.01L13012,4329.01L12988.6,4329.01L12988.6,4329.01L12928,4329.01L12928,4329.01L12834.1,4329.01L12834.1,4329.01L12746,4329.01L12746,4329.01L12712.9,4329.01L12712.9,4329.01L12626.8,4329.01L12626.8,4329.01L12532.9,4329.01L12532.9,4329.01L12375.7,4329.01L12375.7,4329.01L12322.1,4329.01L12322.1,4329.01L12150,4329.01L12150,4329.01L12061.8,4329.01L12061.8,4329.01L11968,4329.01L11968,4329.01L11907.3,4329.01L11907.3,4329.01L11883.9,4329.01L11883.9,4329.01L11822.8,4329.01L11822.8,4329.01L11778.6,4329.01C11778.6,4329.01 11763.6,4329.01 11763.6,4329.01L11763.6,4329.01L11752.7,4329.01L11752.7,4329.01L11706.9,4329.01L11706.9,4329.01L11703.3,4329.01L11703.3,4329.01L11660.4,4329.01L11660.4,4329.01L11637.3,4329.01L11637.3,4329.01L11618.8,4329.01L11618.8,4329.01L11600.1,4329.01L11600.1,4329.01L11597.5,4329.01L11575.6,4329.01L11567.8,4329.01L11567.8,4329.01L11555.2,4329.01L11555.2,4329.01L11543.2,4329.01L11543.2,4329.01L11533.1,4329.01C11533.1,4329.01 11526.4,4329.01 11526.4,4329.01L11519.2,4329.01C11519.2,4329.01 11513.6,4329.01 11513.6,4329.01L11513.6,4329.01L11494,4329.01L11494,4329.01L11485.6,4329.01L11485.6,4329.01L11476.8,4329.01L11476.8,4329.01L11465.2,4329.01L11465.2,4329.01L11447.7,4329.01L11447.7,4329.08L11433.2,4329.08L11433.2,4329.01L11431.4,4329.01L11431.4,4329.01L11400,4329.01L11400,4329.01L11391.7,4329.01L11391.7,4329.01L11383.2,4329.01L11383.2,4329.01L11337.5,4329.01L11337.5,4329.01L11322.4,4329.01L11288.1,4329.01L11288.1,4329.01L11284.8,4329.01L11284.8,4329.01L11262.2,4329.01L11262.2,4329.01L11194.3,4329.01L11194.3,4329.01L11156.9,4329.01L11156.9,4329.01L11133.6,4329.01L11133.6,4329.01L11072.9,4329.01L11072.9,4329.01L10979,4329.01L10979,4329.01L10890.9,4329.01L10890.9,4329.01L10857.8,4329.01L10857.8,4329.01L10771.7,4329.01L10771.7,4329.01L10677.8,4329.01L10677.8,4329.01L10520.6,4329.01L10520.6,4329.01L10467,4329.01L10467,4329.01L10294.9,4329.01L10294.9,4329.01L10206.8,4329.01L10206.8,4329.01L10112.9,4329.01L10112.9,4329.01L10052.2,4329.01L10052.2,4329.01L10028.9,4329.01L10028.9,4329.01L9967.75,4329.01L9967.75,4329.01L9923.54,4329.01C9923.54,4329.01 9908.48,4329.01 9908.48,4329.01L9908.48,4329.01L9897.61,4329.01L9897.61,4329.01L9851.82,4329.01L9851.82,4329.01L9848.2,4329.01L9848.2,4329.01L9805.34,4329.01L9805.34,4329.01L9782.22,4329.01L9782.22,4329.01L9763.72,4329.01L9763.72,4329.01L9744.98,4329.01L9744.98,4329.01L9742.37,4329.01L9720.51,4329.01L9712.66,4329.01L9712.66,4329.01L9700.15,4329.01L9700.15,4329.01L9688.1,4329.01L9688.1,4329.01L9678.01,4329.01L9671.3,4329.01L9664.09,4329.01L9669.14,4311.99L9672.75,4324.14L9674.65,4317.72L9676.97,4325.52L9681.49,4310.29L9685.43,4323.56L9688.43,4313.45L9690.58,4320.67L9695.37,4304.54L9701.39,4324.82L9706.41,4307.93L9709.8,4319.36L9714.61,4303.16L9721.4,4326.01L9731.44,4292.19L9739.41,4319.03L9744.12,4303.16L9748.39,4317.53L9754.35,4297.45L9759.03,4313.2L9770.05,4276.08L9783.99,4323.04L9793.78,4290.08L9799.68,4309.94L9808.64,4279.77L9812.89,4294.1L9825.36,4252.09L9841.77,4307.35L9847.38,4288.46L9855.62,4316.22L9874.72,4251.91L9881.22,4273.8L9891.4,4239.51L9913.23,4313.03L9925.51,4271.68L9933.04,4297.04L9957.49,4214.7L9979.59,4289.14L9998.3,4226.11L10013.2,4276.4L10038.1,4192.72L10065.4,4284.62L10105.3,4150.25L10135.6,4252.43L10159.8,4170.89L10181.2,4243.06L10225.3,4094.68L10255.9,4197.69L10311.6,4009.91L10367.2,4196.93L10397.5,4094.76L10417.4,4161.82L10488.4,3922.63L10564.8,4179.99L10623.7,3981.82L10702.3,4246.64L10724.8,4170.89L10745.2,4239.67L10788.2,4094.76L10818.6,4196.93L10874.1,4009.91L10929.9,4197.69L10960.4,4094.68L11004.5,4243.06L11025.9,4170.89L11050.1,4252.43L11080.5,4150.25L11120.4,4284.62L11147.7,4192.72L11172.5,4276.4L11187.4,4226.11L11206.1,4289.14L11228.3,4214.7L11256.2,4309L11267.6,4270.93L11276.3,4300.33L11294.3,4239.51L11304.5,4273.8L11311,4251.91L11328.1,4309.57L11336.8,4280.3L11344.4,4305.83L11360.4,4252.09L11372.8,4294.1L11377.1,4279.77L11386.1,4309.94L11392,4290.08L11401.7,4323.04L11415.7,4276.08L11424.5,4305.92L11429.2,4290.08L11437,4316.23L11440.5,4304.61L11442,4309.76L11443.4,4305.09L11446.9,4317.03L11454.3,4292.19L11461.6,4316.88L11467.4,4297.45L11474.9,4322.79L11479.3,4307.93L11484.3,4324.82L11490.4,4304.54L11495.8,4322.88L11498.5,4313.66L11502.1,4325.64L11507.4,4307.93L11512.6,4325.51L11516.6,4311.99L11520.4,4324.85Z" style="fill:rgb(11,33,43);fill-opacity:0.473902;"/>
            </g>
        </g>
    </g>
</svg>
